<svg preserveAspectRatio="none" width="100%" height="100%" overflow="visible" style="display: block;" viewBox="0 0 16 16" fill="none" xmlns="http://www.w3.org/2000/svg">
<g id="material-symbols:location-on">
<path id="distance" d="M8.00008 15.5834C6.56425 15.5834 5.40668 15.3953 4.52737 15.0192C3.64807 14.6432 3.20841 14.1491 3.20841 13.5369C3.20841 13.3115 3.29418 13.0911 3.46571 12.8759C3.6371 12.6606 3.88091 12.4637 4.19716 12.2852C4.32966 12.2169 4.47203 12.2118 4.62425 12.27C4.77647 12.3282 4.88682 12.4236 4.95529 12.5561C5.02362 12.6886 5.02869 12.8261 4.9705 12.9688C4.9123 13.1114 4.81696 13.2169 4.68446 13.2852C4.57973 13.3312 4.48946 13.3748 4.41362 13.4159C4.33765 13.457 4.29168 13.5016 4.27571 13.5496C4.34404 13.7709 4.76793 13.9846 5.54737 14.1907C6.32668 14.3969 7.14425 14.5 8.00008 14.5C8.85591 14.5 9.67348 14.3969 10.4528 14.1907C11.2322 13.9846 11.6561 13.7709 11.7245 13.5496C11.7085 13.5016 11.6625 13.457 11.5865 13.4159C11.5107 13.3748 11.4204 13.3312 11.3157 13.2852C11.1832 13.2169 11.0879 13.1114 11.0297 12.9688C10.9715 12.8261 10.9765 12.6886 11.0449 12.5561C11.1133 12.4236 11.2237 12.3282 11.3759 12.27C11.5281 12.2118 11.6705 12.2169 11.803 12.2852C12.1192 12.4637 12.3631 12.6606 12.5345 12.8759C12.706 13.0911 12.7917 13.3115 12.7917 13.5369C12.7917 14.1491 12.3521 14.6432 11.4728 15.0192C10.5935 15.3953 9.43591 15.5834 8.00008 15.5834ZM8.02092 11.7292C9.34564 10.7249 10.34 9.70969 11.004 8.68358C11.6681 7.65733 12.0001 6.6592 12.0001 5.6892C12.0001 4.3067 11.5708 3.26288 10.7124 2.55774C9.8539 1.85261 8.9498 1.50004 8.00008 1.50004C7.05564 1.50004 6.15286 1.85261 5.29175 2.55774C4.43064 3.26288 4.00008 4.3067 4.00008 5.6892C4.00008 6.60795 4.33473 7.57483 5.00404 8.58983C5.67335 9.60483 6.67897 10.6513 8.02092 11.7292ZM7.58987 12.6923C7.45307 12.6464 7.32751 12.5732 7.21321 12.4727C5.76987 11.2976 4.693 10.1384 3.98258 8.99524C3.27203 7.85205 2.91675 6.75004 2.91675 5.6892C2.91675 4.83129 3.07008 4.07434 3.37675 3.41837C3.68341 2.7624 4.08189 2.21295 4.57216 1.77004C5.06258 1.32726 5.60883 0.991007 6.21091 0.761285C6.81286 0.531563 7.40925 0.416702 8.00008 0.416702C8.59091 0.416702 9.1873 0.531563 9.78925 0.761285C10.3913 0.991007 10.9376 1.32726 11.428 1.77004C11.9183 2.21295 12.3167 2.7624 12.6234 3.41837C12.9301 4.07434 13.0834 4.83129 13.0834 5.6892C13.0834 6.75004 12.7281 7.85205 12.0176 8.99524C11.3072 10.1384 10.2303 11.2976 8.78696 12.4727C8.67265 12.5732 8.5471 12.6464 8.41029 12.6923C8.27362 12.7383 8.13689 12.7613 8.00008 12.7613C7.86328 12.7613 7.72654 12.7383 7.58987 12.6923ZM8.00008 6.91191C8.37397 6.91191 8.69071 6.78344 8.95029 6.52649C9.21001 6.26955 9.33987 5.95143 9.33987 5.57212C9.33987 5.19823 9.21001 4.88149 8.95029 4.62191C8.69071 4.36219 8.37397 4.23233 8.00008 4.23233C7.63147 4.23233 7.31605 4.36566 7.05383 4.63233C6.79147 4.89885 6.66029 5.21212 6.66029 5.57212C6.66029 5.93754 6.79147 6.25219 7.05383 6.51608C7.31605 6.77997 7.63147 6.91191 8.00008 6.91191Z" fill="var(--fill-0, #D1D1D1)"/>
</g>
</svg>
