<svg preserveAspectRatio="none" width="100%" height="100%" overflow="visible" style="display: block;" viewBox="0 0 16 16" fill="none" xmlns="http://www.w3.org/2000/svg">
<g id="calendar_month">
<path id="calendar_month_2" d="M3.60517 14.3718C3.26839 14.3718 2.98333 14.2552 2.75 14.0218C2.51667 13.7885 2.4 13.5034 2.4 13.1667V4.24365C2.4 3.90688 2.51667 3.62182 2.75 3.38849C2.98333 3.15515 3.26839 3.03849 3.60517 3.03849H4.52817V2.14099C4.52817 1.99488 4.57711 1.87288 4.675 1.77499C4.77289 1.67721 4.89489 1.62832 5.041 1.62832C5.18722 1.62832 5.30922 1.67721 5.407 1.77499C5.50489 1.87288 5.55383 1.99488 5.55383 2.14099V3.03849H10.6052V2.12832C10.6052 1.98643 10.653 1.8676 10.7487 1.77182C10.8444 1.67615 10.9633 1.62832 11.1052 1.62832C11.2471 1.62832 11.3658 1.67615 11.4615 1.77182C11.5573 1.8676 11.6052 1.98643 11.6052 2.12832V3.03849H12.5282C12.8649 3.03849 13.15 3.15515 13.3833 3.38849C13.6167 3.62182 13.7333 3.90688 13.7333 4.24365V13.1667C13.7333 13.5034 13.6167 13.7885 13.3833 14.0218C13.15 14.2552 12.8649 14.3718 12.5282 14.3718H3.60517ZM3.60517 13.3718H12.5282C12.5795 13.3718 12.6265 13.3504 12.6692 13.3077C12.7119 13.265 12.7333 13.218 12.7333 13.1667V6.91032H3.4V13.1667C3.4 13.218 3.42139 13.265 3.46417 13.3077C3.50683 13.3504 3.55383 13.3718 3.60517 13.3718ZM8.06667 9.42315C7.90344 9.42315 7.76433 9.36565 7.64933 9.25065C7.53444 9.13577 7.477 8.99665 7.477 8.83332C7.477 8.6701 7.53444 8.53099 7.64933 8.41599C7.76433 8.3011 7.90344 8.24365 8.06667 8.24365C8.22989 8.24365 8.369 8.3011 8.484 8.41599C8.59889 8.53099 8.65633 8.6701 8.65633 8.83332C8.65633 8.99665 8.59889 9.13577 8.484 9.25065C8.369 9.36565 8.22989 9.42315 8.06667 9.42315ZM5.4 9.42315C5.23678 9.42315 5.09767 9.36565 4.98267 9.25065C4.86778 9.13577 4.81033 8.99665 4.81033 8.83332C4.81033 8.6701 4.86778 8.53099 4.98267 8.41599C5.09767 8.3011 5.23678 8.24365 5.4 8.24365C5.56322 8.24365 5.70233 8.3011 5.81733 8.41599C5.93222 8.53099 5.98967 8.6701 5.98967 8.83332C5.98967 8.99665 5.93222 9.13577 5.81733 9.25065C5.70233 9.36565 5.56322 9.42315 5.4 9.42315ZM10.7333 9.42315C10.5701 9.42315 10.431 9.36565 10.316 9.25065C10.2011 9.13577 10.1437 8.99665 10.1437 8.83332C10.1437 8.6701 10.2011 8.53099 10.316 8.41599C10.431 8.3011 10.5701 8.24365 10.7333 8.24365C10.8966 8.24365 11.0357 8.3011 11.1507 8.41599C11.2656 8.53099 11.323 8.6701 11.323 8.83332C11.323 8.99665 11.2656 9.13577 11.1507 9.25065C11.0357 9.36565 10.8966 9.42315 10.7333 9.42315ZM8.06667 12.0385C7.90344 12.0385 7.76433 11.981 7.64933 11.866C7.53444 11.7511 7.477 11.612 7.477 11.4488C7.477 11.2855 7.53444 11.1464 7.64933 11.0315C7.76433 10.9165 7.90344 10.859 8.06667 10.859C8.22989 10.859 8.369 10.9165 8.484 11.0315C8.59889 11.1464 8.65633 11.2855 8.65633 11.4488C8.65633 11.612 8.59889 11.7511 8.484 11.866C8.369 11.981 8.22989 12.0385 8.06667 12.0385ZM5.4 12.0385C5.23678 12.0385 5.09767 11.981 4.98267 11.866C4.86778 11.7511 4.81033 11.612 4.81033 11.4488C4.81033 11.2855 4.86778 11.1464 4.98267 11.0315C5.09767 10.9165 5.23678 10.859 5.4 10.859C5.56322 10.859 5.70233 10.9165 5.81733 11.0315C5.93222 11.1464 5.98967 11.2855 5.98967 11.4488C5.98967 11.612 5.93222 11.7511 5.81733 11.866C5.70233 11.981 5.56322 12.0385 5.4 12.0385ZM10.7333 12.0385C10.5701 12.0385 10.431 11.981 10.316 11.866C10.2011 11.7511 10.1437 11.612 10.1437 11.4488C10.1437 11.2855 10.2011 11.1464 10.316 11.0315C10.431 10.9165 10.5701 10.859 10.7333 10.859C10.8966 10.859 11.0357 10.9165 11.1507 11.0315C11.2656 11.1464 11.323 11.2855 11.323 11.4488C11.323 11.612 11.2656 11.7511 11.1507 11.866C11.0357 11.981 10.8966 12.0385 10.7333 12.0385Z" fill="var(--fill-0, #ABABAB)"/>
</g>
</svg>
