<svg preserveAspectRatio="none" width="100%" height="100%" overflow="visible" style="display: block;" viewBox="0 0 16 16" fill="none" xmlns="http://www.w3.org/2000/svg">
<g id="carry_on_bag">
<mask id="mask0_0_69" style="mask-type:alpha" maskUnits="userSpaceOnUse" x="0" y="0" width="16" height="16">
<rect id="Bounding box" width="16" height="16" fill="var(--fill-0, #D9D9D9)"/>
</mask>
<g mask="url(#mask0_0_69)">
<path id="carry_on_bag_2" d="M10.3333 11.359C10.8376 11.359 11.2649 11.5347 11.6153 11.8862C11.9658 12.2377 12.141 12.6646 12.141 13.1667C12.141 13.6688 11.9652 14.0956 11.6137 14.4472C11.2622 14.7986 10.8354 14.9743 10.3333 14.9743C9.92822 14.9743 9.56794 14.8532 9.2525 14.6108C8.93717 14.3685 8.72094 14.0538 8.60383 13.6667H5.5385C5.20706 13.6667 4.92333 13.5487 4.68733 13.3127C4.45133 13.0767 4.33333 12.7929 4.33333 12.4615V6.20517C4.33333 5.87372 4.45133 5.59 4.68733 5.354C4.92333 5.118 5.20706 5 5.5385 5H9.33333V2.66667H8.62817C8.4865 2.66667 8.36778 2.61872 8.272 2.52283C8.17611 2.42694 8.12817 2.30817 8.12817 2.1665C8.12817 2.02472 8.17611 1.906 8.272 1.81033C8.36778 1.71456 8.4865 1.66667 8.62817 1.66667H9.73067C9.90144 1.66667 10.0446 1.72444 10.16 1.84C10.2756 1.95544 10.3333 2.09856 10.3333 2.26933V11.359ZM6.16667 12.6667V6H5.5385C5.47861 6 5.42944 6.01922 5.391 6.05767C5.35256 6.09611 5.33333 6.14528 5.33333 6.20517V12.4615C5.33333 12.5214 5.35256 12.5706 5.391 12.609C5.42944 12.6474 5.47861 12.6667 5.5385 12.6667H6.16667ZM7.16667 6V12.6667H8.61017C8.64617 12.453 8.73017 12.2628 8.86217 12.0962C8.99417 11.9295 9.15122 11.797 9.33333 11.6987V6H7.16667ZM11.0513 13.8838C11.2479 13.6867 11.3462 13.4474 11.3462 13.1658C11.3462 12.8843 11.2476 12.6452 11.0505 12.4487C10.8534 12.2521 10.6141 12.1538 10.3325 12.1538C10.0509 12.1538 9.81189 12.2524 9.61533 12.4495C9.41878 12.6466 9.3205 12.8859 9.3205 13.1673C9.3205 13.4489 9.41905 13.688 9.61617 13.8847C9.81317 14.0812 10.0524 14.1795 10.334 14.1795C10.6156 14.1795 10.8547 14.0809 11.0513 13.8838Z" fill="var(--fill-0, #3D3D3D)"/>
</g>
</g>
</svg>
