<svg preserveAspectRatio="none" width="100%" height="100%" overflow="visible" style="display: block;" viewBox="0 0 23.0001 16" fill="none" xmlns="http://www.w3.org/2000/svg">
<g id="passport">
<path id="passport_2" d="M6.39753 11.8975H10.2692C10.3838 11.8975 10.4786 11.8599 10.5539 11.7847C10.6291 11.7094 10.6667 11.6146 10.6667 11.5C10.6667 11.3854 10.6291 11.2906 10.5539 11.2153C10.4786 11.1401 10.3838 11.1025 10.2692 11.1025H6.39753C6.28297 11.1025 6.18808 11.1401 6.11286 11.2153C6.03764 11.2906 6.00003 11.3854 6.00003 11.5C6.00003 11.6146 6.03764 11.7094 6.11286 11.7847C6.18808 11.8599 6.28297 11.8975 6.39753 11.8975ZM8.33336 9.84617C9.20858 9.84617 9.95625 9.53611 10.5764 8.916C11.1964 8.29589 11.5064 7.54611 11.5064 6.66667C11.5064 5.79144 11.1964 5.04378 10.5764 4.42367C9.95625 3.80367 9.20858 3.49367 8.33336 3.49367C7.45392 3.49367 6.70414 3.80367 6.08403 4.42367C5.46392 5.04378 5.15386 5.79144 5.15386 6.66667C5.15386 7.54611 5.46392 8.29589 6.08403 8.916C6.70414 9.53611 7.45392 9.84617 8.33336 9.84617ZM8.33336 8.95383C8.19747 8.75895 8.07525 8.50383 7.9667 8.1885C7.85814 7.87306 7.78931 7.49828 7.76019 7.06417H8.90003C8.87103 7.49828 8.80225 7.87306 8.69369 8.1885C8.58514 8.50383 8.46503 8.75895 8.33336 8.95383ZM7.35769 8.8205C7.00558 8.66672 6.70731 8.43639 6.46286 8.1295C6.21842 7.82261 6.06069 7.4675 5.98969 7.06417H6.96536C6.98336 7.36328 7.02314 7.65922 7.08469 7.952C7.14625 8.24467 7.23725 8.53417 7.35769 8.8205ZM9.26403 8.8205C9.38892 8.54706 9.48636 8.26289 9.55636 7.968C9.62647 7.67311 9.67264 7.37183 9.69486 7.06417H10.6705C10.5953 7.4675 10.4323 7.82261 10.1814 8.1295C9.93058 8.43639 9.62481 8.66672 9.26403 8.8205ZM5.98969 6.26917C6.06492 5.85295 6.23014 5.48928 6.48536 5.17817C6.74047 4.86706 7.04625 4.641 7.40269 4.5C7.27358 4.74789 7.17397 5.02033 7.10386 5.31733C7.03375 5.61433 6.98758 5.93161 6.96536 6.26917H5.98969ZM7.76019 6.26917C7.78931 5.8265 7.85814 5.44639 7.9667 5.12883C8.07525 4.81128 8.19747 4.55722 8.33336 4.36667C8.46503 4.55722 8.58514 4.81128 8.69369 5.12883C8.80225 5.44639 8.87103 5.8265 8.90003 6.26917H7.76019ZM9.69486 6.26917C9.67697 5.94439 9.63297 5.6335 9.56286 5.3365C9.49275 5.0395 9.39103 4.76067 9.2577 4.5C9.62692 4.641 9.93908 4.86811 10.1942 5.18133C10.4494 5.49467 10.6082 5.85728 10.6705 6.26917H9.69486ZM3.93603 14C3.76414 14 3.62075 13.9425 3.50586 13.8275C3.39086 13.7126 3.33336 13.5692 3.33336 13.3973V1.936C3.33336 1.76411 3.39086 1.62072 3.50586 1.50583C3.62075 1.39083 3.76414 1.33333 3.93603 1.33333H12.1282C12.4606 1.33333 12.7446 1.45106 12.9802 1.6865C13.2156 1.92206 13.3334 2.20606 13.3334 2.5385V12.7948C13.3334 13.1273 13.2156 13.4113 12.9802 13.6468C12.7446 13.8823 12.4606 14 12.1282 14H3.93603ZM4.33336 13H12.1282C12.1795 13 12.2265 12.9786 12.2692 12.9358C12.312 12.8932 12.3334 12.8462 12.3334 12.7948V2.5385C12.3334 2.48717 12.312 2.44017 12.2692 2.3975C12.2265 2.35472 12.1795 2.33333 12.1282 2.33333H4.33336V13Z" fill="var(--fill-0, #CBB574)"/>
<path id="id_card" d="M17.9103 8.07851C18.0522 8.07851 18.171 8.03803 18.2668 7.95705C18.3624 7.87617 18.4103 7.77576 18.4103 7.6558C18.4103 7.53585 18.3624 7.43543 18.2668 7.35455C18.171 7.27358 18.0522 7.23309 17.9103 7.23309H15.8847C15.7428 7.23309 15.624 7.27358 15.5282 7.35455C15.4326 7.43543 15.3847 7.53585 15.3847 7.6558C15.3847 7.77576 15.4326 7.87617 15.5282 7.95705C15.624 8.03803 15.7428 8.07851 15.8847 8.07851H17.9103ZM17.9103 6.45276C18.0522 6.45276 18.171 6.41228 18.2668 6.3313C18.3624 6.25042 18.4103 6.15001 18.4103 6.03005C18.4103 5.9101 18.3624 5.80963 18.2668 5.72866C18.171 5.64778 18.0522 5.60734 17.9103 5.60734H15.8847C15.7428 5.60734 15.624 5.64778 15.5282 5.72866C15.4326 5.80963 15.3847 5.9101 15.3847 6.03005C15.3847 6.15001 15.4326 6.25042 15.5282 6.3313C15.624 6.41228 15.7428 6.45276 15.8847 6.45276H17.9103ZM13.359 8.31692V9.72596H15.2872C15.4189 9.72596 15.5293 9.69055 15.6185 9.61972C15.7079 9.54898 15.7525 9.46158 15.7525 9.3575C15.7525 9.23031 15.701 9.10692 15.598 8.98734C15.495 8.86776 15.3397 8.75307 15.132 8.64326C14.909 8.52978 14.6535 8.44702 14.3653 8.39498C14.0773 8.34294 13.359 8.31692 13.359 8.31692ZM14.1852 7.29213C14.4122 7.10031 14.5257 6.86749 14.5257 6.59367C14.5257 6.31975 14.4122 6.08688 14.1852 5.89507C13.9583 5.70325 13.359 5.60734 13.359 5.60734V7.58C13.359 7.58 13.9583 7.48404 14.1852 7.29213ZM13.3334 3.43953H18.4616C18.7984 3.43953 19.0835 3.53817 19.3168 3.73543C19.5501 3.9327 19.6668 4.17369 19.6668 4.45841V10.8749C19.6668 11.1596 19.5501 11.4006 19.3168 11.5979C19.0835 11.7951 18.7984 11.8938 18.4616 11.8938H13.3334V3.43953ZM13.3334 11.8938V11.0483H18.4616C18.513 11.0483 18.56 11.0303 18.6026 10.9941C18.6454 10.958 18.6668 10.9183 18.6668 10.8749V4.45841C18.6668 4.41501 18.6454 4.37528 18.6026 4.33921C18.56 4.30304 18.513 4.28496 18.4616 4.28496H13.3334V3.43953V11.8938Z" fill="var(--fill-0, #CBB574)"/>
</g>
</svg>
