<svg preserveAspectRatio="none" width="100%" height="100%" overflow="visible" style="display: block;" viewBox="0 0 16 16" fill="none" xmlns="http://www.w3.org/2000/svg">
<g id="your_trips">
<mask id="mask0_0_28" style="mask-type:alpha" maskUnits="userSpaceOnUse" x="0" y="0" width="16" height="16">
<rect id="Bounding box" width="16" height="16" fill="var(--fill-0, #D9D9D9)"/>
</mask>
<g mask="url(#mask0_0_28)">
<path id="your_trips_2" d="M6.00019 11.8334H10.0002C10.1421 11.8334 10.2609 11.7856 10.3565 11.6898C10.4523 11.5941 10.5002 11.4753 10.5002 11.3334C10.5002 11.1916 10.4523 11.0728 10.3565 10.9771C10.2609 10.8813 10.1421 10.8334 10.0002 10.8334H6.00019C5.8583 10.8334 5.73952 10.8813 5.64385 10.9771C5.54807 11.0728 5.50019 11.1916 5.50019 11.3334C5.50019 11.4753 5.54807 11.5941 5.64385 11.6898C5.73952 11.7856 5.8583 11.8334 6.00019 11.8334ZM4.87202 14.3334C4.53524 14.3334 4.25019 14.2168 4.01685 13.9834C3.78352 13.7501 3.66685 13.4651 3.66685 13.1283V8.00011C3.66685 7.09844 3.91085 6.29566 4.39885 5.59177C4.88696 4.88788 5.51474 4.37188 6.28219 4.04377V3.66677C6.28219 3.18822 6.44885 2.78227 6.78219 2.44894C7.11552 2.11561 7.52152 1.94894 8.00019 1.94894C8.47885 1.94894 8.88485 2.11561 9.21819 2.44894C9.55152 2.78227 9.71819 3.18822 9.71819 3.66677V4.04377C10.4856 4.37188 11.1134 4.88788 11.6015 5.59177C12.0895 6.29566 12.3335 7.09844 12.3335 8.00011V13.1283C12.3335 13.4651 12.2169 13.7501 11.9835 13.9834C11.7502 14.2168 11.4651 14.3334 11.1284 14.3334H4.87202ZM7.28219 3.74627C7.40874 3.71983 7.52841 3.69994 7.64119 3.68661C7.75407 3.67338 7.87374 3.66677 8.00019 3.66677C8.12663 3.66677 8.2463 3.67338 8.35919 3.68661C8.47196 3.69994 8.59163 3.71983 8.71819 3.74627V3.66677C8.71819 3.46511 8.64896 3.29505 8.51052 3.15661C8.37196 3.01805 8.20185 2.94877 8.00019 2.94877C7.79852 2.94877 7.62841 3.01805 7.48985 3.15661C7.35141 3.29505 7.28219 3.46511 7.28219 3.66677V3.74627ZM8.00019 8.65011L8.76552 9.22827C8.82796 9.27527 8.88824 9.27699 8.94635 9.23344C9.00446 9.18988 9.02241 9.1335 9.00019 9.06427L8.70919 8.11161L9.46819 7.56677C9.53052 7.51977 9.55058 7.46338 9.52835 7.39761C9.50613 7.33172 9.45702 7.29877 9.38102 7.29877H8.44502L8.14769 6.29244C8.12546 6.22322 8.0763 6.18861 8.00019 6.18861C7.92408 6.18861 7.87491 6.22322 7.85269 6.29244L7.55535 7.29877H6.61935C6.54335 7.29877 6.49424 7.33172 6.47202 7.39761C6.4498 7.46338 6.46985 7.51977 6.53219 7.56677L7.29119 8.11161L7.00019 9.06427C6.97796 9.1335 6.99591 9.18988 7.05402 9.23344C7.11213 9.27699 7.17241 9.27527 7.23485 9.22827L8.00019 8.65011Z" fill="var(--fill-0, #1B0052)"/>
</g>
</g>
</svg>
