<svg preserveAspectRatio="none" width="100%" height="100%" overflow="visible" style="display: block;" viewBox="0 0 24 24" fill="none" xmlns="http://www.w3.org/2000/svg">
<g id="lets-icons:arrow-drop-down">
<rect width="24" height="24" rx="12" fill="var(--fill-0, #F2F2F2)"/>
<path id="Vector" d="M11.808 14.77L8.093 10.312C7.99568 10.1952 7.93368 10.053 7.91425 9.90218C7.89483 9.75137 7.91879 9.59814 7.98333 9.46045C8.04787 9.32277 8.15032 9.20633 8.27866 9.12478C8.40701 9.04323 8.55594 8.99994 8.708 9H15.292C15.444 9.00013 15.5928 9.04355 15.721 9.12518C15.8492 9.2068 15.9515 9.32326 16.0159 9.46091C16.0803 9.59855 16.1042 9.75171 16.0847 9.90243C16.0653 10.0532 16.0033 10.1952 15.906 10.312L12.192 14.77C12.1685 14.7981 12.1392 14.8208 12.106 14.8363C12.0728 14.8518 12.0366 14.8599 12 14.8599C11.9634 14.8599 11.9272 14.8518 11.894 14.8363C11.8608 14.8208 11.8315 14.7981 11.808 14.77Z" fill="var(--fill-0, #ABABAB)"/>
</g>
</svg>
