<svg preserveAspectRatio="none" width="100%" height="100%" overflow="visible" style="display: block;" viewBox="0 0 8.1836 5.85989" fill="none" xmlns="http://www.w3.org/2000/svg">
<path id="Vector" d="M3.9003 5.77L0.185301 1.312C0.0879811 1.19516 0.0259765 1.053 0.0065534 0.902185C-0.0128697 0.751368 0.0110928 0.598139 0.0756333 0.460453C0.140174 0.322767 0.242619 0.206326 0.370964 0.124776C0.49931 0.0432255 0.648238 -5.69899e-05 0.800301 5.63173e-08H7.3843C7.53628 0.000132974 7.68507 0.0435533 7.81327 0.125178C7.94147 0.206803 8.04376 0.323256 8.10818 0.460905C8.1726 0.598555 8.19647 0.751706 8.17702 0.902433C8.15756 1.05316 8.09557 1.19522 7.9983 1.312L4.2843 5.77C4.26084 5.79814 4.23148 5.82077 4.1983 5.8363C4.16512 5.85184 4.12893 5.85989 4.0923 5.85989C4.05567 5.85989 4.01948 5.85184 3.9863 5.8363C3.95312 5.82077 3.92376 5.79814 3.9003 5.77Z" fill="var(--fill-0, #ABABAB)"/>
</svg>
