<svg preserveAspectRatio="none" width="100%" height="100%" overflow="visible" style="display: block;" viewBox="0 0 11.2 11.2" fill="none" xmlns="http://www.w3.org/2000/svg">
<path id="Vector" d="M10.4 6.4H6.4V10.4C6.4 10.6122 6.31571 10.8157 6.16569 10.9657C6.01566 11.1157 5.81217 11.2 5.6 11.2C5.38783 11.2 5.18434 11.1157 5.03432 10.9657C4.88429 10.8157 4.8 10.6122 4.8 10.4V6.4H0.8C0.587827 6.4 0.384344 6.31571 0.234315 6.16569C0.0842856 6.01566 0 5.81217 0 5.6C0 5.38783 0.0842856 5.18434 0.234315 5.03431C0.384344 4.88429 0.587827 4.8 0.8 4.8H4.8V0.8C4.8 0.587827 4.88429 0.384343 5.03432 0.234314C5.18434 0.0842852 5.38783 0 5.6 0C5.81217 0 6.01566 0.0842852 6.16569 0.234314C6.31571 0.384343 6.4 0.587827 6.4 0.8V4.8H10.4C10.6122 4.8 10.8157 4.88429 10.9657 5.03431C11.1157 5.18434 11.2 5.38783 11.2 5.6C11.2 5.81217 11.1157 6.01566 10.9657 6.16569C10.8157 6.31571 10.6122 6.4 10.4 6.4Z" fill="var(--fill-0, #202020)"/>
</svg>
