<svg preserveAspectRatio="none" width="100%" height="100%" overflow="visible" style="display: block;" viewBox="0 0 14 14" fill="none" xmlns="http://www.w3.org/2000/svg">
<g id="info">
<mask id="mask0_0_92" style="mask-type:alpha" maskUnits="userSpaceOnUse" x="0" y="0" width="14" height="14">
<rect id="Bounding box" width="14" height="14" fill="var(--fill-0, #D9D9D9)"/>
</mask>
<g mask="url(#mask0_0_92)">
<path id="info_2" d="M6.99886 9.9166C7.16414 9.9166 7.30268 9.86069 7.41449 9.74889C7.52629 9.63708 7.58219 9.49854 7.58219 9.33326V6.99993C7.58219 6.83465 7.52629 6.69611 7.41449 6.5843C7.30268 6.4725 7.16414 6.4166 6.99886 6.4166C6.83358 6.4166 6.69504 6.4725 6.58324 6.5843C6.47143 6.69611 6.41553 6.83465 6.41553 6.99993V9.33326C6.41553 9.49854 6.47143 9.63708 6.58324 9.74889C6.69504 9.86069 6.83358 9.9166 6.99886 9.9166ZM6.99886 5.24993C7.16414 5.24993 7.30268 5.19403 7.41449 5.08222C7.52629 4.97041 7.58219 4.83187 7.58219 4.6666C7.58219 4.50132 7.52629 4.36278 7.41449 4.25097C7.30268 4.13916 7.16414 4.08326 6.99886 4.08326C6.83358 4.08326 6.69504 4.13916 6.58324 4.25097C6.47143 4.36278 6.41553 4.50132 6.41553 4.6666C6.41553 4.83187 6.47143 4.97041 6.58324 5.08222C6.69504 5.19403 6.83358 5.24993 6.99886 5.24993ZM6.99886 12.8333C6.19192 12.8333 5.43358 12.6801 4.72386 12.3739C4.01414 12.0676 3.39678 11.652 2.87178 11.127C2.34678 10.602 1.93115 9.98465 1.6249 9.27493C1.31865 8.56521 1.16553 7.80687 1.16553 6.99993C1.16553 6.19298 1.31865 5.43465 1.6249 4.72493C1.93115 4.01521 2.34678 3.39785 2.87178 2.87285C3.39678 2.34785 4.01414 1.93222 4.72386 1.62597C5.43358 1.31972 6.19192 1.1666 6.99886 1.1666C7.8058 1.1666 8.56414 1.31972 9.27386 1.62597C9.98358 1.93222 10.6009 2.34785 11.1259 2.87285C11.6509 3.39785 12.0666 4.01521 12.3728 4.72493C12.6791 5.43465 12.8322 6.19298 12.8322 6.99993C12.8322 7.80687 12.6791 8.56521 12.3728 9.27493C12.0666 9.98465 11.6509 10.602 11.1259 11.127C10.6009 11.652 9.98358 12.0676 9.27386 12.3739C8.56414 12.6801 7.8058 12.8333 6.99886 12.8333Z" fill="var(--fill-0, #A27E17)"/>
</g>
</g>
</svg>
