<svg preserveAspectRatio="none" width="100%" height="100%" overflow="visible" style="display: block;" viewBox="0 0 16 16" fill="none" xmlns="http://www.w3.org/2000/svg">
<g id="person_2">
<mask id="mask0_0_139" style="mask-type:alpha" maskUnits="userSpaceOnUse" x="0" y="0" width="16" height="16">
<rect id="Bounding box" width="16" height="16" fill="var(--fill-0, #D9D9D9)"/>
</mask>
<g mask="url(#mask0_0_139)">
<path id="person_2_2" d="M6.53583 7.79484C6.22994 7.79484 5.97572 7.68117 5.77317 7.45384C5.57061 7.22651 5.49067 6.95984 5.53333 6.65384L5.74367 5.03984C5.81967 4.48762 6.07222 4.03095 6.50133 3.66984C6.93033 3.30873 7.42989 3.12817 8 3.12817C8.57011 3.12817 9.06967 3.30873 9.49867 3.66984C9.92778 4.03095 10.1803 4.48762 10.2563 5.03984L10.4667 6.65384C10.5093 6.95984 10.4294 7.22651 10.2268 7.45384C10.0243 7.68117 9.77006 7.79484 9.46417 7.79484H6.53583ZM6.51667 6.79484H9.48333L9.26667 5.19484C9.22222 4.88373 9.08056 4.62817 8.84167 4.42817C8.60278 4.22817 8.32222 4.12817 8 4.12817C7.67778 4.12817 7.39722 4.22817 7.15833 4.42817C6.91944 4.62817 6.77778 4.88373 6.73333 5.19484L6.51667 6.79484ZM3 11.859V11.3897C3 11.0632 3.08867 10.7609 3.266 10.4827C3.44333 10.2045 3.68033 9.99056 3.977 9.84101C4.63589 9.51801 5.30061 9.27573 5.97117 9.11417C6.64172 8.95262 7.318 8.87184 8 8.87184C8.682 8.87184 9.35828 8.95262 10.0288 9.11417C10.6994 9.27573 11.3641 9.51801 12.023 9.84101C12.3197 9.99056 12.5567 10.2045 12.734 10.4827C12.9113 10.7609 13 11.0632 13 11.3897V11.859C13 12.1401 12.9015 12.3792 12.7045 12.5763C12.5075 12.7733 12.2684 12.8718 11.9872 12.8718H4.01283C3.73161 12.8718 3.4925 12.7733 3.2955 12.5763C3.0985 12.3792 3 12.1401 3 11.859ZM4 11.8718H12V11.3897C12 11.2547 11.9609 11.1297 11.8827 11.0147C11.8044 10.8998 11.6983 10.806 11.5642 10.7333C10.9897 10.4505 10.4044 10.2361 9.80833 10.0903C9.21222 9.94467 8.60944 9.87184 8 9.87184C7.39056 9.87184 6.78778 9.94467 6.19167 10.0903C5.59556 10.2361 5.01028 10.4505 4.43583 10.7333C4.30172 10.806 4.19556 10.8998 4.11733 11.0147C4.03911 11.1297 4 11.2547 4 11.3897V11.8718Z" fill="var(--fill-0, #3D3D3D)"/>
</g>
</g>
</svg>
