<svg preserveAspectRatio="none" width="100%" height="100%" overflow="visible" style="display: block;" viewBox="0 0 16 16" fill="none" xmlns="http://www.w3.org/2000/svg">
<g id="villa">
<mask id="mask0_0_58" style="mask-type:alpha" maskUnits="userSpaceOnUse" x="0" y="0" width="16" height="16">
<rect id="Bounding box" width="16" height="16" fill="var(--fill-0, #D9D9D9)"/>
</mask>
<g mask="url(#mask0_0_58)">
<path id="villa_2" d="M2.33333 12.6538V6.391C2.33333 6.14034 2.4035 5.91223 2.54383 5.70667C2.68417 5.501 2.86956 5.35306 3.1 5.26284L9.5935 2.77317C9.79439 2.69284 9.98072 2.71306 10.1525 2.83384C10.3243 2.95461 10.4102 3.12067 10.4102 3.332V8.33334H11.3077C11.3077 8.009 11.4231 7.73134 11.654 7.50034C11.8849 7.26934 12.1624 7.15384 12.4867 7.15384C12.8109 7.15384 13.0886 7.26934 13.3198 7.50034C13.5511 7.73134 13.6667 8.009 13.6667 8.33334V12.6538C13.6667 12.9351 13.5682 13.1742 13.3712 13.3712C13.1742 13.5682 12.9351 13.6667 12.6538 13.6667H3.34617C3.06494 13.6667 2.82583 13.5682 2.62883 13.3712C2.43183 13.1742 2.33333 12.9351 2.33333 12.6538ZM3.33333 12.6667H6.33333V9.5385C6.33333 9.20706 6.45133 8.92334 6.68733 8.68734C6.92333 8.45134 7.20706 8.33334 7.5385 8.33334H9.41033V3.90134L3.4615 6.19867C3.42306 6.21578 3.39211 6.24145 3.36867 6.27567C3.34511 6.30989 3.33333 6.34834 3.33333 6.391V12.6667ZM7.33333 12.6667H9.41033V11.4872C9.41033 11.3239 9.46778 11.1848 9.58267 11.0698C9.69767 10.9549 9.83678 10.8975 10 10.8975C10.1632 10.8975 10.3023 10.9549 10.4173 11.0698C10.5322 11.1848 10.5897 11.3239 10.5897 11.4872V12.6667H12.6667V9.33334H7.5385C7.47861 9.33334 7.42944 9.35256 7.391 9.391C7.35255 9.42945 7.33333 9.47861 7.33333 9.5385V12.6667Z" fill="var(--fill-0, #3D3D3D)"/>
</g>
</g>
</svg>
