<svg preserveAspectRatio="none" width="100%" height="100%" overflow="visible" style="display: block;" viewBox="0 0 16 16" fill="none" xmlns="http://www.w3.org/2000/svg">
<g id="info">
<mask id="mask0_0_38" style="mask-type:alpha" maskUnits="userSpaceOnUse" x="0" y="0" width="16" height="16">
<rect id="Bounding box" width="16" height="16" fill="var(--fill-0, #D9D9D9)"/>
</mask>
<g mask="url(#mask0_0_38)">
<path id="info_2" d="M8 11.3333C8.18889 11.3333 8.34722 11.2694 8.475 11.1417C8.60278 11.0139 8.66667 10.8556 8.66667 10.6667V8C8.66667 7.81111 8.60278 7.65278 8.475 7.525C8.34722 7.39722 8.18889 7.33333 8 7.33333C7.81111 7.33333 7.65278 7.39722 7.525 7.525C7.39722 7.65278 7.33333 7.81111 7.33333 8V10.6667C7.33333 10.8556 7.39722 11.0139 7.525 11.1417C7.65278 11.2694 7.81111 11.3333 8 11.3333ZM8 6C8.18889 6 8.34722 5.93611 8.475 5.80833C8.60278 5.68056 8.66667 5.52222 8.66667 5.33333C8.66667 5.14444 8.60278 4.98611 8.475 4.85833C8.34722 4.73056 8.18889 4.66667 8 4.66667C7.81111 4.66667 7.65278 4.73056 7.525 4.85833C7.39722 4.98611 7.33333 5.14444 7.33333 5.33333C7.33333 5.52222 7.39722 5.68056 7.525 5.80833C7.65278 5.93611 7.81111 6 8 6ZM8 14.6667C7.07778 14.6667 6.21111 14.4917 5.4 14.1417C4.58889 13.7917 3.88333 13.3167 3.28333 12.7167C2.68333 12.1167 2.20833 11.4111 1.85833 10.6C1.50833 9.78889 1.33333 8.92222 1.33333 8C1.33333 7.07778 1.50833 6.21111 1.85833 5.4C2.20833 4.58889 2.68333 3.88333 3.28333 3.28333C3.88333 2.68333 4.58889 2.20833 5.4 1.85833C6.21111 1.50833 7.07778 1.33333 8 1.33333C8.92222 1.33333 9.78889 1.50833 10.6 1.85833C11.4111 2.20833 12.1167 2.68333 12.7167 3.28333C13.3167 3.88333 13.7917 4.58889 14.1417 5.4C14.4917 6.21111 14.6667 7.07778 14.6667 8C14.6667 8.92222 14.4917 9.78889 14.1417 10.6C13.7917 11.4111 13.3167 12.1167 12.7167 12.7167C12.1167 13.3167 11.4111 13.7917 10.6 14.1417C9.78889 14.4917 8.92222 14.6667 8 14.6667Z" fill="var(--fill-0, #B0BFB0)"/>
</g>
</g>
</svg>
