<svg preserveAspectRatio="none" width="100%" height="100%" overflow="visible" style="display: block;" viewBox="0 0 10.064 12.2935" fill="none" xmlns="http://www.w3.org/2000/svg">
<path id="location_on" d="M5.032 11.3423C6.33622 10.1748 7.33428 9.05489 8.02617 7.98267C8.71806 6.91044 9.064 5.97133 9.064 5.16533C9.064 3.95 8.67789 2.95089 7.90567 2.168C7.13344 1.38511 6.17556 0.993667 5.032 0.993667C3.88844 0.993667 2.93056 1.38511 2.15833 2.168C1.38611 2.95089 1 3.95 1 5.16533C1 5.97133 1.34594 6.91044 2.03783 7.98267C2.72972 9.05489 3.72778 10.1748 5.032 11.3423ZM4.64233 12.2263C4.51233 12.1814 4.39478 12.112 4.28967 12.018C3.69144 11.4667 3.13161 10.8989 2.61017 10.3147C2.08883 9.73056 1.63567 9.14661 1.25067 8.56283C0.865555 7.97906 0.560833 7.40044 0.3365 6.827C0.112167 6.25344 0 5.69956 0 5.16533C0 3.62689 0.497611 2.38139 1.49283 1.42883C2.48817 0.476277 3.66789 0 5.032 0C6.39611 0 7.57583 0.476277 8.57117 1.42883C9.56639 2.38139 10.064 3.62689 10.064 5.16533C10.064 5.69956 9.95183 6.25233 9.7275 6.82367C9.50317 7.39511 9.19956 7.97378 8.81667 8.55967C8.43367 9.14555 7.9815 9.7295 7.46017 10.3115C6.93883 10.8936 6.379 11.4603 5.78067 12.0115C5.67556 12.1055 5.557 12.176 5.425 12.223C5.29289 12.27 5.16189 12.2935 5.032 12.2935C4.90211 12.2935 4.77222 12.2711 4.64233 12.2263ZM5.88383 5.89033C6.11939 5.65489 6.23717 5.37094 6.23717 5.0385C6.23717 4.70606 6.11939 4.42206 5.88383 4.1865C5.64839 3.95106 5.36444 3.83333 5.032 3.83333C4.69956 3.83333 4.41561 3.95106 4.18017 4.1865C3.94461 4.42206 3.82683 4.70606 3.82683 5.0385C3.82683 5.37094 3.94461 5.65489 4.18017 5.89033C4.41561 6.12578 4.69956 6.2435 5.032 6.2435C5.36444 6.2435 5.64839 6.12578 5.88383 5.89033Z" fill="var(--fill-0, #969696)"/>
</svg>
