<svg preserveAspectRatio="none" width="100%" height="100%" overflow="visible" style="display: block;" viewBox="0 0 16 16" fill="none" xmlns="http://www.w3.org/2000/svg">
<g id="carry_on_bag_inactive">
<mask id="mask0_0_41" style="mask-type:alpha" maskUnits="userSpaceOnUse" x="0" y="0" width="16" height="16">
<rect id="Bounding box" width="16" height="16" fill="var(--fill-0, #D9D9D9)"/>
</mask>
<g mask="url(#mask0_0_41)">
<path id="carry_on_bag_inactive_2" d="M9.66651 2.26933V7.38217C9.66651 7.52383 9.61856 7.64256 9.52267 7.73833C9.42679 7.83422 9.30801 7.88217 9.16634 7.88217C9.02456 7.88217 8.90584 7.83422 8.81017 7.73833C8.7144 7.64256 8.66651 7.52383 8.66651 7.38217V6H7.27801C7.13634 6 7.01762 5.95206 6.92184 5.85617C6.82595 5.76028 6.77801 5.6415 6.77801 5.49983C6.77801 5.35806 6.82595 5.23933 6.92184 5.14367C7.01762 5.04789 7.13634 5 7.27801 5H8.66651V2.66667H7.96134C7.81967 2.66667 7.70095 2.61872 7.60517 2.52283C7.50929 2.42694 7.46134 2.30817 7.46134 2.1665C7.46134 2.02472 7.50929 1.906 7.60517 1.81033C7.70095 1.71456 7.81967 1.66667 7.96134 1.66667H9.06384C9.23462 1.66667 9.37773 1.72444 9.49317 1.84C9.60873 1.95544 9.66651 2.09856 9.66651 2.26933ZM12.3357 14.3563L11.4332 13.4538C11.358 13.8948 11.1582 14.2585 10.8338 14.5448C10.5094 14.8312 10.1203 14.9743 9.66651 14.9743C9.23317 14.9743 8.86095 14.844 8.54984 14.5833C8.23873 14.3227 8.0379 14.0171 7.94734 13.6667H4.87167C4.5349 13.6667 4.24984 13.55 4.01651 13.3167C3.78317 13.0833 3.66651 12.7983 3.66651 12.4615V6.20517C3.66651 6.12994 3.67506 6.05728 3.69217 5.98717C3.70928 5.91706 3.73495 5.85128 3.76917 5.78983L1.46401 3.48467C1.37167 3.39233 1.32445 3.27628 1.32234 3.1365C1.32012 2.99683 1.36734 2.87872 1.46401 2.78217C1.56056 2.6855 1.67762 2.63717 1.81517 2.63717C1.95284 2.63717 2.06995 2.6855 2.16651 2.78217L13.0382 13.6538C13.1305 13.7462 13.1777 13.8622 13.1798 14.0018C13.1821 14.1416 13.1348 14.2598 13.0382 14.3563C12.9416 14.453 12.8246 14.5013 12.687 14.5013C12.5493 14.5013 12.4322 14.453 12.3357 14.3563ZM5.49984 12.6667V7.541L4.66651 6.70767V12.4615C4.66651 12.5214 4.68573 12.5706 4.72417 12.609C4.76262 12.6474 4.81179 12.6667 4.87167 12.6667H5.49984ZM10.3895 13.8897C10.5827 13.6966 10.6793 13.4556 10.6793 13.1667C10.6793 12.8778 10.5827 12.6367 10.3895 12.4435C10.1964 12.2504 9.9554 12.1538 9.66651 12.1538C9.37762 12.1538 9.13656 12.2504 8.94334 12.4435C8.75023 12.6367 8.65367 12.8778 8.65367 13.1667C8.65367 13.4556 8.75023 13.6966 8.94334 13.8897C9.13656 14.0829 9.37762 14.1795 9.66651 14.1795C9.9554 14.1795 10.1964 14.0829 10.3895 13.8897ZM6.49984 12.6667H7.95367C7.99645 12.4727 8.08362 12.287 8.21517 12.1097C8.34684 11.9322 8.49729 11.8021 8.66651 11.7192V10.7077L6.49984 8.541V12.6667Z" fill="var(--fill-0, #3D3D3D)"/>
</g>
</g>
</svg>
