<svg preserveAspectRatio="none" width="100%" height="100%" overflow="visible" style="display: block;" viewBox="0 0 16 16" fill="none" xmlns="http://www.w3.org/2000/svg">
<g id="hotel">
<mask id="mask0_0_82" style="mask-type:alpha" maskUnits="userSpaceOnUse" x="0" y="0" width="16" height="16">
<rect id="Bounding box" width="16" height="16" fill="var(--fill-0, #D9D9D9)"/>
</mask>
<g mask="url(#mask0_0_82)">
<path id="hotel_2" d="M1.49983 12.3333C1.35806 12.3333 1.23933 12.2854 1.14367 12.1895C1.04789 12.0937 1 11.975 1 11.8333V3.5C1 3.35833 1.04794 3.23961 1.14383 3.14383C1.23972 3.04794 1.3585 3 1.50017 3C1.64194 3 1.76067 3.04794 1.85633 3.14383C1.95211 3.23961 2 3.35833 2 3.5V9.33333H7.5V5.33333C7.5 5.06067 7.5985 4.82583 7.7955 4.62883C7.9925 4.43183 8.22733 4.33333 8.5 4.33333H12.6667C13.3083 4.33333 13.8576 4.56183 14.3145 5.01883C14.7715 5.47572 15 6.025 15 6.66667V11.8333C15 11.975 14.9521 12.0937 14.8562 12.1895C14.7603 12.2854 14.6415 12.3333 14.4998 12.3333C14.3581 12.3333 14.2393 12.2854 14.1437 12.1895C14.0479 12.0937 14 11.975 14 11.8333V10.3333H2V11.8333C2 11.975 1.95206 12.0937 1.85617 12.1895C1.76028 12.2854 1.6415 12.3333 1.49983 12.3333ZM3.45833 7.87417C3.12711 7.5425 2.9615 7.13972 2.9615 6.66583C2.9615 6.19206 3.12739 5.78956 3.45917 5.45833C3.79083 5.12711 4.19361 4.9615 4.6675 4.9615C5.14128 4.9615 5.54378 5.12739 5.875 5.45917C6.20622 5.79083 6.37183 6.19361 6.37183 6.6675C6.37183 7.14128 6.20594 7.54378 5.87417 7.875C5.5425 8.20622 5.13972 8.37183 4.66583 8.37183C4.19206 8.37183 3.78956 8.20594 3.45833 7.87417ZM8.5 9.33333H14V6.66667C14 6.3 13.8694 5.98611 13.6083 5.725C13.3472 5.46389 13.0333 5.33333 12.6667 5.33333H8.5V9.33333ZM5.16733 7.16733C5.30367 7.031 5.37183 6.86411 5.37183 6.66667C5.37183 6.46922 5.30367 6.30233 5.16733 6.166C5.031 6.02967 4.86411 5.9615 4.66667 5.9615C4.46922 5.9615 4.30233 6.02967 4.166 6.166C4.02967 6.30233 3.9615 6.46922 3.9615 6.66667C3.9615 6.86411 4.02967 7.031 4.166 7.16733C4.30233 7.30367 4.46922 7.37183 4.66667 7.37183C4.86411 7.37183 5.031 7.30367 5.16733 7.16733Z" fill="var(--fill-0, #3D3D3D)"/>
</g>
</g>
</svg>
