<svg preserveAspectRatio="none" width="100%" height="100%" overflow="visible" style="display: block;" viewBox="0 0 16 16" fill="none" xmlns="http://www.w3.org/2000/svg">
<g id="door_front">
<mask id="mask0_0_75" style="mask-type:alpha" maskUnits="userSpaceOnUse" x="0" y="0" width="16" height="16">
<rect id="Bounding box" width="16" height="16" fill="var(--fill-0, #D9D9D9)"/>
</mask>
<g mask="url(#mask0_0_75)">
<path id="door_front_2" d="M2.83333 13.6667C2.69144 13.6667 2.57267 13.6188 2.477 13.523C2.38122 13.4273 2.33333 13.3086 2.33333 13.1667C2.33333 13.0248 2.38122 12.906 2.477 12.8103C2.57267 12.7146 2.69144 12.6667 2.83333 12.6667H3.66667V3.5385C3.66667 3.20172 3.78333 2.91667 4.01667 2.68333C4.25 2.45 4.53506 2.33333 4.87183 2.33333H11.1282C11.4649 2.33333 11.75 2.45 11.9833 2.68333C12.2167 2.91667 12.3333 3.20172 12.3333 3.5385V12.6667H13.1667C13.3086 12.6667 13.4273 12.7146 13.523 12.8103C13.6188 12.906 13.6667 13.0248 13.6667 13.1667C13.6667 13.3086 13.6188 13.4273 13.523 13.523C13.4273 13.6188 13.3086 13.6667 13.1667 13.6667H2.83333ZM4.66667 12.6667H11.3333V3.5385C11.3333 3.48717 11.3119 3.44017 11.2692 3.3975C11.2265 3.35472 11.1795 3.33333 11.1282 3.33333H4.87183C4.8205 3.33333 4.7735 3.35472 4.73083 3.3975C4.68806 3.44017 4.66667 3.48717 4.66667 3.5385V12.6667ZM9.41033 8.58967C9.57356 8.58967 9.71261 8.53222 9.8275 8.41733C9.9425 8.30233 10 8.16322 10 8C10 7.83678 9.9425 7.69767 9.8275 7.58267C9.71261 7.46778 9.57356 7.41033 9.41033 7.41033C9.247 7.41033 9.10789 7.46778 8.993 7.58267C8.878 7.69767 8.8205 7.83678 8.8205 8C8.8205 8.16322 8.878 8.30233 8.993 8.41733C9.10789 8.53222 9.247 8.58967 9.41033 8.58967Z" fill="var(--fill-0, #3D3D3D)"/>
</g>
</g>
</svg>
