<svg preserveAspectRatio="none" width="100%" height="100%" overflow="visible" style="display: block;" viewBox="0 0 10 10" fill="none" xmlns="http://www.w3.org/2000/svg">
<g id="currency_rupee">
<mask id="mask0_0_65" style="mask-type:alpha" maskUnits="userSpaceOnUse" x="0" y="0" width="10" height="10">
<rect id="Bounding box" width="10" height="10" fill="var(--fill-0, #D9D9D9)"/>
</mask>
<g mask="url(#mask0_0_65)">
<path id="currency_rupee_2" d="M5.67708 8.67708L2.99834 5.92449C2.95084 5.87761 2.91667 5.82791 2.89583 5.7754C2.875 5.72288 2.86458 5.66537 2.86458 5.60287V5.33203C2.86458 5.2079 2.91094 5.09896 3.00365 5.00521C3.09635 4.91146 3.20625 4.86458 3.33333 4.86458H4.375C4.65972 4.86458 4.92535 4.77778 5.17188 4.60417C5.4184 4.43056 5.55556 4.19097 5.58333 3.88542H3.02319C2.88155 3.88542 2.76068 3.8358 2.66057 3.73657C2.56047 3.63734 2.51042 3.51755 2.51042 3.3772C2.51042 3.23684 2.56006 3.11632 2.65934 3.01562C2.75864 2.91493 2.8785 2.86458 3.01893 2.86458H5.51042C5.37847 2.62153 5.22248 2.44792 5.04243 2.34375C4.86239 2.23958 4.63991 2.1875 4.375 2.1875H3.01685C2.88062 2.1875 2.76215 2.13789 2.66146 2.03866C2.56076 1.93942 2.51042 1.81963 2.51042 1.67928C2.51042 1.53893 2.56022 1.4184 2.65981 1.31771C2.75942 1.21701 2.87967 1.16667 3.02056 1.16667H6.97616C7.11705 1.16667 7.23785 1.21628 7.33854 1.31551C7.43924 1.41475 7.48958 1.53454 7.48958 1.67489C7.48958 1.81524 7.43976 1.93576 7.3401 2.03646C7.24045 2.13715 7.12014 2.1875 6.97917 2.1875H6.20833C6.29861 2.27778 6.38021 2.38021 6.45312 2.49479C6.52604 2.60937 6.57292 2.73264 6.59375 2.86458H6.97917C7.12014 2.86458 7.24045 2.9142 7.3401 3.01343C7.43976 3.11266 7.48958 3.23245 7.48958 3.3728C7.48958 3.51316 7.43976 3.63368 7.3401 3.73438C7.24045 3.83507 7.12014 3.88542 6.97917 3.88542H6.625C6.5625 4.44792 6.31771 4.92188 5.89062 5.30729C5.46354 5.69271 4.96181 5.88542 4.38542 5.88542H4.36458L6.41667 7.96875C6.58333 8.13542 6.62116 8.32118 6.53015 8.52604C6.43912 8.7309 6.27977 8.83333 6.05208 8.83333C5.97569 8.83333 5.90625 8.81944 5.84375 8.79167C5.78125 8.76389 5.72569 8.7257 5.67708 8.67708Z" fill="var(--fill-0, #ABABAB)"/>
</g>
</g>
</svg>
