<svg preserveAspectRatio="none" width="100%" height="100%" overflow="visible" style="display: block;" viewBox="0 0 20 20" fill="none" xmlns="http://www.w3.org/2000/svg">
<g id="Frame">
<path id="Vector" d="M7.92688 9.9893C7.36438 9.4268 7.08313 8.73583 7.08313 7.91638C7.08313 7.09694 7.36438 6.40597 7.92688 5.84347C8.48938 5.28097 9.18035 4.99972 9.9998 4.99972C10.8192 4.99972 11.5102 5.28097 12.0727 5.84347C12.6352 6.40597 12.9165 7.09694 12.9165 7.91638C12.9165 8.73583 12.6352 9.4268 12.0727 9.9893C11.5102 10.5518 10.8192 10.833 9.9998 10.833C9.18035 10.833 8.48938 10.5518 7.92688 9.9893ZM10.8956 8.81222C11.1317 8.5761 11.2498 8.27749 11.2498 7.91638C11.2498 7.55527 11.1317 7.25666 10.8956 7.02055C10.6595 6.78444 10.3609 6.66638 9.9998 6.66638C9.63869 6.66638 9.34007 6.78444 9.10396 7.02055C8.86785 7.25666 8.7498 7.55527 8.7498 7.91638C8.7498 8.27749 8.86785 8.5761 9.10396 8.81222C9.34007 9.04833 9.63869 9.16638 9.9998 9.16638C10.3609 9.16638 10.6595 9.04833 10.8956 8.81222ZM9.9998 3.43722L4.9998 5.31222V9.24972C4.9998 9.99972 5.10396 10.7289 5.3123 11.4372C5.52063 12.1455 5.80535 12.8122 6.16646 13.4372C6.7498 13.1455 7.36091 12.9164 7.9998 12.7497C8.63869 12.583 9.30535 12.4997 9.9998 12.4997C10.6942 12.4997 11.3609 12.583 11.9998 12.7497C12.6387 12.9164 13.2498 13.1455 13.8331 13.4372C14.1942 12.8122 14.479 12.1455 14.6873 11.4372C14.8956 10.7289 14.9998 9.99972 14.9998 9.24972V5.31222L9.9998 3.43722ZM8.54146 14.333C8.06924 14.4442 7.61785 14.5969 7.1873 14.7914C7.59007 15.208 8.02757 15.5692 8.4998 15.8747C8.97202 16.1803 9.47202 16.4164 9.9998 16.583C10.5276 16.4164 11.0276 16.1803 11.4998 15.8747C11.972 15.5692 12.4095 15.208 12.8123 14.7914C12.3817 14.5969 11.9304 14.4442 11.4581 14.333C10.9859 14.2219 10.4998 14.1664 9.9998 14.1664C9.4998 14.1664 9.01369 14.2219 8.54146 14.333ZM9.72896 18.2289C9.64563 18.215 9.5623 18.1942 9.47896 18.1664C7.60396 17.5414 6.11091 16.3851 4.9998 14.6976C3.88869 13.0101 3.33313 11.1942 3.33313 9.24972V5.31222C3.33313 4.96499 3.43382 4.65249 3.63521 4.37472C3.8366 4.09694 4.09702 3.89555 4.41646 3.77055L9.41646 1.89555C9.61091 1.8261 9.80535 1.79138 9.9998 1.79138C10.1942 1.79138 10.3887 1.8261 10.5831 1.89555L15.5831 3.77055C15.9026 3.89555 16.163 4.09694 16.3644 4.37472C16.5658 4.65249 16.6665 4.96499 16.6665 5.31222V9.24972C16.6665 11.1942 16.1109 13.0101 14.9998 14.6976C13.8887 16.3851 12.3956 17.5414 10.5206 18.1664C10.4373 18.1942 10.354 18.215 10.2706 18.2289C10.1873 18.2428 10.097 18.2497 9.9998 18.2497C9.90257 18.2497 9.8123 18.2428 9.72896 18.2289Z" fill="var(--fill-0, #015F74)"/>
</g>
</svg>
