<svg preserveAspectRatio="none" width="100%" height="100%" overflow="visible" style="display: block;" viewBox="0 0 20 20" fill="none" xmlns="http://www.w3.org/2000/svg">
<g id="Frame">
<path id="Vector" d="M4.16667 17.5C3.70833 17.5 3.31597 17.3368 2.98958 17.0104C2.66319 16.684 2.5 16.2917 2.5 15.8333V4.16667C2.5 3.70833 2.66319 3.31597 2.98958 2.98958C3.31597 2.66319 3.70833 2.5 4.16667 2.5H15.8333C16.2917 2.5 16.684 2.66319 17.0104 2.98958C17.3368 3.31597 17.5 3.70833 17.5 4.16667V15.8333C17.5 16.2917 17.3368 16.684 17.0104 17.0104C16.684 17.3368 16.2917 17.5 15.8333 17.5H4.16667ZM4.16667 4.16667V15.8333H15.8333V4.16667H14.1667V9.27083C14.1667 9.4375 14.0972 9.55903 13.9583 9.63542C13.8194 9.71181 13.6806 9.70833 13.5417 9.625L12.5208 9C12.3819 8.91667 12.2361 8.875 12.0833 8.875C11.9306 8.875 11.7847 8.91667 11.6458 9L10.625 9.625C10.4861 9.70833 10.3472 9.71181 10.2083 9.63542C10.0694 9.55903 10 9.4375 10 9.27083V4.16667H4.16667Z" fill="var(--fill-0, #015F74)"/>
</g>
</svg>
