<svg preserveAspectRatio="none" width="100%" height="100%" overflow="visible" style="display: block;" viewBox="0 0 20 20" fill="none" xmlns="http://www.w3.org/2000/svg">
<g id="Frame">
<path id="Vector" d="M5.14583 16.5208C4.49306 15.8681 4.16667 15.0833 4.16667 14.1667V7.35417C3.68056 7.17361 3.28125 6.87153 2.96875 6.44792C2.65625 6.02431 2.5 5.54167 2.5 5C2.5 4.30556 2.74306 3.71528 3.22917 3.22917C3.71528 2.74306 4.30556 2.5 5 2.5C5.69444 2.5 6.28472 2.74306 6.77083 3.22917C7.25694 3.71528 7.5 4.30556 7.5 5C7.5 5.54167 7.34375 6.02431 7.03125 6.44792C6.71875 6.87153 6.31944 7.17361 5.83333 7.35417V14.1667C5.83333 14.625 5.99653 15.0174 6.32292 15.3438C6.64931 15.6701 7.04167 15.8333 7.5 15.8333C7.95833 15.8333 8.35069 15.6701 8.67708 15.3438C9.00347 15.0174 9.16667 14.625 9.16667 14.1667V5.83333C9.16667 4.91667 9.49306 4.13194 10.1458 3.47917C10.7986 2.82639 11.5833 2.5 12.5 2.5C13.4167 2.5 14.2014 2.82639 14.8542 3.47917C15.5069 4.13194 15.8333 4.91667 15.8333 5.83333V12.6458C16.3194 12.8264 16.7188 13.1285 17.0313 13.5521C17.3438 13.9757 17.5 14.4583 17.5 15C17.5 15.6944 17.2569 16.2847 16.7708 16.7708C16.2847 17.2569 15.6944 17.5 15 17.5C14.3056 17.5 13.7153 17.2569 13.2292 16.7708C12.7431 16.2847 12.5 15.6944 12.5 15C12.5 14.4583 12.6563 13.9722 12.9688 13.5417C13.2813 13.1111 13.6806 12.8125 14.1667 12.6458V5.83333C14.1667 5.375 14.0035 4.98264 13.6771 4.65625C13.3507 4.32986 12.9583 4.16667 12.5 4.16667C12.0417 4.16667 11.6493 4.32986 11.3229 4.65625C10.9965 4.98264 10.8333 5.375 10.8333 5.83333V14.1667C10.8333 15.0833 10.5069 15.8681 9.85417 16.5208C9.20139 17.1736 8.41667 17.5 7.5 17.5C6.58333 17.5 5.79861 17.1736 5.14583 16.5208ZM5 5.83333C5.23611 5.83333 5.43403 5.75347 5.59375 5.59375C5.75347 5.43403 5.83333 5.23611 5.83333 5C5.83333 4.76389 5.75347 4.56597 5.59375 4.40625C5.43403 4.24653 5.23611 4.16667 5 4.16667C4.76389 4.16667 4.56597 4.24653 4.40625 4.40625C4.24653 4.56597 4.16667 4.76389 4.16667 5C4.16667 5.23611 4.24653 5.43403 4.40625 5.59375C4.56597 5.75347 4.76389 5.83333 5 5.83333ZM15 15.8333C15.2361 15.8333 15.434 15.7535 15.5938 15.5938C15.7535 15.434 15.8333 15.2361 15.8333 15C15.8333 14.7639 15.7535 14.566 15.5938 14.4063C15.434 14.2465 15.2361 14.1667 15 14.1667C14.7639 14.1667 14.566 14.2465 14.4063 14.4063C14.2465 14.566 14.1667 14.7639 14.1667 15C14.1667 15.2361 14.2465 15.434 14.4063 15.5938C14.566 15.7535 14.7639 15.8333 15 15.8333Z" fill="var(--fill-0, #015F74)"/>
</g>
</svg>
