<svg width="14" height="14" viewBox="0 0 14 14" fill="none" xmlns="http://www.w3.org/2000/svg">
<g id="Frame 1171280975">
<g id="services package">
<rect x="-6.5" y="-5.5" width="85" height="25" rx="12.5" stroke="#757575"/>
<g id="hand_meal">
<mask id="mask0_3014_8006" style="mask-type:alpha" maskUnits="userSpaceOnUse" x="0" y="0" width="14" height="14">
<rect id="Bounding box" width="14" height="14" fill="#D9D9D9"/>
</mask>
<g mask="url(#mask0_3014_8006)">
<path id="hand_meal_2" d="M1.44408 7.01123C1.36853 7.01123 1.30349 6.98338 1.24895 6.92767C1.19431 6.87196 1.16699 6.80259 1.16699 6.71956C1.16699 6.64402 1.19485 6.5765 1.25055 6.517C1.30626 6.4576 1.37563 6.4279 1.45866 6.4279H2.35276C2.51133 5.28291 2.99501 4.33086 3.8038 3.57175C4.6126 2.81274 5.58088 2.40105 6.70866 2.33669V2.04167C6.70866 1.96612 6.73651 1.89865 6.79222 1.83925C6.84793 1.77975 6.9173 1.75 7.00033 1.75C7.07587 1.75 7.14334 1.77975 7.20274 1.83925C7.26224 1.89865 7.29199 1.96612 7.29199 2.04167V2.33669C8.41005 2.40105 9.37347 2.81274 10.1823 3.57175C10.9911 4.33086 11.4747 5.28291 11.6333 6.4279H12.542C12.6175 6.4279 12.685 6.4576 12.7444 6.517C12.8039 6.5765 12.8337 6.64402 12.8337 6.71956C12.8337 6.80259 12.8039 6.87196 12.7444 6.92767C12.685 6.98338 12.6175 7.01123 12.542 7.01123H1.44408ZM4.53239 11.6779V7.59456H9.19453C9.3007 7.59456 9.39121 7.62222 9.46607 7.67754C9.54084 7.73286 9.59392 7.80281 9.62533 7.8874C9.65673 7.97188 9.66587 8.05749 9.65274 8.14421C9.63971 8.23093 9.5947 8.30686 9.5177 8.372L8.70205 9.07535H6.47314C6.39157 9.07535 6.32628 9.10228 6.27728 9.15615C6.22828 9.20991 6.20378 9.27646 6.20378 9.35579C6.20378 9.42978 6.22828 9.49317 6.27728 9.54596C6.32628 9.59865 6.39045 9.625 6.46978 9.625H8.54062C8.65427 9.625 8.76364 9.60687 8.86874 9.5706C8.97374 9.53434 9.06853 9.47994 9.15312 9.40742L10.1369 8.56829C10.3059 8.42771 10.4889 8.32674 10.686 8.2654C10.883 8.20405 11.0833 8.18013 11.2867 8.19365C11.4901 8.21455 11.6833 8.26933 11.8661 8.358C12.0489 8.44657 12.2095 8.57276 12.3479 8.73658L9.43691 11.172C9.23799 11.3395 9.01958 11.4657 8.78168 11.5506C8.54387 11.6355 8.29635 11.6779 8.0391 11.6779H4.53239ZM2.22151 12.25C2.08608 12.25 1.97369 12.2053 1.88435 12.116C1.795 12.0266 1.75033 11.9142 1.75033 11.7788V8.05452C1.75033 7.92658 1.795 7.81608 1.88435 7.72304C1.97369 7.6299 2.08608 7.58333 2.22151 7.58333H3.94905V11.7788C3.94905 11.9142 3.90249 12.0266 3.80935 12.116C3.7163 12.2053 3.60581 12.25 3.47787 12.25H2.22151Z" fill="#757575"/>
</g>
</g>
</g>
</g>
</svg>
