<svg width="14" height="14" viewBox="0 0 14 14" fill="none" xmlns="http://www.w3.org/2000/svg">
<g id="Frame 1171280975">
<g id="services package">
<rect x="-6.5" y="-5.5" width="80" height="25" rx="12.5" stroke="#757575"/>
<g id="concierge">
<mask id="mask0_3014_8006" style="mask-type:alpha" maskUnits="userSpaceOnUse" x="0" y="0" width="14" height="14">
<rect id="Bounding box" width="14" height="14" fill="#D9D9D9"/>
</mask>
<g mask="url(#mask0_3014_8006)">
<path id="concierge_2" d="M6.70866 12.25C6.62563 12.25 6.55627 12.2221 6.50056 12.1664C6.44485 12.1107 6.41699 12.0413 6.41699 11.9583C6.41699 11.8753 6.44485 11.8059 6.50056 11.7502C6.55627 11.6945 6.62563 11.6667 6.70866 11.6667H12.542C12.625 11.6667 12.6944 11.6945 12.7501 11.7502C12.8058 11.8059 12.8337 11.8753 12.8337 11.9583C12.8337 12.0413 12.8058 12.1107 12.7501 12.1664C12.6944 12.2221 12.625 12.25 12.542 12.25H6.70866ZM7.00033 10.859C7.00033 10.1836 7.22394 9.59859 7.67116 9.10393C8.11838 8.60916 8.67255 8.32741 9.33366 8.25868V8.01747C9.33366 7.94193 9.36152 7.87441 9.41722 7.81491C9.47293 7.7555 9.5423 7.7258 9.62533 7.7258C9.70087 7.7258 9.76834 7.7555 9.82775 7.81491C9.88725 7.87441 9.917 7.94193 9.917 8.01747V8.25868C10.5759 8.32741 11.1295 8.60916 11.5777 9.10393C12.0261 9.59859 12.2503 10.1836 12.2503 10.859H7.00033ZM1.18945 6.08007C1.18945 6.32614 1.27374 6.53352 1.44233 6.7022C1.61101 6.87078 1.81838 6.95507 2.06445 6.95507C2.31052 6.95507 2.51785 6.87078 2.68643 6.7022C2.85511 6.53352 2.93945 6.32614 2.93945 6.08007V3.07372C2.93945 2.82765 2.85511 2.62027 2.68643 2.45159C2.51785 2.28301 2.31052 2.19872 2.06445 2.19872C1.81838 2.19872 1.61101 2.28301 1.44233 2.45159C1.27374 2.62027 1.18945 2.82765 1.18945 3.07372V6.08007ZM3.52279 6.06666C3.52279 6.31418 3.60897 6.52413 3.78135 6.69651C3.95372 6.86888 4.16368 6.95507 4.4112 6.95507H4.73991C4.79523 6.95507 4.85074 6.94968 4.90645 6.93888C4.96216 6.928 5.01661 6.91283 5.06979 6.89338L8.74245 5.5472C8.88527 5.49411 8.99708 5.4072 9.07787 5.28645C9.15866 5.1657 9.19906 5.03163 9.19906 4.88424V4.87301C9.19906 4.75488 9.15681 4.65358 9.07233 4.56909C8.98775 4.48461 8.88639 4.44236 8.76827 4.44236H7.44906L6.14108 4.90218C6.08566 4.92386 6.02956 4.92201 5.97279 4.89663C5.91591 4.87116 5.87663 4.83077 5.85495 4.77545C5.82579 4.71264 5.82637 4.65037 5.8567 4.58863C5.88694 4.527 5.93346 4.48534 5.99627 4.46366L7.4266 3.99363H11.0837C11.335 3.99363 11.5586 3.90798 11.7545 3.73668C11.9504 3.56547 12.0483 3.35197 12.0483 3.09618L8.24779 1.82509C8.16106 1.79145 8.06812 1.7741 7.96895 1.77303C7.86988 1.77186 7.77324 1.78324 7.67904 1.80716L4.20368 2.82245C3.99582 2.88525 3.83035 3.00002 3.70727 3.16676C3.58428 3.33359 3.52279 3.52206 3.52279 3.73216V6.06666Z" fill="#757575"/>
</g>
</g>
</g>
</g>
</svg>
