<svg preserveAspectRatio="none" width="100%" height="100%" overflow="visible" style="display: block;" viewBox="0 0 12 12" fill="none" xmlns="http://www.w3.org/2000/svg">
<g id="hiking">
<mask id="mask0_0_7" style="mask-type:alpha" maskUnits="userSpaceOnUse" x="0" y="0" width="12" height="12">
<rect id="Bounding box" width="12" height="12" fill="var(--fill-0, #D9D9D9)"/>
</mask>
<g mask="url(#mask0_0_7)">
<path id="hiking_2" d="M5.45005 7.5L4.63755 11.1C4.61255 11.2167 4.55213 11.3125 4.4563 11.3875C4.36047 11.4625 4.25005 11.5 4.12505 11.5C3.95838 11.5 3.82505 11.4375 3.72505 11.3125C3.62505 11.1875 3.59172 11.0458 3.62505 10.8875L5.03755 3.725C5.08755 3.48333 5.20005 3.30208 5.37505 3.18125C5.55005 3.06042 5.73338 3 5.92505 3C6.11672 3 6.2938 3.04167 6.4563 3.125C6.6188 3.20833 6.75005 3.33333 6.85005 3.5L7.35005 4.3C7.50005 4.54167 7.6938 4.76042 7.9313 4.95625C8.1688 5.15208 8.44172 5.29583 8.75005 5.3875V4.875C8.75005 4.76667 8.78547 4.67708 8.8563 4.60625C8.92713 4.53542 9.01672 4.5 9.12505 4.5C9.23338 4.5 9.32297 4.53542 9.3938 4.60625C9.46463 4.67708 9.50005 4.76667 9.50005 4.875V11.125C9.50005 11.2333 9.46463 11.3229 9.3938 11.3938C9.32297 11.4646 9.23338 11.5 9.12505 11.5C9.01672 11.5 8.92713 11.4646 8.8563 11.3938C8.78547 11.3229 8.75005 11.2333 8.75005 11.125V6.425C8.35005 6.33333 7.97922 6.1875 7.63755 5.9875C7.29588 5.7875 7.00005 5.54167 6.75005 5.25L6.45005 6.75L7.35005 7.6C7.40005 7.65 7.43755 7.70625 7.46255 7.76875C7.48755 7.83125 7.50005 7.89583 7.50005 7.9625V11C7.50005 11.1417 7.45213 11.2604 7.3563 11.3562C7.26047 11.4521 7.14172 11.5 7.00005 11.5C6.85838 11.5 6.73963 11.4521 6.6438 11.3562C6.54797 11.2604 6.50005 11.1417 6.50005 11V8.5L5.45005 7.5ZM3.22505 6.475L2.65005 6.3625C2.51672 6.3375 2.41255 6.26875 2.33755 6.15625C2.26255 6.04375 2.23755 5.91667 2.26255 5.775L2.63755 3.8125C2.68755 3.52917 2.83755 3.31458 3.08755 3.16875C3.33755 3.02292 3.60838 2.97917 3.90005 3.0375C4.04172 3.0625 4.14797 3.13125 4.2188 3.24375C4.28963 3.35625 4.31255 3.48333 4.28755 3.625L3.81255 6.075C3.78755 6.21667 3.7188 6.325 3.6063 6.4C3.4938 6.475 3.36672 6.5 3.22505 6.475ZM6.0438 2.45625C5.84797 2.26042 5.75005 2.025 5.75005 1.75C5.75005 1.475 5.84797 1.23958 6.0438 1.04375C6.23963 0.847917 6.47505 0.75 6.75005 0.75C7.02505 0.75 7.26047 0.847917 7.4563 1.04375C7.65213 1.23958 7.75005 1.475 7.75005 1.75C7.75005 2.025 7.65213 2.26042 7.4563 2.45625C7.26047 2.65208 7.02505 2.75 6.75005 2.75C6.47505 2.75 6.23963 2.65208 6.0438 2.45625Z" fill="var(--fill-0, #287686)"/>
</g>
</g>
</svg>
