<svg preserveAspectRatio="none" width="100%" height="100%" overflow="visible" style="display: block;" viewBox="0 0 18 18" fill="none" xmlns="http://www.w3.org/2000/svg">
<g id="nature_people">
<mask id="mask0_0_136" style="mask-type:alpha" maskUnits="userSpaceOnUse" x="0" y="0" width="18" height="18">
<rect id="Bounding box" width="18" height="18" fill="var(--fill-0, #D9D9D9)"/>
</mask>
<g mask="url(#mask0_0_136)">
<path id="nature_people_2" d="M3.40624 8.7691C3.12336 8.7691 2.88893 8.67667 2.70293 8.49179C2.5168 8.30679 2.42374 8.07292 2.42374 7.79017C2.42374 7.50729 2.51624 7.27279 2.70124 7.08667C2.88611 6.90067 3.11999 6.80767 3.40286 6.80767C3.68574 6.80767 3.92018 6.90017 4.10618 7.08517C4.2923 7.27004 4.38536 7.50392 4.38536 7.78679C4.38536 8.06967 4.29286 8.3041 4.10786 8.4901C3.92299 8.6761 3.68911 8.7691 3.40624 8.7691ZM4.29874 15.1874H10.7171V11.0191H9.21705C8.43055 11.0191 7.76518 10.7482 7.22093 10.2065C6.67668 9.6646 6.40455 9.01242 6.40455 8.24992C6.40455 7.64517 6.57905 7.1026 6.92805 6.62223C7.27718 6.14198 7.72574 5.78167 8.27374 5.54129C8.35837 4.73842 8.69205 4.07567 9.2748 3.55304C9.85743 3.03042 10.5257 2.7691 11.2796 2.7691C12.0334 2.7691 12.7017 3.03042 13.2843 3.55304C13.8671 4.07567 14.2007 4.73842 14.2852 5.54129C14.8333 5.78167 15.2819 6.14198 15.6309 6.62223C15.98 7.1026 16.1546 7.64517 16.1546 8.24992C16.1546 9.01242 15.8824 9.6646 15.3382 10.2065C14.7939 10.7482 14.1286 11.0191 13.3421 11.0191H11.8421V15.1874H15.0296C15.1889 15.1874 15.3225 15.2414 15.4302 15.3492C15.5381 15.4571 15.5921 15.5907 15.5921 15.7501C15.5921 15.9096 15.5381 16.0432 15.4302 16.1508C15.3225 16.2585 15.1889 16.3124 15.0296 16.3124H3.18818C2.99618 16.3124 2.83518 16.2477 2.70518 16.1184C2.5753 15.989 2.51036 15.8287 2.51036 15.6374V12.9374C2.37286 12.8528 2.22793 12.765 2.07555 12.6742C1.92305 12.5833 1.8468 12.4499 1.8468 12.274V10.0816C1.8468 9.92223 1.90074 9.78867 2.00861 9.68092C2.11636 9.57304 2.24993 9.5191 2.4093 9.5191H4.39961C4.55899 9.5191 4.69261 9.57304 4.80049 9.68092C4.90824 9.78867 4.96211 9.92223 4.96211 10.0816V12.274C4.96211 12.4499 4.88593 12.5833 4.73355 12.6742C4.58118 12.765 4.43624 12.8528 4.29874 12.9374V15.1874ZM9.21705 9.8941H13.3421C13.8122 9.8941 14.211 9.73579 14.5385 9.41917C14.8659 9.10254 15.0296 8.71279 15.0296 8.24992C15.0296 7.87879 14.9209 7.54729 14.7035 7.25542C14.4862 6.96367 14.2046 6.74423 13.8584 6.5971L13.2296 6.3316L13.1604 5.67967C13.1141 5.17879 12.9131 4.75598 12.5574 4.41123C12.2016 4.06648 11.7757 3.8941 11.2796 3.8941C10.7834 3.8941 10.3574 4.06648 10.0016 4.41123C9.6458 4.75598 9.44487 5.17879 9.39874 5.67967L9.32955 6.3316L8.70068 6.5971C8.35455 6.74423 8.0728 6.96367 7.85543 7.25542C7.63818 7.54729 7.52955 7.87879 7.52955 8.24992C7.52955 8.71279 7.69324 9.10254 8.02061 9.41917C8.34799 9.73579 8.7468 9.8941 9.21705 9.8941Z" fill="var(--fill-0, #757575)"/>
</g>
</g>
</svg>
