<svg preserveAspectRatio="none" width="100%" height="100%" overflow="visible" style="display: block;" viewBox="0 0 30.8582 30.8582" fill="none" xmlns="http://www.w3.org/2000/svg">
<g id="Exchange Icon Container">
<rect x="1.71456" y="1.71456" width="27.4291" height="27.4291" rx="13.7146" stroke="var(--stroke-0, white)" stroke-width="3.42912"/>
<g id="Vector">
<path d="M12.6113 13.5014C12.7327 13.3698 12.8799 13.304 13.0527 13.304C13.2254 13.304 13.3726 13.3698 13.4941 13.5014C13.6156 13.633 13.6763 13.7924 13.6763 13.9796C13.6763 14.1668 13.6156 14.3262 13.4941 14.4578C13.3726 14.5894 13.2254 14.6552 13.0527 14.6552C12.8799 14.6552 12.7327 14.5894 12.6113 14.4578C12.4898 14.3262 12.429 14.1668 12.429 13.9796C12.429 13.7924 12.4898 13.633 12.6113 13.5014ZM10.9291 13.9796C10.9291 13.3415 11.1358 12.7985 11.5491 12.3508C11.9624 11.903 12.4636 11.6791 13.0527 11.6791C13.6417 11.6791 14.1429 11.903 14.5562 12.3508C14.9695 12.7985 15.1762 13.3415 15.1762 13.9796C15.1762 14.4279 15.0694 14.8333 14.8558 15.1958C14.6422 15.5583 14.3629 15.835 14.0179 16.0259V19.6334C14.0179 19.6838 14.0095 19.7318 13.9926 19.7774C13.9758 19.823 13.9493 19.8654 13.9132 19.9045L13.297 20.5721C13.2608 20.6113 13.2227 20.6389 13.1826 20.655C13.1425 20.6711 13.0992 20.6791 13.0527 20.6791C13.0061 20.6791 12.9628 20.6711 12.9227 20.655C12.8827 20.6389 12.8445 20.6113 12.8084 20.5721L11.7904 19.4654C11.7607 19.4332 11.7369 19.3954 11.7188 19.352C11.7007 19.3085 11.6897 19.2651 11.6858 19.2217C11.6818 19.1782 11.6856 19.1348 11.6973 19.0914C11.7089 19.0479 11.7283 19.0066 11.7556 18.9675L12.1134 18.4518L11.7132 17.8679C11.69 17.8357 11.6731 17.8014 11.6627 17.7649C11.6523 17.7285 11.6472 17.6907 11.6472 17.6515C11.6472 17.6124 11.653 17.5735 11.6645 17.5349C11.6762 17.4963 11.6924 17.4609 11.7132 17.4287L12.0874 16.8391V16.0259C11.7449 15.835 11.4662 15.5583 11.2514 15.1958C11.0366 14.8333 10.9291 14.4279 10.9291 13.9796ZM11.5083 13.9796C11.5083 14.3807 11.6201 14.7281 11.8439 15.0216C12.0676 15.3152 12.3419 15.5068 12.6666 15.5964V17.0362L12.2819 17.6386C12.2819 17.636 12.2809 17.6353 12.279 17.6366C12.277 17.638 12.278 17.6386 12.2819 17.6386L12.8336 18.4559L12.3324 19.1661L13.0527 19.9464L13.4388 19.5281V15.5964C13.7635 15.5068 14.0377 15.3152 14.2614 15.0216C14.4852 14.7281 14.5971 14.3807 14.5971 13.9796C14.5971 13.5195 14.4458 13.1256 14.1434 12.798C13.8409 12.4703 13.4774 12.3065 13.0527 12.3065C12.628 12.3065 12.2644 12.4703 11.9619 12.798C11.6595 13.1256 11.5083 13.5195 11.5083 13.9796Z" fill="var(--fill-0, #969696)"/>
<path d="M17.4061 13.5541C17.2313 13.5541 17.0833 13.6197 16.9621 13.751C16.841 13.8822 16.7805 14.0426 16.7805 14.232V15.3461H16.7471C16.5723 15.3461 16.4243 15.4118 16.3031 15.543C16.182 15.6743 16.1214 15.8346 16.1214 16.0241V20.7512C16.1214 20.9406 16.182 21.101 16.3031 21.2322C16.4243 21.3635 16.5723 21.4291 16.7471 21.4291H19.3034C19.4782 21.4291 19.6262 21.3635 19.7474 21.2322C19.8685 21.101 19.9291 20.9406 19.9291 20.7512V16.0241C19.9291 15.8346 19.8685 15.6743 19.7474 15.543C19.6262 15.4118 19.4782 15.3461 19.3034 15.3461H19.27V14.232C19.27 14.0426 19.2095 13.8822 19.0884 13.751C18.9672 13.6197 18.8192 13.5541 18.6444 13.5541H17.4061ZM18.0253 17.3943C18.2804 17.3943 18.4973 17.4905 18.6759 17.6828C18.8546 17.875 18.9439 18.1094 18.9439 18.3858C18.9439 18.6622 18.8546 18.8978 18.6759 19.0926C18.4973 19.2873 18.2804 19.3846 18.0253 19.3846C17.7701 19.3846 17.5532 19.2873 17.3746 19.0926C17.1959 18.8978 17.1066 18.6622 17.1066 18.3858C17.1066 18.1094 17.1959 17.875 17.3746 17.6828C17.5532 17.4905 17.7701 17.3943 18.0253 17.3943ZM17.3796 14.1166H18.6743C18.6965 14.1166 18.7154 14.125 18.7309 14.1418C18.7464 14.1587 18.7542 14.1791 18.7542 14.2031V15.3461H17.2996V14.2031C17.2996 14.1791 17.3074 14.1587 17.323 14.1418C17.3385 14.125 17.3574 14.1166 17.3796 14.1166ZM16.7205 15.9087H19.33C19.3522 15.9087 19.371 15.9171 19.3866 15.934C19.4021 15.9508 19.4099 15.9712 19.4099 15.9952V20.7801C19.4099 20.8041 19.4021 20.8245 19.3866 20.8414C19.371 20.8582 19.3522 20.8666 19.33 20.8666H16.7205C16.6983 20.8666 16.6795 20.8582 16.6639 20.8414C16.6484 20.8245 16.6406 20.8041 16.6406 20.7801V15.9952C16.6406 15.9712 16.6484 15.9508 16.6639 15.934C16.6795 15.9171 16.6983 15.9087 16.7205 15.9087ZM18.0253 17.9567C17.9138 17.9567 17.82 17.9981 17.7437 18.0808C17.6673 18.1635 17.6292 18.2652 17.6292 18.3858C17.6292 18.5065 17.6673 18.6094 17.7437 18.6945C17.82 18.7796 17.9138 18.8221 18.0253 18.8221C18.1367 18.8221 18.2316 18.7796 18.3101 18.6945C18.3887 18.6094 18.428 18.5065 18.428 18.3858C18.428 18.2652 18.3887 18.1635 18.3101 18.0808C18.2316 17.9981 18.1367 17.9567 18.0253 17.9567ZM16.7205 15.9087H16.6406H19.4099H16.7205Z" fill="var(--fill-0, #969696)"/>
<path d="M12.4864 12.2813C12.4864 11.6995 12.5016 11.1902 12.8329 10.7416C13.5252 9.80412 14.3773 9.4291 15.4291 9.42912C16.2811 9.42914 16.9873 9.61662 17.8527 10.3666C18.2035 10.6707 18.5716 11.1166 18.5716 12.2813V13.883H17.7062V12.2813C17.7062 11.4841 17.5065 11.3041 17.3334 11.1166C17.0612 10.8144 16.4675 10.3666 15.4291 10.3666C14.2175 10.3666 13.6983 10.9682 13.5879 11.1949C13.3521 11.6791 13.3521 11.8591 13.3521 12.2813H12.4864Z" fill="var(--fill-0, #969696)"/>
</g>
</g>
</svg>
