<svg preserveAspectRatio="none" width="100%" height="100%" overflow="visible" style="display: block;" viewBox="0 0 16 16" fill="none" xmlns="http://www.w3.org/2000/svg">
<g id="done_all">
<mask id="mask0_0_153" style="mask-type:alpha" maskUnits="userSpaceOnUse" x="0" y="0" width="16" height="16">
<rect id="Bounding box" width="16" height="16" fill="var(--fill-0, white)"/>
</mask>
<g mask="url(#mask0_0_153)">
<path id="done_all_2" d="M1.28211 8.58466C1.183 8.48543 1.13411 8.36938 1.13544 8.23649C1.13667 8.1036 1.189 7.98543 1.29244 7.88199C1.39589 7.78543 1.513 7.73543 1.64378 7.73199C1.77444 7.72866 1.8915 7.77866 1.99494 7.88199L4.47711 10.3642L4.64378 10.1975C4.70867 10.2283 4.77683 10.2665 4.84828 10.3122C4.91961 10.3579 4.98989 10.4154 5.05911 10.4847C5.16255 10.588 5.21255 10.705 5.20911 10.8358C5.20567 10.9666 5.15222 11.0837 5.04878 11.1872L4.88861 11.3475C4.76805 11.4612 4.62744 11.5197 4.46678 11.523C4.30611 11.5264 4.1655 11.4679 4.04494 11.3475L1.28211 8.58466ZM8.23344 10.3538L14.0154 4.57182C14.1147 4.47271 14.2307 4.42377 14.3636 4.42499C14.4965 4.42632 14.6147 4.47866 14.7181 4.58199C14.8147 4.68543 14.8647 4.80255 14.8681 4.93332C14.8714 5.0641 14.8214 5.18121 14.7181 5.28466L8.65528 11.3475C8.53472 11.4679 8.39411 11.5282 8.23344 11.5282C8.07278 11.5282 7.93217 11.4679 7.81161 11.3475L5.04878 8.58466C4.95655 8.49232 4.90933 8.37799 4.90711 8.24166C4.905 8.10532 4.95222 7.98543 5.04878 7.88199C5.15222 7.77866 5.27105 7.72699 5.40528 7.72699C5.53939 7.72699 5.65817 7.77866 5.76161 7.88199L8.23344 10.3538ZM10.9411 5.29482L8.35394 7.88199C8.26161 7.97432 8.14728 8.02155 8.01094 8.02366C7.87461 8.02588 7.75478 7.97866 7.65144 7.88199C7.548 7.77866 7.49628 7.65988 7.49628 7.52566C7.49628 7.39143 7.548 7.27266 7.65144 7.16932L10.2386 4.58199C10.3309 4.48977 10.4452 4.44254 10.5814 4.44032C10.7178 4.43821 10.8377 4.48543 10.9411 4.58199C11.0446 4.68543 11.0963 4.80427 11.0963 4.93849C11.0963 5.0726 11.0446 5.19138 10.9411 5.29482Z" fill="var(--fill-0, white)"/>
</g>
</g>
</svg>
