<svg width="12" height="12" viewBox="0 0 12 12" fill="none" xmlns="http://www.w3.org/2000/svg">
<g id="Frame 1171280975">
<g id="services package">
<rect x="-6.5" y="-6.5" width="90" height="25" rx="12.5" stroke="#757575"/>
<g id="services package_2">
<g id="hiking">
<mask id="mask0_3014_8006" style="mask-type:alpha" maskUnits="userSpaceOnUse" x="0" y="0" width="12" height="12">
<rect id="Bounding box" width="12" height="12" fill="#D9D9D9"/>
</mask>
<g mask="url(#mask0_3014_8006)">
<path id="hiking_2" d="M5.4498 7.5L4.6373 11.1C4.6123 11.2167 4.55189 11.3125 4.45605 11.3875C4.36022 11.4625 4.2498 11.5 4.1248 11.5C3.95814 11.5 3.8248 11.4375 3.7248 11.3125C3.6248 11.1875 3.59147 11.0458 3.6248 10.8875L5.0373 3.725C5.0873 3.48333 5.1998 3.30208 5.3748 3.18125C5.5498 3.06042 5.73314 3 5.9248 3C6.11647 3 6.29355 3.04167 6.45605 3.125C6.61855 3.20833 6.7498 3.33333 6.8498 3.5L7.3498 4.3C7.4998 4.54167 7.69355 4.76042 7.93105 4.95625C8.16855 5.15208 8.44147 5.29583 8.7498 5.3875V4.875C8.7498 4.76667 8.78522 4.67708 8.85605 4.60625C8.92689 4.53542 9.01647 4.5 9.1248 4.5C9.23314 4.5 9.32272 4.53542 9.39355 4.60625C9.46439 4.67708 9.4998 4.76667 9.4998 4.875V11.125C9.4998 11.2333 9.46439 11.3229 9.39355 11.3938C9.32272 11.4646 9.23314 11.5 9.1248 11.5C9.01647 11.5 8.92689 11.4646 8.85605 11.3938C8.78522 11.3229 8.7498 11.2333 8.7498 11.125V6.425C8.3498 6.33333 7.97897 6.1875 7.6373 5.9875C7.29564 5.7875 6.9998 5.54167 6.7498 5.25L6.4498 6.75L7.3498 7.6C7.39981 7.65 7.4373 7.70625 7.4623 7.76875C7.4873 7.83125 7.4998 7.89583 7.4998 7.9625V11C7.4998 11.1417 7.45189 11.2604 7.35605 11.3562C7.26022 11.4521 7.14147 11.5 6.9998 11.5C6.85814 11.5 6.73939 11.4521 6.64355 11.3562C6.54772 11.2604 6.4998 11.1417 6.4998 11V8.5L5.4498 7.5ZM3.2248 6.475L2.6498 6.3625C2.51647 6.3375 2.4123 6.26875 2.3373 6.15625C2.2623 6.04375 2.2373 5.91667 2.2623 5.775L2.6373 3.8125C2.6873 3.52917 2.8373 3.31458 3.0873 3.16875C3.3373 3.02292 3.60814 2.97917 3.8998 3.0375C4.04147 3.0625 4.14772 3.13125 4.21855 3.24375C4.28939 3.35625 4.3123 3.48333 4.2873 3.625L3.8123 6.075C3.7873 6.21667 3.71855 6.325 3.60605 6.4C3.49355 6.475 3.36647 6.5 3.2248 6.475ZM6.04355 2.45625C5.84772 2.26042 5.7498 2.025 5.7498 1.75C5.7498 1.475 5.84772 1.23958 6.04355 1.04375C6.23939 0.847917 6.4748 0.75 6.7498 0.75C7.02481 0.75 7.26022 0.847917 7.45605 1.04375C7.65189 1.23958 7.7498 1.475 7.7498 1.75C7.7498 2.025 7.65189 2.26042 7.45605 2.45625C7.26022 2.65208 7.02481 2.75 6.7498 2.75C6.4748 2.75 6.23939 2.65208 6.04355 2.45625Z" fill="#757575"/>
</g>
</g>
</g>
</g>
</g>
</svg>
