<svg preserveAspectRatio="none" width="100%" height="100%" overflow="visible" style="display: block;" viewBox="0 0 18 18" fill="none" xmlns="http://www.w3.org/2000/svg">
<g id="stress_management">
<mask id="mask0_0_137" style="mask-type:alpha" maskUnits="userSpaceOnUse" x="0" y="0" width="18" height="18">
<rect id="Bounding box" width="18" height="18" fill="var(--fill-0, #D9D9D9)"/>
</mask>
<g mask="url(#mask0_0_137)">
<path id="stress_management_2" d="M9 11.8123C9.7375 11.8123 10.532 11.6878 11.3835 11.4388C12.2349 11.1897 13.4072 10.7387 14.9004 10.0858C14.9399 9.91469 14.9664 9.7455 14.9797 9.57825C14.9932 9.41088 15 9.23682 15 9.05607C15 8.91857 14.9469 8.80607 14.8406 8.71857C14.7344 8.63107 14.6125 8.60607 14.475 8.64357C14.3 8.70607 14.1062 8.77169 13.8937 8.84044C13.6812 8.90919 13.4125 9.01232 13.0875 9.14982C12.225 9.51232 11.4875 9.76544 10.875 9.90919C10.2625 10.0529 9.6375 10.1248 9 10.1248C8.35 10.1248 7.7125 10.0498 7.0875 9.89982C6.4625 9.74982 5.7 9.49357 4.8 9.13107C4.475 8.99357 4.225 8.89357 4.05 8.83107L3.525 8.64357C3.3875 8.59357 3.26562 8.61544 3.15937 8.70919C3.05312 8.80294 3 8.91857 3 9.05607C3 9.23682 3.00675 9.41207 3.02025 9.58182C3.03363 9.75144 3.06006 9.92188 3.09956 10.0931C4.34756 10.6786 5.45981 11.1116 6.43631 11.3919C7.41269 11.6722 8.26725 11.8123 9 11.8123ZM9 14.6248C10.2279 14.6248 11.3137 14.3433 12.2574 13.7803C13.2012 13.2173 13.9149 12.4685 14.3985 11.5339C13.2601 12.0204 12.2638 12.3759 11.4094 12.6006C10.555 12.8251 9.75187 12.9373 9 12.9373C8.26062 12.9373 7.43756 12.8219 6.53081 12.5912C5.62406 12.3603 4.64375 12.0141 3.58988 11.5526C4.061 12.4921 4.76919 13.239 5.71444 13.7933C6.65956 14.3476 7.75475 14.6248 9 14.6248ZM7.011 6.67632C6.462 6.12719 6.1875 5.46419 6.1875 4.68732C6.1875 3.91044 6.462 3.24744 7.011 2.69832C7.56013 2.14932 8.22312 1.87482 9 1.87482C9.77688 1.87482 10.4399 2.14932 10.989 2.69832C11.538 3.24744 11.8125 3.91044 11.8125 4.68732C11.8125 5.46419 11.538 6.12719 10.989 6.67632C10.4399 7.22532 9.77688 7.49982 9 7.49982C8.22312 7.49982 7.56013 7.22532 7.011 6.67632ZM10.1929 5.88019C10.5226 5.55032 10.6875 5.15269 10.6875 4.68732C10.6875 4.22194 10.5226 3.82432 10.1929 3.49444C9.863 3.16469 9.46538 2.99982 9 2.99982C8.53462 2.99982 8.137 3.16469 7.80713 3.49444C7.47738 3.82432 7.3125 4.22194 7.3125 4.68732C7.3125 5.15269 7.47738 5.55032 7.80713 5.88019C8.137 6.20994 8.53462 6.37482 9 6.37482C9.46538 6.37482 9.863 6.20994 10.1929 5.88019ZM9 15.7498C6.90775 15.7498 5.19719 15.1296 3.86831 13.8893C2.53944 12.6489 1.875 11.0378 1.875 9.05607C1.875 8.53107 2.08269 8.11207 2.49806 7.79907C2.91344 7.48607 3.36731 7.41038 3.85969 7.572C4.05481 7.6345 4.25938 7.70513 4.47338 7.78388C4.68725 7.86275 4.94181 7.96469 5.23706 8.08969C6.07069 8.42919 6.75963 8.66575 7.30388 8.79938C7.84813 8.933 8.4135 8.99982 9 8.99982C9.5615 8.99982 10.1132 8.93613 10.6551 8.80875C11.1969 8.68138 11.8659 8.45038 12.6621 8.11575C13.0149 7.97825 13.3008 7.86694 13.5195 7.78182C13.7383 7.69669 13.9491 7.62288 14.1519 7.56038C14.6442 7.41425 15.0961 7.49888 15.5078 7.81425C15.9193 8.12963 16.125 8.54357 16.125 9.05607C16.125 9.99544 15.9396 10.8704 15.5689 11.6811C15.1983 12.4916 14.6923 13.1988 14.0509 13.8026C13.4096 14.4065 12.6556 14.882 11.7887 15.2291C10.9218 15.5763 9.99225 15.7498 9 15.7498Z" fill="var(--fill-0, #4A3579)"/>
</g>
</g>
</svg>
