<svg preserveAspectRatio="none" width="100%" height="100%" overflow="visible" style="display: block;" viewBox="0 0 24 24" fill="none" xmlns="http://www.w3.org/2000/svg">
<g id="lets-icons:arrow-drop-down">
<path id="Vector" d="M11.8085 15.77L8.0935 11.312C7.99618 11.1952 7.93418 11.053 7.91475 10.9022C7.89533 10.7514 7.91929 10.5981 7.98383 10.4605C8.04837 10.3228 8.15082 10.2063 8.27916 10.1248C8.40751 10.0432 8.55644 9.99994 8.7085 10H15.2925C15.4445 10.0001 15.5933 10.0436 15.7215 10.1252C15.8497 10.2068 15.952 10.3233 16.0164 10.4609C16.0808 10.5986 16.1047 10.7517 16.0852 10.9024C16.0658 11.0532 16.0038 11.1952 15.9065 11.312L12.1925 15.77C12.169 15.7981 12.1397 15.8208 12.1065 15.8363C12.0733 15.8518 12.0371 15.8599 12.0005 15.8599C11.9639 15.8599 11.9277 15.8518 11.8945 15.8363C11.8613 15.8208 11.832 15.7981 11.8085 15.77Z" fill="var(--fill-0, #549BAA)"/>
</g>
</svg>
