<svg preserveAspectRatio="none" width="100%" height="100%" overflow="visible" style="display: block;" viewBox="0 0 20 20" fill="none" xmlns="http://www.w3.org/2000/svg">
<g id="download">
<mask id="mask0_0_4" style="mask-type:alpha" maskUnits="userSpaceOnUse" x="0" y="0" width="20" height="20">
<rect id="Bounding box" width="20" height="20" fill="var(--fill-0, #D9D9D9)"/>
</mask>
<g mask="url(#mask0_0_4)">
<path id="download_2" d="M10.0016 12.9792C9.89052 12.9792 9.78635 12.9618 9.68913 12.9271C9.59191 12.8924 9.50163 12.8333 9.41829 12.75L6.41829 9.75001C6.25163 9.58334 6.17177 9.3889 6.17871 9.16667C6.18566 8.94445 6.26552 8.75001 6.41829 8.58334C6.58496 8.41667 6.78288 8.32987 7.01204 8.32292C7.24121 8.31598 7.43913 8.39584 7.60579 8.56251L9.16829 10.125V4.16667C9.16829 3.93056 9.24816 3.73265 9.40788 3.57292C9.5676 3.4132 9.76552 3.33334 10.0016 3.33334C10.2377 3.33334 10.4357 3.4132 10.5954 3.57292C10.7551 3.73265 10.835 3.93056 10.835 4.16667V10.125L12.3975 8.56251C12.5641 8.39584 12.762 8.31598 12.9912 8.32292C13.2204 8.32987 13.4183 8.41667 13.585 8.58334C13.7377 8.75001 13.8176 8.94445 13.8245 9.16667C13.8315 9.3889 13.7516 9.58334 13.585 9.75001L10.585 12.75C10.5016 12.8333 10.4114 12.8924 10.3141 12.9271C10.2169 12.9618 10.1127 12.9792 10.0016 12.9792ZM5.00163 16.6667C4.54329 16.6667 4.15093 16.5035 3.82454 16.1771C3.49816 15.8507 3.33496 15.4583 3.33496 15V13.3333C3.33496 13.0972 3.41482 12.8993 3.57454 12.7396C3.73427 12.5799 3.93218 12.5 4.16829 12.5C4.40441 12.5 4.60232 12.5799 4.76204 12.7396C4.92177 12.8993 5.00163 13.0972 5.00163 13.3333V15H15.0016V13.3333C15.0016 13.0972 15.0815 12.8993 15.2412 12.7396C15.4009 12.5799 15.5989 12.5 15.835 12.5C16.0711 12.5 16.269 12.5799 16.4287 12.7396C16.5884 12.8993 16.6683 13.0972 16.6683 13.3333V15C16.6683 15.4583 16.5051 15.8507 16.1787 16.1771C15.8523 16.5035 15.46 16.6667 15.0016 16.6667H5.00163Z" fill="var(--fill-0, #1C1B1F)"/>
</g>
</g>
</svg>
