<svg preserveAspectRatio="none" width="100%" height="100%" overflow="visible" style="display: block;" viewBox="0 0 13.3336 13.2093" fill="none" xmlns="http://www.w3.org/2000/svg">
<g id="Group">
<g id="Vector">
</g>
<path id="Vector_2" fill-rule="evenodd" clip-rule="evenodd" d="M9.176 0C9.54736 1.26187e-05 9.91139 0.103423 10.2273 0.298646C10.5432 0.493869 10.7985 0.773195 10.9647 1.10533L11.8887 2.95267C12.0513 2.886 12.2113 2.814 12.3687 2.73667C12.5269 2.65763 12.7101 2.6447 12.8779 2.70071C13.0456 2.75672 13.1843 2.87709 13.2633 3.03533C13.3424 3.19358 13.3553 3.37674 13.2993 3.54452C13.2433 3.71231 13.1229 3.85097 12.9647 3.93C12.8044 4.00132 12.6433 4.07066 12.4813 4.138L13.122 5.42C13.2611 5.69797 13.3334 6.00452 13.3333 6.31533V8C13.3333 8.28139 13.2739 8.55961 13.1591 8.81647C13.0442 9.07334 12.8764 9.30308 12.6667 9.49067V10.3333C12.6667 10.5986 12.5613 10.8529 12.3738 11.0404C12.1862 11.228 11.9319 11.3333 11.6667 11.3333C11.4014 11.3333 11.1471 11.228 10.9596 11.0404C10.772 10.8529 10.6667 10.5986 10.6667 10.3333V10H2.66667V10.3333C2.66667 10.5986 2.56131 10.8529 2.37377 11.0404C2.18624 11.228 1.93188 11.3333 1.66667 11.3333C1.40145 11.3333 1.1471 11.228 0.95956 11.0404C0.772023 10.8529 0.666667 10.5986 0.666667 10.3333V9.49067C0.257333 9.124 0 8.592 0 8V6.31467C0.000124586 6.00431 0.0724774 5.69823 0.211333 5.42067L0.846666 4.14867C0.685778 4.08111 0.526889 4.00845 0.37 3.93067C0.212554 3.85061 0.092873 3.71188 0.0367551 3.5444C-0.0193629 3.37692 -0.00742333 3.19409 0.07 3.03533C0.109106 2.95695 0.163275 2.88705 0.229411 2.82961C0.295547 2.77218 0.372354 2.72834 0.455441 2.7006C0.538528 2.67286 0.626267 2.66177 0.713643 2.66796C0.801019 2.67415 0.886318 2.6975 0.964666 2.73667C1.12244 2.81444 1.28244 2.88644 1.44467 2.95267L2.36867 1.106C2.5347 0.773737 2.78998 0.494275 3.1059 0.29893C3.42182 0.103584 3.7859 7.45227e-05 4.15733 0H9.176ZM3.66667 6C3.40145 6 3.1471 6.10536 2.95956 6.29289C2.77202 6.48043 2.66667 6.73478 2.66667 7C2.66667 7.26522 2.77202 7.51957 2.95956 7.70711C3.1471 7.89464 3.40145 8 3.66667 8C3.93188 8 4.18624 7.89464 4.37377 7.70711C4.56131 7.51957 4.66667 7.26522 4.66667 7C4.66667 6.73478 4.56131 6.48043 4.37377 6.29289C4.18624 6.10536 3.93188 6 3.66667 6ZM9.66666 6C9.40145 6 9.14709 6.10536 8.95956 6.29289C8.77202 6.48043 8.66666 6.73478 8.66666 7C8.66666 7.26522 8.77202 7.51957 8.95956 7.70711C9.14709 7.89464 9.40145 8 9.66666 8C9.93188 8 10.1862 7.89464 10.3738 7.70711C10.5613 7.51957 10.6667 7.26522 10.6667 7C10.6667 6.73478 10.5613 6.48043 10.3738 6.29289C10.1862 6.10536 9.93188 6 9.66666 6ZM9.176 1.33333H4.15733C4.0476 1.33332 3.93957 1.36039 3.84281 1.41214C3.74605 1.46389 3.66356 1.53872 3.60267 1.63L3.56133 1.702L2.71467 3.394C3.74667 3.70333 5.13733 4 6.66667 4C8.09466 4 9.40066 3.74133 10.4067 3.45533L10.618 3.394L9.772 1.702C9.72293 1.60388 9.65041 1.51938 9.56087 1.456C9.47132 1.39262 9.36752 1.35232 9.25866 1.33867L9.17666 1.33333H9.176Z" fill="var(--fill-0, #969696)"/>
</g>
</svg>
