<svg preserveAspectRatio="none" width="100%" height="100%" overflow="visible" style="display: block;" viewBox="0 0 18 18" fill="none" xmlns="http://www.w3.org/2000/svg">
<g id="apartment">
<mask id="mask0_0_499" style="mask-type:alpha" maskUnits="userSpaceOnUse" x="0" y="0" width="18" height="18">
<rect id="Bounding box" width="18" height="18" fill="var(--fill-0, #D9D9D9)"/>
</mask>
<g mask="url(#mask0_0_499)">
<path id="apartment_2" d="M3.57632 15.4326C3.25995 15.4326 2.99095 15.3218 2.76932 15.1002C2.5477 14.8784 2.43688 14.6094 2.43688 14.2932V6.44684C2.43688 6.13059 2.5477 5.86165 2.76932 5.64003C2.99095 5.4184 3.25995 5.30759 3.57632 5.30759H5.43688V3.44684C5.43688 3.13059 5.5477 2.86165 5.76932 2.64003C5.99095 2.4184 6.25995 2.30759 6.57632 2.30759H11.4224C11.7388 2.30759 12.0078 2.4184 12.2294 2.64003C12.4511 2.86165 12.5619 3.13059 12.5619 3.44684V8.30759H14.4224C14.7388 8.30759 15.0078 8.4184 15.2294 8.64003C15.4511 8.86165 15.5619 9.13059 15.5619 9.44684V14.2932C15.5619 14.6094 15.4511 14.8784 15.2294 15.1002C15.0078 15.3218 14.7388 15.4326 14.4224 15.4326H9.93688V12.4326H8.06188V15.4326H3.57632ZM3.56188 14.3076H5.43688V12.4326H3.56188V14.3076ZM3.56188 11.3076H5.43688V9.43259H3.56188V11.3076ZM3.56188 8.30759H5.43688V6.43259H3.56188V8.30759ZM6.56188 11.3076H8.43688V9.43259H6.56188V11.3076ZM6.56188 8.30759H8.43688V6.43259H6.56188V8.30759ZM6.56188 5.30759H8.43688V3.43259H6.56188V5.30759ZM9.56188 11.3076H11.4369V9.43259H9.56188V11.3076ZM9.56188 8.30759H11.4369V6.43259H9.56188V8.30759ZM9.56188 5.30759H11.4369V3.43259H9.56188V5.30759ZM12.5619 14.3076H14.4369V12.4326H12.5619V14.3076ZM12.5619 11.3076H14.4369V9.43259H12.5619V11.3076Z" fill="var(--fill-0, #757575)"/>
</g>
</g>
</svg>
