<svg preserveAspectRatio="none" width="100%" height="100%" overflow="visible" style="display: block;" viewBox="0 0 14 14" fill="none" xmlns="http://www.w3.org/2000/svg">
<g id="concierge">
<mask id="mask0_0_491" style="mask-type:alpha" maskUnits="userSpaceOnUse" x="0" y="0" width="14" height="14">
<rect id="Bounding box" width="14" height="14" fill="var(--fill-0, #D9D9D9)"/>
</mask>
<g mask="url(#mask0_0_491)">
<path id="concierge_2" d="M6.70866 12.25C6.62563 12.25 6.55627 12.2221 6.50056 12.1664C6.44485 12.1107 6.41699 12.0413 6.41699 11.9583C6.41699 11.8753 6.44485 11.8059 6.50056 11.7502C6.55627 11.6945 6.62563 11.6666 6.70866 11.6666H12.542C12.625 11.6666 12.6944 11.6945 12.7501 11.7502C12.8058 11.8059 12.8337 11.8753 12.8337 11.9583C12.8337 12.0413 12.8058 12.1107 12.7501 12.1664C12.6944 12.2221 12.625 12.25 12.542 12.25H6.70866ZM7.00033 10.859C7.00033 10.1836 7.22394 9.59858 7.67116 9.10392C8.11838 8.60915 8.67255 8.3274 9.33366 8.25867V8.01746C9.33366 7.94192 9.36152 7.8744 9.41722 7.8149C9.47293 7.75549 9.5423 7.72579 9.62533 7.72579C9.70087 7.72579 9.76834 7.75549 9.82775 7.8149C9.88725 7.8744 9.917 7.94192 9.917 8.01746V8.25867C10.5759 8.3274 11.1295 8.60915 11.5777 9.10392C12.0261 9.59858 12.2503 10.1836 12.2503 10.859H7.00033ZM1.18945 6.08006C1.18945 6.32613 1.27374 6.53351 1.44233 6.70219C1.61101 6.87077 1.81838 6.95506 2.06445 6.95506C2.31052 6.95506 2.51785 6.87077 2.68643 6.70219C2.85511 6.53351 2.93945 6.32613 2.93945 6.08006V3.07371C2.93945 2.82764 2.85511 2.62026 2.68643 2.45158C2.51785 2.283 2.31052 2.19871 2.06445 2.19871C1.81838 2.19871 1.61101 2.283 1.44233 2.45158C1.27374 2.62026 1.18945 2.82764 1.18945 3.07371V6.08006ZM3.52279 6.06665C3.52279 6.31417 3.60897 6.52413 3.78135 6.6965C3.95372 6.86888 4.16368 6.95506 4.4112 6.95506H4.73991C4.79523 6.95506 4.85074 6.94967 4.90645 6.93888C4.96216 6.92799 5.01661 6.91282 5.06979 6.89338L8.74245 5.54719C8.88527 5.4941 8.99708 5.40719 9.07787 5.28644C9.15866 5.16569 9.19906 5.03162 9.19906 4.88423V4.873C9.19906 4.75488 9.15681 4.65357 9.07233 4.56908C8.98775 4.4846 8.88639 4.44235 8.76827 4.44235H7.44906L6.14108 4.90217C6.08566 4.92385 6.02956 4.922 5.97279 4.89663C5.91591 4.87115 5.87663 4.83076 5.85495 4.77544C5.82579 4.71263 5.82637 4.65036 5.8567 4.58863C5.88694 4.52699 5.93346 4.48533 5.99627 4.46365L7.4266 3.99362H11.0837C11.335 3.99362 11.5586 3.90797 11.7545 3.73667C11.9504 3.56546 12.0483 3.35196 12.0483 3.09617L8.24779 1.82508C8.16106 1.79145 8.06812 1.77409 7.96895 1.77302C7.86988 1.77185 7.77324 1.78323 7.67904 1.80715L4.20368 2.82244C3.99582 2.88524 3.83035 3.00001 3.70727 3.16675C3.58428 3.33358 3.52279 3.52205 3.52279 3.73215V6.06665Z" fill="var(--fill-0, #287686)"/>
</g>
</g>
</svg>
