<svg preserveAspectRatio="none" width="100%" height="100%" overflow="visible" style="display: block;" viewBox="0 0 8 46" fill="none" xmlns="http://www.w3.org/2000/svg">
<g id="Frame 1171281077">
<circle id="Ellipse 912" cx="4" cy="4" r="4" fill="var(--fill-0, #969696)"/>
<line id="Line 87" x1="3.5" y1="35.5" x2="3.5" y2="12.5" stroke="var(--stroke-0, #969696)" stroke-linecap="round" stroke-dasharray="2 3"/>
<path id="Vector" d="M3.8128 45.908L0.181144 41.3434C0.0860072 41.2237 0.0253937 41.0782 0.00640638 40.9238C-0.0125809 40.7693 0.010844 40.6124 0.0739364 40.4715C0.137029 40.3305 0.237176 40.2113 0.362642 40.1278C0.488107 40.0443 0.633695 39.9999 0.782346 40H7.21863C7.3672 40.0001 7.51266 40.0446 7.63798 40.1282C7.7633 40.2117 7.8633 40.331 7.92627 40.4719C7.98924 40.6129 8.01259 40.7697 7.99356 40.924C7.97454 41.0783 7.91394 41.2238 7.81886 41.3434L4.18818 45.908C4.16525 45.9368 4.13654 45.9599 4.10411 45.9759C4.07168 45.9918 4.0363 46 4.00049 46C3.96468 46 3.9293 45.9918 3.89687 45.9759C3.86443 45.9599 3.83573 45.9368 3.8128 45.908Z" fill="var(--fill-0, #969696)"/>
</g>
</svg>
