<svg preserveAspectRatio="none" width="100%" height="100%" overflow="visible" style="display: block;" viewBox="0 0 18 18" fill="none" xmlns="http://www.w3.org/2000/svg">
<g id="Person red hair">
<g id="Shape">
<path d="M8.59903 9.8587L8.04166 11.6415C7.92791 12.0083 8.20091 12.375 8.58766 12.375H9.41234C9.79909 12.375 10.0721 12.0026 9.95834 11.6415L9.40097 9.8587C9.28153 9.46377 8.72416 9.46377 8.59903 9.8587Z" fill="var(--fill-0, #ADADAD)"/>
<path d="M7.54705 13.0967C7.9675 13.3159 8.46778 13.4412 9 13.4412C9.53754 13.4412 10.0325 13.3159 10.453 13.0967C10.5967 13.0237 10.751 13.1802 10.6605 13.3159C10.3093 13.8482 9.6972 14.2031 9 14.2031C8.30279 14.2031 7.69074 13.8482 7.33948 13.3159C7.249 13.1854 7.40335 13.0237 7.54705 13.0967Z" fill="var(--fill-0, #ADADAD)"/>
<path d="M6.49255 8.6625C5.80946 8.6625 5.23189 9.13517 5.07083 9.76911C5.0264 9.95261 5.16524 10.125 5.35407 10.125H5.80391C5.78169 10.0419 5.77059 9.96435 5.77059 9.87571C5.77059 9.35497 6.19266 8.93949 6.70914 8.93949C7.22563 8.93949 7.64215 9.35497 7.64215 9.87571C7.64215 9.96435 7.63104 10.0474 7.60883 10.125H7.69213C7.84208 10.125 7.9587 9.99154 7.93093 9.8414C7.79765 9.16854 7.20341 8.6625 6.49255 8.6625Z" fill="var(--fill-0, #ADADAD)"/>
<path d="M11.5074 8.6625C12.1905 8.6625 12.7681 9.13517 12.9292 9.76911C12.9736 9.95261 12.8348 10.125 12.6459 10.125H12.1961C12.2183 10.0419 12.2294 9.96435 12.2294 9.87571C12.2294 9.35497 11.8074 8.93949 11.2909 8.93949C10.7744 8.93949 10.3523 9.35497 10.3579 9.87571C10.3579 9.96435 10.369 10.0474 10.3912 10.125H10.3079C10.1579 10.125 10.0413 9.99154 10.0691 9.8414C10.2023 9.16854 10.791 8.6625 11.5074 8.6625Z" fill="var(--fill-0, #ADADAD)"/>
<path d="M6.70914 9.34389C7.00348 9.34389 7.24229 9.5821 7.24229 9.87571C7.24229 9.96434 7.22007 10.0474 7.1812 10.125H6.23709C6.19821 10.0474 6.176 9.96434 6.176 9.87571C6.176 9.7788 6.20201 9.68793 6.24745 9.60967C6.27719 9.65578 6.3286 9.68625 6.38703 9.68625C6.47905 9.68625 6.55364 9.6107 6.55364 9.5175C6.55364 9.46587 6.53075 9.41966 6.49468 9.3887C6.56031 9.35989 6.63286 9.34389 6.70914 9.34389Z" fill="var(--fill-0, #ADADAD)"/>
<path d="M10.8419 9.58042C10.7852 9.6649 10.7521 9.76647 10.7521 9.87571C10.7521 9.96434 10.7744 10.0474 10.8132 10.125H11.7573C11.7962 10.0474 11.8184 9.96434 11.8184 9.87571C11.8184 9.5821 11.5796 9.34389 11.2853 9.34389C11.2174 9.34389 11.1524 9.35657 11.0927 9.37968C11.1353 9.41025 11.1631 9.46058 11.1631 9.5175C11.1631 9.6107 11.0885 9.68625 10.9965 9.68625C10.9265 9.68625 10.8665 9.64245 10.8419 9.58042Z" fill="var(--fill-0, #ADADAD)"/>
<path d="M12.1937 6.96547C12.5174 7.06735 12.731 7.23692 12.9148 7.39694C13.0359 7.50244 13.0486 7.68615 12.9431 7.80727C12.8376 7.9284 12.6538 7.94106 12.5327 7.83557C12.3677 7.69184 12.227 7.58577 12.0191 7.52031C11.8066 7.45341 11.4974 7.42133 10.9928 7.48306C10.8334 7.50257 10.6883 7.38913 10.6688 7.22969C10.6493 7.07026 10.7627 6.92519 10.9222 6.90569C11.4751 6.83805 11.8747 6.86503 12.1937 6.96547Z" fill="var(--fill-0, #ADADAD)"/>
<path d="M5.26733 7.38599L5.26645 7.38667C5.13965 7.48529 5.11681 7.66802 5.21543 7.79481C5.31378 7.92127 5.49584 7.94429 5.62259 7.84658L5.62549 7.84442C5.62874 7.84203 5.63457 7.83782 5.64288 7.83208C5.65951 7.82059 5.68599 7.80303 5.72163 7.7817C5.79305 7.73895 5.90034 7.68159 6.03799 7.62747C6.31333 7.51921 6.70568 7.42553 7.17594 7.48306C7.33537 7.50257 7.48044 7.38913 7.49994 7.22969C7.51945 7.07026 7.40601 6.92519 7.24657 6.90569C6.65932 6.83384 6.16855 6.95111 5.82514 7.08613C5.65341 7.15365 5.51742 7.22601 5.42291 7.28258C5.37558 7.31091 5.33843 7.3354 5.31217 7.35355C5.29903 7.36263 5.2886 7.37014 5.28096 7.37576L5.27158 7.38274L5.26848 7.3851L5.26733 7.38599Z" fill="var(--fill-0, #ADADAD)"/>
<path d="M15.4208 4.53937C15.1149 3.99938 14.631 3.6225 14.0914 3.43688C13.5018 3.23438 12.9957 2.84625 12.6731 2.31187C12.2448 1.60312 11.4716 1.125 10.5872 1.125C10.2479 1.125 9.92532 1.19813 9.63052 1.32187C9.23004 1.49625 8.7795 1.49625 8.37901 1.32187C8.07865 1.19813 7.75604 1.125 7.41675 1.125C6.54347 1.125 5.78144 1.58625 5.34759 2.27813C5.00829 2.82375 4.49657 3.22875 3.89584 3.4425C3.80355 3.47484 3.71235 3.50232 3.62188 3.52959C3.16161 3.66829 2.72008 3.80134 2.25 4.53937C1.6875 5.4225 1.62017 6.45187 2.12077 7.18875C2.30433 7.45875 2.40445 7.77937 2.40445 8.10562C2.40445 8.23141 2.40482 8.35715 2.40545 8.48287C1.96378 8.89356 1.6875 9.47962 1.6875 10.1306C1.6875 10.7837 1.96565 11.3717 2.41 11.7827C2.4053 11.9773 2.39897 12.172 2.39062 12.367C2.39062 13.0052 2.91088 13.596 3.51074 14.0172C4.06181 16.0183 5.8891 17.4431 8.01499 17.4431H9.9935C12.122 17.4431 13.9512 16.0148 14.4998 14.0098C15.0952 13.5891 15.6094 13.0015 15.6094 12.367C15.6094 12.1662 15.609 11.9658 15.6083 11.7656C16.042 11.3555 16.3125 10.7747 16.3125 10.1306C16.3125 9.47685 16.0339 8.88854 15.5889 8.47758C15.5886 8.35356 15.5884 8.22958 15.5884 8.10562C15.5884 7.77937 15.6885 7.45875 15.8721 7.18875C16.4005 6.42937 15.9103 5.4 15.4208 4.53937ZM4.21875 7.48125C4.21875 5.83548 5.56818 4.5 7.19426 4.5H8.5292C8.58081 4.5 8.63107 4.53242 8.6521 4.58504L8.65621 4.59533L8.66073 4.60545C9.16195 5.72881 10.2686 6.45188 11.4939 6.45188H12.9491C13.435 6.47781 13.8294 6.88056 13.8456 7.38059L13.7521 8.93751L14.2508 9.02122C14.7824 9.11046 15.1875 9.57378 15.1875 10.1306C15.1875 10.7295 14.7193 11.2194 14.1294 11.2537L13.6318 11.2826L13.5084 13.2537C13.2676 15.0116 11.7684 16.3181 9.9935 16.3181H8.01499C6.23988 16.3181 4.74049 15.0112 4.49998 13.2529L4.37099 11.2815L3.87348 11.2539C3.28221 11.2209 2.8125 10.7304 2.8125 10.1306C2.8125 9.58146 3.20655 9.12313 3.72751 9.02509L3.86998 8.99827L4.21875 8.94702V7.48125Z" fill="var(--fill-0, #ADADAD)"/>
</g>
</g>
</svg>
