<svg preserveAspectRatio="none" width="100%" height="100%" overflow="visible" style="display: block;" viewBox="0 0 153.333 20" fill="none" xmlns="http://www.w3.org/2000/svg">
<g id="Frame 1171280953">
<path id="Line 118" d="M0 10C0 11.4728 1.19391 12.6667 2.66667 12.6667C4.13943 12.6667 5.33333 11.4728 5.33333 10C5.33333 8.52724 4.13943 7.33333 2.66667 7.33333C1.19391 7.33333 0 8.52724 0 10ZM148 10C148 11.4728 149.194 12.6667 150.667 12.6667C152.139 12.6667 153.333 11.4728 153.333 10C153.333 8.52724 152.139 7.33333 150.667 7.33333C149.194 7.33333 148 8.52724 148 10ZM2.66667 10V10.5H5.75V10V9.5H2.66667V10ZM11.9167 10V10.5H18.0833V10V9.5H11.9167V10ZM24.25 10V10.5H30.4167V10V9.5H24.25V10ZM36.5833 10V10.5H42.75V10V9.5H36.5833V10ZM48.9167 10V10.5H55.0833V10V9.5H48.9167V10ZM61.25 10V10.5H67.4167V10V9.5H61.25V10ZM73.5833 10V10.5H79.75V10V9.5H73.5833V10ZM85.9167 10V10.5H92.0833V10V9.5H85.9167V10ZM98.25 10V10.5H104.417V10V9.5H98.25V10ZM110.583 10V10.5H116.75V10V9.5H110.583V10ZM122.917 10V10.5H129.083V10V9.5H122.917V10ZM135.25 10V10.5H141.417V10V9.5H135.25V10ZM147.583 10V10.5H150.667V10V9.5H147.583V10Z" fill="var(--stroke-0, #A8B1BD)"/>
</g>
</svg>
