<svg preserveAspectRatio="none" width="100%" height="100%" overflow="visible" style="display: block;" viewBox="0 0 157.333 20" fill="none" xmlns="http://www.w3.org/2000/svg">
<g id="Frame 1171280900">
<path id="Line 118" d="M0 10C0 11.4728 1.19391 12.6667 2.66667 12.6667C4.13943 12.6667 5.33333 11.4728 5.33333 10C5.33333 8.52724 4.13943 7.33333 2.66667 7.33333C1.19391 7.33333 0 8.52724 0 10ZM152 10C152 11.4728 153.194 12.6667 154.667 12.6667C156.139 12.6667 157.333 11.4728 157.333 10C157.333 8.52724 156.139 7.33333 154.667 7.33333C153.194 7.33333 152 8.52724 152 10ZM2.66667 10V10.5H5.58974V10V9.5H2.66667V10ZM11.4359 10V10.5H17.2821V10V9.5H11.4359V10ZM23.1282 10V10.5H28.9744V10V9.5H23.1282V10ZM34.8205 10V10.5H40.6667V10V9.5H34.8205V10ZM46.5128 10V10.5H52.359V10V9.5H46.5128V10ZM58.2051 10V10.5H64.0513V10V9.5H58.2051V10ZM69.8974 10V10.5H75.7436V10V9.5H69.8974V10ZM81.5897 10V10.5H87.4359V10V9.5H81.5897V10ZM93.282 10V10.5H99.1282V10V9.5H93.282V10ZM104.974 10V10.5H110.821V10V9.5H104.974V10ZM116.667 10V10.5H122.513V10V9.5H116.667V10ZM128.359 10V10.5H134.205V10V9.5H128.359V10ZM140.051 10V10.5H145.897V10V9.5H140.051V10ZM151.744 10V10.5H154.667V10V9.5H151.744V10Z" fill="var(--stroke-0, #586474)"/>
</g>
</svg>
