<svg preserveAspectRatio="none" width="100%" height="100%" overflow="visible" style="display: block;" viewBox="0 0 16 16" fill="none" xmlns="http://www.w3.org/2000/svg">
<g id="groups_2">
<mask id="mask0_0_157" style="mask-type:alpha" maskUnits="userSpaceOnUse" x="0" y="0" width="16" height="16">
<rect id="Bounding box" width="16" height="16" fill="var(--fill-0, #D9D9D9)"/>
</mask>
<g mask="url(#mask0_0_157)">
<path id="groups_2_2" d="M7.01667 8.33333C6.76722 8.33333 6.56233 8.23911 6.402 8.05067C6.24167 7.86222 6.18289 7.64233 6.22567 7.391L6.39367 6.35767C6.46544 5.96111 6.65306 5.63572 6.9565 5.3815C7.25983 5.12717 7.60817 5 8.0015 5C8.40394 5 8.75683 5.12717 9.06017 5.3815C9.36361 5.63572 9.55122 5.96111 9.623 6.35767L9.791 7.391C9.83378 7.64233 9.775 7.86222 9.61467 8.05067C9.45433 8.23911 9.24944 8.33333 9 8.33333H7.01667ZM7.25 7.33333H8.76667L8.63333 6.51667C8.61111 6.36111 8.53889 6.23611 8.41667 6.14167C8.29444 6.04722 8.15556 6 8 6C7.84444 6 7.70833 6.04722 7.59167 6.14167C7.475 6.23611 7.40556 6.36111 7.38333 6.51667L7.25 7.33333ZM2.28533 8.88717C2.06778 8.89828 1.87939 8.85611 1.72017 8.76067C1.56094 8.66522 1.45722 8.51722 1.409 8.31667C1.38678 8.22956 1.38228 8.14344 1.3955 8.05833C1.40872 7.97333 1.43333 7.89206 1.46933 7.8145C1.46933 7.82428 1.46378 7.80494 1.45267 7.7565C1.43467 7.73428 1.38761 7.62017 1.3115 7.41417C1.29361 7.29794 1.30828 7.18811 1.3555 7.08467C1.40272 6.98122 1.46417 6.89189 1.53983 6.81667C1.54406 6.81667 1.553 6.80772 1.56667 6.78983C1.586 6.60939 1.66072 6.45744 1.79083 6.334C1.92094 6.21056 2.08 6.14883 2.268 6.14883C2.28844 6.14883 2.37906 6.16678 2.53983 6.20267L2.58333 6.19233C2.63033 6.14322 2.69144 6.10639 2.76667 6.08183C2.84189 6.05728 2.92183 6.045 3.0065 6.045C3.11183 6.045 3.20528 6.06122 3.28683 6.09367C3.36828 6.12611 3.43278 6.1775 3.48033 6.24783C3.48978 6.24783 3.49689 6.25033 3.50167 6.25533C3.50644 6.26033 3.51356 6.26283 3.523 6.26283C3.653 6.27394 3.76856 6.31489 3.86967 6.38567C3.97078 6.45644 4.04539 6.55311 4.0935 6.67567C4.1115 6.74489 4.11878 6.80922 4.11533 6.86867C4.11189 6.928 4.09906 6.98672 4.07683 7.04483C4.07683 7.05172 4.08239 7.07183 4.0935 7.10517C4.16283 7.17439 4.21544 7.24767 4.25133 7.325C4.28722 7.40233 4.30517 7.48461 4.30517 7.57183C4.30517 7.6035 4.27822 7.70306 4.22433 7.8705C4.21756 7.88417 4.21756 7.90428 4.22433 7.93083C4.22867 7.94361 4.23767 8.01967 4.25133 8.159C4.25133 8.35889 4.16778 8.53022 4.00067 8.673C3.83367 8.81578 3.63089 8.88717 3.39233 8.88717H2.28533ZM13.1758 8.92317C12.8628 8.92317 12.5939 8.81117 12.3692 8.58717C12.1444 8.36317 12.032 8.09389 12.032 7.77933C12.032 7.66489 12.0486 7.55806 12.0818 7.45883C12.1149 7.3595 12.1599 7.26256 12.2167 7.168L11.8162 6.8145C11.7208 6.73906 11.7041 6.64428 11.766 6.53017C11.828 6.41606 11.9162 6.359 12.0305 6.359H13.1743C13.4889 6.359 13.7575 6.4705 13.9802 6.6935C14.2027 6.91639 14.314 7.18439 14.314 7.4975V7.78217C14.314 8.09317 14.2026 8.36111 13.9797 8.586C13.7568 8.81078 13.4888 8.92317 13.1758 8.92317ZM0.333333 11.282V11.0462C0.333333 10.5957 0.565722 10.2297 1.0305 9.94817C1.49528 9.6665 2.09844 9.52567 2.84 9.52567C2.97578 9.52567 3.10606 9.5295 3.23083 9.53717C3.35561 9.54483 3.47483 9.55978 3.5885 9.582C3.46283 9.77867 3.3675 9.98789 3.3025 10.2097C3.23761 10.4316 3.20517 10.6679 3.20517 10.9187V11.859H0.910333C0.746889 11.859 0.609833 11.8037 0.499167 11.6932C0.388611 11.5825 0.333333 11.4454 0.333333 11.282ZM4.33333 11.2563V10.9423C4.33333 10.3056 4.67217 9.79489 5.34983 9.41033C6.0275 9.02567 6.9115 8.83333 8.00183 8.83333C9.10228 8.83333 9.98822 9.02567 10.6597 9.41033C11.331 9.79489 11.6667 10.3056 11.6667 10.9423V11.2563C11.6667 11.4271 11.6089 11.5702 11.4933 11.6857C11.3779 11.8012 11.2348 11.859 11.064 11.859H4.9385C4.76494 11.859 4.62072 11.8012 4.50583 11.6857C4.39083 11.5702 4.33333 11.4271 4.33333 11.2563ZM13.1667 9.52567C13.9167 9.52567 14.5208 9.6665 14.9792 9.94817C15.4375 10.2297 15.6667 10.5957 15.6667 11.0462V11.282C15.6667 11.4454 15.6114 11.5825 15.5008 11.6932C15.3902 11.8037 15.2531 11.859 15.0897 11.859H12.7948V10.9175C12.7948 10.6665 12.7652 10.4303 12.7058 10.209C12.6464 9.98767 12.5573 9.77867 12.4385 9.582C12.5522 9.55978 12.6701 9.54483 12.7922 9.53717C12.9144 9.5295 13.0392 9.52567 13.1667 9.52567ZM7.25 7.33333L7.38333 6.51667C7.40556 6.36111 7.475 6.23611 7.59167 6.14167C7.70833 6.04722 7.84444 6 8 6C8.15556 6 8.29444 6.04722 8.41667 6.14167C8.53889 6.23611 8.61111 6.36111 8.63333 6.51667L8.76667 7.33333H7.25Z" fill="var(--fill-0, #ADADAD)"/>
</g>
</g>
</svg>
