<svg preserveAspectRatio="none" width="100%" height="100%" overflow="visible" style="display: block;" viewBox="0 0 18 18" fill="none" xmlns="http://www.w3.org/2000/svg">
<g id="material-symbols-light:call">
<path id="Vector" d="M14.1977 14.9996C12.9337 14.9996 11.6377 14.6831 10.3097 14.0501C8.98171 13.4171 7.74571 12.5283 6.60171 11.3838C5.46671 10.2398 4.58271 9.00608 3.94971 7.68258C3.31671 6.35908 3.00021 5.06558 3.00021 3.80208C3.00021 3.57708 3.07521 3.38708 3.22521 3.23208C3.37521 3.07708 3.56271 2.99958 3.78771 2.99958H5.64246C5.84646 2.99958 6.02446 3.06383 6.17646 3.19233C6.32846 3.32083 6.43121 3.48558 6.48471 3.68658L6.85671 5.47458C6.89171 5.68458 6.88546 5.86783 6.83796 6.02433C6.79046 6.18083 6.70721 6.30908 6.58821 6.40908L4.94271 7.94358C5.25071 8.50208 5.59096 9.02108 5.96346 9.50058C6.33596 9.98008 6.73346 10.4343 7.15596 10.8633C7.59096 11.2983 8.05946 11.7033 8.56146 12.0783C9.06346 12.4528 9.61446 12.8063 10.2145 13.1388L11.8187 11.5061C11.9407 11.3746 12.078 11.2878 12.2305 11.2458C12.3825 11.2043 12.551 11.1961 12.736 11.2211L14.3132 11.5436C14.5172 11.5936 14.6827 11.6963 14.8097 11.8518C14.9367 12.0073 15.0002 12.1853 15.0002 12.3858V14.2121C15.0002 14.4371 14.9227 14.6246 14.7677 14.7746C14.6127 14.9246 14.4227 14.9996 14.1977 14.9996Z" fill="var(--fill-0, #202020)"/>
</g>
</svg>
