<svg preserveAspectRatio="none" width="100%" height="100%" overflow="visible" style="display: block;" viewBox="0 0 17.8714 18" fill="none" xmlns="http://www.w3.org/2000/svg">
<g id="logos:whatsapp-icon" clip-path="url(#clip0_0_21)">
<path id="Vector" d="M0.386648 8.89306C0.38623 10.4054 0.781393 11.8821 1.53279 13.1837L0.314788 17.6308L4.86586 16.4375C6.12463 17.1227 7.53498 17.4818 8.96818 17.4819H8.97195C13.7032 17.4819 17.5546 13.6319 17.5566 8.89983C17.5575 6.60678 16.6653 4.45055 15.0444 2.82831C13.4237 1.20622 11.2682 0.31243 8.9716 0.311384C4.23977 0.311384 0.388672 4.16115 0.386718 8.89306" fill="url(#paint0_linear_0_21)"/>
<path id="Vector_2" d="M0.0793108 8.88949C0.0788225 10.4563 0.488148 11.9858 1.26633 13.334L0.00465965 17.9405L4.71892 16.7044C6.01785 17.4126 7.48031 17.786 8.96845 17.7866H8.97229C13.8733 17.7866 17.863 13.7981 17.8651 8.8966C17.866 6.52116 16.9417 4.28742 15.2628 2.60707C13.5837 0.92693 11.3511 0.000976744 8.97229 0C4.07043 0 0.0812643 3.98791 0.0793108 8.88949ZM2.88682 13.1018L2.7108 12.8223C1.97085 11.6458 1.58029 10.2862 1.58085 8.89005C1.58238 4.81598 4.89801 1.5014 8.97508 1.5014C10.9495 1.50223 12.805 2.27191 14.2007 3.66837C15.5962 5.06498 16.3641 6.92149 16.3637 8.89605C16.3618 12.9701 13.0461 16.2851 8.97229 16.2851H8.96936C7.64287 16.2844 6.34192 15.9282 5.20736 15.255L4.93736 15.0949L2.13982 15.8283L2.88682 13.1018Z" fill="url(#paint1_linear_0_21)"/>
<path id="Vector_3" d="M6.75048 5.17286C6.58402 4.80288 6.40883 4.79542 6.25053 4.78893C6.1209 4.78335 5.97271 4.78377 5.82467 4.78377C5.67648 4.78377 5.43572 4.83951 5.2322 5.06172C5.02848 5.28414 4.45444 5.82163 4.45444 6.91481C4.45444 8.008 5.25069 9.06456 5.36169 9.21295C5.47283 9.36107 6.89888 11.6762 9.15739 12.5669C11.0344 13.307 11.4164 13.1598 11.8238 13.1227C12.2312 13.0857 13.1385 12.5854 13.3236 12.0665C13.5088 11.5477 13.5088 11.103 13.4532 11.0101C13.3977 10.9175 13.2495 10.8619 13.0273 10.7508C12.8051 10.6398 11.7126 10.1021 11.509 10.028C11.3052 9.95388 11.1571 9.91691 11.0089 10.1394C10.8608 10.3615 10.4352 10.8619 10.3056 11.0101C10.176 11.1586 10.0463 11.1771 9.82416 11.066C9.60181 10.9545 8.8862 10.7201 8.0372 9.96323C7.37665 9.37426 6.93069 8.64693 6.80106 8.42444C6.67144 8.2023 6.78718 8.08188 6.8986 7.97116C6.99844 7.87161 7.12088 7.7117 7.23209 7.582C7.34288 7.45223 7.37985 7.35965 7.45395 7.21147C7.52811 7.06314 7.49099 6.93337 7.43553 6.82223C7.37985 6.71109 6.94806 5.61219 6.75048 5.17286Z" fill="var(--fill-0, white)"/>
</g>
<defs>
<linearGradient id="paint0_linear_0_21" x1="862.407" y1="1732.25" x2="862.407" y2="0.311384" gradientUnits="userSpaceOnUse">
<stop stop-color="#1FAF38"/>
<stop offset="1" stop-color="#60D669"/>
</linearGradient>
<linearGradient id="paint1_linear_0_21" x1="893.028" y1="1794.05" x2="893.028" y2="0" gradientUnits="userSpaceOnUse">
<stop stop-color="#F9F9F9"/>
<stop offset="1" stop-color="white"/>
</linearGradient>
<clipPath id="clip0_0_21">
<rect width="17.8714" height="18" fill="white"/>
</clipPath>
</defs>
</svg>
