<svg width="20" height="20" viewBox="0 0 20 20" fill="none" xmlns="http://www.w3.org/2000/svg">
<g id="mobile-lightmode" clip-path="url(#clip0_3014_8006)">
<g id="Component 105/Frame 1000002171">
<path d="M-26 -272.5C-26 -281.337 -18.8366 -288.5 -10 -288.5H348C356.837 -288.5 364 -281.337 364 -272.5V403.5H-26V-272.5Z" fill="white"/>
<g id="Frame 1000002022">
<g id="Frame 1000002215">
<g id="Frame 1000002196" filter="url(#filter0_d_3014_8006)">
<g id="Frame 1000002027">
<mask id="path-3-inside-1_3014_8006" fill="white">
<path d="M0 -12.5H338V32.5H0V-12.5Z"/>
</mask>
<path d="M338 32.5V31.5H0V32.5V33.5H338V32.5Z" fill="#F2F2F2" mask="url(#path-3-inside-1_3014_8006)"/>
<g id="Frame 1000002194">
<g id="Frame">
<path id="Vector" d="M17.197 15.8419C16.132 14.0007 14.4908 12.6805 12.5755 12.0546C13.5229 11.4906 14.259 10.6312 14.6707 9.60844C15.0824 8.58563 15.1469 7.45596 14.8545 6.3929C14.562 5.32985 13.9286 4.39219 13.0517 3.72392C12.1747 3.05565 11.1027 2.69373 10.0001 2.69373C8.89754 2.69373 7.82547 3.05565 6.94852 3.72392C6.07156 4.39219 5.43822 5.32985 5.14575 6.3929C4.85327 7.45596 4.91785 8.58563 5.32955 9.60844C5.74125 10.6312 6.47731 11.4906 7.4247 12.0546C5.50941 12.6798 3.86823 14 2.80324 15.8419C2.76419 15.9055 2.73828 15.9764 2.72706 16.0502C2.71583 16.1241 2.71951 16.1995 2.73788 16.2719C2.75625 16.3443 2.78893 16.4123 2.834 16.4718C2.87908 16.5314 2.93563 16.5814 3.00031 16.6187C3.065 16.6561 3.13652 16.6801 3.21064 16.6894C3.28477 16.6987 3.36 16.693 3.4319 16.6727C3.5038 16.6525 3.57091 16.618 3.62928 16.5714C3.68764 16.5248 3.73608 16.4669 3.77173 16.4013C5.08915 14.1245 7.41771 12.7651 10.0001 12.7651C12.5825 12.7651 14.9111 14.1245 16.2285 16.4013C16.2641 16.4669 16.3126 16.5248 16.3709 16.5714C16.4293 16.618 16.4964 16.6525 16.5683 16.6727C16.6402 16.693 16.7154 16.6987 16.7896 16.6894C16.8637 16.6801 16.9352 16.6561 16.9999 16.6187C17.0646 16.5814 17.1211 16.5314 17.1662 16.4718C17.2113 16.4123 17.244 16.3443 17.2623 16.2719C17.2807 16.1995 17.2844 16.1241 17.2731 16.0502C17.2619 15.9764 17.236 15.9055 17.197 15.8419ZM6.0842 7.73035C6.0842 6.95586 6.31387 6.19876 6.74415 5.5548C7.17444 4.91083 7.78601 4.40892 8.50155 4.11254C9.21709 3.81615 10.0044 3.7386 10.7641 3.8897C11.5237 4.04079 12.2214 4.41375 12.7691 4.96139C13.3167 5.50904 13.6897 6.20679 13.8408 6.9664C13.9918 7.72601 13.9143 8.51336 13.6179 9.2289C13.3215 9.94444 12.8196 10.556 12.1757 10.9863C11.5317 11.4166 10.7746 11.6462 10.0001 11.6462C8.96188 11.6451 7.9665 11.2322 7.23237 10.4981C6.49824 9.76395 6.08531 8.76857 6.0842 7.73035Z" fill="#757575"/>
</g>
</g>
</g>
</g>
</g>
</g>
</g>
</g>
<defs>
<filter id="filter0_d_3014_8006" x="-32" y="-34.5" width="402" height="314" filterUnits="userSpaceOnUse" color-interpolation-filters="sRGB">
<feFlood flood-opacity="0" result="BackgroundImageFix"/>
<feColorMatrix in="SourceAlpha" type="matrix" values="0 0 0 0 0 0 0 0 0 0 0 0 0 0 0 0 0 0 127 0" result="hardAlpha"/>
<feMorphology radius="2" operator="dilate" in="SourceAlpha" result="effect1_dropShadow_3014_8006"/>
<feOffset/>
<feGaussianBlur stdDeviation="10"/>
<feComposite in2="hardAlpha" operator="out"/>
<feColorMatrix type="matrix" values="0 0 0 0 0 0 0 0 0 0 0 0 0 0 0 0 0 0 0.04 0"/>
<feBlend mode="normal" in2="BackgroundImageFix" result="effect1_dropShadow_3014_8006"/>
<feBlend mode="normal" in="SourceGraphic" in2="effect1_dropShadow_3014_8006" result="shape"/>
</filter>
<clipPath id="clip0_3014_8006">
<rect width="390" height="844" fill="white" transform="translate(-26 -364.5)"/>
</clipPath>
</defs>
</svg>
