<svg preserveAspectRatio="none" width="100%" height="100%" overflow="visible" style="display: block;" viewBox="0 0 44 44" fill="none" xmlns="http://www.w3.org/2000/svg">
<g id="Frame 1171279253" filter="url(#filter0_i_0_15)">
<mask id="path-1-inside-1_0_15" fill="white">
<path d="M0 22C0 9.84974 9.84974 0 22 0V0C34.1503 0 44 9.84974 44 22V22C44 34.1503 34.1503 44 22 44V44C9.84974 44 0 34.1503 0 22V22Z"/>
</mask>
<path d="M0 22C0 9.84974 9.84974 0 22 0V0C34.1503 0 44 9.84974 44 22V22C44 34.1503 34.1503 44 22 44V44C9.84974 44 0 34.1503 0 22V22Z" fill="var(--fill-0, #20B658)"/>
<path d="M22 44V42C10.9543 42 2 33.0457 2 22H0H-2C-2 35.2548 8.74517 46 22 46V44ZM44 22H42C42 33.0457 33.0457 42 22 42V44V46C35.2548 46 46 35.2548 46 22H44ZM22 0V2C33.0457 2 42 10.9543 42 22H44H46C46 8.74517 35.2548 -2 22 -2V0ZM22 0V-2C8.74517 -2 -2 8.74517 -2 22H0H2C2 10.9543 10.9543 2 22 2V0Z" fill="var(--stroke-0, #00A03C)" mask="url(#path-1-inside-1_0_15)"/>
<path id="Vector" d="M29 21.815C29 25.5833 25.9225 28.6361 22.1295 28.6361C20.9269 28.6361 19.7921 28.3278 18.8053 27.7912L15 29L16.2396 25.3427C15.6167 24.3128 15.2529 23.1101 15.2529 21.8211C15.259 18.0529 18.3304 15 22.1295 15C25.9286 15 29 18.0529 29 21.815ZM22.1295 16.0855C18.941 16.0855 16.3507 18.6573 16.3507 21.8211C16.3507 23.0731 16.7577 24.2388 17.4485 25.1824L16.7269 27.3101L18.9471 26.607C19.8599 27.2053 20.9515 27.5568 22.1233 27.5568C25.3119 27.5568 27.9022 24.985 27.9022 21.8211C27.9084 18.6573 25.3119 16.0855 22.1295 16.0855ZM25.6018 23.3877C25.5586 23.3198 25.4476 23.2767 25.2811 23.1903C25.1145 23.104 24.2819 22.7031 24.1278 22.6476C23.9736 22.5921 23.8626 22.5612 23.7454 22.7278C23.6344 22.8943 23.3137 23.2705 23.215 23.3815C23.1163 23.4925 23.0176 23.5048 22.8511 23.4247C22.6846 23.3383 22.1418 23.1656 21.4943 22.5982C20.9947 22.1542 20.6555 21.6053 20.5568 21.4388C20.4581 21.2722 20.5445 21.1797 20.6308 21.0996C20.7048 21.0256 20.7974 20.9022 20.8837 20.8035C20.97 20.7048 20.9947 20.637 21.0502 20.526C21.1057 20.415 21.0749 20.3163 21.0379 20.23C20.9947 20.1436 20.6617 19.3233 20.5198 18.9903C20.378 18.6573 20.2423 18.7128 20.1436 18.7128C20.0449 18.7128 19.9339 18.7004 19.8229 18.7004C19.7119 18.7004 19.5269 18.7436 19.3727 18.9101C19.2185 19.0767 18.7806 19.4837 18.7806 20.304C18.7806 21.1304 19.385 21.9198 19.4652 22.0308C19.5515 22.1418 20.6308 23.8872 22.3454 24.5533C24.0599 25.2194 24.0599 24.9974 24.3683 24.9727C24.6767 24.9418 25.3674 24.5656 25.5031 24.1771C25.6449 23.7947 25.6449 23.4555 25.6018 23.3877Z" fill="var(--fill-0, white)"/>
</g>
<defs>
<filter id="filter0_i_0_15" x="0" y="0" width="44" height="44" filterUnits="userSpaceOnUse" color-interpolation-filters="sRGB">
<feFlood flood-opacity="0" result="BackgroundImageFix"/>
<feBlend mode="normal" in="SourceGraphic" in2="BackgroundImageFix" result="shape"/>
<feColorMatrix in="SourceAlpha" type="matrix" values="0 0 0 0 0 0 0 0 0 0 0 0 0 0 0 0 0 0 127 0" result="hardAlpha"/>
<feOffset/>
<feGaussianBlur stdDeviation="8.57143"/>
<feComposite in2="hardAlpha" operator="arithmetic" k2="-1" k3="1"/>
<feColorMatrix type="matrix" values="0 0 0 0 0 0 0 0 0 0.223483 0 0 0 0 0.0834849 0 0 0 0.1 0"/>
<feBlend mode="normal" in2="shape" result="effect1_innerShadow_0_15"/>
</filter>
</defs>
</svg>
