<svg preserveAspectRatio="none" width="100%" height="100%" overflow="visible" style="display: block;" viewBox="0 0 16 16" fill="none" xmlns="http://www.w3.org/2000/svg">
<g id="account_balance">
<mask id="mask0_0_57" style="mask-type:alpha" maskUnits="userSpaceOnUse" x="0" y="0" width="16" height="16">
<rect id="Bounding box" width="16" height="16" fill="var(--fill-0, #D9D9D9)"/>
</mask>
<g mask="url(#mask0_0_57)">
<path id="account_balance_2" d="M3.33272 10.6667V7.33341C3.33272 7.14452 3.39661 6.98619 3.52439 6.85841C3.65217 6.73063 3.8105 6.66674 3.99939 6.66674C4.18828 6.66674 4.34661 6.73063 4.47439 6.85841C4.60216 6.98619 4.66605 7.14452 4.66605 7.33341V10.6667C4.66605 10.8556 4.60216 11.014 4.47439 11.1417C4.34661 11.2695 4.18828 11.3334 3.99939 11.3334C3.8105 11.3334 3.65217 11.2695 3.52439 11.1417C3.39661 11.014 3.33272 10.8556 3.33272 10.6667ZM7.33272 10.6667V7.33341C7.33272 7.14452 7.39661 6.98619 7.52439 6.85841C7.65216 6.73063 7.8105 6.66674 7.99939 6.66674C8.18828 6.66674 8.34661 6.73063 8.47439 6.85841C8.60217 6.98619 8.66605 7.14452 8.66605 7.33341V10.6667C8.66605 10.8556 8.60217 11.014 8.47439 11.1417C8.34661 11.2695 8.18828 11.3334 7.99939 11.3334C7.8105 11.3334 7.65216 11.2695 7.52439 11.1417C7.39661 11.014 7.33272 10.8556 7.33272 10.6667ZM1.99939 14.0001C1.8105 14.0001 1.65217 13.9362 1.52439 13.8084C1.39661 13.6806 1.33272 13.5223 1.33272 13.3334C1.33272 13.1445 1.39661 12.9862 1.52439 12.8584C1.65217 12.7306 1.8105 12.6667 1.99939 12.6667H13.9994C14.1883 12.6667 14.3466 12.7306 14.4744 12.8584C14.6022 12.9862 14.6661 13.1445 14.6661 13.3334C14.6661 13.5223 14.6022 13.6806 14.4744 13.8084C14.3466 13.9362 14.1883 14.0001 13.9994 14.0001H1.99939ZM11.3327 10.6667V7.33341C11.3327 7.14452 11.3966 6.98619 11.5244 6.85841C11.6522 6.73063 11.8105 6.66674 11.9994 6.66674C12.1883 6.66674 12.3466 6.73063 12.4744 6.85841C12.6022 6.98619 12.6661 7.14452 12.6661 7.33341V10.6667C12.6661 10.8556 12.6022 11.014 12.4744 11.1417C12.3466 11.2695 12.1883 11.3334 11.9994 11.3334C11.8105 11.3334 11.6522 11.2695 11.5244 11.1417C11.3966 11.014 11.3327 10.8556 11.3327 10.6667ZM13.9994 5.33341H1.93272C1.76605 5.33341 1.62439 5.27508 1.50772 5.15841C1.39105 5.04174 1.33272 4.90008 1.33272 4.73341V4.36674C1.33272 4.24452 1.36328 4.13897 1.42439 4.05008C1.4855 3.96119 1.56605 3.88897 1.66605 3.83341L7.39939 0.966743C7.58828 0.877854 7.78828 0.83341 7.99939 0.83341C8.2105 0.83341 8.4105 0.877854 8.59939 0.966743L14.2994 3.81674C14.4216 3.8723 14.5133 3.95563 14.5744 4.06674C14.6355 4.17785 14.6661 4.29452 14.6661 4.41674V4.66674C14.6661 4.85563 14.6022 5.01397 14.4744 5.14174C14.3466 5.26952 14.1883 5.33341 13.9994 5.33341ZM4.29939 4.00008H11.6994L7.99939 2.16674L4.29939 4.00008Z" fill="var(--fill-0, #4D4D4D)"/>
</g>
</g>
</svg>
