<svg preserveAspectRatio="none" width="100%" height="100%" overflow="visible" style="display: block;" viewBox="0 0 40 40" fill="none" xmlns="http://www.w3.org/2000/svg">
<g id="add-to-wishlist">
<path id="favorite" d="M19.5013 25.9151C19.3321 25.8586 19.1833 25.768 19.055 25.6436L17.8475 24.5743C16.6108 23.4767 15.4938 22.3876 14.4963 21.3069C13.4987 20.2263 13 19.0354 13 17.7341C13 16.6704 13.3675 15.7822 14.1025 15.0693C14.8375 14.3564 15.7533 14 16.85 14C17.4683 14 18.0517 14.1273 18.6 14.3819C19.1483 14.6365 19.615 14.9844 20 15.4257C20.385 14.9844 20.8517 14.6365 21.4 14.3819C21.9483 14.1273 22.5317 14 23.15 14C24.2467 14 25.1625 14.3564 25.8975 15.0693C26.6325 15.7822 27 16.6704 27 17.7341C27 19.0354 26.5042 20.2291 25.5125 21.3154C24.5208 22.4017 23.395 23.4936 22.135 24.5912L20.945 25.6436C20.8167 25.768 20.6679 25.8586 20.4988 25.9151C20.3296 25.9717 20.1633 26 20 26C19.8367 26 19.6704 25.9717 19.5013 25.9151ZM19.335 16.7836C18.9967 16.3197 18.635 15.9661 18.25 15.7228C17.865 15.4795 17.3983 15.3579 16.85 15.3579C16.15 15.3579 15.5667 15.5842 15.1 16.0368C14.6333 16.4894 14.4 17.0552 14.4 17.7341C14.4 18.3225 14.6158 18.9477 15.0475 19.6096C15.4792 20.2716 15.9954 20.9137 16.5963 21.5361C17.1971 22.1584 17.8154 22.7412 18.4512 23.2843C19.0871 23.8274 19.6033 24.2744 20 24.6252C20.3967 24.2744 20.9129 23.8274 21.5488 23.2843C22.1846 22.7412 22.8029 22.1584 23.4037 21.5361C24.0046 20.9137 24.5208 20.2716 24.9525 19.6096C25.3842 18.9477 25.6 18.3225 25.6 17.7341C25.6 17.0552 25.3667 16.4894 24.9 16.0368C24.4333 15.5842 23.85 15.3579 23.15 15.3579C22.6017 15.3579 22.135 15.4795 21.75 15.7228C21.365 15.9661 21.0033 16.3197 20.665 16.7836C20.5833 16.8967 20.4842 16.9816 20.3675 17.0382C20.2508 17.0948 20.1283 17.1231 20 17.1231C19.8717 17.1231 19.7492 17.0948 19.6325 17.0382C19.5158 16.9816 19.4167 16.8967 19.335 16.7836Z" fill="var(--fill-0, white)"/>
</g>
</svg>
