<svg width="20" height="20" viewBox="0 0 20 20" fill="none" xmlns="http://www.w3.org/2000/svg">
<path d="M9.5013 15.9151C9.3321 15.8586 9.1833 15.768 9.055 15.6436L7.8475 14.5743C6.6108 13.4767 5.4938 12.3876 4.4963 11.3069C3.4987 10.2263 3 9.0354 3 7.7341C3 6.6704 3.3675 5.7822 4.1025 5.0693C4.8375 4.3564 5.7533 4 6.85 4C7.4683 4 8.0517 4.1273 8.6 4.3819C9.1483 4.6365 9.615 4.9844 10 5.4257C10.385 4.9844 10.8517 4.6365 11.4 4.3819C11.9483 4.1273 12.5317 4 13.15 4C14.2467 4 15.1625 4.3564 15.8975 5.0693C16.6325 5.7822 17 6.6704 17 7.7341C17 9.0354 16.5042 10.2291 15.5125 11.3154C14.5208 12.4017 13.395 13.4936 12.135 14.5912L10.945 15.6436C10.8167 15.768 10.6679 15.8586 10.4988 15.9151C10.3296 15.9717 10.1633 16 10 16C9.8367 16 9.6704 15.9717 9.5013 15.9151ZM9.335 6.7836C8.9967 6.3197 8.635 5.9661 8.25 5.7228C7.865 5.4795 7.3983 5.3579 6.85 5.3579C6.15 5.3579 5.5667 5.5842 5.1 6.0368C4.6333 6.4894 4.4 7.0552 4.4 7.7341C4.4 8.3225 4.6158 8.9477 5.0475 9.6096C5.4792 10.2716 5.9954 10.9137 6.5963 11.5361C7.1971 12.1584 7.8154 12.7412 8.4512 13.2843C9.0871 13.8274 9.6033 14.2744 10 14.6252C10.3967 14.2744 10.9129 13.8274 11.5488 13.2843C12.1846 12.7412 12.8029 12.1584 13.4037 11.5361C14.0046 10.9137 14.5208 10.2716 14.9525 9.6096C15.3842 8.9477 15.6 8.3225 15.6 7.7341C15.6 7.0552 15.3667 6.4894 14.9 6.0368C14.4333 5.5842 13.85 5.3579 13.15 5.3579C12.6017 5.3579 12.135 5.4795 11.75 5.7228C11.365 5.9661 11.0033 6.3197 10.665 6.7836C10.5833 6.8967 10.4842 6.9816 10.3675 7.0382C10.2508 7.0948 10.1283 7.1231 10 7.1231C9.8717 7.1231 9.7492 7.0948 9.6325 7.0382C9.5158 6.9816 9.4167 6.8967 9.335 6.7836Z" fill="white" fill-opacity="0.85" stroke="white" stroke-width="0.5"/>
</svg>
