<svg preserveAspectRatio="none" width="100%" height="100%" overflow="visible" style="display: block;" viewBox="0 0 16 16" fill="none" xmlns="http://www.w3.org/2000/svg">
<g id="Group 2" clip-path="url(#clip0_0_41)">
<path id="Vector" d="M14.0435 0.626203C13.6757 0.626203 13.3207 0.755279 13.0432 0.974712C12.7657 0.755279 12.4107 0.626203 12.0429 0.626203C11.7782 0.626203 11.5265 0.690741 11.3007 0.800457C10.268 0.2906 9.10633 0.00662879 7.8801 0.00662879C3.60761 0.00662879 0.135417 3.47882 0.135417 7.75128C0.135417 8.97106 0.419387 10.1328 0.922792 11.1589C0.451657 11.4171 0.135417 11.9076 0.135417 12.4627C0.135417 13.7599 2.05222 15.1603 2.43946 15.4314C2.52335 15.4895 2.62016 15.5218 2.71697 15.5218C2.81378 15.5218 2.91059 15.4895 2.99449 15.4314C3.16875 15.3088 3.63988 14.9667 4.11101 14.515C5.22754 15.141 6.51185 15.496 7.8801 15.496C12.1526 15.496 15.6247 12.0238 15.6247 7.75128C15.6247 6.38309 15.2698 5.09873 14.6438 3.98223C15.16 3.4401 15.6247 2.76889 15.6247 2.13641C15.6247 1.30386 14.9148 0.626203 14.0435 0.626203ZM3.26555 13.9664C3.08484 14.1342 2.89768 14.2891 2.71697 14.4311C1.98768 13.8696 1.1035 12.979 1.1035 12.4627C1.1035 12.2626 1.22612 12.0883 1.40683 11.998C1.49719 11.9463 1.60045 11.9205 1.71662 11.9205C1.81343 11.9205 1.90378 11.9399 1.98123 11.985C2.11031 12.0367 2.22002 12.1335 2.27811 12.2561C2.40073 12.5207 2.75569 12.5788 2.98803 12.4368C3.05903 12.3981 3.11711 12.3335 3.15583 12.2561C3.25264 12.0561 3.47208 11.9205 3.71732 11.9205C4.05938 11.9205 4.33044 12.1657 4.33044 12.4627C4.33044 12.682 4.17555 12.9596 3.93676 13.2564C3.85286 13.3791 3.74314 13.5017 3.62052 13.6243C3.5108 13.7405 3.38817 13.8567 3.26555 13.9664ZM4.97585 5.16976C5.40373 5.16976 5.81416 5.33974 6.11675 5.64234C6.4193 5.94488 6.58928 6.35531 6.58928 6.78323C6.58928 7.04782 6.36989 7.26726 6.10526 7.26726C5.84068 7.26726 5.62123 7.04782 5.62123 6.78323C5.62123 6.42823 5.33081 6.1378 4.97585 6.1378C4.62087 6.1378 4.33044 6.42823 4.33044 6.78323C4.33044 7.04782 4.11101 7.26726 3.8464 7.26726C3.58179 7.26726 3.36236 7.04782 3.36236 6.78323C3.36236 6.35531 3.53235 5.94488 3.83494 5.64234C4.13752 5.33974 4.54791 5.16976 4.97585 5.16976ZM4.14973 10.0812C4.05977 9.98871 4.00943 9.86483 4.00943 9.73586C4.00943 9.60689 4.05977 9.48302 4.14973 9.3906C4.3369 9.2034 4.64668 9.2034 4.83385 9.3906C4.95646 9.51322 5.09202 9.63584 5.22754 9.73911C5.98264 10.3393 6.90555 10.6555 7.8801 10.6555C8.85464 10.6555 9.77755 10.3393 10.5327 9.73911C10.6682 9.63584 10.8037 9.51322 10.9263 9.3906C11.1135 9.2034 11.4233 9.2034 11.6104 9.3906C11.7976 9.5842 11.7976 9.88752 11.6104 10.0812C10.6165 11.0751 9.28703 11.6236 7.8801 11.6236C6.47311 11.6236 5.14361 11.0751 4.14973 10.0812ZM11.9137 7.26726C11.6492 7.26726 11.4297 7.04782 11.4297 6.78323C11.4297 6.42823 11.1393 6.1378 10.7843 6.1378C10.4294 6.1378 10.139 6.42823 10.139 6.78323C10.139 7.04782 9.91951 7.26726 9.65488 7.26726C9.3903 7.26726 9.17086 7.04782 9.17086 6.78323C9.17086 6.35531 9.34085 5.94488 9.64344 5.64234C9.94603 5.33974 10.3564 5.16976 10.7843 5.16976C11.2123 5.16976 11.6226 5.33974 11.9252 5.64234C12.2278 5.94488 12.3978 6.35531 12.3978 6.78323C12.3978 7.04782 12.1784 7.26726 11.9137 7.26726ZM13.7531 3.49173C13.6369 3.60145 13.5143 3.71116 13.3917 3.81443C13.2755 3.91768 13.1594 4.01449 13.0432 4.10485C12.3139 3.54336 11.4297 2.65272 11.4297 2.13641C11.4297 2.08478 11.4362 2.0396 11.4555 1.99443C11.5007 1.83953 11.6298 1.704 11.7976 1.63946H11.804C11.8751 1.60719 11.9589 1.59428 12.0429 1.59428C12.2881 1.59428 12.5075 1.72981 12.6043 1.92989C12.714 2.16223 12.998 2.23322 13.2239 2.15577C13.2797 2.13706 13.3313 2.10746 13.3756 2.06868C13.4199 2.02991 13.4561 1.98274 13.482 1.92989C13.5789 1.72981 13.7983 1.59428 14.0435 1.59428C14.3856 1.59428 14.6567 1.83953 14.6567 2.13641C14.6567 2.40748 14.4243 2.76889 14.0952 3.13676C13.9919 3.25294 13.8757 3.37556 13.7531 3.49173Z" fill="var(--fill-0, #C1FF11)"/>
</g>
<defs>
<clipPath id="clip0_0_41">
<rect width="16" height="16" fill="white"/>
</clipPath>
</defs>
</svg>
