<svg preserveAspectRatio="none" width="100%" height="100%" overflow="visible" style="display: block;" viewBox="0 0 16 16" fill="none" xmlns="http://www.w3.org/2000/svg">
<g id="celebration">
<mask id="mask0_0_47" style="mask-type:alpha" maskUnits="userSpaceOnUse" x="0" y="0" width="16" height="16">
<rect id="Bounding box" width="16" height="16" fill="var(--fill-0, #D9D9D9)"/>
</mask>
<g mask="url(#mask0_0_47)">
<path id="celebration_2" d="M1.8004 13.3355L4.31706 6.33554C4.37262 6.1911 4.45873 6.07998 4.5754 6.00221C4.69206 5.92443 4.81706 5.88554 4.9504 5.88554C5.03929 5.88554 5.12262 5.90221 5.2004 5.93554C5.27818 5.96887 5.3504 6.01887 5.41706 6.08554L9.91706 10.5855C9.98373 10.6522 10.0337 10.7244 10.0671 10.8022C10.1004 10.88 10.1171 10.9633 10.1171 11.0522C10.1171 11.1855 10.0782 11.3105 10.0004 11.4272C9.92262 11.5439 9.81151 11.63 9.66706 11.6855L2.66706 14.2022C2.53373 14.2578 2.40595 14.2661 2.28373 14.2272C2.16151 14.1883 2.05595 14.1244 1.96706 14.0355C1.87818 13.9467 1.81429 13.8411 1.7754 13.7189C1.73651 13.5967 1.74484 13.4689 1.8004 13.3355ZM15.3504 4.68554C15.2504 4.78554 15.1337 4.83554 15.0004 4.83554C14.8671 4.83554 14.7504 4.78554 14.6504 4.68554L14.6004 4.63554C14.4448 4.47998 14.2504 4.40221 14.0171 4.40221C13.7837 4.40221 13.5893 4.47998 13.4337 4.63554L10.0504 8.01887C9.9504 8.11887 9.83373 8.16887 9.7004 8.16887C9.56706 8.16887 9.4504 8.11887 9.3504 8.01887C9.2504 7.91887 9.2004 7.80221 9.2004 7.66887C9.2004 7.53554 9.2504 7.41887 9.3504 7.31887L12.7337 3.93554C13.0893 3.57998 13.5171 3.40221 14.0171 3.40221C14.5171 3.40221 14.9448 3.57998 15.3004 3.93554L15.3504 3.98554C15.4504 4.08554 15.5004 4.20221 15.5004 4.33554C15.5004 4.46887 15.4504 4.58554 15.3504 4.68554ZM6.6504 2.68554C6.7504 2.58554 6.86706 2.53554 7.0004 2.53554C7.13373 2.53554 7.2504 2.58554 7.3504 2.68554L7.43373 2.76887C7.78929 3.12443 7.96706 3.54665 7.96706 4.03554C7.96706 4.52443 7.78929 4.94665 7.43373 5.30221L7.38373 5.35221C7.28373 5.45221 7.16706 5.50221 7.03373 5.50221C6.9004 5.50221 6.78373 5.45221 6.68373 5.35221C6.58373 5.25221 6.53373 5.13554 6.53373 5.00221C6.53373 4.86887 6.58373 4.75221 6.68373 4.65221L6.73373 4.60221C6.88929 4.44665 6.96706 4.25776 6.96706 4.03554C6.96706 3.81332 6.88929 3.62443 6.73373 3.46887L6.6504 3.38554C6.5504 3.28554 6.5004 3.16887 6.5004 3.03554C6.5004 2.90221 6.5504 2.78554 6.6504 2.68554ZM9.3504 1.35221C9.4504 1.25221 9.56706 1.20221 9.7004 1.20221C9.83373 1.20221 9.9504 1.25221 10.0504 1.35221L10.7671 2.06887C11.1226 2.42443 11.3004 2.85221 11.3004 3.35221C11.3004 3.85221 11.1226 4.27998 10.7671 4.63554L8.71706 6.68554C8.61706 6.78554 8.5004 6.83554 8.36706 6.83554C8.23373 6.83554 8.11706 6.78554 8.01706 6.68554C7.91706 6.58554 7.86706 6.46887 7.86706 6.33554C7.86706 6.20221 7.91706 6.08554 8.01706 5.98554L10.0671 3.93554C10.2226 3.77998 10.3004 3.58554 10.3004 3.35221C10.3004 3.11887 10.2226 2.92443 10.0671 2.76887L9.3504 2.05221C9.2504 1.95221 9.2004 1.83554 9.2004 1.70221C9.2004 1.56887 9.2504 1.45221 9.3504 1.35221ZM14.6837 9.35221C14.5837 9.45221 14.4671 9.50221 14.3337 9.50221C14.2004 9.50221 14.0837 9.45221 13.9837 9.35221L13.2671 8.63554C13.1115 8.47998 12.9171 8.40221 12.6837 8.40221C12.4504 8.40221 12.256 8.47998 12.1004 8.63554L11.3837 9.35221C11.2837 9.45221 11.1671 9.50221 11.0337 9.50221C10.9004 9.50221 10.7837 9.45221 10.6837 9.35221C10.5837 9.25221 10.5337 9.13554 10.5337 9.00221C10.5337 8.86887 10.5837 8.75221 10.6837 8.65221L11.4004 7.93554C11.756 7.57999 12.1837 7.40221 12.6837 7.40221C13.1837 7.40221 13.6115 7.57999 13.9671 7.93554L14.6837 8.65221C14.7837 8.75221 14.8337 8.86887 14.8337 9.00221C14.8337 9.13554 14.7837 9.25221 14.6837 9.35221Z" fill="var(--fill-0, #C1FF11)"/>
</g>
</g>
</svg>
