<svg preserveAspectRatio="none" width="100%" height="100%" overflow="visible" style="display: block;" viewBox="0 0 16 16" fill="none" xmlns="http://www.w3.org/2000/svg">
<g id="great-vibes 1" clip-path="url(#clip0_0_39)">
<path id="Vector" d="M11.0823 8.39639L8.33893 11.2089C8.14794 11.3994 7.82154 11.4053 7.62447 11.2089L4.88113 8.39607C4.04792 7.54291 4.04792 6.16067 4.88055 5.30724C5.71379 4.45316 7.06174 4.45316 7.89498 5.30724L7.9817 5.39612L8.06782 5.30752C8.90138 4.45284 10.2499 4.45344 11.0826 5.30752C11.9158 6.16067 11.9152 7.54291 11.0823 8.39639ZM8.43504 2.36703V0.540263C8.43504 0.283637 8.23208 0.0755859 7.9817 0.0755859C7.73136 0.0755859 7.52835 0.283637 7.52835 0.540263V2.36703C7.52835 2.62365 7.73136 2.8317 7.9817 2.8317C8.23208 2.8317 8.43504 2.62365 8.43504 2.36703ZM0.698006 8.47071H2.48025C2.73061 8.47071 2.93359 8.26268 2.93359 8.00604C2.93359 7.74944 2.73061 7.5414 2.48025 7.5414H0.698006C0.447641 7.5414 0.244665 7.74944 0.244665 8.00604C0.244665 8.26268 0.447641 8.47071 0.698006 8.47071ZM7.9817 13.1804C7.73136 13.1804 7.52835 13.3885 7.52835 13.6451V15.4718C7.52835 15.7285 7.73136 15.9365 7.9817 15.9365C8.23208 15.9365 8.43504 15.7285 8.43504 15.4718V13.6451C8.43504 13.3885 8.23208 13.1804 7.9817 13.1804ZM15.7187 8.00604C15.7187 7.74944 15.5158 7.5414 15.2654 7.5414H13.4832C13.2328 7.5414 13.0298 7.74944 13.0298 8.00604C13.0298 8.26268 13.2328 8.47071 13.4832 8.47071H15.2654C15.5158 8.47071 15.7187 8.26268 15.7187 8.00604ZM4.41214 4.34724C4.58919 4.16576 4.58919 3.87156 4.41214 3.69008L3.15189 2.39835C2.97487 2.21691 2.68782 2.21687 2.51077 2.39835C2.33372 2.57982 2.33372 2.87402 2.51077 3.05549L3.771 4.3472C3.94806 4.52872 4.23512 4.52872 4.41214 4.34724ZM2.51077 13.6137C2.68778 13.7952 2.97481 13.7952 3.15189 13.6137L4.41214 12.322C4.58915 12.1406 4.58915 11.8464 4.41214 11.6649C4.23512 11.4834 3.94806 11.4834 3.771 11.6649L2.51077 12.9566C2.33372 13.1381 2.33372 13.4323 2.51077 13.6137ZM12.8115 13.6138C12.9885 13.7952 13.2756 13.7952 13.4526 13.6138C13.6297 13.4323 13.6297 13.1381 13.4526 12.9566L12.1924 11.6649C12.0154 11.4835 11.7284 11.4834 11.5513 11.6649C11.3742 11.8464 11.3742 12.1406 11.5513 12.3221L12.8115 13.6138ZM12.1924 4.34727L13.4526 3.05555C13.6297 2.87408 13.6297 2.57988 13.4526 2.39841C13.2756 2.21697 12.9885 2.21694 12.8115 2.39841L11.5513 3.69012C11.3742 3.87159 11.3742 4.16579 11.5513 4.34727C11.7283 4.52871 12.0153 4.52871 12.1924 4.34727Z" fill="var(--fill-0, #C1FF11)"/>
</g>
<defs>
<clipPath id="clip0_0_39">
<rect width="16" height="16" fill="white"/>
</clipPath>
</defs>
</svg>
