<svg preserveAspectRatio="none" width="100%" height="100%" overflow="visible" style="display: block;" viewBox="0 0 16 16" fill="none" xmlns="http://www.w3.org/2000/svg">
<g id="friends 1" clip-path="url(#clip0_0_43)">
<path id="Vector" d="M8.06158 1.82481C8.31278 1.82481 8.51612 1.62148 8.51612 1.37027V0.461174C8.51612 0.209962 8.31278 0.00662879 8.06158 0.00662879C7.81033 0.00662879 7.60703 0.209962 7.60703 0.461174V1.37027C7.60703 1.62148 7.81033 1.82481 8.06158 1.82481ZM10.2011 2.60072L11.1102 1.69163C11.2878 1.51408 11.2878 1.22645 11.1102 1.0489C10.9326 0.871357 10.645 0.871328 10.4675 1.0489L9.5584 1.95799C9.3808 2.13554 9.3808 2.42317 9.5584 2.60072C9.73595 2.77827 10.0236 2.7783 10.2011 2.60072ZM5.92199 2.60072C6.09954 2.7783 6.3872 2.7783 6.56475 2.60072C6.7423 2.42314 6.7423 2.13554 6.56475 1.95799L5.65566 1.0489C5.47811 0.871328 5.19045 0.871328 5.0129 1.0489C4.83538 1.22648 4.83535 1.51408 5.0129 1.69163L5.92199 2.60072ZM4.39489 6.43085C4.39489 5.42813 3.57943 4.61269 2.57671 4.61269C1.57398 4.61269 0.758523 5.42813 0.758523 6.43085C0.758523 7.43361 1.57398 8.24903 2.57671 8.24903C3.57943 8.24903 4.39489 7.43361 4.39489 6.43085Z" fill="var(--fill-0, #C1FF11)"/>
<path id="Vector_2" d="M8.06157 3.67424C7.30967 3.67424 6.69794 4.286 6.69794 5.03786C6.69794 6.79213 5.24005 8.24998 3.4858 8.24998H2.57671C1.32361 8.24998 0.303977 9.26961 0.303977 10.5227V15.0682C0.303977 15.3194 0.507312 15.5227 0.758521 15.5227H4.39489C4.64571 15.5227 4.84337 15.3194 4.84337 15.0686L4.84601 10.8179C7.50046 10.1925 9.42521 7.80241 9.42521 5.03786C9.42521 4.28597 8.81343 3.67424 8.06157 3.67424ZM15.3646 6.43179C15.3646 5.42908 14.5491 4.61364 13.5464 4.61364C12.5437 4.61364 11.7282 5.42908 11.7282 6.43179C11.7282 7.43456 12.5437 8.24998 13.5464 8.24998C14.5491 8.24998 15.3646 7.43456 15.3646 6.43179Z" fill="var(--fill-0, #C1FF11)"/>
<path id="Vector_3" d="M13.5463 8.2496H12.6372C11.5919 8.2496 10.6405 7.70594 10.0601 6.92519C9.79411 7.86361 9.33084 8.7153 8.71212 9.44456C9.43687 10.0844 10.3325 10.5922 11.2768 10.8171L11.2795 15.0683C11.2796 15.319 11.4773 15.5223 11.7281 15.5223H15.3644C15.6156 15.5223 15.819 15.319 15.819 15.0678V10.5223C15.819 9.26924 14.7993 8.2496 13.5463 8.2496Z" fill="var(--fill-0, #C1FF11)"/>
</g>
<defs>
<clipPath id="clip0_0_43">
<rect width="16" height="16" fill="white"/>
</clipPath>
</defs>
</svg>
