<svg preserveAspectRatio="none" width="100%" height="100%" overflow="visible" style="display: block;" viewBox="0 0 16 16" fill="none" xmlns="http://www.w3.org/2000/svg">
<g id="diversity_2">
<mask id="mask0_0_55" style="mask-type:alpha" maskUnits="userSpaceOnUse" x="0" y="0" width="16" height="16">
<rect id="Bounding box" width="16" height="16" fill="var(--fill-0, #D9D9D9)"/>
</mask>
<g mask="url(#mask0_0_55)">
<path id="diversity_2_2" d="M5.83333 14.9516C5.32222 14.9516 4.86389 14.8183 4.45833 14.5516C4.05278 14.2849 3.73889 13.9183 3.51667 13.4516C3.33889 13.6849 3.11389 13.8655 2.84167 13.9933C2.56944 14.121 2.28889 14.1849 2 14.1849C1.43333 14.1849 0.958333 13.9905 0.575 13.6016C0.191667 13.2127 0 12.7405 0 12.1849C0 11.7072 0.155556 11.2766 0.466667 10.8933C0.777778 10.5099 1.17222 10.2905 1.65 10.2349C1.49444 10.0127 1.375 9.7766 1.29167 9.5266C1.20833 9.2766 1.16667 9.01271 1.16667 8.73493C1.16667 8.54604 1.18889 8.35715 1.23333 8.16826C1.27778 7.97937 1.34444 7.79604 1.43333 7.61826C1.52222 7.45159 1.65278 7.33771 1.825 7.27659C1.99722 7.21548 2.16667 7.22937 2.33333 7.31826C2.5 7.40715 2.61667 7.53771 2.68333 7.70993C2.75 7.88215 2.73889 8.0516 2.65 8.21826C2.60556 8.30715 2.57222 8.39604 2.55 8.48493C2.52778 8.57382 2.51667 8.66271 2.51667 8.75159C2.51667 9.31826 2.73611 9.68493 3.175 9.8516C3.61389 10.0183 4.05556 10.1405 4.5 10.2183C4.58889 10.2405 4.67222 10.2738 4.75 10.3183C4.82778 10.3627 4.88889 10.4238 4.93333 10.5016C4.97778 10.5794 5.00278 10.6599 5.00833 10.7433C5.01389 10.8266 5 10.9127 4.96667 11.0016C4.85556 11.3016 4.76667 11.5572 4.7 11.7683C4.63333 11.9794 4.6 12.1794 4.6 12.3683C4.6 12.7016 4.71944 12.9933 4.95833 13.2433C5.19722 13.4933 5.48889 13.6183 5.83333 13.6183C6.18889 13.6183 6.49444 13.4822 6.75 13.2099C7.00556 12.9377 7.21945 12.5988 7.39167 12.1933C7.56389 11.7877 7.70278 11.3572 7.80833 10.9016C7.91389 10.446 8 10.0349 8.06667 9.66826C8.1 9.47937 8.19445 9.33215 8.35 9.2266C8.50556 9.12104 8.67222 9.09604 8.85 9.1516C9.03889 9.20715 9.18056 9.31826 9.275 9.48493C9.36944 9.6516 9.39445 9.82937 9.35 10.0183C9.25 10.5294 9.12222 11.0738 8.96667 11.6516C8.81111 12.2294 8.60278 12.7627 8.34167 13.2516C8.08056 13.7405 7.74722 14.146 7.34167 14.4683C6.93611 14.7905 6.43333 14.9516 5.83333 14.9516ZM10.1833 14.9516C9.98333 14.9516 9.81944 14.8877 9.69167 14.7599C9.56389 14.6322 9.5 14.4738 9.5 14.2849C9.5 14.096 9.56389 13.9377 9.69167 13.8099C9.81944 13.6822 9.97778 13.6183 10.1667 13.6183C10.5222 13.6183 10.8194 13.4933 11.0583 13.2433C11.2972 12.9933 11.4167 12.696 11.4167 12.3516C11.4167 12.1627 11.3806 11.9544 11.3083 11.7266C11.2361 11.4988 11.1389 11.2238 11.0167 10.9016C10.9944 10.8238 10.9833 10.7488 10.9833 10.6766C10.9833 10.6044 11.0056 10.5349 11.05 10.4683C11.0944 10.4016 11.1444 10.3488 11.2 10.3099C11.2556 10.271 11.3278 10.2405 11.4167 10.2183C11.8722 10.1405 12.3333 10.021 12.8 9.85993C13.2667 9.69882 13.5 9.32382 13.5 8.73493C13.5 8.29048 13.3361 7.96826 13.0083 7.76826C12.6806 7.56826 12.3222 7.46826 11.9333 7.46826C11.5444 7.46826 11.0944 7.53493 10.5833 7.66826C10.0722 7.80159 9.48889 7.97382 8.83333 8.18493C8.64444 8.24048 8.46111 8.23215 8.28333 8.15993C8.10556 8.08771 7.98889 7.95715 7.93333 7.76826C7.87778 7.57937 7.90556 7.40159 8.01667 7.23493C8.12778 7.06826 8.27778 6.95715 8.46667 6.90159C9.16667 6.67937 9.8 6.49604 10.3667 6.35159C10.9333 6.20715 11.4611 6.13493 11.95 6.13493C12.7167 6.13493 13.3889 6.36271 13.9667 6.81826C14.5444 7.27382 14.8333 7.91271 14.8333 8.73493C14.8333 9.01271 14.7917 9.2766 14.7083 9.5266C14.625 9.7766 14.5056 10.0127 14.35 10.2349C14.8278 10.2905 15.2222 10.5099 15.5333 10.8933C15.8444 11.2766 16 11.7072 16 12.1849C16 12.7405 15.8083 13.2127 15.425 13.6016C15.0417 13.9905 14.5667 14.1849 14 14.1849C13.7111 14.1849 13.4306 14.121 13.1583 13.9933C12.8861 13.8655 12.6611 13.6849 12.4833 13.4516C12.2611 13.9072 11.95 14.2683 11.55 14.5349C11.15 14.8016 10.6944 14.9405 10.1833 14.9516ZM6.15 9.68493C5.29444 8.90715 4.61111 8.20159 4.1 7.56826C3.58889 6.93493 3.33333 6.25159 3.33333 5.51826C3.33333 4.79604 3.58056 4.18771 4.075 3.69326C4.56944 3.19882 5.17778 2.95159 5.9 2.95159C5.94444 2.95159 5.98333 2.95437 6.01667 2.95993C6.05 2.96548 6.08889 2.96826 6.13333 2.96826C6.08889 2.85715 6.05556 2.74604 6.03333 2.63493C6.01111 2.52382 6 2.40715 6 2.28493C6 1.72937 6.19444 1.25715 6.58333 0.86826C6.97222 0.479371 7.44444 0.284926 8 0.284926C8.55556 0.284926 9.02778 0.479371 9.41667 0.86826C9.80556 1.25715 10 1.72937 10 2.28493C10 2.40715 9.98889 2.52104 9.96667 2.62659C9.94444 2.73215 9.91111 2.84048 9.86667 2.95159H10.1C10.3889 2.95159 10.6639 2.99604 10.925 3.08493C11.1861 3.17382 11.4278 3.30159 11.65 3.46826C11.8056 3.57937 11.8944 3.72382 11.9167 3.90159C11.9389 4.07937 11.8944 4.24604 11.7833 4.40159C11.6722 4.55715 11.5278 4.64604 11.35 4.66826C11.1722 4.69048 11.0056 4.64604 10.85 4.53493C10.7389 4.44604 10.6222 4.38215 10.5 4.34326C10.3778 4.30437 10.2444 4.28493 10.1 4.28493C9.74445 4.28493 9.45833 4.38493 9.24167 4.58493C9.025 4.78493 8.75 5.07937 8.41667 5.46826C8.36111 5.53493 8.3 5.58493 8.23333 5.61826C8.16667 5.65159 8.08889 5.66826 8 5.66826C7.91111 5.66826 7.83056 5.65159 7.75833 5.61826C7.68611 5.58493 7.62222 5.53493 7.56667 5.46826C7.22222 5.06826 6.94722 4.77104 6.74167 4.57659C6.53611 4.38215 6.25556 4.28493 5.9 4.28493C5.54444 4.28493 5.25 4.40159 5.01667 4.63493C4.78333 4.86826 4.66667 5.16271 4.66667 5.51826C4.66667 5.98493 4.88611 6.47104 5.325 6.97659C5.76389 7.48215 6.35556 8.07382 7.1 8.75159C7.25556 8.88493 7.34722 9.04882 7.375 9.24326C7.40278 9.43771 7.35 9.6016 7.21667 9.73493C7.07222 9.87937 6.89722 9.94326 6.69167 9.9266C6.48611 9.90993 6.30556 9.82937 6.15 9.68493Z" fill="var(--fill-0, #C1FF11)"/>
</g>
</g>
</svg>
