<svg preserveAspectRatio="none" width="100%" height="100%" overflow="visible" style="display: block;" viewBox="0 0 14 14" fill="none" xmlns="http://www.w3.org/2000/svg">
<g id="Frame">
<path id="Vector" d="M2.07083 7L6.35833 11.2875C6.50417 11.4333 6.57465 11.6035 6.56979 11.7979C6.56493 11.9924 6.48958 12.1625 6.34375 12.3083C6.19792 12.4542 6.02778 12.5271 5.83333 12.5271C5.63889 12.5271 5.46875 12.4542 5.32292 12.3083L0.83125 7.83125C0.714583 7.71458 0.627083 7.58333 0.56875 7.4375C0.510416 7.29167 0.48125 7.14583 0.48125 7C0.48125 6.85417 0.510416 6.70833 0.56875 6.5625C0.627083 6.41667 0.714583 6.28542 0.83125 6.16875L5.32292 1.67708C5.46875 1.53125 5.64132 1.46076 5.84062 1.46562C6.03993 1.47049 6.2125 1.54583 6.35833 1.69167C6.50417 1.8375 6.57708 2.00764 6.57708 2.20208C6.57708 2.39653 6.50417 2.56667 6.35833 2.7125L2.07083 7Z" fill="var(--fill-0, #3D3D3D)"/>
</g>
</svg>
