<svg preserveAspectRatio="none" width="100%" height="100%" overflow="visible" style="display: block;" viewBox="0 0 24 24" fill="none" xmlns="http://www.w3.org/2000/svg">
<g id="arrow_back">
<mask id="mask0_0_15" style="mask-type:alpha" maskUnits="userSpaceOnUse" x="0" y="0" width="24" height="24">
<rect id="Bounding box" width="24" height="24" fill="var(--fill-0, #1C1B1F)"/>
</mask>
<g mask="url(#mask0_0_15)">
<path id="arrow_back_2" d="M7.373 12.75L12.5422 17.9192C12.6909 18.0679 12.7643 18.2419 12.7625 18.4412C12.7605 18.6406 12.682 18.8178 12.527 18.973C12.3718 19.1178 12.1962 19.1928 12 19.198C11.8038 19.2032 11.6282 19.1282 11.473 18.973L5.13275 12.6327C5.03908 12.5391 4.97308 12.4403 4.93475 12.3365C4.89625 12.2327 4.877 12.1205 4.877 12C4.877 11.8795 4.89625 11.7673 4.93475 11.6635C4.97308 11.5597 5.03908 11.4609 5.13275 11.3672L11.473 5.027C11.6115 4.8885 11.783 4.81767 11.9875 4.8145C12.192 4.81133 12.3718 4.88217 12.527 5.027C12.682 5.18217 12.7595 5.36033 12.7595 5.5615C12.7595 5.76283 12.682 5.94108 12.527 6.09625L7.373 11.25H18.75C18.9628 11.25 19.141 11.3218 19.2845 11.4655C19.4282 11.609 19.5 11.7872 19.5 12C19.5 12.2128 19.4282 12.391 19.2845 12.5345C19.141 12.6782 18.9628 12.75 18.75 12.75H7.373Z" fill="var(--fill-0, #1C1B1F)"/>
</g>
</g>
</svg>
