<svg preserveAspectRatio="none" width="100%" height="100%" overflow="visible" style="display: block;" viewBox="0 0 16 16" fill="none" xmlns="http://www.w3.org/2000/svg">
<g id="material-symbols:calendar-month-rounded">
<path id="Vector" d="M3.33333 14.6667C2.96667 14.6667 2.65267 14.536 2.39133 14.2747C2.13 14.0133 1.99956 13.6996 2 13.3333V4C2 3.63333 2.13067 3.31933 2.392 3.058C2.65333 2.79667 2.96711 2.66622 3.33333 2.66667H4V2C4 1.81111 4.064 1.65267 4.192 1.52467C4.32 1.39667 4.47822 1.33289 4.66667 1.33333C4.85556 1.33333 5.014 1.39733 5.142 1.52533C5.27 1.65333 5.33378 1.81156 5.33333 2V2.66667H10.6667V2C10.6667 1.81111 10.7307 1.65267 10.8587 1.52467C10.9867 1.39667 11.1449 1.33289 11.3333 1.33333C11.5222 1.33333 11.6807 1.39733 11.8087 1.52533C11.9367 1.65333 12.0004 1.81156 12 2V2.66667H12.6667C13.0333 2.66667 13.3473 2.79733 13.6087 3.05867C13.87 3.32 14.0004 3.63378 14 4V13.3333C14 13.7 13.8693 14.014 13.608 14.2753C13.3467 14.5367 13.0329 14.6671 12.6667 14.6667H3.33333ZM3.33333 13.3333H12.6667V6.66667H3.33333V13.3333ZM8 9.33333C7.81111 9.33333 7.65267 9.26933 7.52467 9.14133C7.39667 9.01333 7.33289 8.85511 7.33333 8.66667C7.33333 8.47778 7.39733 8.31933 7.52533 8.19133C7.65333 8.06333 7.81156 7.99956 8 8C8.18889 8 8.34733 8.064 8.47533 8.192C8.60333 8.32 8.66711 8.47822 8.66667 8.66667C8.66667 8.85556 8.60267 9.014 8.47467 9.142C8.34667 9.27 8.18844 9.33378 8 9.33333ZM5.33333 9.33333C5.14444 9.33333 4.986 9.26933 4.858 9.14133C4.73 9.01333 4.66622 8.85511 4.66667 8.66667C4.66667 8.47778 4.73067 8.31933 4.85867 8.19133C4.98667 8.06333 5.14489 7.99956 5.33333 8C5.52222 8 5.68067 8.064 5.80867 8.192C5.93667 8.32 6.00044 8.47822 6 8.66667C6 8.85556 5.936 9.014 5.808 9.142C5.68 9.27 5.52178 9.33378 5.33333 9.33333ZM10.6667 9.33333C10.4778 9.33333 10.3193 9.26933 10.1913 9.14133C10.0633 9.01333 9.99956 8.85511 10 8.66667C10 8.47778 10.064 8.31933 10.192 8.19133C10.32 8.06333 10.4782 7.99956 10.6667 8C10.8556 8 11.014 8.064 11.142 8.192C11.27 8.32 11.3338 8.47822 11.3333 8.66667C11.3333 8.85556 11.2693 9.014 11.1413 9.142C11.0133 9.27 10.8551 9.33378 10.6667 9.33333ZM8 12C7.81111 12 7.65267 11.936 7.52467 11.808C7.39667 11.68 7.33289 11.5218 7.33333 11.3333C7.33333 11.1444 7.39733 10.986 7.52533 10.858C7.65333 10.73 7.81156 10.6662 8 10.6667C8.18889 10.6667 8.34733 10.7307 8.47533 10.8587C8.60333 10.9867 8.66711 11.1449 8.66667 11.3333C8.66667 11.5222 8.60267 11.6807 8.47467 11.8087C8.34667 11.9367 8.18844 12.0004 8 12ZM5.33333 12C5.14444 12 4.986 11.936 4.858 11.808C4.73 11.68 4.66622 11.5218 4.66667 11.3333C4.66667 11.1444 4.73067 10.986 4.85867 10.858C4.98667 10.73 5.14489 10.6662 5.33333 10.6667C5.52222 10.6667 5.68067 10.7307 5.80867 10.8587C5.93667 10.9867 6.00044 11.1449 6 11.3333C6 11.5222 5.936 11.6807 5.808 11.8087C5.68 11.9367 5.52178 12.0004 5.33333 12ZM10.6667 12C10.4778 12 10.3193 11.936 10.1913 11.808C10.0633 11.68 9.99956 11.5218 10 11.3333C10 11.1444 10.064 10.986 10.192 10.858C10.32 10.73 10.4782 10.6662 10.6667 10.6667C10.8556 10.6667 11.014 10.7307 11.142 10.8587C11.27 10.9867 11.3338 11.1449 11.3333 11.3333C11.3333 11.5222 11.2693 11.6807 11.1413 11.8087C11.0133 11.9367 10.8551 12.0004 10.6667 12Z" fill="var(--fill-0, #D1D1D1)"/>
</g>
</svg>
