<svg preserveAspectRatio="none" width="100%" height="100%" overflow="visible" style="display: block;" viewBox="0 0 16 16" fill="none" xmlns="http://www.w3.org/2000/svg">
<g id="iconamoon:discount-fill">
<path id="Vector" fill-rule="evenodd" clip-rule="evenodd" d="M6.65934 2.5998C6.82814 2.41127 7.03481 2.26047 7.26584 2.15722C7.49687 2.05397 7.74708 2.00061 8.00013 2.00061C8.25318 2.00061 8.50339 2.05397 8.73442 2.15722C8.96545 2.26047 9.17211 2.41127 9.34092 2.5998L9.76085 3.06892C9.82086 3.13606 9.89522 3.18882 9.9784 3.2233C10.0616 3.25778 10.1515 3.27309 10.2414 3.26809L10.8713 3.2333C11.1239 3.21943 11.3765 3.25896 11.6128 3.34932C11.8491 3.43968 12.0637 3.57884 12.2426 3.75771C12.4214 3.93659 12.5606 4.15117 12.651 4.38745C12.7413 4.62373 12.7808 4.87641 12.767 5.129L12.7322 5.7589C12.7273 5.84871 12.7426 5.93847 12.7771 6.02154C12.8116 6.10462 12.8643 6.17887 12.9313 6.23882L13.4011 6.65875C13.5897 6.82756 13.7406 7.03426 13.8439 7.26534C13.9472 7.49643 14.0006 7.74671 14.0006 7.99984C14.0006 8.25297 13.9472 8.50325 13.8439 8.73434C13.7406 8.96543 13.5897 9.17212 13.4011 9.34093L12.9313 9.76086C12.8642 9.82088 12.8115 9.89523 12.777 9.97842C12.7425 10.0616 12.7272 10.1515 12.7322 10.2414L12.767 10.8713C12.7808 11.1239 12.7413 11.3766 12.651 11.6128C12.5606 11.8491 12.4214 12.0637 12.2426 12.2426C12.0637 12.4214 11.8491 12.5606 11.6128 12.651C11.3765 12.7413 11.1239 12.7809 10.8713 12.767L10.2414 12.7322C10.1516 12.7273 10.0618 12.7426 9.97873 12.7771C9.89566 12.8116 9.8214 12.8643 9.76145 12.9314L9.34152 13.4011C9.17271 13.5897 8.96601 13.7406 8.73493 13.8439C8.50384 13.9472 8.25356 14.0006 8.00043 14.0006C7.7473 14.0006 7.49702 13.9472 7.26593 13.8439C7.03484 13.7406 6.82815 13.5897 6.65934 13.4011L6.23941 12.9314C6.1794 12.8642 6.10504 12.8115 6.02186 12.777C5.93867 12.7425 5.84879 12.7272 5.75889 12.7322L5.12899 12.767C4.8764 12.7809 4.62372 12.7413 4.38744 12.651C4.15116 12.5606 3.93658 12.4214 3.7577 12.2426C3.57882 12.0637 3.43967 11.8491 3.34931 11.6128C3.25895 11.3766 3.21941 11.1239 3.23329 10.8713L3.26808 10.2414C3.27298 10.1516 3.25763 10.0618 3.22315 9.97874C3.18868 9.89567 3.13596 9.82141 3.06891 9.76146L2.59979 9.34153C2.41116 9.17272 2.26027 8.96603 2.15697 8.73494C2.05366 8.50385 2.00026 8.25357 2.00026 8.00044C2.00026 7.74731 2.05366 7.49703 2.15697 7.26595C2.26027 7.03486 2.41116 6.82816 2.59979 6.65936L3.06891 6.23942C3.13605 6.17941 3.18881 6.10505 3.22329 6.02187C3.25776 5.93868 3.27307 5.84881 3.26808 5.7589L3.23329 5.129C3.21941 4.87641 3.25895 4.62373 3.34931 4.38745C3.43967 4.15117 3.57882 3.93659 3.7577 3.75771C3.93658 3.57884 4.15116 3.43968 4.38744 3.34932C4.62372 3.25896 4.8764 3.21943 5.12899 3.2333L5.75889 3.26809C5.84869 3.273 5.93846 3.25764 6.02153 3.22317C6.1046 3.18869 6.17886 3.13598 6.23881 3.06892L6.65934 2.5998ZM10.224 5.7763C10.3364 5.88879 10.3996 6.04135 10.3996 6.20043C10.3996 6.3595 10.3364 6.51206 10.224 6.62456L6.62455 10.224C6.5114 10.3333 6.35987 10.3937 6.20257 10.3924C6.04528 10.391 5.89482 10.3279 5.78359 10.2167C5.67236 10.1055 5.60927 9.95499 5.6079 9.7977C5.60654 9.6404 5.667 9.48887 5.77628 9.37572L9.37571 5.7763C9.48821 5.66383 9.64077 5.60065 9.79984 5.60065C9.95892 5.60065 10.1115 5.66383 10.224 5.7763ZM6.50037 5.60052C6.26171 5.60052 6.03283 5.69533 5.86407 5.86408C5.69532 6.03284 5.60051 6.26172 5.60051 6.50038V6.50638C5.60051 6.74504 5.69532 6.97392 5.86407 7.14267C6.03283 7.31143 6.26171 7.40624 6.50037 7.40624H6.50637C6.74502 7.40624 6.97391 7.31143 7.14266 7.14267C7.31142 6.97392 7.40622 6.74504 7.40622 6.50638V6.50038C7.40622 6.26172 7.31142 6.03284 7.14266 5.86408C6.97391 5.69533 6.74502 5.60052 6.50637 5.60052H6.50037ZM9.49989 8.60005C9.26123 8.60005 9.03235 8.69485 8.8636 8.86361C8.69484 9.03237 8.60003 9.26125 8.60003 9.4999V9.5059C8.60003 9.74456 8.69484 9.97344 8.8636 10.1422C9.03235 10.311 9.26123 10.4058 9.49989 10.4058H9.50589C9.74455 10.4058 9.97343 10.311 10.1422 10.1422C10.3109 9.97344 10.4057 9.74456 10.4057 9.5059V9.4999C10.4057 9.26125 10.3109 9.03237 10.1422 8.86361C9.97343 8.69485 9.74455 8.60005 9.50589 8.60005H9.49989Z" fill="var(--fill-0, #757575)"/>
</g>
</svg>
