<svg preserveAspectRatio="none" width="100%" height="100%" overflow="visible" style="display: block;" viewBox="0 0 16 16" fill="none" xmlns="http://www.w3.org/2000/svg">
<g id="your_trips">
<mask id="mask0_5581_6016" style="mask-type:alpha" maskUnits="userSpaceOnUse" x="0" y="0" width="16" height="16">
<rect id="Bounding box" width="16" height="16" fill="var(--fill-0, #D9D9D9)"/>
</mask>
<g mask="url(#mask0_5581_6016)">
<path id="your_trips_2" d="M6.06193 11.7185H9.93774C10.0752 11.7185 10.1903 11.6721 10.283 11.5793C10.3758 11.4866 10.4222 11.3715 10.4222 11.234C10.4222 11.0965 10.3758 10.9814 10.283 10.8887C10.1903 10.7959 10.0752 10.7495 9.93774 10.7495H6.06193C5.92445 10.7495 5.80936 10.7959 5.71666 10.8887C5.62386 10.9814 5.57745 11.0965 5.57745 11.234C5.57745 11.3715 5.62386 11.4866 5.71666 11.5793C5.80936 11.6721 5.92445 11.7185 6.06193 11.7185ZM4.96879 14.1409C4.64247 14.1409 4.36626 14.0278 4.14017 13.8017C3.91408 13.5756 3.80104 13.2994 3.80104 12.9731V8.00416C3.80104 7.13048 4.03746 6.35263 4.51031 5.67059C4.98327 4.98856 5.59156 4.48858 6.33518 4.17065V3.80536C6.33518 3.34166 6.49667 2.94832 6.81965 2.62533C7.14264 2.30235 7.53603 2.14086 7.99984 2.14086C8.46364 2.14086 8.85704 2.30235 9.18002 2.62533C9.50301 2.94832 9.6645 3.34166 9.6645 3.80536V4.17065C10.4081 4.48858 11.0164 4.98856 11.4894 5.67059C11.9622 6.35263 12.1986 7.13048 12.1986 8.00416V12.9731C12.1986 13.2994 12.0856 13.5756 11.8595 13.8017C11.6334 14.0278 11.3572 14.1409 11.0309 14.1409H4.96879ZM7.30413 3.88239C7.42676 3.85677 7.54271 3.8375 7.65198 3.82458C7.76137 3.81176 7.87732 3.80536 7.99984 3.80536C8.12236 3.80536 8.23831 3.81176 8.34769 3.82458C8.45697 3.8375 8.57292 3.85677 8.69555 3.88239V3.80536C8.69555 3.60995 8.62847 3.44518 8.49433 3.31103C8.36007 3.17678 8.19524 3.10965 7.99984 3.10965C7.80443 3.10965 7.6396 3.17678 7.50535 3.31103C7.3712 3.44518 7.30413 3.60995 7.30413 3.80536V3.88239ZM7.99984 8.63397L8.74141 9.19419C8.80192 9.23973 8.86032 9.2414 8.91663 9.1992C8.97294 9.15699 8.99032 9.10236 8.96879 9.03528L8.68682 8.11219L9.42226 7.58428C9.48266 7.53873 9.50209 7.4841 9.48056 7.42036C9.45903 7.35652 9.41144 7.3246 9.3378 7.3246H8.43086L8.14276 6.34951C8.12123 6.28243 8.07359 6.2489 7.99984 6.2489C7.92609 6.2489 7.87845 6.28243 7.85692 6.34951L7.56881 7.3246H6.66187C6.58823 7.3246 6.54065 7.35652 6.51912 7.42036C6.49758 7.4841 6.51702 7.53873 6.57741 7.58428L7.31285 8.11219L7.03088 9.03528C7.00935 9.10236 7.02674 9.15699 7.08305 9.1992C7.13935 9.2414 7.19776 9.23973 7.25827 9.19419L7.99984 8.63397Z" fill="var(--fill-0, #757575)"/>
</g>
</g>
</svg>
