<svg preserveAspectRatio="none" width="100%" height="100%" overflow="visible" style="display: block;" viewBox="0 0 12 13.125" fill="none" xmlns="http://www.w3.org/2000/svg">
<path id="Vector" d="M1.5 11.625H3.75V7.875C3.75 7.6625 3.82188 7.48438 3.96563 7.34063C4.10938 7.19688 4.2875 7.125 4.5 7.125H7.5C7.7125 7.125 7.89063 7.19688 8.03438 7.34063C8.17813 7.48438 8.25 7.6625 8.25 7.875V11.625H10.5V4.875L6 1.5L1.5 4.875V11.625ZM0 11.625V4.875C0 4.6375 0.053125 4.4125 0.159375 4.2C0.265625 3.9875 0.4125 3.8125 0.6 3.675L5.1 0.3C5.3625 0.1 5.6625 0 6 0C6.3375 0 6.6375 0.1 6.9 0.3L11.4 3.675C11.5875 3.8125 11.7344 3.9875 11.8406 4.2C11.9469 4.4125 12 4.6375 12 4.875V11.625C12 12.0375 11.8531 12.3906 11.5594 12.6844C11.2656 12.9781 10.9125 13.125 10.5 13.125H7.5C7.2875 13.125 7.10938 13.0531 6.96563 12.9094C6.82188 12.7656 6.75 12.5875 6.75 12.375V8.625H5.25V12.375C5.25 12.5875 5.17813 12.7656 5.03438 12.9094C4.89063 13.0531 4.7125 13.125 4.5 13.125H1.5C1.0875 13.125 0.734375 12.9781 0.440625 12.6844C0.146875 12.3906 0 12.0375 0 11.625Z" fill="var(--fill-0, #757575)"/>
</svg>
