<svg preserveAspectRatio="none" width="100%" height="100%" overflow="visible" style="display: block;" viewBox="0 0 37.7375 37.7375" fill="none" xmlns="http://www.w3.org/2000/svg">
<g id="facebook 1">
<path id="Vector" d="M35.3802 18.8687C35.3802 14.4899 33.6407 10.2905 30.5445 7.19427C27.4482 4.09802 23.2488 2.35856 18.8701 2.35856C14.7127 2.35472 10.7069 3.91946 7.65282 6.74021C4.59877 9.56096 2.72131 13.4301 2.39546 17.5747C2.06961 21.7193 3.31936 25.8342 5.89508 29.0976C8.4708 32.3609 12.1829 34.5325 16.2898 35.1784V23.6401H12.1009V18.8687H16.2921V15.2318C16.2921 11.0948 18.7568 8.80695 22.5282 8.80695C24.3349 8.80695 26.2241 9.13008 26.2241 9.13008V13.1939H24.1415C22.0895 13.1939 21.4527 14.4676 21.4527 15.7719V18.8687H26.0307L25.2996 23.6401H21.4504V35.1784C25.3338 34.5634 28.8703 32.5829 31.4239 29.5931C33.9774 26.6034 35.3803 22.8005 35.3802 18.8687Z" fill="var(--fill-0, #1877F2)"/>
<path id="Vector_2" d="M25.2959 23.6401L26.0271 18.8687H21.4491V15.7719C21.4491 14.4676 22.0859 13.1939 24.1379 13.1939H26.2205V9.12773C26.2205 9.12773 24.3313 8.8046 22.5246 8.8046C18.7509 8.8046 16.2885 11.0924 16.2885 15.2294V18.8687H12.0996V23.6401H16.2908V35.1784C18.0005 35.4474 19.7418 35.4474 21.4514 35.1784V23.6401H25.2959Z" fill="var(--fill-0, white)"/>
</g>
</svg>
