<svg preserveAspectRatio="none" width="100%" height="100%" overflow="visible" style="display: block;" viewBox="0 0 30.6954 31.3642" fill="none" xmlns="http://www.w3.org/2000/svg">
<g id="Google">
<path id="Fill-1" fill-rule="evenodd" clip-rule="evenodd" d="M6.42456 15.682C6.42456 14.6634 6.59374 13.6868 6.89569 12.7708L1.61048 8.73485C0.580425 10.8263 8.05117e-05 13.1828 8.05117e-05 15.682C8.05117e-05 18.179 0.579711 20.5341 1.60834 22.6241L6.89069 18.5803C6.5916 17.6686 6.42456 16.6956 6.42456 15.682Z" fill="var(--fill-0, #FBBC05)"/>
<path id="Fill-2" fill-rule="evenodd" clip-rule="evenodd" d="M15.7044 6.41537C17.9173 6.41537 19.916 7.19947 21.4865 8.48254L26.055 3.9205C23.2711 1.49692 19.7019 0 15.7044 0C9.49839 0 4.16464 3.54912 1.61056 8.73488L6.89576 12.7709C8.11356 9.07418 11.5849 6.41537 15.7044 6.41537Z" fill="var(--fill-0, #EB4335)"/>
<path id="Fill-3" fill-rule="evenodd" clip-rule="evenodd" d="M15.7044 24.9486C11.5849 24.9486 8.11356 22.2898 6.89576 18.5931L1.61056 22.6284C4.16464 27.8149 9.49839 31.364 15.7044 31.364C19.5349 31.364 23.1918 30.0039 25.9365 27.4556L20.9197 23.5772C19.5042 24.4689 17.7217 24.9486 15.7044 24.9486Z" fill="var(--fill-0, #34A853)"/>
<path id="Fill-4" fill-rule="evenodd" clip-rule="evenodd" d="M30.6954 15.682C30.6954 14.7553 30.5527 13.7574 30.3385 12.8307H15.705V18.8897H24.1282C23.707 20.9554 22.5606 22.5436 20.9202 23.5772L25.937 27.4556C28.8202 24.7797 30.6954 20.7936 30.6954 15.682Z" fill="var(--fill-0, #4285F4)"/>
</g>
</svg>
