<svg preserveAspectRatio="none" width="100%" height="100%" overflow="visible" style="display: block;" viewBox="0 0 17.4833 17.8641" fill="none" xmlns="http://www.w3.org/2000/svg">
<g id="Google">
<path id="Fill-1" fill-rule="evenodd" clip-rule="evenodd" d="M3.65925 8.93215C3.65925 8.35197 3.75561 7.79575 3.9276 7.27404L0.917301 4.97527C0.330611 6.16647 6.37818e-05 7.50871 6.37818e-05 8.93215C6.37818e-05 10.3544 0.330204 11.6958 0.916081 12.8862L3.92475 10.5829C3.75439 10.0637 3.65925 9.50948 3.65925 8.93215Z" fill="var(--fill-0, #FBBC05)"/>
<path id="Fill-2" fill-rule="evenodd" clip-rule="evenodd" d="M8.94479 3.65401C10.2052 3.65401 11.3436 4.10061 12.2381 4.83141L14.8402 2.23301C13.2545 0.852609 11.2216 8.60094e-06 8.94479 8.60094e-06C5.41001 8.60094e-06 2.37207 2.02148 0.917337 4.97513L3.92763 7.27391C4.62125 5.16839 6.59843 3.65401 8.94479 3.65401Z" fill="var(--fill-0, #EB4335)"/>
<path id="Fill-3" fill-rule="evenodd" clip-rule="evenodd" d="M8.94479 14.2101C6.59843 14.2101 4.62125 12.6957 3.92763 10.5902L0.917337 12.8886C2.37207 15.8427 5.41001 17.8641 8.94479 17.8641C11.1265 17.8641 13.2094 17.0895 14.7727 15.638L11.9152 13.429C11.109 13.9369 10.0938 14.2101 8.94479 14.2101Z" fill="var(--fill-0, #34A853)"/>
<path id="Fill-4" fill-rule="evenodd" clip-rule="evenodd" d="M17.4833 8.93171C17.4833 8.40391 17.402 7.83551 17.28 7.30771H8.94522V10.7587H13.7428C13.5029 11.9353 12.85 12.8399 11.9157 13.4286L14.7731 15.6376C16.4153 14.1135 17.4833 11.8431 17.4833 8.93171Z" fill="var(--fill-0, #4285F4)"/>
</g>
</svg>
