<svg preserveAspectRatio="none" width="100%" height="100%" overflow="visible" style="display: block;" viewBox="0 0 27.0966 27.0966" fill="none" xmlns="http://www.w3.org/2000/svg">
<g id="search">
<mask id="mask0_0_9" style="mask-type:alpha" maskUnits="userSpaceOnUse" x="0" y="0" width="28" height="28">
<rect id="Bounding box" x="2.96108e-06" y="-9.06955e-07" width="27.0966" height="27.0966" fill="var(--fill-0, #D9D9D9)"/>
</mask>
<g mask="url(#mask0_0_9)">
<path id="search_2" d="M20.223 21.4516L14.6908 15.9194C14.2517 16.2706 13.7468 16.5487 13.176 16.7536C12.6052 16.9585 11.9979 17.061 11.3539 17.061C9.75864 17.061 8.40866 16.5086 7.30397 15.4039C6.19869 14.2986 5.64606 12.9484 5.64606 11.3531C5.64606 9.75783 6.19869 8.40756 7.30397 7.30228C8.40866 6.19759 9.75864 5.64525 11.3539 5.64525C12.9492 5.64525 14.2995 6.19759 15.4047 7.30228C16.5094 8.40756 17.0618 9.75783 17.0618 11.3531C17.0618 11.9971 16.9593 12.6044 16.7544 13.1752C16.5495 13.746 16.2714 14.2509 15.9202 14.69L21.4524 20.2222L20.223 21.4516ZM11.3539 15.3047C12.4516 15.3047 13.3847 14.9207 14.1534 14.1526C14.9215 13.3839 15.3055 12.4508 15.3055 11.3531C15.3055 10.2554 14.9215 9.32228 14.1534 8.55362C13.3847 7.78555 12.4516 7.40151 11.3539 7.40151C10.2562 7.40151 9.32308 7.78555 8.55443 8.55362C7.78636 9.32228 7.40232 10.2554 7.40232 11.3531C7.40232 12.4508 7.78636 13.3839 8.55443 14.1526C9.32308 14.9207 10.2562 15.3047 11.3539 15.3047Z" fill="var(--fill-0, white)"/>
</g>
</g>
</svg>
