<svg preserveAspectRatio="none" width="100%" height="100%" overflow="visible" style="display: block;" viewBox="0 0 11.5155 17.1788" fill="none" xmlns="http://www.w3.org/2000/svg">
<path id="distance" d="M5.75773 17.1788C4.13141 17.1788 2.82026 16.9658 1.8243 16.5398C0.828342 16.1139 0.330361 15.5543 0.330361 14.8608C0.330361 14.6055 0.427503 14.3559 0.621787 14.1121C0.815914 13.8683 1.09208 13.6453 1.45029 13.4431C1.60036 13.3657 1.76161 13.36 1.93403 13.4259C2.10645 13.4918 2.23143 13.5998 2.30899 13.7499C2.38639 13.9 2.39213 14.0558 2.32622 14.2173C2.2603 14.3789 2.1523 14.4984 2.00223 14.5758C1.88361 14.6279 1.78136 14.6772 1.69546 14.7237C1.60941 14.7703 1.55734 14.8208 1.53925 14.8752C1.61665 15.1258 2.09677 15.3679 2.97962 15.6013C3.86232 15.8349 4.78835 15.9517 5.75773 15.9517C6.7271 15.9517 7.65314 15.8349 8.53583 15.6013C9.41868 15.3679 9.89881 15.1258 9.97621 14.8752C9.95811 14.8208 9.90604 14.7703 9.81999 14.7237C9.7341 14.6772 9.63184 14.6279 9.51323 14.5758C9.36315 14.4984 9.25515 14.3789 9.18924 14.2173C9.12332 14.0558 9.12907 13.9 9.20646 13.7499C9.28402 13.5998 9.40901 13.4918 9.58142 13.4259C9.75384 13.36 9.91509 13.3657 10.0652 13.4431C10.4234 13.6453 10.6995 13.8683 10.8937 14.1121C11.088 14.3559 11.1851 14.6055 11.1851 14.8608C11.1851 15.5543 10.6871 16.1139 9.69115 16.5398C8.69519 16.9658 7.38405 17.1788 5.75773 17.1788ZM5.78132 12.8133C7.28179 11.6758 8.40809 10.5259 9.16021 9.36362C9.91234 8.20122 10.2884 7.07068 10.2884 5.97199C10.2884 4.40608 9.80222 3.22378 8.82985 2.42509C7.85749 1.6264 6.83345 1.22706 5.75773 1.22706C4.68799 1.22706 3.66544 1.6264 2.69009 2.42509C1.71473 3.22378 1.22706 4.40608 1.22706 5.97199C1.22706 7.01263 1.60611 8.10778 2.36421 9.25743C3.12231 10.4071 4.26135 11.5924 5.78132 12.8133ZM5.2931 13.9042C5.13814 13.8521 4.99593 13.7692 4.86646 13.6555C3.23164 12.3244 2.0119 11.0115 1.20723 9.71664C0.402412 8.42178 0 7.17356 0 5.97199C0 5.00026 0.173675 4.14289 0.521027 3.39989C0.868378 2.65689 1.31971 2.03455 1.87504 1.53288C2.43052 1.03136 3.04924 0.650497 3.7312 0.390298C4.413 0.130099 5.08851 0 5.75773 0C6.42694 0 7.10246 0.130099 7.78426 0.390298C8.46622 0.650497 9.08494 1.03136 9.64042 1.53288C10.1957 2.03455 10.6471 2.65689 10.9944 3.39989C11.3418 4.14289 11.5155 5.00026 11.5155 5.97199C11.5155 7.17356 11.113 8.42178 10.3082 9.71664C9.50355 11.0115 8.28381 12.3244 6.64899 13.6555C6.51952 13.7692 6.37731 13.8521 6.22236 13.9042C6.06756 13.9563 5.91268 13.9823 5.75773 13.9823C5.60277 13.9823 5.4479 13.9563 5.2931 13.9042ZM5.75773 7.35691C6.18122 7.35691 6.53998 7.2114 6.834 6.92036C7.12818 6.62933 7.27527 6.269 7.27527 5.83937C7.27527 5.41588 7.12818 5.05712 6.834 4.7631C6.53998 4.46892 6.18122 4.32184 5.75773 4.32184C5.34021 4.32184 4.98295 4.47286 4.68594 4.7749C4.38877 5.07679 4.24019 5.43161 4.24019 5.83937C4.24019 6.25327 4.38877 6.60967 4.68594 6.90857C4.98295 7.20746 5.34021 7.35691 5.75773 7.35691Z" fill="var(--fill-0, #757575)"/>
</svg>
