<svg preserveAspectRatio="none" width="100%" height="100%" overflow="visible" style="display: block;" viewBox="0 0 16 16" fill="none" xmlns="http://www.w3.org/2000/svg">
<g id="location_on">
<mask id="mask0_0_9" style="mask-type:alpha" maskUnits="userSpaceOnUse" x="0" y="0" width="16" height="16">
<rect id="Bounding box" width="16" height="16" fill="var(--fill-0, #D9D9D9)"/>
</mask>
<g mask="url(#mask0_0_9)">
<path id="location_on_2" d="M8.0001 13.009C9.30432 11.8414 10.3024 10.7216 10.9943 9.64933C11.6862 8.57711 12.0321 7.638 12.0321 6.832C12.0321 5.61667 11.646 4.61756 10.8738 3.83467C10.1015 3.05178 9.14365 2.66033 8.0001 2.66033C6.85654 2.66033 5.89865 3.05178 5.12643 3.83467C4.35421 4.61756 3.9681 5.61667 3.9681 6.832C3.9681 7.638 4.31404 8.57711 5.00593 9.64933C5.69782 10.7216 6.69588 11.8414 8.0001 13.009ZM7.61043 13.893C7.48043 13.8481 7.36288 13.7787 7.25777 13.6847C6.65954 13.1333 6.09971 12.5656 5.57827 11.9813C5.05693 11.3972 4.60377 10.8133 4.21877 10.2295C3.83365 9.64572 3.52893 9.06711 3.3046 8.49367C3.08027 7.92011 2.9681 7.36622 2.9681 6.832C2.9681 5.29356 3.46571 4.04806 4.46093 3.0955C5.45627 2.14294 6.63599 1.66667 8.0001 1.66667C9.36421 1.66667 10.5439 2.14294 11.5393 3.0955C12.5345 4.04806 13.0321 5.29356 13.0321 6.832C13.0321 7.36622 12.9199 7.919 12.6956 8.49033C12.4713 9.06178 12.1677 9.64044 11.7848 10.2263C11.4018 10.8122 10.9496 11.3962 10.4283 11.9782C9.90693 12.5603 9.3471 13.1269 8.74877 13.6782C8.64365 13.7722 8.5251 13.8427 8.3931 13.8897C8.26099 13.9367 8.12999 13.9602 8.0001 13.9602C7.87021 13.9602 7.74032 13.9378 7.61043 13.893ZM8.85193 7.557C9.08749 7.32156 9.20527 7.03761 9.20527 6.70517C9.20527 6.37272 9.08749 6.08872 8.85193 5.85317C8.61649 5.61772 8.33254 5.5 8.0001 5.5C7.66765 5.5 7.38371 5.61772 7.14827 5.85317C6.91271 6.08872 6.79493 6.37272 6.79493 6.70517C6.79493 7.03761 6.91271 7.32156 7.14827 7.557C7.38371 7.79244 7.66765 7.91017 8.0001 7.91017C8.33254 7.91017 8.61649 7.79244 8.85193 7.557Z" fill="var(--fill-0, #757575)" fill-opacity="0.7"/>
</g>
</g>
</svg>
