<svg preserveAspectRatio="none" width="100%" height="100%" overflow="visible" style="display: block;" viewBox="0 0 17.325 17.325" fill="none" xmlns="http://www.w3.org/2000/svg">
<g id="calendar_clock">
<mask id="mask0_0_6" style="mask-type:alpha" maskUnits="userSpaceOnUse" x="0" y="0" width="18" height="18">
<rect id="Bounding box" width="17.325" height="17.325" fill="var(--fill-0, #D9D9D9)"/>
</mask>
<g mask="url(#mask0_0_6)">
<path id="calendar_clock_2" d="M3.60902 6.35791H13.7153V4.55322C13.7153 4.49764 13.6921 4.44675 13.6458 4.40055C13.5996 4.35423 13.5487 4.33107 13.4931 4.33107H3.83118C3.7756 4.33107 3.7247 4.35423 3.6785 4.40055C3.63218 4.44675 3.60902 4.49764 3.60902 4.55322V6.35791ZM3.83118 15.5201C3.46651 15.5201 3.15785 15.3938 2.90519 15.1411C2.65254 14.8885 2.52621 14.5798 2.52621 14.2152V4.55322C2.52621 4.18856 2.65254 3.87989 2.90519 3.62724C3.15785 3.37458 3.46651 3.24825 3.83118 3.24825H4.83062V2.27643C4.83062 2.11822 4.88361 1.98611 4.98961 1.88012C5.0956 1.77424 5.22771 1.72131 5.38592 1.72131C5.54425 1.72131 5.67635 1.77424 5.78223 1.88012C5.88822 1.98611 5.94122 2.11822 5.94122 2.27643V3.24825H11.4109V2.26271C11.4109 2.10907 11.4627 1.9804 11.5663 1.87669C11.67 1.7731 11.7986 1.72131 11.9523 1.72131C12.1059 1.72131 12.2345 1.7731 12.3381 1.87669C12.4418 1.9804 12.4937 2.10907 12.4937 2.26271V3.24825H13.4931C13.8578 3.24825 14.1664 3.37458 14.4191 3.62724C14.6718 3.87989 14.7981 4.18856 14.7981 4.55322V7.95578C14.7981 8.10942 14.7462 8.23803 14.6425 8.34162C14.5389 8.44533 14.4103 8.49719 14.2567 8.49719C14.103 8.49719 13.9744 8.44533 13.8708 8.34162C13.7671 8.23803 13.7153 8.10942 13.7153 7.95578V7.44072H3.60902V14.2152C3.60902 14.2707 3.63218 14.3216 3.6785 14.3678C3.7247 14.4142 3.7756 14.4373 3.83118 14.4373H8.24707C8.40071 14.4373 8.52938 14.4892 8.63309 14.5929C8.73668 14.6965 8.78848 14.8251 8.78848 14.9787C8.78848 15.1324 8.73668 15.261 8.63309 15.3646C8.52938 15.4683 8.40071 15.5201 8.24707 15.5201H3.83118ZM10.8319 15.2938C10.1998 14.6617 9.88374 13.8949 9.88374 12.9936C9.88374 12.0922 10.1998 11.3254 10.8319 10.6933C11.464 10.0612 12.2308 9.74513 13.1322 9.74513C14.0337 9.74513 14.8004 10.0612 15.4324 10.6933C16.0646 11.3254 16.3806 12.0922 16.3806 12.9936C16.3806 13.8949 16.0646 14.6617 15.4324 15.2938C14.8004 15.9259 14.0337 16.242 13.1322 16.242C12.2308 16.242 11.464 15.9259 10.8319 15.2938ZM13.4516 12.8631V11.1889C13.4516 11.1019 13.4201 11.0269 13.357 10.964C13.2941 10.9011 13.2192 10.8696 13.1322 10.8696C13.0452 10.8696 12.9702 10.9011 12.9073 10.964C12.8444 11.0269 12.8129 11.1019 12.8129 11.1889V12.8519C12.8129 12.9389 12.8287 13.0217 12.8602 13.1004C12.8916 13.1791 12.9411 13.2522 13.0087 13.3199L14.1096 14.4207C14.1725 14.4836 14.2463 14.5162 14.331 14.5185C14.4156 14.5208 14.4917 14.4882 14.5593 14.4207C14.6269 14.3531 14.6608 14.2781 14.6608 14.1958C14.6608 14.1134 14.6269 14.0384 14.5593 13.9708L13.4516 12.8631Z" fill="var(--fill-0, #287686)"/>
</g>
</g>
</svg>
