<svg preserveAspectRatio="none" width="100%" height="100%" overflow="visible" style="display: block;" viewBox="0 0 16.5398 19.1728" fill="none" xmlns="http://www.w3.org/2000/svg">
<path id="calendar_month" d="M1.68303 19.1728C1.21179 19.1728 0.813469 19.0071 0.488082 18.6756C0.162694 18.3441 0 17.9488 0 17.4898V4.31606C0 3.85702 0.162694 3.46176 0.488082 3.13027C0.813469 2.79877 1.21179 2.63302 1.68303 2.63302H3.96982V0.700326C3.96982 0.500557 4.03612 0.333849 4.16872 0.200204C4.30131 0.0667341 4.46671 0 4.66491 0C4.86328 0 5.03051 0.0667341 5.1666 0.200204C5.30286 0.333849 5.37099 0.500557 5.37099 0.700326V2.63302H11.2091V0.680436C11.2091 0.487297 11.2737 0.325561 11.4028 0.195232C11.5321 0.0650766 11.6925 0 11.8841 0C12.0756 0 12.2378 0.0650766 12.3706 0.195232C12.5035 0.325561 12.57 0.487297 12.57 0.680436V2.63302H14.8568C15.328 2.63302 15.7264 2.79877 16.0517 3.13027C16.3771 3.46176 16.5398 3.85702 16.5398 4.31606V17.4898C16.5398 17.9488 16.3771 18.3441 16.0517 18.6756C15.7264 19.0071 15.328 19.1728 14.8568 19.1728H1.68303ZM1.68303 17.812H14.8568C14.9374 17.812 15.0112 17.7784 15.0782 17.7112C15.1454 17.6442 15.179 17.5704 15.179 17.4898V8.71272H1.36087V17.4898C1.36087 17.5704 1.39446 17.6442 1.46163 17.7112C1.52863 17.7784 1.60243 17.812 1.68303 17.812ZM1.36087 7.35185H15.179V4.31606C15.179 4.23545 15.1454 4.16165 15.0782 4.09465C15.0112 4.02748 14.9374 3.9939 14.8568 3.9939H1.68303C1.60243 3.9939 1.52863 4.02748 1.46163 4.09465C1.39446 4.16165 1.36087 4.23545 1.36087 4.31606V7.35185ZM8.27541 12.2397C8.05034 12.2397 7.85624 12.16 7.69311 12.0005C7.53015 11.8412 7.44868 11.649 7.44868 11.4237C7.44868 11.1987 7.52832 11.0046 7.68762 10.8414C7.84708 10.6785 8.03935 10.597 8.26442 10.597C8.48948 10.597 8.68358 10.6766 8.84671 10.8359C9.00967 10.9954 9.09114 11.1877 9.09114 11.4127C9.09114 11.638 9.0115 11.8321 8.85221 11.995C8.69274 12.1582 8.50047 12.2397 8.27541 12.2397ZM3.6105 12.0005C3.44754 11.8412 3.36606 11.649 3.36606 11.4237C3.36606 11.1987 3.44571 11.0046 3.605 10.8414C3.76447 10.6785 3.95673 10.597 4.1818 10.597C4.40687 10.597 4.60097 10.6766 4.7641 10.8359C4.92705 10.9954 5.00853 11.1877 5.00853 11.4127C5.00853 11.638 4.92888 11.8321 4.76959 11.995C4.61013 12.1582 4.41786 12.2397 4.19279 12.2397C3.96773 12.2397 3.77363 12.16 3.6105 12.0005ZM12.358 12.2397C12.133 12.2397 11.9389 12.16 11.7757 12.0005C11.6128 11.8412 11.5313 11.649 11.5313 11.4237C11.5313 11.1987 11.6109 11.0046 11.7702 10.8414C11.9297 10.6785 12.122 10.597 12.347 10.597C12.5721 10.597 12.7662 10.6766 12.9293 10.8359C13.0923 10.9954 13.1738 11.1877 13.1738 11.4127C13.1738 11.638 13.0941 11.8321 12.9348 11.995C12.7754 12.1582 12.5831 12.2397 12.358 12.2397ZM8.27541 15.9277C8.05034 15.9277 7.85624 15.848 7.69311 15.6885C7.53015 15.5292 7.44868 15.337 7.44868 15.112C7.44868 14.8867 7.52832 14.6926 7.68762 14.5297C7.84708 14.3665 8.03935 14.285 8.26442 14.285C8.48948 14.285 8.68358 14.3647 8.84671 14.5242C9.00967 14.6835 9.09114 14.8757 9.09114 15.101C9.09114 15.326 9.0115 15.52 8.85221 15.683C8.69274 15.8461 8.50047 15.9277 8.27541 15.9277ZM3.6105 15.6885C3.44754 15.5292 3.36606 15.337 3.36606 15.112C3.36606 14.8867 3.44571 14.6926 3.605 14.5297C3.76447 14.3665 3.95673 14.285 4.1818 14.285C4.40687 14.285 4.60097 14.3647 4.7641 14.5242C4.92705 14.6835 5.00853 14.8757 5.00853 15.101C5.00853 15.326 4.92888 15.52 4.76959 15.683C4.61013 15.8461 4.41786 15.9277 4.19279 15.9277C3.96773 15.9277 3.77363 15.848 3.6105 15.6885ZM12.358 15.9277C12.133 15.9277 11.9389 15.848 11.7757 15.6885C11.6128 15.5292 11.5313 15.337 11.5313 15.112C11.5313 14.8867 11.6109 14.6926 11.7702 14.5297C11.9297 14.3665 12.122 14.285 12.347 14.285C12.5721 14.285 12.7662 14.3647 12.9293 14.5242C13.0923 14.6835 13.1738 14.8757 13.1738 15.101C13.1738 15.326 13.0941 15.52 12.9348 15.683C12.7754 15.8461 12.5831 15.9277 12.358 15.9277Z" fill="var(--fill-0, #757575)"/>
</svg>
