<svg preserveAspectRatio="none" width="100%" height="100%" overflow="visible" style="display: block;" viewBox="0 0 20 20" fill="none" xmlns="http://www.w3.org/2000/svg">
<g id="domino_mask">
<mask id="mask0_0_584" style="mask-type:alpha" maskUnits="userSpaceOnUse" x="0" y="0" width="20" height="20">
<rect id="Bounding box" width="20" height="20" fill="var(--fill-0, #D9D9D9)"/>
</mask>
<g mask="url(#mask0_0_584)">
<path id="domino_mask_2" d="M6.5 15C5.79167 15 5.11458 14.875 4.46875 14.625C3.82292 14.375 3.24306 14.0069 2.72917 13.5208C2.0625 12.8958 1.57986 12.1562 1.28125 11.3021C0.982639 10.4479 0.833333 9.5625 0.833333 8.64583C0.833333 7.5625 1.09722 6.68403 1.625 6.01042C2.15278 5.33681 2.92361 5 3.9375 5C4.13194 5 4.31597 5.01736 4.48958 5.05208C4.66319 5.08681 4.84028 5.13889 5.02083 5.20833L10 7.0625L14.9792 5.20833C15.1597 5.13889 15.3368 5.08681 15.5104 5.05208C15.684 5.01736 15.8681 5 16.0625 5C17.0764 5 17.8472 5.33681 18.375 6.01042C18.9028 6.68403 19.1667 7.5625 19.1667 8.64583C19.1667 9.5625 19.0174 10.4479 18.7188 11.3021C18.4201 12.1562 17.9375 12.8958 17.2708 13.5208C16.7569 14.0069 16.1771 14.375 15.5313 14.625C14.8854 14.875 14.2083 15 13.5 15C12.5833 15 11.8056 14.7917 11.1667 14.375L10.2083 13.75H9.79167L8.83333 14.375C8.19445 14.7917 7.41667 15 6.5 15ZM6.5 13.3333C7.01389 13.3333 7.49306 13.2118 7.9375 12.9687C8.38195 12.7257 8.79167 12.4306 9.16667 12.0833H10.8333C11.2083 12.4306 11.6181 12.7257 12.0625 12.9687C12.5069 13.2118 12.9861 13.3333 13.5 13.3333C14 13.3333 14.4826 13.2465 14.9479 13.0729C15.4132 12.8993 15.8264 12.6319 16.1875 12.2708C16.6597 11.7986 16.9965 11.2431 17.1979 10.6042C17.3993 9.96528 17.5 9.3125 17.5 8.64583C17.5 8.07639 17.3819 7.60069 17.1458 7.21875C16.9097 6.83681 16.5347 6.65278 16.0208 6.66667C15.9792 6.66667 15.8264 6.69444 15.5625 6.75L10 8.83333L4.4375 6.75C4.36806 6.72222 4.29514 6.70139 4.21875 6.6875C4.14236 6.67361 4.0625 6.66667 3.97917 6.66667C3.46528 6.66667 3.09028 6.85417 2.85417 7.22917C2.61806 7.60417 2.5 8.07639 2.5 8.64583C2.5 9.32639 2.60069 9.98611 2.80208 10.625C3.00347 11.2639 3.34722 11.8194 3.83333 12.2917C4.19444 12.6389 4.60417 12.8993 5.0625 13.0729C5.52083 13.2465 6 13.3333 6.5 13.3333ZM7.52083 12.0833C8.03472 12.0833 8.4375 11.9688 8.72917 11.7396C9.02083 11.5104 9.16667 11.1944 9.16667 10.7917C9.16667 10.1111 8.71875 9.46181 7.82292 8.84375C6.92708 8.22569 5.97917 7.91667 4.97917 7.91667C4.46528 7.91667 4.0625 8.03125 3.77083 8.26042C3.47917 8.48958 3.33333 8.80556 3.33333 9.20833C3.33333 9.88889 3.78125 10.5382 4.67708 11.1563C5.57292 11.7743 6.52083 12.0833 7.52083 12.0833ZM7.39583 10.8333C6.86806 10.8333 6.29514 10.6597 5.67708 10.3125C5.05903 9.96528 4.69444 9.61111 4.58333 9.25C4.65278 9.22222 4.73264 9.19792 4.82292 9.17708C4.91319 9.15625 5.00694 9.14583 5.10417 9.14583C5.63194 9.14583 6.20486 9.32292 6.82292 9.67708C7.44097 10.0313 7.80556 10.3889 7.91667 10.75C7.84722 10.7778 7.76736 10.7986 7.67708 10.8125C7.58681 10.8264 7.49306 10.8333 7.39583 10.8333ZM12.4792 12.1042C13.4792 12.1042 14.4271 11.7917 15.3229 11.1667C16.2188 10.5417 16.6667 9.88889 16.6667 9.20833C16.6667 8.80556 16.5243 8.48611 16.2396 8.25C15.9549 8.01389 15.5486 7.89583 15.0208 7.89583C14.0208 7.89583 13.0729 8.20833 12.1771 8.83333C11.2813 9.45833 10.8333 10.1111 10.8333 10.7917C10.8333 11.1944 10.9792 11.5139 11.2708 11.75C11.5625 11.9861 11.9653 12.1042 12.4792 12.1042ZM12.6042 10.8333C12.5069 10.8333 12.4167 10.8264 12.3333 10.8125C12.25 10.7986 12.1736 10.7778 12.1042 10.75C12.2153 10.3889 12.5799 10.0347 13.1979 9.6875C13.816 9.34028 14.3889 9.16667 14.9167 9.16667C15.0139 9.16667 15.1042 9.17361 15.1875 9.1875C15.2708 9.20139 15.3472 9.22222 15.4167 9.25C15.3056 9.61111 14.941 9.96528 14.3229 10.3125C13.7049 10.6597 13.1319 10.8333 12.6042 10.8333Z" fill="var(--fill-0, white)"/>
</g>
</g>
</svg>
