<svg preserveAspectRatio="none" width="100%" height="100%" overflow="visible" style="display: block;" viewBox="0 0 41.5112 26.5672" fill="none" xmlns="http://www.w3.org/2000/svg">
<g id="logo 1" clip-path="url(#clip0_0_10)">
<path id="Vector" d="M13.9971 15.34C13.9971 17.3282 12.3562 18.9402 10.3325 18.9402C8.30885 18.9402 6.6679 17.3282 6.6679 15.34C6.6679 13.3521 8.30885 11.7398 10.3325 11.7398C12.3562 11.7398 13.9971 13.3518 13.9971 15.34ZM30.9878 11.7398C28.9641 11.7398 27.3232 13.3518 27.3232 15.34C27.3232 17.3282 28.9638 18.9402 30.9878 18.9402C33.0118 18.9402 34.6524 17.3282 34.6524 15.34C34.6518 13.353 33.0124 11.742 30.9897 11.7411L30.9878 11.7398ZM41.32 15.34C41.32 20.9426 36.6925 25.485 30.9878 25.485C28.3856 25.4894 25.8785 24.5246 23.9718 22.785L20.6647 26.3187L17.3564 22.781C15.4498 24.5226 12.9417 25.4891 10.3382 25.4853C4.63763 25.485 0.0116443 20.9423 0.0116443 15.3397C0.00962643 13.9283 0.308239 12.5322 0.888291 11.241C1.46834 9.94973 2.317 8.79201 3.37971 7.8422L0.000323089 4.22999H7.50882C15.4535 -1.0819 25.8955 -1.0819 33.8401 4.22999H41.3291L37.9501 7.84189C39.0132 8.79157 39.8622 9.94927 40.4426 11.2406C41.0229 12.5318 41.3218 13.9282 41.32 15.3397M17.3237 15.3397C17.3237 11.548 14.1946 8.47394 10.335 8.47394C6.47544 8.47394 3.34638 11.5483 3.34638 15.34C3.34638 19.1317 6.47544 22.2058 10.335 22.2058C14.1946 22.2058 17.3234 19.1326 17.3237 15.3409V15.3397ZM28.4198 5.08971C25.9622 4.08392 23.3261 3.56609 20.6638 3.56609C18.0014 3.56609 15.3654 4.08392 12.9078 5.08971C17.3199 6.74862 20.665 10.624 20.665 15.142C20.665 10.6243 24.0095 6.74862 28.4201 5.09033L28.4198 5.08971ZM37.9784 15.3397C37.9784 11.548 34.8493 8.47394 30.9897 8.47394C27.1301 8.47394 24.001 11.5477 24.001 15.3394C24.001 19.1311 27.1298 22.2051 30.9891 22.2051C34.8483 22.2051 37.9777 19.1314 37.9777 15.3394" fill="var(--fill-0, #002B11)"/>
</g>
<defs>
<clipPath id="clip0_0_10">
<rect width="41.5112" height="26.5672" fill="white"/>
</clipPath>
</defs>
</svg>
