<svg preserveAspectRatio="none" width="100%" height="100%" overflow="visible" style="display: block;" viewBox="0 0 17.7239 17.7239" fill="none" xmlns="http://www.w3.org/2000/svg">
<g id="Frame">
<path id="Vector" d="M8.3357 15.2963C8.19416 15.1548 8.12339 14.9794 8.12339 14.7701V9.60065H2.95391C2.74467 9.60065 2.56928 9.52988 2.42773 9.38833C2.28619 9.24679 2.21541 9.0714 2.21541 8.86216C2.21541 8.65291 2.28619 8.47752 2.42773 8.33598C2.56928 8.19443 2.74467 8.12366 2.95391 8.12366H8.12339V2.95418C8.12339 2.74494 8.19416 2.56955 8.3357 2.42801C8.47725 2.28646 8.65264 2.21569 8.86188 2.21569C9.07112 2.21569 9.24652 2.28646 9.38806 2.42801C9.52961 2.56955 9.60038 2.74494 9.60038 2.95418V8.12366H14.7699C14.9791 8.12366 15.1545 8.19443 15.296 8.33598C15.4376 8.47752 15.5083 8.65291 15.5083 8.86216C15.5083 9.0714 15.4376 9.24679 15.296 9.38833C15.1545 9.52988 14.9791 9.60065 14.7699 9.60065H9.60038V14.7701C9.60038 14.9794 9.52961 15.1548 9.38806 15.2963C9.24652 15.4379 9.07112 15.5086 8.86188 15.5086C8.65264 15.5086 8.47725 15.4379 8.3357 15.2963Z" fill="var(--fill-0, #3D3D3D)"/>
</g>
</svg>
