<svg preserveAspectRatio="none" width="100%" height="100%" overflow="visible" style="display: block;" viewBox="0 0 37.125 34.65" fill="none" xmlns="http://www.w3.org/2000/svg">
<g id="add-to-wishlist">
<rect width="37.125" height="34.65" rx="17.325" fill="var(--fill-0, black)" fill-opacity="0.12"/>
<path id="favorite" d="M17.9453 24.8722C17.736 24.8 17.5519 24.6845 17.3931 24.5257L15.8988 23.1614C14.3684 21.7609 12.986 20.3713 11.7516 18.9925C10.5172 17.6138 9.9 16.0942 9.9 14.4339C9.9 13.0768 10.3548 11.9434 11.2643 11.0339C12.1739 10.1243 13.3073 9.66952 14.6644 9.66952C15.4296 9.66952 16.1514 9.83194 16.83 10.1568C17.5086 10.4816 18.0861 10.9256 18.5625 11.4886C19.0389 10.9256 19.6164 10.4816 20.295 10.1568C20.9736 9.83194 21.6954 9.66952 22.4606 9.66952C23.8178 9.66952 24.9511 10.1243 25.8607 11.0339C26.7702 11.9434 27.225 13.0768 27.225 14.4339C27.225 16.0942 26.6114 17.6174 25.3842 19.0034C24.157 20.3894 22.7638 21.7826 21.2046 23.183L19.7319 24.5257C19.5731 24.6845 19.389 24.8 19.1797 24.8722C18.9704 24.9444 18.7646 24.9805 18.5625 24.9805C18.3604 24.9805 18.1546 24.9444 17.9453 24.8722ZM17.7396 13.2211C17.3209 12.6292 16.8733 12.178 16.3969 11.8676C15.9204 11.5572 15.3429 11.402 14.6644 11.402C13.7981 11.402 13.0763 11.6908 12.4988 12.2683C11.9213 12.8458 11.6325 13.5676 11.6325 14.4339C11.6325 15.1846 11.8996 15.9823 12.4338 16.8269C12.968 17.6715 13.6068 18.4908 14.3504 19.2849C15.0939 20.079 15.8591 20.8225 16.6459 21.5155C17.4328 22.2085 18.0716 22.7788 18.5625 23.2263C19.0534 22.7788 19.6922 22.2085 20.4791 21.5155C21.2659 20.8225 22.0311 20.079 22.7746 19.2849C23.5182 18.4908 24.157 17.6715 24.6912 16.8269C25.2254 15.9823 25.4925 15.1846 25.4925 14.4339C25.4925 13.5676 25.2038 12.8458 24.6263 12.2683C24.0488 11.6908 23.3269 11.402 22.4606 11.402C21.7821 11.402 21.2046 11.5572 20.7281 11.8676C20.2517 12.178 19.8041 12.6292 19.3854 13.2211C19.2844 13.3655 19.1617 13.4738 19.0173 13.546C18.8729 13.6182 18.7213 13.6543 18.5625 13.6543C18.4037 13.6543 18.2521 13.6182 18.1077 13.546C17.9633 13.4738 17.8406 13.3655 17.7396 13.2211Z" fill="var(--fill-0, white)"/>
</g>
</svg>
