<svg preserveAspectRatio="none" width="100%" height="100%" overflow="visible" style="display: block;" viewBox="0 0 20 20" fill="none" xmlns="http://www.w3.org/2000/svg">
<g id="Frame">
<path id="Vector" d="M9.99997 4H4.59673C4.23847 4 3.89489 4.14232 3.64156 4.39564C3.38824 4.64897 3.24592 4.99255 3.24592 5.35081V16.3504C3.24593 16.4453 3.27406 16.538 3.32676 16.6168C3.37945 16.6957 3.45434 16.7571 3.54196 16.7934C3.62957 16.8297 3.72598 16.8392 3.81899 16.8207C3.91201 16.8022 3.99745 16.7566 4.06451 16.6895L5.55175 15.2023C5.80502 14.9489 6.14855 14.8065 6.50677 14.8065H15.4032C15.7615 14.8065 16.105 14.6642 16.3584 14.4108C16.6117 14.1575 16.754 13.8139 16.754 13.4557V10.754" stroke="var(--stroke-0, #CCCCCC)" stroke-width="1.21573" stroke-linecap="round" stroke-linejoin="round"/>
<path id="Vector_2" d="M12.7017 4H16.7541V8.05243" stroke="var(--stroke-0, #CCCCCC)" stroke-width="1.21573" stroke-linecap="round" stroke-linejoin="round"/>
<path id="Vector_3" d="M12.7017 8.05243L16.7541 4" stroke="var(--stroke-0, #CCCCCC)" stroke-width="1.21573" stroke-linecap="round" stroke-linejoin="round"/>
</g>
</svg>
