<svg preserveAspectRatio="none" width="100%" height="100%" overflow="visible" style="display: block;" viewBox="0 0 20 20" fill="none" xmlns="http://www.w3.org/2000/svg">
<g id="Frame">
<path id="Vector" d="M8.6456 7.65524V13.0746C8.6456 13.1944 8.59802 13.3092 8.51333 13.3939C8.42863 13.4786 8.31376 13.5262 8.19399 13.5262C8.07421 13.5262 7.95934 13.4786 7.87465 13.3939C7.78996 13.3092 7.74238 13.1944 7.74238 13.0746V7.65524C7.74238 7.53547 7.78996 7.4206 7.87465 7.3359C7.95934 7.25121 8.07421 7.20363 8.19399 7.20363C8.31376 7.20363 8.42863 7.25121 8.51333 7.3359C8.59802 7.4206 8.6456 7.53547 8.6456 7.65524ZM10.0004 7.20363C9.88067 7.20363 9.7658 7.25121 9.6811 7.3359C9.59641 7.4206 9.54883 7.53547 9.54883 7.65524V13.0746C9.54883 13.1944 9.59641 13.3092 9.6811 13.3939C9.7658 13.4786 9.88067 13.5262 10.0004 13.5262C10.1202 13.5262 10.2351 13.4786 10.3198 13.3939C10.4045 13.3092 10.4521 13.1944 10.4521 13.0746V7.65524C10.4521 7.53547 10.4045 7.4206 10.3198 7.3359C10.2351 7.25121 10.1202 7.20363 10.0004 7.20363ZM11.8069 7.20363C11.6871 7.20363 11.5722 7.25121 11.4876 7.3359C11.4029 7.4206 11.3553 7.53547 11.3553 7.65524V13.0746C11.3553 13.1944 11.4029 13.3092 11.4876 13.3939C11.5722 13.4786 11.6871 13.5262 11.8069 13.5262C11.9267 13.5262 12.0415 13.4786 12.1262 13.3939C12.2109 13.3092 12.2585 13.1944 12.2585 13.0746V7.65524C12.2585 7.53547 12.2109 7.4206 12.1262 7.3359C12.0415 7.25121 11.9267 7.20363 11.8069 7.20363ZM14.5166 6.3004V14.4294C14.5166 14.669 14.4214 14.8987 14.252 15.0681C14.0826 15.2375 13.8529 15.3327 13.6133 15.3327H12.7101V16.2359C12.7101 16.3557 12.6625 16.4705 12.5778 16.5552C12.4932 16.6399 12.3783 16.6875 12.2585 16.6875C12.1387 16.6875 12.0239 16.6399 11.9392 16.5552C11.8545 16.4705 11.8069 16.3557 11.8069 16.2359V15.3327H8.19399V16.2359C8.19399 16.3557 8.14641 16.4705 8.06171 16.5552C7.97702 16.6399 7.86215 16.6875 7.74238 16.6875C7.6226 16.6875 7.50773 16.6399 7.42304 16.5552C7.33834 16.4705 7.29076 16.3557 7.29076 16.2359V15.3327H6.38754C6.14799 15.3327 5.91825 15.2375 5.74886 15.0681C5.57947 14.8987 5.48431 14.669 5.48431 14.4294V6.3004C5.48431 6.06085 5.57947 5.83111 5.74886 5.66173C5.91825 5.49234 6.14799 5.39718 6.38754 5.39718H7.74238V4.04234C7.74238 3.68301 7.88512 3.3384 8.1392 3.08432C8.39328 2.83024 8.73789 2.6875 9.09722 2.6875H10.9037C11.263 2.6875 11.6076 2.83024 11.8617 3.08432C12.1158 3.3384 12.2585 3.68301 12.2585 4.04234V5.39718H13.6133C13.8529 5.39718 14.0826 5.49234 14.252 5.66173C14.4214 5.83111 14.5166 6.06085 14.5166 6.3004ZM8.6456 5.39718H11.3553V4.04234C11.3553 3.92256 11.3077 3.80769 11.223 3.723C11.1383 3.63831 11.0234 3.59073 10.9037 3.59073H9.09722C8.97744 3.59073 8.86257 3.63831 8.77788 3.723C8.69318 3.80769 8.6456 3.92256 8.6456 4.04234V5.39718ZM13.6133 14.4294V6.3004H6.38754V14.4294H13.6133Z" fill="var(--fill-0, #CCCCCC)"/>
</g>
</svg>
