<svg preserveAspectRatio="none" width="100%" height="100%" overflow="visible" style="display: block;" viewBox="0 0 20 20" fill="none" xmlns="http://www.w3.org/2000/svg">
<g id="play_circle">
<mask id="mask0_5755_27898" style="mask-type:alpha" maskUnits="userSpaceOnUse" x="0" y="0" width="20" height="20">
<rect id="Bounding box" width="20" height="20" fill="var(--fill-0, #D9D9D9)"/>
</mask>
<g mask="url(#mask0_5755_27898)">
<path id="play_circle_2" d="M8.875 13.125L12.9375 10.5208C13.1319 10.3958 13.2292 10.2222 13.2292 10C13.2292 9.77778 13.1319 9.60417 12.9375 9.47917L8.875 6.875C8.66667 6.73611 8.45486 6.72569 8.23958 6.84375C8.02431 6.96181 7.91667 7.14583 7.91667 7.39583V12.6042C7.91667 12.8542 8.02431 13.0382 8.23958 13.1562C8.45486 13.2743 8.66667 13.2639 8.875 13.125ZM10 18.3333C8.84722 18.3333 7.76389 18.1146 6.75 17.6771C5.73611 17.2396 4.85417 16.6458 4.10417 15.8958C3.35417 15.1458 2.76042 14.2639 2.32292 13.25C1.88542 12.2361 1.66667 11.1528 1.66667 10C1.66667 8.84722 1.88542 7.76389 2.32292 6.75C2.76042 5.73611 3.35417 4.85417 4.10417 4.10417C4.85417 3.35417 5.73611 2.76042 6.75 2.32292C7.76389 1.88542 8.84722 1.66667 10 1.66667C11.1528 1.66667 12.2361 1.88542 13.25 2.32292C14.2639 2.76042 15.1458 3.35417 15.8958 4.10417C16.6458 4.85417 17.2396 5.73611 17.6771 6.75C18.1146 7.76389 18.3333 8.84722 18.3333 10C18.3333 11.1528 18.1146 12.2361 17.6771 13.25C17.2396 14.2639 16.6458 15.1458 15.8958 15.8958C15.1458 16.6458 14.2639 17.2396 13.25 17.6771C12.2361 18.1146 11.1528 18.3333 10 18.3333ZM10 16.6667C11.8611 16.6667 13.4375 16.0208 14.7292 14.7292C16.0208 13.4375 16.6667 11.8611 16.6667 10C16.6667 8.13889 16.0208 6.5625 14.7292 5.27083C13.4375 3.97917 11.8611 3.33333 10 3.33333C8.13889 3.33333 6.5625 3.97917 5.27083 5.27083C3.97917 6.5625 3.33333 8.13889 3.33333 10C3.33333 11.8611 3.97917 13.4375 5.27083 14.7292C6.5625 16.0208 8.13889 16.6667 10 16.6667Z" fill="var(--fill-0, white)"/>
</g>
</g>
</svg>
