<svg preserveAspectRatio="none" width="100%" height="100%" overflow="visible" style="display: block;" viewBox="0 0 26.6667 26.6667" fill="none" xmlns="http://www.w3.org/2000/svg">
<g id="play_circle">
<mask id="mask0_5755_27877" style="mask-type:alpha" maskUnits="userSpaceOnUse" x="0" y="0" width="27" height="27">
<rect id="Bounding box" width="26.6667" height="26.6667" fill="var(--fill-0, #D9D9D9)"/>
</mask>
<g mask="url(#mask0_5755_27877)">
<path id="play_circle_2" d="M11.8333 17.5L17.2499 14.0278C17.5092 13.8611 17.6388 13.6296 17.6388 13.3333C17.6388 13.037 17.5092 12.8055 17.2499 12.6389L11.8333 9.16665C11.5555 8.98147 11.2731 8.96758 10.9861 9.12499C10.699 9.28239 10.5555 9.52776 10.5555 9.8611V16.8055C10.5555 17.1389 10.699 17.3842 10.9861 17.5417C11.2731 17.6991 11.5555 17.6852 11.8333 17.5ZM13.3333 24.4444C11.7962 24.4444 10.3518 24.1528 8.99995 23.5694C7.64809 22.9861 6.47217 22.1944 5.47217 21.1944C4.47217 20.1944 3.6805 19.0185 3.09717 17.6667C2.51383 16.3148 2.22217 14.8704 2.22217 13.3333C2.22217 11.7963 2.51383 10.3518 3.09717 8.99999C3.6805 7.64813 4.47217 6.47221 5.47217 5.47221C6.47217 4.47221 7.64809 3.68054 8.99995 3.09721C10.3518 2.51388 11.7962 2.22221 13.3333 2.22221C14.8703 2.22221 16.3148 2.51388 17.6666 3.09721C19.0185 3.68054 20.1944 4.47221 21.1944 5.47221C22.1944 6.47221 22.9861 7.64813 23.5694 8.99999C24.1527 10.3518 24.4444 11.7963 24.4444 13.3333C24.4444 14.8704 24.1527 16.3148 23.5694 17.6667C22.9861 19.0185 22.1944 20.1944 21.1944 21.1944C20.1944 22.1944 19.0185 22.9861 17.6666 23.5694C16.3148 24.1528 14.8703 24.4444 13.3333 24.4444ZM13.3333 22.2222C15.8148 22.2222 17.9166 21.3611 19.6388 19.6389C21.3611 17.9167 22.2222 15.8148 22.2222 13.3333C22.2222 10.8518 21.3611 8.74999 19.6388 7.02776C17.9166 5.30554 15.8148 4.44443 13.3333 4.44443C10.8518 4.44443 8.74995 5.30554 7.02772 7.02776C5.3055 8.74999 4.44439 10.8518 4.44439 13.3333C4.44439 15.8148 5.3055 17.9167 7.02772 19.6389C8.74995 21.3611 10.8518 22.2222 13.3333 22.2222Z" fill="var(--fill-0, white)"/>
</g>
</g>
</svg>
