<svg preserveAspectRatio="none" width="100%" height="100%" overflow="visible" style="display: block;" viewBox="0 0 20 20" fill="none" xmlns="http://www.w3.org/2000/svg">
<g id="share">
<mask id="mask0_5755_27902" style="mask-type:alpha" maskUnits="userSpaceOnUse" x="0" y="0" width="20" height="20">
<rect id="Bounding box" width="20" height="20" fill="var(--fill-0, #D9D9D9)"/>
</mask>
<g mask="url(#mask0_5755_27902)">
<path id="share_2" d="M14.1667 18.3333C13.4722 18.3333 12.8819 18.0903 12.3958 17.6042C11.9097 17.1181 11.6667 16.5278 11.6667 15.8333C11.6667 15.75 11.6875 15.5556 11.7292 15.25L5.875 11.8333C5.65278 12.0417 5.39583 12.2049 5.10417 12.3229C4.8125 12.441 4.5 12.5 4.16667 12.5C3.47222 12.5 2.88194 12.2569 2.39583 11.7708C1.90972 11.2847 1.66667 10.6944 1.66667 10C1.66667 9.30556 1.90972 8.71528 2.39583 8.22917C2.88194 7.74306 3.47222 7.5 4.16667 7.5C4.5 7.5 4.8125 7.55903 5.10417 7.67708C5.39583 7.79514 5.65278 7.95833 5.875 8.16667L11.7292 4.75C11.7014 4.65278 11.684 4.55903 11.6771 4.46875C11.6701 4.37847 11.6667 4.27778 11.6667 4.16667C11.6667 3.47222 11.9097 2.88194 12.3958 2.39583C12.8819 1.90972 13.4722 1.66667 14.1667 1.66667C14.8611 1.66667 15.4514 1.90972 15.9375 2.39583C16.4236 2.88194 16.6667 3.47222 16.6667 4.16667C16.6667 4.86111 16.4236 5.45139 15.9375 5.9375C15.4514 6.42361 14.8611 6.66667 14.1667 6.66667C13.8333 6.66667 13.5208 6.60764 13.2292 6.48958C12.9375 6.37153 12.6806 6.20833 12.4583 6L6.60417 9.41667C6.63194 9.51389 6.64931 9.60764 6.65625 9.69792C6.66319 9.78819 6.66667 9.88889 6.66667 10C6.66667 10.1111 6.66319 10.2118 6.65625 10.3021C6.64931 10.3924 6.63194 10.4861 6.60417 10.5833L12.4583 14C12.6806 13.7917 12.9375 13.6285 13.2292 13.5104C13.5208 13.3924 13.8333 13.3333 14.1667 13.3333C14.8611 13.3333 15.4514 13.5764 15.9375 14.0625C16.4236 14.5486 16.6667 15.1389 16.6667 15.8333C16.6667 16.5278 16.4236 17.1181 15.9375 17.6042C15.4514 18.0903 14.8611 18.3333 14.1667 18.3333ZM14.1667 16.6667C14.4028 16.6667 14.6007 16.5868 14.7604 16.4271C14.9201 16.2674 15 16.0694 15 15.8333C15 15.5972 14.9201 15.3993 14.7604 15.2396C14.6007 15.0799 14.4028 15 14.1667 15C13.9306 15 13.7326 15.0799 13.5729 15.2396C13.4132 15.3993 13.3333 15.5972 13.3333 15.8333C13.3333 16.0694 13.4132 16.2674 13.5729 16.4271C13.7326 16.5868 13.9306 16.6667 14.1667 16.6667ZM4.16667 10.8333C4.40278 10.8333 4.60069 10.7535 4.76042 10.5938C4.92014 10.434 5 10.2361 5 10C5 9.76389 4.92014 9.56597 4.76042 9.40625C4.60069 9.24653 4.40278 9.16667 4.16667 9.16667C3.93056 9.16667 3.73264 9.24653 3.57292 9.40625C3.41319 9.56597 3.33333 9.76389 3.33333 10C3.33333 10.2361 3.41319 10.434 3.57292 10.5938C3.73264 10.7535 3.93056 10.8333 4.16667 10.8333ZM14.1667 5C14.4028 5 14.6007 4.92014 14.7604 4.76042C14.9201 4.60069 15 4.40278 15 4.16667C15 3.93056 14.9201 3.73264 14.7604 3.57292C14.6007 3.41319 14.4028 3.33333 14.1667 3.33333C13.9306 3.33333 13.7326 3.41319 13.5729 3.57292C13.4132 3.73264 13.3333 3.93056 13.3333 4.16667C13.3333 4.40278 13.4132 4.60069 13.5729 4.76042C13.7326 4.92014 13.9306 5 14.1667 5Z" fill="var(--fill-0, white)"/>
</g>
</g>
</svg>
