<svg preserveAspectRatio="none" width="100%" height="100%" overflow="visible" style="display: block;" viewBox="0 0 13.4123 13.4123" fill="none" xmlns="http://www.w3.org/2000/svg">
<g id="Frame">
<path id="Vector" d="M9.49803 12.2943C9.03233 12.2943 8.63648 12.1313 8.31048 11.8053C7.98449 11.4793 7.82149 11.0835 7.82149 10.6177C7.82149 10.5619 7.83547 10.4315 7.86341 10.2266L3.93752 7.93529C3.7885 8.075 3.61618 8.18444 3.42059 8.26361C3.22499 8.34278 3.01543 8.38237 2.79189 8.38237C2.32618 8.38237 1.93034 8.21937 1.60434 7.89338C1.27835 7.56739 1.11535 7.17154 1.11535 6.70583C1.11535 6.24013 1.27835 5.84428 1.60434 5.51829C1.93034 5.19229 2.32618 5.0293 2.79189 5.0293C3.01543 5.0293 3.22499 5.06888 3.42059 5.14805C3.61618 5.22722 3.7885 5.33666 3.93752 5.47637L7.86341 3.18511C7.84478 3.11991 7.83314 3.05704 7.82848 2.9965C7.82382 2.93596 7.82149 2.86843 7.82149 2.79392C7.82149 2.32821 7.98449 1.93236 8.31048 1.60637C8.63648 1.28038 9.03233 1.11738 9.49803 1.11738C9.96373 1.11738 10.3596 1.28038 10.6856 1.60637C11.0116 1.93236 11.1746 2.32821 11.1746 2.79392C11.1746 3.25962 11.0116 3.65547 10.6856 3.98146C10.3596 4.30746 9.96373 4.47045 9.49803 4.47045C9.27449 4.47045 9.06492 4.43087 8.86933 4.3517C8.67373 4.27253 8.50142 4.16309 8.3524 4.02338L4.42651 6.31464C4.44514 6.37984 4.45678 6.44271 4.46144 6.50325C4.4661 6.56379 4.46842 6.63132 4.46842 6.70583C4.46842 6.78035 4.4661 6.84787 4.46144 6.90841C4.45678 6.96896 4.44514 7.03183 4.42651 7.09702L8.3524 9.38829C8.50142 9.24858 8.67373 9.13914 8.86933 9.05997C9.06492 8.9808 9.27449 8.94121 9.49803 8.94121C9.96373 8.94121 10.3596 9.10421 10.6856 9.4302C11.0116 9.7562 11.1746 10.152 11.1746 10.6177C11.1746 11.0835 11.0116 11.4793 10.6856 11.8053C10.3596 12.1313 9.96373 12.2943 9.49803 12.2943ZM9.49803 11.1766C9.65637 11.1766 9.78909 11.123 9.89621 11.0159C10.0033 10.9088 10.0569 10.7761 10.0569 10.6177C10.0569 10.4594 10.0033 10.3267 9.89621 10.2196C9.78909 10.1125 9.65637 10.0589 9.49803 10.0589C9.33969 10.0589 9.20696 10.1125 9.09985 10.2196C8.99274 10.3267 8.93918 10.4594 8.93918 10.6177C8.93918 10.7761 8.99274 10.9088 9.09985 11.0159C9.20696 11.123 9.33969 11.1766 9.49803 11.1766ZM2.79189 7.26468C2.95023 7.26468 3.08295 7.21112 3.19007 7.10401C3.29718 6.9969 3.35073 6.86417 3.35073 6.70583C3.35073 6.54749 3.29718 6.41477 3.19007 6.30766C3.08295 6.20054 2.95023 6.14699 2.79189 6.14699C2.63355 6.14699 2.50082 6.20054 2.39371 6.30766C2.2866 6.41477 2.23304 6.54749 2.23304 6.70583C2.23304 6.86417 2.2866 6.9969 2.39371 7.10401C2.50082 7.21112 2.63355 7.26468 2.79189 7.26468ZM9.89621 3.19209C10.0033 3.08498 10.0569 2.95226 10.0569 2.79392C10.0569 2.63558 10.0033 2.50285 9.89621 2.39574C9.78909 2.28863 9.65637 2.23507 9.49803 2.23507C9.33969 2.23507 9.20696 2.28863 9.09985 2.39574C8.99274 2.50285 8.93918 2.63558 8.93918 2.79392C8.93918 2.95226 8.99274 3.08498 9.09985 3.19209C9.20696 3.29921 9.33969 3.35276 9.49803 3.35276C9.65637 3.35276 9.78909 3.29921 9.89621 3.19209Z" fill="var(--fill-0, white)"/>
</g>
</svg>
