<svg preserveAspectRatio="none" width="100%" height="100%" overflow="visible" style="display: block;" viewBox="0 0 36 36" fill="none" xmlns="http://www.w3.org/2000/svg">
<g id="Container">
<rect x="0.5" y="0.5" width="35" height="35" rx="7.5" fill="var(--fill-0, #3D3D3D)"/>
<rect x="0.5" y="0.5" width="35" height="35" rx="7.5" stroke="var(--stroke-0, #575757)"/>
<g id="Vector">
<path d="M14.9563 11.7371C14.6023 11.4283 14.1659 11.2294 13.7006 11.1647C13.2353 11.1001 12.7612 11.1724 12.3363 11.373C11.9115 11.5736 11.5543 11.8936 11.3086 12.294C11.0628 12.6943 10.939 13.1577 10.9525 13.6273C10.9659 14.0969 11.1159 14.5524 11.3842 14.9381C11.6525 15.3237 12.0273 15.6228 12.4629 15.7988C12.8985 15.9747 13.376 16.0199 13.8368 15.9287C14.2977 15.8376 14.722 15.614 15.0578 15.2855C15.3683 15.7677 15.7948 16.1644 16.2983 16.4391C16.8018 16.7139 17.3661 16.8579 17.9397 16.8581C18.513 16.8581 19.0773 16.7143 19.5807 16.4399C20.0842 16.1655 20.5108 15.7692 20.8215 15.2873C21.1573 15.6159 21.5816 15.8394 22.0425 15.9306C22.5033 16.0217 22.9808 15.9766 23.4164 15.8006C23.852 15.6247 24.2269 15.3256 24.4951 14.9399C24.7634 14.5542 24.9134 14.0987 24.9269 13.6291C24.9403 13.1595 24.8165 12.6962 24.5708 12.2958C24.325 11.8954 23.9678 11.5754 23.543 11.3748C23.1181 11.1743 22.644 11.1019 22.1787 11.1666C21.7134 11.2313 21.277 11.4302 20.923 11.739C20.624 11.2111 20.1903 10.772 19.6662 10.4665C19.1421 10.161 18.5463 10 17.9397 10C17.3332 9.99982 16.7375 10.1605 16.2134 10.4657C15.6893 10.7709 15.2555 11.2096 14.9563 11.7371ZM15.8825 13.4286C15.8825 12.883 16.0992 12.3597 16.485 11.974C16.8708 11.5882 17.3941 11.3714 17.9397 11.3714C18.4852 11.3714 19.0085 11.5882 19.3943 11.974C19.7801 12.3597 19.9968 12.883 19.9968 13.4286C19.9968 13.9742 19.7801 14.4974 19.3943 14.8832C19.0085 15.269 18.4852 15.4857 17.9397 15.4857C17.3941 15.4857 16.8708 15.269 16.485 14.8832C16.0992 14.4974 15.8825 13.9742 15.8825 13.4286ZM14.5915 12.688C14.4694 13.2408 14.4858 13.8152 14.6391 14.3602C14.4658 14.6364 14.2074 14.8487 13.9028 14.965C13.5982 15.0813 13.264 15.0953 12.9507 15.0048C12.6375 14.9143 12.3622 14.7244 12.1665 14.4636C11.9708 14.2028 11.8654 13.8854 11.8661 13.5593C11.8662 13.2411 11.9674 12.9312 12.1551 12.6742C12.3428 12.4173 12.6072 12.2265 12.9102 12.1295C13.2133 12.0325 13.5393 12.0342 13.8413 12.1344C14.1433 12.2346 14.4057 12.4282 14.5906 12.6871M21.2393 14.3593C21.3932 13.8141 21.4095 13.2393 21.2869 12.6862C21.4738 12.424 21.74 12.2288 22.0464 12.1294C22.3527 12.03 22.6828 12.0316 22.9881 12.1341C23.2934 12.2366 23.5576 12.4345 23.7419 12.6985C23.9262 12.9626 24.0207 13.2789 24.0116 13.6008C24.0024 13.9227 23.8901 14.2332 23.6911 14.4864C23.4921 14.7396 23.2171 14.9221 22.9064 15.0071C22.5958 15.0921 22.2661 15.075 21.966 14.9584C21.6658 14.8417 21.4111 14.6317 21.2393 14.3593ZM11.4949 16.443C11.8121 16.3589 12.112 16.4631 12.3186 16.613C12.4009 16.6725 12.5143 16.7456 12.6523 16.8124C12.758 16.8671 12.8382 16.9609 12.8758 17.0739C12.9134 17.1868 12.9054 17.31 12.8536 17.4172C12.8018 17.5244 12.7102 17.6071 12.5984 17.6478C12.4865 17.6885 12.3632 17.684 12.2546 17.6352C12.089 17.5555 11.9309 17.4613 11.7819 17.3536C11.7671 17.343 11.7508 17.3347 11.7335 17.3289L11.7271 17.328C11.6038 17.3609 11.4815 17.3975 11.3605 17.4377L10.7332 17.6425C10.4994 17.7187 10.288 17.8515 10.1179 18.0293C9.94783 18.207 9.8244 18.424 9.75862 18.661L9.49988 20.5344C9.44868 20.9029 9.64342 21.179 9.92045 21.2448C10.1246 21.2948 10.3724 21.3436 10.6638 21.3911C10.7231 21.4007 10.7799 21.4219 10.831 21.4535C10.8822 21.485 10.9266 21.5264 10.9617 21.5751C10.9969 21.6238 11.0221 21.679 11.0359 21.7375C11.0497 21.796 11.0519 21.8566 11.0423 21.9159C11.0327 21.9752 11.0115 22.0321 10.9799 22.0832C10.9483 22.1343 10.907 22.1787 10.8583 22.2138C10.8095 22.249 10.7544 22.2742 10.6959 22.288C10.6374 22.3018 10.5768 22.304 10.5175 22.2944C10.2462 22.2512 9.97656 22.1978 9.70925 22.1344C8.89096 21.9397 8.4905 21.1561 8.59382 20.4092L8.86079 18.4837L8.86628 18.459C8.9664 18.0675 9.16393 17.7077 9.44048 17.4131C9.71704 17.1185 10.0636 16.8986 10.448 16.774L11.0743 16.5682C11.2145 16.5225 11.3547 16.4808 11.4949 16.443ZM24.5042 16.443C24.3631 16.4084 24.216 16.4057 24.0736 16.4352C23.9313 16.4646 23.7973 16.5253 23.6814 16.613C23.5991 16.6725 23.4857 16.7456 23.3477 16.8124C23.242 16.8671 23.1618 16.9609 23.1242 17.0739C23.0866 17.1868 23.0946 17.31 23.1464 17.4172C23.1982 17.5244 23.2898 17.6071 23.4016 17.6478C23.5135 17.6885 23.6368 17.684 23.7454 17.6352C23.911 17.5555 24.0691 17.4613 24.2181 17.3536C24.2329 17.343 24.2492 17.3347 24.2665 17.3289L24.2729 17.328C24.3967 17.3603 24.5189 17.3969 24.6395 17.4377L25.2667 17.6425C25.7477 17.8007 26.1125 18.1856 26.2414 18.661L26.5001 20.5344C26.5513 20.9029 26.3575 21.179 26.0796 21.2448C25.8337 21.3029 25.5858 21.3517 25.3362 21.3911C25.2769 21.4007 25.2201 21.4219 25.169 21.4535C25.1178 21.485 25.0734 21.5264 25.0383 21.5751C25.0031 21.6238 24.9779 21.679 24.9641 21.7375C24.9503 21.796 24.9481 21.8566 24.9577 21.9159C24.9673 21.9752 24.9885 22.0321 25.0201 22.0832C25.0517 22.1343 25.093 22.1787 25.1417 22.2138C25.1905 22.249 25.2456 22.2742 25.3041 22.288C25.3626 22.3018 25.4232 22.304 25.4825 22.2944C25.7946 22.2426 26.064 22.1893 26.2908 22.1344C27.109 21.9397 27.5095 21.1561 27.4062 20.4092L27.1392 18.4837L27.1337 18.459C27.0336 18.0675 26.8361 17.7077 26.5595 17.4131C26.283 17.1185 25.9364 16.8986 25.552 16.774L24.9257 16.5682C24.7867 16.5228 24.6455 16.481 24.5042 16.443Z" fill="var(--fill-0, white)"/>
<path d="M19.451 17.7367C19.813 17.4962 20.3406 17.307 20.8983 17.4651C21.0446 17.506 21.1899 17.5502 21.3344 17.5977L22.2112 17.8857C22.7565 18.0629 23.2481 18.3752 23.6403 18.7933C24.0326 19.2115 24.3128 19.722 24.4549 20.2775L24.464 20.3141L24.838 23.0112C24.9852 24.0754 24.4146 25.1991 23.2434 25.4779C22.1737 25.733 20.4521 26 17.9406 26C15.4263 26 13.7065 25.733 12.6359 25.4789C11.4647 25.1991 10.8942 24.0754 11.0414 23.0121L11.4144 20.315L11.4235 20.2784C11.5656 19.7227 11.8458 19.2119 12.2383 18.7935C12.6307 18.3752 13.1226 18.0629 13.6681 17.8857L14.5458 17.5977C14.6903 17.5508 14.8354 17.5063 14.981 17.4642C15.5387 17.307 16.0672 17.4962 16.4283 17.7367C16.7575 17.9543 17.2896 18.2158 17.9397 18.2158C18.5897 18.2158 19.1227 17.9543 19.451 17.7367ZM20.5253 18.7844C20.4814 18.7716 20.3689 18.7735 20.2098 18.8786C19.7509 19.1831 18.9545 19.5872 17.9397 19.5872C16.9248 19.5872 16.1285 19.1831 15.6704 18.8786C15.5104 18.7735 15.3979 18.7716 15.3541 18.7844C15.2261 18.821 15.0993 18.8597 14.9737 18.9006L14.096 19.1886C13.776 19.2926 13.4868 19.4742 13.254 19.7171C13.0213 19.9601 12.8522 20.2569 12.7621 20.581L12.4 23.1995C12.3314 23.6969 12.592 24.0581 12.9541 24.144C13.9113 24.3726 15.5241 24.6286 17.9397 24.6286C20.3552 24.6286 21.9689 24.3726 22.9253 24.144C23.2873 24.0581 23.5479 23.6969 23.4793 23.1995L23.1173 20.581C23.027 20.2568 22.8578 19.9599 22.6249 19.7169C22.392 19.474 22.1026 19.2924 21.7824 19.1886L20.9065 18.9006C20.7803 18.8591 20.6532 18.8204 20.5253 18.7844Z" fill="var(--fill-0, white)"/>
</g>
</g>
</svg>
