<svg preserveAspectRatio="none" width="100%" height="100%" overflow="visible" style="display: block;" viewBox="0 0 36 36" fill="none" xmlns="http://www.w3.org/2000/svg">
<g id="Container">
<rect x="0.5" y="0.5" width="35" height="35" rx="7.5" fill="var(--fill-0, #3D3D3D)"/>
<rect x="0.5" y="0.5" width="35" height="35" rx="7.5" stroke="var(--stroke-0, #575757)"/>
<path id="Vector" d="M25.583 21.7425C25.583 22.2443 25.3836 22.7254 25.0289 23.0802C24.6741 23.435 24.1929 23.6343 23.6912 23.6343C23.1894 23.6343 22.7083 23.435 22.3535 23.0802C21.9987 22.7254 21.7994 22.2443 21.7994 21.7425C21.7994 21.2408 21.9987 20.7596 22.3535 20.4048C22.7083 20.0501 23.1894 19.8507 23.6912 19.8507C24.1929 19.8507 24.6741 20.0501 25.0289 20.4048C25.3836 20.7596 25.583 21.2408 25.583 21.7425ZM25.583 21.7425L25.5829 14.3244C25.5826 14.252 25.5656 14.1807 25.5332 14.1159C25.5009 14.0511 25.4541 13.9945 25.3964 13.9507C25.3388 13.9069 25.2718 13.8769 25.2008 13.863C25.1297 13.8491 25.0564 13.8518 24.9865 13.8708L21.2016 14.9209M25.5829 16.5385L18.6906 18.453M17.068 24.1069V20.2677M11.8501 17.4003V20.2665M10.417 18.8334H13.2832M15.175 26C15.6769 26 16.1582 25.8006 16.5131 25.4457C16.868 25.0908 17.0674 24.6095 17.0674 24.1076C17.0674 23.6057 16.868 23.1243 16.5131 22.7694C16.1582 22.4145 15.6769 22.2152 15.175 22.2152C14.6731 22.2152 14.1917 22.4145 13.8368 22.7694C13.4819 23.1243 13.2825 23.6057 13.2825 24.1076C13.2825 24.6095 13.4819 25.0908 13.8368 25.4457C14.1917 25.8006 14.6731 26 15.175 26ZM15.3317 12.3126C15.894 11.5531 16.2403 10 16.2403 10C16.2403 10 16.5865 11.5531 17.1476 12.3126C17.715 13.0784 19.5209 13.7482 19.5209 13.7482C19.5209 13.7482 17.7138 14.418 17.1476 15.185C16.5865 15.9433 16.2403 17.4964 16.2403 17.4964C16.2403 17.4964 15.894 15.9445 15.3317 15.1838C14.7655 14.4192 12.9596 13.7482 12.9596 13.7482C12.9596 13.7482 14.7655 13.0784 15.3317 12.3126Z" stroke="var(--stroke-0, white)" stroke-linecap="round" stroke-linejoin="round"/>
</g>
</svg>
