<svg preserveAspectRatio="none" width="100%" height="100%" overflow="visible" style="display: block;" viewBox="0 0 36 36" fill="none" xmlns="http://www.w3.org/2000/svg">
<g id="Container">
<rect x="0.5" y="0.5" width="35" height="35" rx="7.5" fill="var(--fill-0, #3D3D3D)"/>
<rect x="0.5" y="0.5" width="35" height="35" rx="7.5" stroke="var(--stroke-0, #575757)"/>
<path id="Vector" d="M17.8035 13.8729L17.2139 13.2833M19.3757 15.4451L18.9825 15.0522M20.9478 17.0176L20.555 16.6243M22.7168 18.7861L22.1271 18.1965M21.9303 14.0714C21.6332 13.7742 21.4593 13.3757 21.4432 12.9558C21.4272 12.5359 21.5703 12.1253 21.8439 11.8064C21.8665 11.7798 21.8783 11.7457 21.8768 11.7109C21.8754 11.676 21.8608 11.643 21.8361 11.6185L20.26 10.0406C20.2339 10.0146 20.1986 9.99996 20.1618 9.99996C20.1249 9.99996 20.0896 10.0146 20.0635 10.0406L17.5514 12.5528C17.4587 12.6454 17.3888 12.7584 17.3475 12.8828C17.3062 13.0074 17.2365 13.1207 17.1438 13.2137C17.0511 13.3067 16.938 13.3768 16.8135 13.4185C16.6891 13.46 16.576 13.5298 16.4832 13.6224L10.0406 20.0635C10.0146 20.0896 9.99996 20.1249 9.99996 20.1618C9.99996 20.1986 10.0146 20.2339 10.0406 20.26L11.6167 21.8361C11.6413 21.8608 11.6743 21.8754 11.7091 21.8768C11.7439 21.8783 11.778 21.8665 11.8046 21.8439C12.1235 21.57 12.5341 21.4267 12.9542 21.4426C13.3743 21.4585 13.7728 21.6326 14.0701 21.9298C14.3674 22.2271 14.5414 22.6257 14.5573 23.0457C14.5732 23.4658 14.4299 23.8764 14.156 24.1954C14.1334 24.2219 14.1216 24.256 14.1231 24.2908C14.1245 24.3257 14.1391 24.3587 14.1639 24.3832L15.7399 25.9593C15.766 25.9853 15.8013 26 15.8382 26C15.875 26 15.9103 25.9853 15.9364 25.9593L22.3793 19.5168C22.4719 19.4239 22.5417 19.3108 22.5832 19.1864C22.6245 19.0618 22.6942 18.9485 22.7869 18.8555C22.8796 18.7625 22.9926 18.6924 23.1171 18.6507C23.2415 18.6093 23.3545 18.5395 23.4471 18.4467L25.9593 15.9346C25.9853 15.9085 26 15.8732 26 15.8364C26 15.7995 25.9853 15.7642 25.9593 15.7382L24.3832 14.1621C24.3587 14.1373 24.3257 14.1227 24.2908 14.1213C24.256 14.1198 24.2219 14.1316 24.1954 14.1542C23.8768 14.4283 23.4665 14.572 23.0466 14.5566C22.6267 14.5413 22.228 14.368 21.9303 14.0714Z" stroke="var(--stroke-0, white)" stroke-miterlimit="10" stroke-linecap="round"/>
</g>
</svg>
