<svg preserveAspectRatio="none" width="100%" height="100%" overflow="visible" style="display: block;" viewBox="0 0 36 36" fill="none" xmlns="http://www.w3.org/2000/svg">
<g id="Container">
<rect x="0.5" y="0.5" width="35" height="35" rx="7.5" fill="var(--fill-0, #3D3D3D)"/>
<rect x="0.5" y="0.5" width="35" height="35" rx="7.5" stroke="var(--stroke-0, #575757)"/>
<path id="location_on" d="M18 24.7621C19.6974 23.2425 20.9964 21.7849 21.8969 20.3894C22.7974 18.9939 23.2477 17.7717 23.2477 16.7227C23.2477 15.1409 22.7451 13.8406 21.7401 12.8217C20.735 11.8027 19.4883 11.2933 18 11.2933C16.5117 11.2933 15.265 11.8027 14.2599 12.8217C13.2549 13.8406 12.7523 15.1409 12.7523 16.7227C12.7523 17.7717 13.2026 18.9939 14.1031 20.3894C15.0036 21.7849 16.3026 23.2425 18 24.7621ZM18 26C17.8309 26 17.6619 25.9709 17.4928 25.9126C17.3237 25.8542 17.1707 25.7638 17.0339 25.6414C16.2553 24.9239 15.5266 24.1849 14.848 23.4245C14.1695 22.6643 13.5797 21.9043 13.0786 21.1445C12.5774 20.3847 12.1808 19.6317 11.8888 18.8853C11.5968 18.1389 11.4508 17.418 11.4508 16.7227C11.4508 14.7204 12.0985 13.0994 13.3938 11.8596C14.6892 10.6199 16.2246 10 18 10C19.7754 10 21.3108 10.6199 22.6062 11.8596C23.9015 13.0994 24.5492 14.7204 24.5492 16.7227C24.5492 17.418 24.4032 18.1374 24.1112 18.881C23.8192 19.6247 23.4241 20.3779 22.9257 21.1404C22.4273 21.9029 21.8388 22.663 21.1603 23.4204C20.4817 24.178 19.7531 24.9156 18.9744 25.633C18.8396 25.7553 18.6864 25.8471 18.5147 25.9082C18.3432 25.9694 18.1717 26 18 26ZM18.0015 18.1259C18.4332 18.1259 18.8022 17.9722 19.1087 17.6648C19.4152 17.3573 19.5685 16.9878 19.5685 16.5561C19.5685 16.1244 19.4148 15.7553 19.1074 15.4487C18.7999 15.1423 18.4303 14.9891 17.9985 14.9891C17.5668 14.9891 17.1978 15.1428 16.8913 15.4503C16.5848 15.7577 16.4315 16.1273 16.4315 16.5591C16.4315 16.9908 16.5852 17.3598 16.8926 17.6663C17.2001 17.9727 17.5697 18.1259 18.0015 18.1259Z" fill="var(--fill-0, white)"/>
</g>
</svg>
