<svg preserveAspectRatio="none" width="100%" height="100%" overflow="visible" style="display: block;" viewBox="0 0 20 20" fill="none" xmlns="http://www.w3.org/2000/svg">
<g id="calendar_month">
<mask id="mask0_0_257" style="mask-type:alpha" maskUnits="userSpaceOnUse" x="0" y="0" width="20" height="20">
<rect id="Bounding box" width="20" height="20" fill="var(--fill-0, #D9D9D9)"/>
</mask>
<g mask="url(#mask0_0_257)">
<path id="calendar_month_2" d="M4.42406 17.9166C4.00308 17.9166 3.64676 17.7708 3.3551 17.4792C3.06343 17.1875 2.9176 16.8312 2.9176 16.4102V5.25644C2.9176 4.83547 3.06343 4.47915 3.3551 4.18748C3.64676 3.89582 4.00308 3.74998 4.42406 3.74998H5.57781V2.62811C5.57781 2.44547 5.63899 2.29297 5.76135 2.17061C5.88371 2.04839 6.03621 1.98728 6.21885 1.98728C6.40162 1.98728 6.55413 2.04839 6.67635 2.17061C6.79871 2.29297 6.85989 2.44547 6.85989 2.62811V3.74998H13.1741V2.61228C13.1741 2.43491 13.2338 2.28637 13.3534 2.16665C13.4732 2.04707 13.6217 1.98728 13.7991 1.98728C13.9764 1.98728 14.1249 2.04707 14.2445 2.16665C14.3642 2.28637 14.4241 2.43491 14.4241 2.61228V3.74998H15.5778C15.9988 3.74998 16.3551 3.89582 16.6468 4.18748C16.9384 4.47915 17.0843 4.83547 17.0843 5.25644V16.4102C17.0843 16.8312 16.9384 17.1875 16.6468 17.4792C16.3551 17.7708 15.9988 17.9166 15.5778 17.9166H4.42406ZM4.42406 16.6666H15.5778C15.642 16.6666 15.7007 16.6399 15.7541 16.5864C15.8075 16.5331 15.8343 16.4744 15.8343 16.4102V8.58978H4.1676V16.4102C4.1676 16.4744 4.19433 16.5331 4.24781 16.5864C4.30114 16.6399 4.35989 16.6666 4.42406 16.6666ZM4.1676 7.33978H15.8343V5.25644C15.8343 5.19228 15.8075 5.13352 15.7541 5.08019C15.7007 5.02672 15.642 4.99998 15.5778 4.99998H4.42406C4.35989 4.99998 4.30114 5.02672 4.24781 5.08019C4.19433 5.13352 4.1676 5.19228 4.1676 5.25644V7.33978ZM10.0009 11.7308C9.7969 11.7308 9.62301 11.6589 9.47926 11.5152C9.33565 11.3716 9.26385 11.1977 9.26385 10.9935C9.26385 10.7895 9.33565 10.6156 9.47926 10.4719C9.62301 10.3282 9.7969 10.2564 10.0009 10.2564C10.205 10.2564 10.3788 10.3282 10.5226 10.4719C10.6662 10.6156 10.738 10.7895 10.738 10.9935C10.738 11.1977 10.6662 11.3716 10.5226 11.5152C10.3788 11.6589 10.205 11.7308 10.0009 11.7308ZM6.14593 11.5152C6.00232 11.3716 5.93051 11.1977 5.93051 10.9935C5.93051 10.7895 6.00232 10.6156 6.14593 10.4719C6.28968 10.3282 6.46357 10.2564 6.6676 10.2564C6.87162 10.2564 7.04551 10.3282 7.18926 10.4719C7.33288 10.6156 7.40468 10.7895 7.40468 10.9935C7.40468 11.1977 7.33288 11.3716 7.18926 11.5152C7.04551 11.6589 6.87162 11.7308 6.6676 11.7308C6.46357 11.7308 6.28968 11.6589 6.14593 11.5152ZM13.3343 11.7308C13.1302 11.7308 12.9563 11.6589 12.8126 11.5152C12.669 11.3716 12.5972 11.1977 12.5972 10.9935C12.5972 10.7895 12.669 10.6156 12.8126 10.4719C12.9563 10.3282 13.1302 10.2564 13.3343 10.2564C13.5383 10.2564 13.7122 10.3282 13.8559 10.4719C13.9995 10.6156 14.0713 10.7895 14.0713 10.9935C14.0713 11.1977 13.9995 11.3716 13.8559 11.5152C13.7122 11.6589 13.5383 11.7308 13.3343 11.7308ZM10.0009 15C9.7969 15 9.62301 14.9281 9.47926 14.7844C9.33565 14.6407 9.26385 14.4669 9.26385 14.2629C9.26385 14.0587 9.33565 13.8848 9.47926 13.7412C9.62301 13.5975 9.7969 13.5256 10.0009 13.5256C10.205 13.5256 10.3788 13.5975 10.5226 13.7412C10.6662 13.8848 10.738 14.0587 10.738 14.2629C10.738 14.4669 10.6662 14.6407 10.5226 14.7844C10.3788 14.9281 10.205 15 10.0009 15ZM6.14593 14.7844C6.00232 14.6407 5.93051 14.4669 5.93051 14.2629C5.93051 14.0587 6.00232 13.8848 6.14593 13.7412C6.28968 13.5975 6.46357 13.5256 6.6676 13.5256C6.87162 13.5256 7.04551 13.5975 7.18926 13.7412C7.33288 13.8848 7.40468 14.0587 7.40468 14.2629C7.40468 14.4669 7.33288 14.6407 7.18926 14.7844C7.04551 14.9281 6.87162 15 6.6676 15C6.46357 15 6.28968 14.9281 6.14593 14.7844ZM13.3343 15C13.1302 15 12.9563 14.9281 12.8126 14.7844C12.669 14.6407 12.5972 14.4669 12.5972 14.2629C12.5972 14.0587 12.669 13.8848 12.8126 13.7412C12.9563 13.5975 13.1302 13.5256 13.3343 13.5256C13.5383 13.5256 13.7122 13.5975 13.8559 13.7412C13.9995 13.8848 14.0713 14.0587 14.0713 14.2629C14.0713 14.4669 13.9995 14.6407 13.8559 14.7844C13.7122 14.9281 13.5383 15 13.3343 15Z" fill="var(--fill-0, #8C8C8C)"/>
</g>
</g>
</svg>
