<svg preserveAspectRatio="none" width="100%" height="100%" overflow="visible" style="display: block;" viewBox="0 0 20 20" fill="none" xmlns="http://www.w3.org/2000/svg">
<g id="calendar_check">
<mask id="mask0_0_254" style="mask-type:alpha" maskUnits="userSpaceOnUse" x="0" y="0" width="20" height="20">
<rect id="Bounding box" width="20" height="20" fill="var(--fill-0, #D9D9D9)"/>
</mask>
<g mask="url(#mask0_0_254)">
<path id="calendar_check_2" d="M4.42484 17.9166C4.00387 17.9166 3.64755 17.7708 3.35588 17.4791C3.06421 17.1875 2.91838 16.8312 2.91838 16.4102V5.25644C2.91838 4.83547 3.06421 4.47915 3.35588 4.18748C3.64755 3.89581 4.00387 3.74998 4.42484 3.74998H5.57859V2.62811C5.57859 2.44547 5.63977 2.29297 5.76213 2.17061C5.88449 2.04838 6.03699 1.98727 6.21963 1.98727C6.40241 1.98727 6.55491 2.04838 6.67713 2.17061C6.79949 2.29297 6.86067 2.44547 6.86067 2.62811V3.74998H13.1748V2.61227C13.1748 2.43491 13.2346 2.28637 13.3542 2.16665C13.4739 2.04706 13.6225 1.98727 13.7998 1.98727C13.9772 1.98727 14.1257 2.04706 14.2453 2.16665C14.365 2.28637 14.4248 2.43491 14.4248 2.61227V3.74998H15.5786C15.9996 3.74998 16.3559 3.89581 16.6475 4.18748C16.9392 4.47915 17.085 4.83547 17.085 5.25644V10.6571C17.085 10.8344 17.0252 10.9829 16.9055 11.1025C16.7859 11.2222 16.6374 11.2821 16.46 11.2821C16.2827 11.2821 16.1342 11.2222 16.0146 11.1025C15.8949 10.9829 15.835 10.8344 15.835 10.6571V8.58977H4.16838V16.4102C4.16838 16.4744 4.19512 16.5331 4.24859 16.5864C4.30192 16.6399 4.36067 16.6666 4.42484 16.6666H9.50817C9.68553 16.6666 9.83185 16.7265 9.94713 16.8462C10.0625 16.9658 10.1203 17.1143 10.1203 17.2916C10.1203 17.469 10.0605 17.6175 9.94088 17.7371C9.82116 17.8568 9.67262 17.9166 9.49525 17.9166H4.42484ZM4.16838 7.33977H15.835V5.25644C15.835 5.19227 15.8083 5.13352 15.7548 5.08019C15.7015 5.02672 15.6428 4.99998 15.5786 4.99998H4.42484C4.36067 4.99998 4.30192 5.02672 4.24859 5.08019C4.19512 5.13352 4.16838 5.19227 4.16838 5.25644V7.33977ZM13.7486 16.5721L16.7709 13.5498C16.8949 13.4257 17.04 13.3624 17.2061 13.3598C17.3722 13.3571 17.5199 13.4205 17.6492 13.5498C17.7784 13.6789 17.843 13.8274 17.843 13.9952C17.843 14.163 17.7784 14.3114 17.6492 14.4406L14.2886 17.806C14.1379 17.9567 13.96 18.0321 13.7548 18.0321C13.5497 18.0321 13.3719 17.9567 13.2213 17.806L11.5786 16.1714C11.4494 16.0475 11.3848 15.9004 11.3848 15.73C11.3848 15.5596 11.4494 15.4097 11.5786 15.2804C11.7079 15.1511 11.8564 15.0864 12.0242 15.0864C12.1919 15.0864 12.3403 15.1511 12.4696 15.2804L13.7486 16.5721Z" fill="var(--fill-0, #586474)"/>
</g>
</g>
</svg>
