<svg preserveAspectRatio="none" width="100%" height="100%" overflow="visible" style="display: block;" viewBox="0 0 16 16" fill="none" xmlns="http://www.w3.org/2000/svg">
<path id="list_alt_add" d="M1.58823 14.1299C1.14441 14.1299 0.768745 13.9844 0.461247 13.6935C0.153749 13.4026 0 13.0472 0 12.6273V1.50255C0 1.08267 0.153749 0.727273 0.461247 0.436364C0.768745 0.145455 1.14441 0 1.58823 0H13.3474C13.7912 0 14.1669 0.145455 14.4744 0.436364C14.7819 0.727273 14.9356 1.08267 14.9356 1.50255V7.83709C14.9356 8.01441 14.8724 8.16048 14.7461 8.27532C14.6197 8.39016 14.4632 8.44759 14.2765 8.44759C14.0896 8.44759 13.9332 8.38781 13.8071 8.26826C13.6809 8.14885 13.6178 8.00083 13.6178 7.82421V1.50255C13.6178 1.43855 13.5896 1.37995 13.5332 1.32675C13.477 1.27342 13.415 1.24675 13.3474 1.24675H1.58823C1.52058 1.24675 1.45864 1.27342 1.40241 1.32675C1.34604 1.37995 1.31785 1.43855 1.31785 1.50255V12.6273C1.31785 12.6913 1.34604 12.7499 1.40241 12.8031C1.45864 12.8565 1.52058 12.8831 1.58823 12.8831H6.94418C7.13073 12.8831 7.28719 12.9429 7.41356 13.0624C7.53978 13.182 7.60289 13.3301 7.60289 13.5067C7.60289 13.6835 7.53978 13.8315 7.41356 13.9508C7.28719 14.0702 7.13073 14.1299 6.94418 14.1299H1.58823ZM4.55844 10.8175C4.70706 10.6764 4.78137 10.5017 4.78137 10.2932C4.78137 10.0847 4.70684 9.9101 4.55778 9.76935C4.40872 9.62874 4.224 9.55844 4.00362 9.55844C3.78325 9.55844 3.59875 9.62895 3.45013 9.76997C3.30136 9.911 3.22697 10.0857 3.22697 10.2942C3.22697 10.5027 3.3015 10.6773 3.45057 10.8179C3.59978 10.9586 3.7845 11.029 4.00472 11.029C4.2251 11.029 4.40967 10.9585 4.55844 10.8175ZM4.55844 7.58857C4.70706 7.44755 4.78137 7.2728 4.78137 7.06431C4.78137 6.85583 4.70684 6.68128 4.55778 6.54068C4.40872 6.40007 4.224 6.32977 4.00362 6.32977C3.78325 6.32977 3.59875 6.40028 3.45013 6.5413C3.30136 6.68232 3.22697 6.85707 3.22697 7.06556C3.22697 7.27404 3.3015 7.44859 3.45057 7.5892C3.59978 7.7298 3.7845 7.8001 4.00472 7.8001C4.2251 7.8001 4.40967 7.72959 4.55844 7.58857ZM4.55844 4.3599C4.70706 4.21887 4.78137 4.04412 4.78137 3.83564C4.78137 3.62715 4.70684 3.45261 4.55778 3.312C4.40872 3.17126 4.224 3.10088 4.00362 3.10088C3.78325 3.10088 3.59875 3.17139 3.45013 3.31241C3.30136 3.45344 3.22697 3.62819 3.22697 3.83668C3.22697 4.04516 3.3015 4.21977 3.45057 4.36052C3.59978 4.50113 3.7845 4.57143 4.00472 4.57143C4.2251 4.57143 4.40967 4.50092 4.55844 4.3599ZM11.0159 7.68831C11.2026 7.68831 11.359 7.62854 11.4853 7.50899C11.6116 7.38944 11.6748 7.24135 11.6748 7.06473C11.6748 6.88797 11.6116 6.73995 11.4853 6.62068C11.359 6.50126 11.2026 6.44156 11.0159 6.44156H7.33273C7.14603 6.44156 6.9895 6.50133 6.86314 6.62088C6.73692 6.74043 6.6738 6.88852 6.6738 7.06514C6.6738 7.24191 6.73692 7.38992 6.86314 7.50919C6.9895 7.62861 7.14603 7.68831 7.33273 7.68831H11.0159ZM11.0159 4.45943C11.2026 4.45943 11.359 4.39972 11.4853 4.28031C11.6116 4.16076 11.6748 4.01261 11.6748 3.83584C11.6748 3.65922 11.6116 3.5112 11.4853 3.39179C11.359 3.27252 11.2026 3.21288 11.0159 3.21288H7.33273C7.14603 3.21288 6.9895 3.27266 6.86314 3.39221C6.73692 3.51162 6.6738 3.65971 6.6738 3.83647C6.6738 4.01309 6.73692 4.16111 6.86314 4.28052C6.9895 4.39979 7.14603 4.45943 7.33273 4.45943H11.0159ZM6.86314 10.7381C6.9895 10.8574 7.14603 10.917 7.33273 10.917H7.88337C8.07007 10.917 8.2266 10.8572 8.35296 10.7377C8.47918 10.6183 8.54229 10.4702 8.54229 10.2934C8.54229 10.1168 8.47918 9.96876 8.35296 9.84935C8.2266 9.73008 8.07007 9.67044 7.88337 9.67044H7.33273C7.14603 9.67044 6.9895 9.73015 6.86314 9.84956C6.73692 9.96911 6.6738 10.1173 6.6738 10.294C6.6738 10.4706 6.73692 10.6187 6.86314 10.7381ZM12.0465 13.5065H10.0697C9.88299 13.5065 9.72653 13.4467 9.60031 13.3272C9.47394 13.2076 9.41076 13.0595 9.41076 12.8829C9.41076 12.7061 9.47394 12.5581 9.60031 12.4389C9.72653 12.3194 9.88299 12.2597 10.0697 12.2597H12.0465V10.3896C12.0465 10.213 12.1096 10.065 12.236 9.94556C12.3624 9.82601 12.5189 9.76623 12.7056 9.76623C12.8924 9.76623 13.049 9.82601 13.1752 9.94556C13.3013 10.065 13.3643 10.213 13.3643 10.3896V12.2597H15.3411C15.5278 12.2597 15.6843 12.3195 15.8107 12.4391C15.9369 12.5586 16 12.7067 16 12.8833C16 13.0601 15.9369 13.2081 15.8107 13.3274C15.6843 13.4468 15.5278 13.5065 15.3411 13.5065H13.3643V15.3766C13.3643 15.5532 13.3011 15.7013 13.1748 15.8207C13.0484 15.9402 12.8919 16 12.7052 16C12.5183 16 12.3619 15.9402 12.2358 15.8207C12.1096 15.7013 12.0465 15.5532 12.0465 15.3766V13.5065Z" fill="var(--fill-0, #3D3D3D)"/>
</svg>
