<svg preserveAspectRatio="none" width="100%" height="100%" overflow="visible" style="display: block;" viewBox="0 0 50 40" fill="none" xmlns="http://www.w3.org/2000/svg">
<g id="search">
<rect x="0.5" y="0.5" width="49" height="39" rx="19.5" fill="var(--fill-0, black)"/>
<rect x="0.5" y="0.5" width="49" height="39" rx="19.5" stroke="var(--stroke-0, #4D4D4D)"/>
<g id="Union">
<path d="M25.1131 15.9169C25.313 15.6692 25.679 15.6281 25.8947 15.8623C26.1105 16.0965 26.2981 16.3566 26.4514 16.6375C26.6968 17.0876 26.8518 17.5817 26.9063 18.0914C26.9609 18.6012 26.9137 19.1171 26.7691 19.6089C26.6788 19.9157 26.5516 20.21 26.3904 20.4845C26.2291 20.7589 25.8616 20.7961 25.6138 20.5964C25.366 20.3965 25.334 20.0352 25.4779 19.7512C25.5536 19.6018 25.6159 19.445 25.6634 19.2835C25.7653 18.9371 25.7971 18.5737 25.7587 18.2147C25.7203 17.8555 25.6115 17.5062 25.4385 17.1891C25.3579 17.0416 25.2643 16.902 25.1589 16.7722C24.958 16.5251 24.9132 16.1648 25.1131 15.9169Z" fill="var(--fill-0, white)"/>
<path fill-rule="evenodd" clip-rule="evenodd" d="M23.0237 12C26.6175 12 29.5307 14.9133 29.5307 18.507C29.5307 19.7999 29.1514 21.0032 28.5013 22.016L33.0054 25.6901C33.5621 26.1446 33.6441 26.9647 33.1897 27.5215C32.7353 28.0781 31.9164 28.1612 31.3596 27.707L26.6814 23.8893C25.639 24.599 24.3799 25.014 23.0237 25.014C19.43 25.014 16.5167 22.1007 16.5167 18.507C16.5167 14.9133 19.43 12 23.0237 12ZM23.0237 13.3014C20.0111 13.3014 17.8181 15.4944 17.8181 18.507C17.8181 21.5196 20.0111 23.7126 23.0237 23.7126C26.0364 23.7126 28.2293 21.5196 28.2293 18.507C28.2293 15.4944 26.0364 13.3014 23.0237 13.3014Z" fill="var(--fill-0, white)"/>
</g>
</g>
</svg>
