<svg width="16" height="16" viewBox="0 0 16 16" fill="none" xmlns="http://www.w3.org/2000/svg">
<rect width="16" height="16" fill="#DCD9D9"/>
<g id="Events1" clip-path="url(#clip0_3014_8006)">
<rect width="390" height="2105" transform="translate(-16 -82)" fill="#121212"/>
<g id="Frame 1171279259">
<g id="Frame 1261153124">
<mask id="path-1-inside-1_3014_8006" fill="white">
<path d="M-16 -12H374V28H-16V-12Z"/>
</mask>
<path d="M374 28V27H-16V28V29H374V28Z" fill="#999999" mask="url(#path-1-inside-1_3014_8006)"/>
<g id="Frame 1261153142">
<g id="Frame 1171279279">
<g id="music-note-2-svgrepo-com 1">
<path id="Vector" fill-rule="evenodd" clip-rule="evenodd" d="M9.16683 1.3335C9.16683 3.2665 10.7338 4.8335 12.6668 4.8335C12.943 4.8335 13.1668 5.05736 13.1668 5.3335C13.1668 5.60964 12.943 5.8335 12.6668 5.8335C11.2532 5.8335 9.99183 5.18166 9.16683 4.16216V12.0002C9.16683 13.7491 7.7491 15.1668 6.00016 15.1668C4.25126 15.1668 2.8335 13.7491 2.8335 12.0002C2.8335 10.2512 4.25126 8.8335 6.00016 8.8335C6.8383 8.8335 7.60036 9.1591 8.16683 9.69076V1.3335H9.16683ZM8.16683 12.0002C8.16683 10.8036 7.19676 9.8335 6.00016 9.8335C4.80354 9.8335 3.8335 10.8036 3.8335 12.0002C3.8335 13.1968 4.80354 14.1668 6.00016 14.1668C7.19676 14.1668 8.16683 13.1968 8.16683 12.0002Z" fill="#EAD4F5"/>
</g>
</g>
</g>
</g>
</g>
</g>
<defs>
<clipPath id="clip0_3014_8006">
<rect width="390" height="2105" fill="white" transform="translate(-16 -82)"/>
</clipPath>
</defs>
</svg>
