<svg width="16" height="16" viewBox="0 0 16 16" fill="none" xmlns="http://www.w3.org/2000/svg">
<rect width="16" height="16" fill="#DCD9D9"/>
<g id="Events1" clip-path="url(#clip0_3014_8006)">
<rect width="390" height="2105" transform="translate(-107 -82)" fill="#121212"/>
<g id="Frame 1171279259">
<g id="Frame 1261153124">
<mask id="path-1-inside-1_3014_8006" fill="white">
<path d="M-107 -12H283V28H-107V-12Z"/>
</mask>
<path d="M283 28V27H-107V28V29H283V28Z" fill="#999999" mask="url(#path-1-inside-1_3014_8006)"/>
<g id="Frame 1261153142">
<g id="Frame 1171279286">
<g id="running-2-svgrepo-com 1">
<path id="Vector" d="M12.3332 4.66659C13.2536 4.66659 13.9998 3.92039 13.9998 2.99992C13.9998 2.07944 13.2536 1.33325 12.3332 1.33325C11.4127 1.33325 10.6665 2.07944 10.6665 2.99992C10.6665 3.92039 11.4127 4.66659 12.3332 4.66659Z" stroke="#B3B3B3" stroke-width="1.25"/>
<path id="Vector_2" d="M6 11.3333L5.33282 12.1339C4.84133 12.7237 4.59559 13.0185 4.25963 13.1759C3.92368 13.3333 3.53982 13.3333 2.77209 13.3333H2" stroke="#B3B3B3" stroke-width="1.25" stroke-linecap="round"/>
<path id="Vector_3" d="M9.09987 14.6665C9.09987 14.9427 9.32374 15.1665 9.59987 15.1665C9.876 15.1665 10.0999 14.9427 10.0999 14.6665H9.09987ZM9.00267 7.70326C9.207 7.51746 9.22207 7.20126 9.03634 6.99693C8.85054 6.7926 8.53434 6.77753 8.33 6.96326L9.00267 7.70326ZM9.09987 13.2925V14.6665H10.0999V13.2925H9.09987ZM8.07434 11.229C8.5168 11.5641 8.6658 11.6817 8.77434 11.8183L9.55734 11.1963C9.3518 10.9376 9.07914 10.7356 8.6782 10.4319L8.07434 11.229ZM10.0999 13.2925C10.0999 12.7895 10.1036 12.4502 10.0215 12.1302L9.05287 12.3787C9.0962 12.5477 9.09987 12.7375 9.09987 13.2925H10.0999ZM8.77434 11.8183C8.90554 11.9835 9.00047 12.1744 9.05287 12.3787L10.0215 12.1302C9.93414 11.7897 9.776 11.4715 9.55734 11.1963L8.77434 11.8183ZM8.33 6.96326C8.05027 7.2176 7.70014 7.5208 7.42734 7.779C7.2878 7.91113 7.15414 8.04453 7.04514 8.1702C6.94614 8.28433 6.8274 8.4362 6.76574 8.6024L7.70334 8.95006C7.69821 8.964 7.71274 8.9266 7.8004 8.8256C7.878 8.7362 7.9844 8.62866 8.11474 8.50526C8.38174 8.25253 8.69107 7.98653 9.00267 7.70326L8.33 6.96326ZM8.6782 10.4319C8.3532 10.1857 8.13307 10.0184 7.97454 9.87733C7.81887 9.7388 7.76067 9.65753 7.73241 9.59826L6.8296 10.0283C6.941 10.2623 7.11194 10.4483 7.30967 10.6243C7.50467 10.7979 7.76227 10.9925 8.07434 11.229L8.6782 10.4319ZM6.76574 8.6024C6.59353 9.0668 6.61656 9.5812 6.8296 10.0283L7.73241 9.59826C7.63554 9.395 7.62507 9.1612 7.70334 8.95006L6.76574 8.6024Z" fill="#B3B3B3"/>
<path id="Vector_4" d="M2.41958 5.9892C2.17949 6.12561 2.09544 6.43084 2.23186 6.67092C2.36828 6.91105 2.6735 6.99505 2.9136 6.85865L2.41958 5.9892ZM13.9999 8.49965C14.2761 8.49965 14.4999 8.27585 14.4999 7.99965C14.4999 7.72352 14.2761 7.49965 13.9999 7.49965V8.49965ZM3.3767 5.44538L2.41958 5.9892L2.9136 6.85865L3.87072 6.31484L3.3767 5.44538ZM9.12799 4.44209C8.23199 4.07326 7.74066 3.87049 6.92819 3.92957L7.00066 4.92694C7.54979 4.88701 7.83826 4.99261 8.74732 5.36681L9.12799 4.44209ZM3.87072 6.31484C5.53868 5.36713 6.23892 4.98233 7.00066 4.92694L6.92819 3.92957C5.88847 4.00517 4.96206 4.54461 3.3767 5.44538L3.87072 6.31484ZM13.1697 8.49965H13.9999V7.49965H13.1697V8.49965ZM10.0648 6.58075C10.6528 7.75679 11.8548 8.49965 13.1697 8.49965V7.49965C12.2336 7.49965 11.3779 6.97079 10.9592 6.13354L10.0648 6.58075ZM10.9592 6.13354C10.574 5.36306 9.91759 4.76712 9.12799 4.44209L8.74732 5.36681C9.32066 5.60281 9.79086 6.03295 10.0648 6.58075L10.9592 6.13354Z" fill="#B3B3B3"/>
</g>
</g>
</g>
</g>
</g>
</g>
<defs>
<clipPath id="clip0_3014_8006">
<rect width="390" height="2105" fill="white" transform="translate(-107 -82)"/>
</clipPath>
</defs>
</svg>
