<svg width="16" height="16" viewBox="0 0 16 16" fill="none" xmlns="http://www.w3.org/2000/svg">
<rect width="16" height="16" fill="#DCD9D9"/>
<g id="Events1" clip-path="url(#clip0_3014_8006)">
<rect width="390" height="2105" transform="translate(-201 -82)" fill="#121212"/>
<g id="Frame 1171279259">
<g id="Frame 1261153124">
<mask id="path-1-inside-1_3014_8006" fill="white">
<path d="M-201 -12H189V28H-201V-12Z"/>
</mask>
<path d="M189 28V27H-201V28V29H189V28Z" fill="#999999" mask="url(#path-1-inside-1_3014_8006)"/>
<g id="Frame 1261153142">
<g id="Frame 1171279287">
<g id="paint-svgrepo-com 1">
<path id="Vector" d="M10.8091 8.91631C10.6966 9.85181 11.1531 10.3563 11.6641 11.4881C12.1528 12.5583 11.1641 13.2818 11.0641 13.3523C11.0605 13.354 11.0572 13.3562 11.0543 13.3588C10.1874 13.8197 9.22036 14.0601 8.23856 14.0588C6.64686 14.0588 5.12036 13.4264 3.99484 12.301C2.86931 11.1755 2.23695 9.64901 2.23682 8.05731C2.23741 6.46629 2.86991 4.94061 3.99524 3.81586C5.12054 2.69111 6.64651 2.05937 8.23756 2.05957C9.31219 2.05927 10.3672 2.34759 11.2923 2.89441C12.2174 3.44121 12.9787 4.22646 13.4966 5.16806V5.17031C14.2101 7.57581 10.9183 7.98081 10.8091 8.91631Z" stroke="#B3B3B3" stroke-width="1.25" stroke-linecap="round" stroke-linejoin="round"/>
<path id="Vector_2" d="M13.4964 5.16797V5.17022C14.2099 7.57472 10.9181 7.97972 10.8089 8.91522C10.6996 9.85072 11.1529 10.3552 11.6639 11.487C12.1526 12.5572 11.1639 13.2805 11.0639 13.3512C11.0603 13.3529 11.0571 13.3551 11.0541 13.3577" stroke="#B3B3B3" stroke-width="1.25" stroke-linecap="round" stroke-linejoin="round"/>
<path id="Vector_3" d="M8.23629 6.62102C8.86244 6.62102 9.37004 6.11342 9.37004 5.48727C9.37004 4.86112 8.86244 4.35352 8.23629 4.35352C7.61014 4.35352 7.10254 4.86112 7.10254 5.48727C7.10254 6.11342 7.61014 6.62102 8.23629 6.62102Z" stroke="#B3B3B3" stroke-width="1.25" stroke-linecap="round" stroke-linejoin="round"/>
<path id="Vector_4" d="M5.66445 8.72124C6.03035 8.72124 6.32695 8.42462 6.32695 8.05874C6.32695 7.69284 6.03035 7.39624 5.66445 7.39624C5.29855 7.39624 5.00195 7.69284 5.00195 8.05874C5.00195 8.42462 5.29855 8.72124 5.66445 8.72124Z" stroke="#B3B3B3" stroke-width="1.25" stroke-linecap="round" stroke-linejoin="round"/>
<path id="Vector_5" d="M6.60694 11.0163C6.81999 11.0163 6.99269 10.8436 6.99269 10.6305C6.99269 10.4175 6.81999 10.2448 6.60694 10.2448C6.39389 10.2448 6.22119 10.4175 6.22119 10.6305C6.22119 10.8436 6.39389 11.0163 6.60694 11.0163Z" stroke="#B3B3B3" stroke-width="1.25" stroke-linecap="round" stroke-linejoin="round"/>
</g>
</g>
</g>
</g>
</g>
</g>
<defs>
<clipPath id="clip0_3014_8006">
<rect width="390" height="2105" fill="white" transform="translate(-201 -82)"/>
</clipPath>
</defs>
</svg>
