<svg preserveAspectRatio="none" width="100%" height="100%" overflow="visible" style="display: block;" viewBox="0 0 108 62" fill="none" xmlns="http://www.w3.org/2000/svg">
<g id="Frame">
<path id="Vector" d="M52.6787 15.1213C52.6787 15.582 53.0379 15.9555 53.48 15.9555C53.9226 15.9555 54.2823 15.582 54.2823 15.1208C54.2823 14.6601 53.9226 14.2862 53.48 14.2862C53.0379 14.2862 52.6787 14.6606 52.6787 15.1213Z" fill="var(--fill-0, white)"/>
<path id="Vector_2" d="M56.3562 15.6264C56.3562 16.8945 55.3003 17.9223 53.998 17.9223C52.6958 17.9223 51.6399 16.8945 51.6399 15.6264C51.6399 14.3587 52.6958 13.3295 53.998 13.3295C55.3008 13.3295 56.3562 14.3587 56.3562 15.6264ZM48.8569 15.6025C48.8569 15.6025 51.2378 18.2685 54 18.2685C56.7617 18.2685 59.143 15.6025 59.143 15.6025C59.143 15.6025 57.4232 12.9346 54 12.9346C50.5767 12.9346 48.8569 15.6016 48.8569 15.6016" fill="var(--fill-0, white)"/>
<path id="Vector_3" d="M61.1059 29.3131C61.1059 29.3131 64.9485 30.1287 64.9485 32.7517C64.9485 37.2787 58.2979 39.235 58.2979 39.235C58.2979 39.235 54.4345 38.0055 54.4345 28.2415C54.4345 23.9449 55.122 21.5874 57.8066 19.8824C60.7269 18.0272 66.3043 15.0083 66.4938 12.08C78.5696 24.469 61.1059 29.3131 61.1059 29.3131ZM54.0001 44.3872C53.7865 44.3257 37.5026 39.6361 37.5026 26.7821C37.5026 25.9222 37.5619 25.0771 37.6747 24.2511C38.04 24.8006 38.46 25.3127 38.9283 25.7796C38.9263 25.8564 38.9244 25.9346 38.9244 26.0123C38.9244 34.2283 45.6744 40.8885 54.0001 40.8914C62.3267 40.8885 69.0757 34.2288 69.0757 26.0123C69.0757 25.9346 69.0738 25.8564 69.0718 25.7796C69.5401 25.3127 69.9601 24.8006 70.3254 24.2511C70.4382 25.0771 70.4975 25.9222 70.4975 26.7821C70.4975 39.6361 54.2136 44.3257 54.0001 44.3872ZM41.5063 12.0805C41.6962 15.0088 47.2727 18.0277 50.1935 19.8824C52.8786 21.5874 53.5656 23.9449 53.5656 28.241C53.5656 38.005 49.7022 39.235 49.7022 39.235C49.7022 39.235 43.0516 37.2796 43.0516 32.7517C43.0516 30.1287 46.8942 29.3131 46.8942 29.3131C46.8942 29.3131 29.431 24.469 41.5063 12.0805ZM60.4964 15.6016C60.4964 15.6016 60.1324 16.7748 57.4696 18.5108C55.3096 19.9192 54.5998 20.9059 54.0001 22.6715C53.4003 20.9059 52.6906 19.9192 50.5306 18.5103C47.8677 16.7748 47.5037 15.6016 47.5037 15.6016C47.5037 15.6016 49.2042 12.0056 53.9981 12.0056H54.002C58.7954 12.0056 60.4964 15.6016 60.4964 15.6016ZM44.4623 10.4508C45.267 11.0885 46.8692 11.1443 48.6237 10.5863C48.7105 10.5572 48.7963 10.5276 48.884 10.4999C50.695 9.8661 52.6322 8.58604 54.0001 6.61778C55.3679 8.58604 57.3051 9.8661 59.1166 10.4999C59.2033 10.5276 59.2901 10.5572 59.3759 10.5863C61.1309 11.1443 62.7331 11.0885 63.5373 10.4503C63.5219 11.1657 63.8734 12.5455 64.8353 13.7316C64.5314 14.094 64.2011 14.4339 63.8469 14.7484C61.1101 12.4126 57.6147 11.1297 54.0001 11.1342C50.3853 11.1296 46.8897 12.4126 44.1528 14.7484C43.7987 14.4339 43.4683 14.0942 43.1644 13.732C44.1262 12.5455 44.4782 11.1657 44.4623 10.4508ZM70.837 23.5142C71.079 23.0449 71.268 22.5637 71.4011 22.0825C72.2921 18.8447 70.8616 15.2711 67.1476 11.4605C67.0253 11.3357 66.8691 11.2485 66.6979 11.2094C66.5266 11.1703 66.3476 11.181 66.1824 11.2401C65.8434 11.3622 65.6105 11.6693 65.5879 12.0232C65.57 12.2917 65.4837 12.5807 65.3285 12.8841C64.7065 11.997 64.4327 11.0236 64.4447 10.4694C64.4478 10.2989 64.4019 10.1311 64.3123 9.98539C64.2227 9.83973 64.093 9.72227 63.9385 9.64671C63.8142 9.58766 63.6781 9.55701 63.5402 9.55705C63.3305 9.55705 63.127 9.62668 62.9684 9.75307C62.7148 9.95433 62.2413 10.065 61.6357 10.065C61.021 10.065 60.3354 9.95052 59.658 9.73495C59.5757 9.70694 59.4931 9.67991 59.4102 9.65387C58.3234 9.2709 56.2714 8.30322 54.7483 6.11128C54.6648 5.99137 54.5531 5.89333 54.4228 5.82561C54.2925 5.75788 54.1475 5.72249 54.0003 5.72249C53.8531 5.72249 53.7081 5.75788 53.5778 5.82561C53.4475 5.89333 53.3358 5.99137 53.2522 6.11128C51.7287 8.30322 49.6767 9.2709 48.5899 9.65339C48.507 9.67959 48.4244 9.70678 48.3421 9.73495C47.6647 9.95052 46.9796 10.065 46.3639 10.065C45.7588 10.065 45.2853 9.95433 45.0312 9.75307C44.869 9.62517 44.6674 9.556 44.4599 9.55705C44.322 9.55705 44.1841 9.58805 44.0626 9.64671C43.9078 9.72205 43.7779 9.83942 43.6881 9.98512C43.5983 10.1308 43.5522 10.2988 43.5554 10.4694C43.567 11.0236 43.2941 11.997 42.6711 12.8841C42.5169 12.5807 42.4291 12.2917 42.4122 12.0232C42.3975 11.7959 42.2957 11.5826 42.1275 11.4269C41.9594 11.2712 41.7376 11.1848 41.5072 11.1853C41.2614 11.1853 41.0222 11.2854 40.852 11.4605C37.1381 15.2711 35.7076 18.8447 36.5995 22.0825C36.7375 22.5774 36.9262 23.0572 37.1627 23.5142C37.0583 23.5846 36.9699 23.6757 36.9033 23.7818C36.8366 23.8879 36.7931 24.0067 36.7755 24.1304C36.6554 25.0032 36.5947 25.895 36.5947 26.7816C36.5947 32.3816 39.5845 37.3588 45.241 41.1766C49.4308 44.0047 53.5801 45.1994 53.7551 45.2495C53.9155 45.2937 54.0851 45.2937 54.2455 45.2495C54.4195 45.1994 58.5693 44.0047 62.7591 41.1766C68.4147 37.3588 71.4054 32.3816 71.4054 26.7816C71.4054 25.8945 71.3447 25.0032 71.2251 24.1299C71.2072 24.0063 71.1635 23.8877 71.0967 23.7818C71.0298 23.6758 70.9414 23.5844 70.837 23.5142ZM16.8654 55.6402C15.5386 55.6402 14.4682 54.5323 14.4682 53.1535C14.4682 51.7833 15.5386 50.675 16.8649 50.675C18.1918 50.675 19.2617 51.7833 19.2617 53.1535C19.2617 54.5319 18.1913 55.6402 16.8654 55.6402ZM16.8654 50.0645C16.4544 50.0625 16.047 50.141 15.6667 50.2954C15.2864 50.4498 14.9408 50.6771 14.6498 50.9643C14.3588 51.2514 14.128 51.5927 13.9709 51.9684C13.8138 52.3442 13.7334 52.7469 13.7344 53.1535C13.7326 53.5607 13.8123 53.9642 13.969 54.3407C14.1257 54.7173 14.3562 55.0594 14.6473 55.3473C14.9383 55.6353 15.2841 55.8633 15.6648 56.0184C16.0454 56.1734 16.4533 56.2524 16.8649 56.2507C17.2766 56.2525 17.6846 56.1735 18.0652 56.0185C18.4459 55.8635 18.7918 55.6354 19.0829 55.3475C19.374 55.0595 19.6045 54.7174 19.7613 54.3409C19.918 53.9643 19.9977 53.5608 19.996 53.1535C19.9969 52.7469 19.9165 52.3442 19.7594 51.9684C19.6023 51.5927 19.3716 51.2514 19.0805 50.9643C18.7895 50.6771 18.4439 50.4498 18.0636 50.2954C17.6834 50.141 17.2765 50.0625 16.8654 50.0645ZM35.195 55.6402C33.8682 55.6402 32.7978 54.5323 32.7978 53.1535C32.7978 51.7833 33.8682 50.675 35.195 50.675C36.5209 50.675 37.5913 51.7833 37.5913 53.1535C37.5913 54.5319 36.5209 55.6402 35.195 55.6402ZM35.195 50.0645C34.784 50.0625 34.3766 50.141 33.9963 50.2954C33.6161 50.4498 33.2705 50.6771 32.9794 50.9643C32.6884 51.2514 32.4577 51.5927 32.3005 51.9684C32.1434 52.3442 32.063 52.7469 32.064 53.1535C32.0622 53.5608 32.142 53.9643 32.2987 54.3409C32.4554 54.7174 32.686 55.0595 32.9771 55.3475C33.2682 55.6354 33.614 55.8635 33.9947 56.0185C34.3754 56.1735 34.7834 56.2525 35.195 56.2507C35.6067 56.2524 36.0146 56.1734 36.3952 56.0184C36.7758 55.8633 37.1216 55.6353 37.4127 55.3473C37.7037 55.0594 37.9343 54.7173 38.0909 54.3407C38.2476 53.9642 38.3274 53.5607 38.3256 53.1535C38.3265 52.747 38.2461 52.3443 38.089 51.9686C37.9319 51.5929 37.7012 51.2517 37.4102 50.9646C37.1192 50.6775 36.7737 50.4501 36.3935 50.2957C36.0133 50.1412 35.606 50.0626 35.195 50.0645ZM58.4184 55.6402C57.0925 55.6402 56.0217 54.5323 56.0217 53.1535C56.0217 51.7833 57.092 50.675 58.4184 50.675C59.7448 50.675 60.8156 51.7833 60.8156 53.1535C60.8156 54.5319 59.7453 55.6402 58.4184 55.6402ZM58.4184 50.0645C58.0074 50.0626 57.6001 50.1412 57.2199 50.2956C56.8397 50.4501 56.4941 50.6775 56.2031 50.9646C55.9121 51.2517 55.6813 51.5929 55.5242 51.9686C55.367 52.3443 55.2865 52.747 55.2874 53.1535C55.2857 53.5607 55.3656 53.9642 55.5223 54.3407C55.6791 54.7172 55.9097 55.0593 56.2007 55.3472C56.4918 55.6351 56.8376 55.8632 57.2183 56.0183C57.5989 56.1733 58.0068 56.2523 58.4184 56.2507C58.8301 56.2524 59.238 56.1734 59.6186 56.0184C59.9993 55.8634 60.3451 55.6353 60.6362 55.3474C60.9273 55.0594 61.1579 54.7173 61.3146 54.3408C61.4714 53.9643 61.5512 53.5607 61.5494 53.1535C61.5503 52.747 61.4698 52.3443 61.3126 51.9686C61.1555 51.5929 60.9248 51.2517 60.6337 50.9646C60.3427 50.6775 59.9972 50.4501 59.617 50.2956C59.2368 50.1412 58.8294 50.0626 58.4184 50.0645ZM75.6049 55.5439V51.7318C75.6049 51.1295 75.6227 50.4317 75.6319 50.1699L74.5687 50.1694C74.7761 50.3841 74.8802 50.9258 74.887 51.688L74.8889 54.5853C74.8889 54.9778 74.8711 55.666 74.8532 56.1462H76.6661C77.2673 56.1462 77.816 56.1639 78.0816 56.1815V55.5186C77.816 55.5363 77.2673 55.5444 76.6661 55.5444L75.6049 55.5439ZM82.1996 53.5375L83.1109 51.3384L84.0221 53.537L82.1996 53.5375ZM83.2521 50.0559H83.0492L80.9615 54.8199C80.7722 55.2722 80.5597 55.7147 80.3251 56.1458H81.1384C81.2093 55.9106 81.3332 55.6054 81.5275 55.1433L81.9614 54.1222H84.2695L84.7121 55.1604C84.8794 55.5525 85.0216 55.8935 85.1094 56.1462H86.0302C85.7892 55.714 85.5675 55.2715 85.3659 54.8199L83.2521 50.0559ZM99.1277 55.5615H98.2251V50.7541H99.1195C100.437 50.7541 101.48 51.8444 101.48 53.1531C101.48 54.4627 100.437 55.5615 99.1277 55.5615ZM99.1715 50.169H97.1866C97.3891 50.3788 97.5062 50.9139 97.5062 51.6384L97.5057 54.5843C97.5057 55.1833 97.4922 55.8758 97.4652 56.1462H99.172C100.844 56.1462 102.214 54.8027 102.214 53.1535C102.214 51.5048 100.844 50.169 99.172 50.169M49.9973 53.1445H49.4221V50.736H49.9091C50.829 50.736 51.2798 51.3121 51.2798 51.9317C51.2798 52.6561 50.7398 53.1445 49.9973 53.1445ZM52.0141 51.9145C52.0141 50.9029 51.2798 50.169 49.9351 50.169H48.386C48.5861 50.3764 48.7052 50.8958 48.7052 51.6164L48.7061 54.6363C48.7061 55.2301 48.6974 55.8763 48.6709 56.1462H49.4578C49.4313 55.8763 49.4221 55.2301 49.4221 54.6363V53.6681H49.8999C49.9973 53.6681 50.086 53.6681 50.1921 53.65C50.7046 54.5228 51.4389 55.5181 51.9346 56.1462H52.9152C52.2176 55.4924 51.4649 54.3139 50.8198 53.5279C51.4302 53.3372 52.0141 52.8478 52.0141 51.9145ZM42.9561 53.1445H42.3804V50.736H42.8674C43.7873 50.736 44.2381 51.3121 44.2381 51.9317C44.2381 52.6561 43.6986 53.1445 42.9561 53.1445ZM44.9724 51.9145C44.9724 50.9029 44.2381 50.169 42.8934 50.169H41.3443C41.5444 50.3764 41.6635 50.8958 41.6635 51.6164L41.6644 54.6363C41.6644 55.2301 41.6558 55.8763 41.6292 56.1462H42.4161C42.3896 55.8763 42.3804 55.2301 42.3804 54.6363V53.6681H42.8582C42.9556 53.6681 43.0443 53.6681 43.1504 53.65C43.6629 54.5228 44.3972 55.5181 44.8924 56.1462H45.8735C45.1759 55.4924 44.4233 54.3139 43.7781 53.5279C44.3885 53.3372 44.9724 52.8478 44.9724 51.9145ZM29.1331 55.4833V55.4824C29.0978 55.239 29.0666 54.9951 29.0395 54.7508L28.5265 50.0559H28.3235L26.0064 55.0383L23.7162 50.0559H23.5301L22.8936 54.5667C22.8493 54.8824 22.8035 55.2057 22.7606 55.4843C22.7085 55.8224 22.6227 56.0213 22.5026 56.1462H23.4153C23.424 55.8143 23.4684 55.4046 23.5301 54.89L23.9192 51.7748L25.8738 56.2245H26.0507L28.0318 51.7662L28.3322 54.9597C28.3852 55.5439 28.4118 55.8672 28.4118 56.1462L29.391 56.1472C29.2705 56.0218 29.1851 55.8224 29.1331 55.4833ZM72.1788 50.169H71.2555C71.1841 50.3788 71.0785 50.6664 70.7772 51.3121L69.1591 55.0293L68.1509 52.752L68.7874 51.3908C69.0882 50.7537 69.2825 50.3531 69.4055 50.169H68.6456C68.5482 50.4399 68.4335 50.7189 68.1857 51.2859L67.8501 52.0633L67.514 51.3121C67.2223 50.684 67.1254 50.4489 67.0276 50.169H66.205C66.4263 50.51 66.5498 50.7537 66.8333 51.3823L67.5049 52.8393L66.5406 55.0646L64.7991 51.2077C64.6135 50.8061 64.4539 50.4494 64.3565 50.169H63.3676C63.4621 50.2457 63.599 50.3802 63.7148 50.5934C63.8401 50.8262 63.965 51.0799 64.1005 51.3732L66.4094 56.2769H66.5146L67.8057 53.4936L69.0969 56.2769H69.1856L71.4324 51.3999C71.5163 51.222 71.5867 51.0737 71.6503 50.9425C71.7106 50.8204 71.7699 50.7045 71.8297 50.5944C71.9444 50.3812 72.0848 50.2462 72.1793 50.169M94.0488 50.1661L93.0854 50.1675C93.0951 50.5338 93.112 51.2325 93.112 51.7299V54.7074L89.8382 50.8657C89.5378 50.5338 89.3787 50.3593 89.1126 50.0364H88.9453C88.9622 50.5085 88.9795 51.1881 88.9795 51.7209V54.8824C88.9795 55.3431 88.9622 55.903 88.9453 56.1472H89.6974C89.674 55.7289 89.6622 55.31 89.6622 54.891L89.6801 51.5644L93.016 55.4757C93.2995 55.7981 93.449 55.9731 93.6703 56.2531H93.8294C93.8029 55.7461 93.8029 55.3517 93.8029 54.9868V51.6756C93.8029 50.9206 93.8439 50.3798 94.0488 50.1661ZM12.1115 50.9521C11.9779 50.8123 11.8887 50.5114 11.8396 50.1113C11.706 50.1365 11.531 50.1547 11.2865 50.1666C11.0594 50.1775 10.7731 50.1833 10.3912 50.1833H7.50702C7.20864 50.1846 6.91027 50.1791 6.61216 50.1666C6.42693 50.1607 6.24233 50.1424 6.05962 50.1117C6.01045 50.5138 5.9198 50.8147 5.78577 50.954C5.97332 50.8901 6.24139 50.8505 6.61216 50.8219C6.78573 50.8085 6.97907 50.7975 7.20086 50.7875C7.58368 50.7761 8.30786 50.7708 8.54121 50.7685C8.55857 51.0913 8.56725 51.5363 8.56725 51.894V54.5991C8.56725 55.1919 8.55857 55.8901 8.53205 56.1601H9.32759C9.30155 55.8901 9.29239 55.1919 9.29239 54.5991V51.8935C9.29239 51.5368 9.29239 51.0913 9.30155 50.768C9.54166 50.7704 10.3001 50.7761 10.6969 50.7871C10.9191 50.798 11.1134 50.8085 11.2865 50.8219C11.6568 50.8505 11.9249 50.8901 12.112 50.954L12.1115 50.9521Z" fill="var(--fill-0, white)"/>
</g>
</svg>
