<svg preserveAspectRatio="none" width="100%" height="100%" overflow="visible" style="display: block;" viewBox="0 0 16 16" fill="none" xmlns="http://www.w3.org/2000/svg">
<g id="distance">
<mask id="mask0_5755_27545" style="mask-type:alpha" maskUnits="userSpaceOnUse" x="0" y="0" width="16" height="16">
<rect id="Bounding box" width="16" height="16" fill="var(--fill-0, #D9D9D9)"/>
</mask>
<g mask="url(#mask0_5755_27545)">
<path id="distance_2" d="M8 14.3333C6.87356 14.3333 5.95306 14.1718 5.2385 13.8487C4.52394 13.5257 4.16667 13.1082 4.16667 12.5962C4.16667 12.3936 4.23528 12.2034 4.3725 12.0257C4.50961 11.8479 4.70467 11.6876 4.95767 11.5448C5.07478 11.4679 5.20256 11.4417 5.341 11.466C5.47944 11.4903 5.58717 11.5611 5.66417 11.6782C5.74106 11.7953 5.76456 11.922 5.73467 12.0583C5.70478 12.1947 5.63128 12.3013 5.51417 12.3782C5.4415 12.4038 5.37206 12.4359 5.30583 12.4743C5.2395 12.5128 5.19994 12.5512 5.18717 12.5897C5.29739 12.7889 5.62539 12.9626 6.17117 13.1108C6.71683 13.2592 7.32644 13.3333 8 13.3333C8.67356 13.3333 9.28317 13.2592 9.82883 13.1108C10.3746 12.9626 10.7026 12.7889 10.8128 12.5897C10.8001 12.5512 10.7605 12.5128 10.6942 12.4743C10.6279 12.4359 10.5585 12.4038 10.4858 12.3782C10.3687 12.3013 10.2952 12.1947 10.2653 12.0583C10.2354 11.922 10.2589 11.7953 10.3358 11.6782C10.4128 11.5611 10.5206 11.4903 10.659 11.466C10.7974 11.4417 10.9252 11.4679 11.0423 11.5448C11.2953 11.6876 11.4904 11.8479 11.6275 12.0257C11.7647 12.2034 11.8333 12.3936 11.8333 12.5962C11.8333 13.1082 11.4761 13.5257 10.7615 13.8487C10.0469 14.1718 9.12644 14.3333 8 14.3333ZM8.01667 11.0833C9.12089 10.2466 9.94972 9.41772 10.5032 8.59683C11.0566 7.77583 11.3333 6.96067 11.3333 6.15133C11.3333 5.00089 10.9733 4.1325 10.2532 3.54617C9.53306 2.95983 8.782 2.66667 8 2.66667C7.22222 2.66667 6.47222 2.95983 5.75 3.54617C5.02778 4.1325 4.66667 5.00089 4.66667 6.15133C4.66667 6.90856 4.93994 7.69317 5.4865 8.50517C6.03306 9.31717 6.87644 10.1766 8.01667 11.0833ZM7.6385 11.9788C7.51794 11.9365 7.40639 11.8752 7.30383 11.7948C6.0825 10.8103 5.171 9.84961 4.56933 8.91283C3.96756 7.97606 3.66667 7.05556 3.66667 6.15133C3.66667 5.40944 3.79767 4.75944 4.05967 4.20133C4.32167 3.64322 4.65989 3.17589 5.07433 2.79933C5.48889 2.42289 5.95367 2.14 6.46867 1.95067C6.98356 1.76133 7.494 1.66667 8 1.66667C8.506 1.66667 9.01644 1.76133 9.53133 1.95067C10.0463 2.14 10.5111 2.42289 10.9257 2.79933C11.3401 3.17589 11.6783 3.64322 11.9403 4.20133C12.2023 4.75944 12.3333 5.40944 12.3333 6.15133C12.3333 7.05556 12.0324 7.97606 11.4307 8.91283C10.829 9.84961 9.9175 10.8103 8.69617 11.7948C8.59361 11.8752 8.48206 11.9365 8.3615 11.9788C8.24106 12.0212 8.12056 12.0423 8 12.0423C7.87944 12.0423 7.75894 12.0212 7.6385 11.9788ZM8 7.26283C8.33244 7.26283 8.61639 7.14617 8.85183 6.91283C9.08739 6.6795 9.20517 6.39445 9.20517 6.05767C9.20517 5.72522 9.08739 5.44128 8.85183 5.20583C8.61639 4.97028 8.33244 4.8525 8 4.8525C7.67178 4.8525 7.38889 4.97028 7.15133 5.20583C6.91367 5.44128 6.79483 5.72522 6.79483 6.05767C6.79483 6.39445 6.91367 6.6795 7.15133 6.91283C7.38889 7.14617 7.67178 7.26283 8 7.26283Z" fill="var(--fill-0, white)"/>
</g>
</g>
</svg>
