<svg preserveAspectRatio="none" width="100%" height="100%" overflow="visible" style="display: block;" viewBox="0 0 24 24" fill="none" xmlns="http://www.w3.org/2000/svg">
<g id="pause">
<rect x="0.5" y="0.5" width="23" height="23" rx="11.5" stroke="var(--stroke-0, white)"/>
<path id="pause_2" d="M15.4286 18C14.9571 18 14.5536 17.8321 14.2179 17.4964C13.8821 17.1607 13.7143 16.7571 13.7143 16.2857V7.71429C13.7143 7.24286 13.8821 6.83929 14.2179 6.50357C14.5536 6.16786 14.9571 6 15.4286 6C15.9 6 16.3036 6.16786 16.6393 6.50357C16.975 6.83929 17.1429 7.24286 17.1429 7.71429V16.2857C17.1429 16.7571 16.975 17.1607 16.6393 17.4964C16.3036 17.8321 15.9 18 15.4286 18ZM8.57143 18C8.1 18 7.69643 17.8321 7.36071 17.4964C7.025 17.1607 6.85714 16.7571 6.85714 16.2857V7.71429C6.85714 7.24286 7.025 6.83929 7.36071 6.50357C7.69643 6.16786 8.1 6 8.57143 6C9.04286 6 9.44643 6.16786 9.78214 6.50357C10.1179 6.83929 10.2857 7.24286 10.2857 7.71429V16.2857C10.2857 16.7571 10.1179 17.1607 9.78214 17.4964C9.44643 17.8321 9.04286 18 8.57143 18Z" fill="var(--fill-0, white)"/>
</g>
</svg>
