<svg preserveAspectRatio="none" width="100%" height="100%" overflow="visible" style="display: block;" viewBox="0 0 12 12" fill="none" xmlns="http://www.w3.org/2000/svg">
<g id="distance">
<mask id="mask0_5400_15275" style="mask-type:alpha" maskUnits="userSpaceOnUse" x="0" y="0" width="12" height="12">
<rect id="Bounding box" width="12" height="12" fill="var(--fill-0, #D9D9D9)"/>
</mask>
<g mask="url(#mask0_5400_15275)">
<path id="distance_2" d="M6 10.75C5.15517 10.75 4.46479 10.6288 3.92887 10.3865C3.39296 10.1443 3.125 9.83113 3.125 9.44713C3.125 9.29521 3.17646 9.15258 3.27938 9.01925C3.38221 8.88592 3.5285 8.76571 3.71825 8.65863C3.80608 8.60096 3.90192 8.58125 4.00575 8.5995C4.10958 8.61775 4.19038 8.67079 4.24813 8.75863C4.30579 8.84646 4.32342 8.9415 4.301 9.04375C4.27858 9.146 4.22346 9.22596 4.13563 9.28363C4.08113 9.30288 4.02904 9.32692 3.97938 9.35575C3.92963 9.38458 3.89996 9.41342 3.89038 9.44225C3.97304 9.59167 4.21904 9.72196 4.62837 9.83313C5.03762 9.94438 5.49483 10 6 10C6.50517 10 6.96237 9.94438 7.37162 9.83313C7.78096 9.72196 8.02696 9.59167 8.10963 9.44225C8.10004 9.41342 8.07038 9.38458 8.02063 9.35575C7.97096 9.32692 7.91888 9.30288 7.86438 9.28363C7.77654 9.22596 7.72142 9.146 7.699 9.04375C7.67658 8.9415 7.69421 8.84646 7.75188 8.75863C7.80963 8.67079 7.89042 8.61775 7.99425 8.5995C8.09808 8.58125 8.19392 8.60096 8.28175 8.65863C8.4715 8.76571 8.61779 8.88592 8.72063 9.01925C8.82354 9.15258 8.875 9.29521 8.875 9.44713C8.875 9.83113 8.60704 10.1443 8.07113 10.3865C7.53521 10.6288 6.84483 10.75 6 10.75ZM6.0125 8.3125C6.84067 7.68492 7.46229 7.06329 7.87738 6.44763C8.29246 5.83188 8.5 5.2205 8.5 4.6135C8.5 3.75067 8.22996 3.09938 7.68988 2.65963C7.14979 2.21988 6.5865 2 6 2C5.41667 2 4.85417 2.21988 4.3125 2.65963C3.77083 3.09938 3.5 3.75067 3.5 4.6135C3.5 5.18142 3.70496 5.76988 4.11488 6.37888C4.52479 6.98788 5.15733 7.63242 6.0125 8.3125ZM5.72887 8.98412C5.63846 8.95237 5.55479 8.90638 5.47788 8.84613C4.56188 8.10771 3.87825 7.38721 3.427 6.68463C2.97567 5.98204 2.75 5.29167 2.75 4.6135C2.75 4.05708 2.84825 3.56958 3.04475 3.151C3.24125 2.73242 3.49492 2.38192 3.80575 2.0995C4.11667 1.81717 4.46525 1.605 4.8515 1.463C5.23767 1.321 5.6205 1.25 6 1.25C6.3795 1.25 6.76233 1.321 7.1485 1.463C7.53475 1.605 7.88333 1.81717 8.19425 2.0995C8.50508 2.38192 8.75875 2.73242 8.95525 3.151C9.15175 3.56958 9.25 4.05708 9.25 4.6135C9.25 5.29167 9.02433 5.98204 8.573 6.68463C8.12175 7.38721 7.43813 8.10771 6.52213 8.84613C6.44521 8.90638 6.36154 8.95237 6.27113 8.98412C6.18079 9.01587 6.09042 9.03175 6 9.03175C5.90958 9.03175 5.81921 9.01587 5.72887 8.98412ZM6 5.44713C6.24933 5.44713 6.46229 5.35963 6.63887 5.18463C6.81554 5.00963 6.90387 4.79583 6.90387 4.54325C6.90387 4.29392 6.81554 4.08096 6.63887 3.90437C6.46229 3.72771 6.24933 3.63938 6 3.63938C5.75383 3.63938 5.54167 3.72771 5.3635 3.90437C5.18525 4.08096 5.09613 4.29392 5.09613 4.54325C5.09613 4.79583 5.18525 5.00963 5.3635 5.18463C5.54167 5.35963 5.75383 5.44713 6 5.44713Z" fill="var(--fill-0, white)"/>
</g>
</g>
</svg>
