<svg preserveAspectRatio="none" width="100%" height="100%" overflow="visible" style="display: block;" viewBox="0 0 16 16" fill="none" xmlns="http://www.w3.org/2000/svg">
<g id="calendar_clock">
<mask id="mask0_0_5" style="mask-type:alpha" maskUnits="userSpaceOnUse" x="0" y="0" width="16" height="16">
<rect id="Bounding box" width="16" height="16" fill="var(--fill-0, #D9D9D9)"/>
</mask>
<g mask="url(#mask0_0_5)">
<path id="calendar_clock_2" d="M3.33333 5.33333H12.6667V4H3.33333V5.33333ZM3.33333 14.6667C2.96667 14.6667 2.65278 14.5361 2.39167 14.275C2.13056 14.0139 2 13.7 2 13.3333V4C2 3.63333 2.13056 3.31944 2.39167 3.05833C2.65278 2.79722 2.96667 2.66667 3.33333 2.66667H4V2C4 1.81111 4.06389 1.65278 4.19167 1.525C4.31944 1.39722 4.47778 1.33333 4.66667 1.33333C4.85556 1.33333 5.01389 1.39722 5.14167 1.525C5.26944 1.65278 5.33333 1.81111 5.33333 2V2.66667H10.6667V2C10.6667 1.81111 10.7306 1.65278 10.8583 1.525C10.9861 1.39722 11.1444 1.33333 11.3333 1.33333C11.5222 1.33333 11.6806 1.39722 11.8083 1.525C11.9361 1.65278 12 1.81111 12 2V2.66667H12.6667C13.0333 2.66667 13.3472 2.79722 13.6083 3.05833C13.8694 3.31944 14 3.63333 14 4V7.11667C14 7.30556 13.9361 7.46389 13.8083 7.59167C13.6806 7.71944 13.5222 7.78333 13.3333 7.78333C13.1444 7.78333 12.9861 7.71944 12.8583 7.59167C12.7306 7.46389 12.6667 7.30556 12.6667 7.11667V6.66667H3.33333V13.3333H7.2C7.38889 13.3333 7.54722 13.3972 7.675 13.525C7.80278 13.6528 7.86667 13.8111 7.86667 14C7.86667 14.1889 7.80278 14.3472 7.675 14.475C7.54722 14.6028 7.38889 14.6667 7.2 14.6667H3.33333ZM12 15.3333C11.0778 15.3333 10.2917 15.0083 9.64167 14.3583C8.99167 13.7083 8.66667 12.9222 8.66667 12C8.66667 11.0778 8.99167 10.2917 9.64167 9.64167C10.2917 8.99167 11.0778 8.66667 12 8.66667C12.9222 8.66667 13.7083 8.99167 14.3583 9.64167C15.0083 10.2917 15.3333 11.0778 15.3333 12C15.3333 12.9222 15.0083 13.7083 14.3583 14.3583C13.7083 15.0083 12.9222 15.3333 12 15.3333ZM12.3333 11.8667V10.3333C12.3333 10.2444 12.3 10.1667 12.2333 10.1C12.1667 10.0333 12.0889 10 12 10C11.9111 10 11.8333 10.0333 11.7667 10.1C11.7 10.1667 11.6667 10.2444 11.6667 10.3333V11.85C11.6667 11.9389 11.6833 12.025 11.7167 12.1083C11.75 12.1917 11.8 12.2667 11.8667 12.3333L12.8833 13.35C12.95 13.4167 13.0278 13.45 13.1167 13.45C13.2056 13.45 13.2833 13.4167 13.35 13.35C13.4167 13.2833 13.45 13.2056 13.45 13.1167C13.45 13.0278 13.4167 12.95 13.35 12.8833L12.3333 11.8667Z" fill="var(--fill-0, white)"/>
</g>
</g>
</svg>
