<svg width="16" height="16" viewBox="0 0 16 16" fill="none" xmlns="http://www.w3.org/2000/svg">
<g id="New-pdt-page-v3">
<g id="Frame 1171279410">
<path d="M-18 -1101C-18 -1109.84 -10.8366 -1117 -2 -1117H356C364.837 -1117 372 -1109.84 372 -1101V8673.65H-18V-1101Z" fill="white"/>
<g id="Frame 1171279454">
<g id="Frame 1171279447">
<g id="Frame 1171280943">
<mask id="path-2-inside-1_3014_8006" fill="white">
<path d="M-18 -12H372V28H-18V-12Z"/>
</mask>
<path d="M372 28V27H-18V28V29H372V28Z" fill="#757575" fill-opacity="0.2" mask="url(#path-2-inside-1_3014_8006)"/>
<g id="Component 122">
<mask id="path-4-inside-2_3014_8006" fill="white">
<path d="M-12 -12H89V28H-12V-12Z"/>
</mask>
<path d="M89 28V26H-12V28V30H89V28Z" fill="black" mask="url(#path-4-inside-2_3014_8006)"/>
<g id="overview_key">
<mask id="mask0_3014_8006" style="mask-type:alpha" maskUnits="userSpaceOnUse" x="0" y="0" width="16" height="16">
<rect id="Bounding box" width="16" height="16" fill="#D9D9D9"/>
</mask>
<g mask="url(#mask0_3014_8006)">
<path id="overview_key_2" d="M1.99984 12.6666C1.63317 12.6666 1.31928 12.536 1.05817 12.2749C0.797059 12.0138 0.666504 11.6999 0.666504 11.3333V4.66659C0.666504 4.29992 0.797059 3.98603 1.05817 3.72492C1.31928 3.46381 1.63317 3.33325 1.99984 3.33325H8.6665C9.03317 3.33325 9.34706 3.46381 9.60817 3.72492C9.86928 3.98603 9.99984 4.29992 9.99984 4.66659V11.3333C9.99984 11.6999 9.86928 12.0138 9.60817 12.2749C9.34706 12.536 9.03317 12.6666 8.6665 12.6666H1.99984ZM1.99984 11.3333H8.6665V4.66659H1.99984V11.3333ZM11.9998 12.6666C11.8109 12.6666 11.6526 12.6027 11.5248 12.4749C11.3971 12.3471 11.3332 12.1888 11.3332 11.9999V3.99992C11.3332 3.81103 11.3971 3.6527 11.5248 3.52492C11.6526 3.39714 11.8109 3.33325 11.9998 3.33325C12.1887 3.33325 12.3471 3.39714 12.4748 3.52492C12.6026 3.6527 12.6665 3.81103 12.6665 3.99992V11.9999C12.6665 12.1888 12.6026 12.3471 12.4748 12.4749C12.3471 12.6027 12.1887 12.6666 11.9998 12.6666ZM14.6665 12.6666C14.4776 12.6666 14.3193 12.6027 14.1915 12.4749C14.0637 12.3471 13.9998 12.1888 13.9998 11.9999V3.99992C13.9998 3.81103 14.0637 3.6527 14.1915 3.52492C14.3193 3.39714 14.4776 3.33325 14.6665 3.33325C14.8554 3.33325 15.0137 3.39714 15.1415 3.52492C15.2693 3.6527 15.3332 3.81103 15.3332 3.99992V11.9999C15.3332 12.1888 15.2693 12.3471 15.1415 12.4749C15.0137 12.6027 14.8554 12.6666 14.6665 12.6666Z" fill="#202020"/>
</g>
</g>
</g>
</g>
</g>
</g>
</g>
</g>
</svg>
