<svg preserveAspectRatio="none" width="100%" height="100%" overflow="visible" style="display: block;" viewBox="0 0 12 12" fill="none" xmlns="http://www.w3.org/2000/svg">
<g id="hand_meal">
<mask id="mask0_0_10" style="mask-type:alpha" maskUnits="userSpaceOnUse" x="0" y="0" width="12" height="12">
<rect id="Bounding box" width="12" height="12" fill="var(--fill-0, #D9D9D9)"/>
</mask>
<g mask="url(#mask0_0_10)">
<path id="hand_meal_2" d="M1.2375 6.00962C1.17275 6.00962 1.117 5.98575 1.07025 5.938C1.02342 5.89025 1 5.83079 1 5.75962C1 5.69487 1.02388 5.637 1.07163 5.586C1.11938 5.53508 1.17883 5.50963 1.25 5.50963H2.01637C2.15229 4.52821 2.56687 3.71217 3.26012 3.0615C3.95337 2.41092 4.78333 2.05804 5.75 2.00287V1.75C5.75 1.68525 5.77388 1.62742 5.82163 1.5765C5.86938 1.5255 5.92883 1.5 6 1.5C6.06475 1.5 6.12258 1.5255 6.1735 1.5765C6.2245 1.62742 6.25 1.68525 6.25 1.75V2.00287C7.20833 2.05804 8.03413 2.41092 8.72738 3.0615C9.42063 3.71217 9.83521 4.52821 9.97113 5.50963H10.75C10.8148 5.50963 10.8726 5.53508 10.9235 5.586C10.9745 5.637 11 5.69487 11 5.75962C11 5.83079 10.9745 5.89025 10.9235 5.938C10.8726 5.98575 10.8148 6.00962 10.75 6.00962H1.2375ZM3.88462 10.0096V6.50962H7.88075C7.97175 6.50962 8.04933 6.53333 8.1135 6.58075C8.17758 6.62817 8.22308 6.68813 8.25 6.76063C8.27692 6.83304 8.28475 6.90642 8.2735 6.98075C8.26233 7.05508 8.22375 7.12017 8.15775 7.176L7.45863 7.77887H5.54813C5.47821 7.77887 5.42225 7.80196 5.38025 7.84812C5.33825 7.89421 5.31725 7.95125 5.31725 8.01925C5.31725 8.08267 5.33825 8.137 5.38025 8.18225C5.42225 8.22742 5.47725 8.25 5.54525 8.25H7.32025C7.41767 8.25 7.51142 8.23446 7.6015 8.20338C7.6915 8.17229 7.77275 8.12567 7.84525 8.0635L8.6885 7.34425C8.83333 7.22375 8.99021 7.13721 9.15913 7.08462C9.32804 7.03204 9.49967 7.01154 9.674 7.02313C9.84842 7.04104 10.014 7.088 10.1706 7.164C10.3274 7.23992 10.465 7.34808 10.5836 7.4885L8.0885 9.576C7.918 9.71958 7.73079 9.82775 7.52688 9.9005C7.32304 9.97325 7.11087 10.0096 6.89037 10.0096H3.88462ZM1.90387 10.5C1.78779 10.5 1.69146 10.4617 1.61488 10.3851C1.53829 10.3085 1.5 10.2122 1.5 10.0961V6.90387C1.5 6.79421 1.53829 6.6995 1.61488 6.61975C1.69146 6.53992 1.78779 6.5 1.90387 6.5H3.38462V10.0961C3.38462 10.2122 3.34471 10.3085 3.26488 10.3851C3.18513 10.4617 3.09042 10.5 2.98075 10.5H1.90387Z" fill="var(--fill-0, #287686)"/>
</g>
</g>
</svg>
