<svg preserveAspectRatio="none" width="100%" height="100%" overflow="visible" style="display: block;" viewBox="0 0 12 12" fill="none" xmlns="http://www.w3.org/2000/svg">
<g id="local_taxi">
<mask id="mask0_0_4" style="mask-type:alpha" maskUnits="userSpaceOnUse" x="0" y="0" width="12" height="12">
<rect id="Bounding box" width="12" height="12" fill="var(--fill-0, #D9D9D9)"/>
</mask>
<g mask="url(#mask0_0_4)">
<path id="person" d="M6.00009 5.42856C5.52533 5.42856 5.12095 5.26156 4.78695 4.92756C4.45286 4.59346 4.28581 4.18904 4.28581 3.71427C4.28581 3.23961 4.45286 2.83523 4.78695 2.50113C5.12095 2.16704 5.52533 1.99999 6.00009 1.99999C6.47486 1.99999 6.87924 2.16704 7.21324 2.50113C7.54733 2.83523 7.71438 3.23961 7.71438 3.71427C7.71438 4.18904 7.54733 4.59346 7.21324 4.92756C6.87924 5.26156 6.47486 5.42856 6.00009 5.42856ZM2.00009 8.96713V8.61984C2.00009 8.38394 2.06876 8.16323 2.20609 7.9577C2.34352 7.75227 2.52833 7.59275 2.76052 7.47913C3.29976 7.22056 3.83933 7.02661 4.37924 6.89727C4.91914 6.76804 5.45943 6.70342 6.00009 6.70342C6.54076 6.70342 7.08105 6.76804 7.62095 6.89727C8.16086 7.02661 8.70043 7.22056 9.23966 7.47913C9.47186 7.59275 9.65667 7.75227 9.79409 7.9577C9.93143 8.16323 10.0001 8.38394 10.0001 8.61984V8.96713C10.0001 9.13484 9.94314 9.27565 9.82924 9.38956C9.71533 9.50356 9.57448 9.56056 9.40667 9.56056H2.59352C2.42571 9.56056 2.28486 9.50356 2.17095 9.38956C2.05705 9.27565 2.00009 9.13484 2.00009 8.96713Z" fill="var(--fill-0, #287686)"/>
</g>
</g>
</svg>
