<svg preserveAspectRatio="none" width="100%" height="100%" overflow="visible" style="display: block;" viewBox="0 0 12 12" fill="none" xmlns="http://www.w3.org/2000/svg">
<g id="concierge">
<mask id="mask0_0_16" style="mask-type:alpha" maskUnits="userSpaceOnUse" x="0" y="0" width="12" height="12">
<rect id="Bounding box" width="12" height="12" fill="var(--fill-0, #D9D9D9)"/>
</mask>
<g mask="url(#mask0_0_16)">
<path id="concierge_2" d="M5.75004 10.5C5.67887 10.5 5.61941 10.4761 5.57166 10.4283C5.52391 10.3806 5.50004 10.3211 5.50004 10.25C5.50004 10.1788 5.52391 10.1193 5.57166 10.0716C5.61941 10.0238 5.67887 9.99997 5.75004 9.99997H10.75C10.8212 9.99997 10.8807 10.0238 10.9284 10.0716C10.9762 10.1193 11 10.1788 11 10.25C11 10.3211 10.9762 10.3806 10.9284 10.4283C10.8807 10.4761 10.8212 10.5 10.75 10.5H5.75004ZM6.00004 9.30772C6.00004 8.72881 6.1917 8.22735 6.57504 7.80335C6.95837 7.37926 7.43337 7.13776 8.00004 7.07885V6.8721C8.00004 6.80735 8.02391 6.74947 8.07166 6.69847C8.11941 6.64756 8.17887 6.6221 8.25004 6.6221C8.31479 6.6221 8.37262 6.64756 8.42354 6.69847C8.47454 6.74947 8.50004 6.80735 8.50004 6.8721V7.07885C9.06479 7.13776 9.53929 7.37926 9.92354 7.80335C10.3079 8.22735 10.5 8.72881 10.5 9.30772H6.00004ZM1.01929 5.21147C1.01929 5.42239 1.09154 5.60014 1.23604 5.74472C1.38062 5.88922 1.55837 5.96147 1.76929 5.96147C1.9802 5.96147 2.15791 5.88922 2.30241 5.74472C2.447 5.60014 2.51929 5.42239 2.51929 5.21147V2.6346C2.51929 2.42368 2.447 2.24593 2.30241 2.10135C2.15791 1.95685 1.9802 1.8846 1.76929 1.8846C1.55837 1.8846 1.38062 1.95685 1.23604 2.10135C1.09154 2.24593 1.01929 2.42368 1.01929 2.6346V5.21147ZM3.01929 5.19997C3.01929 5.41214 3.09316 5.5921 3.24091 5.73985C3.38866 5.8876 3.56862 5.96147 3.78079 5.96147H4.06254C4.10995 5.96147 4.15754 5.95685 4.20529 5.9476C4.25304 5.93826 4.2997 5.92526 4.34529 5.9086L7.49329 4.75472C7.6157 4.70922 7.71154 4.63472 7.78079 4.53122C7.85004 4.42772 7.88466 4.31281 7.88466 4.18647V4.17685C7.88466 4.0756 7.84845 3.98876 7.77604 3.91635C7.70354 3.84393 7.61666 3.80772 7.51541 3.80772H6.38466L5.26354 4.20185C5.21604 4.22043 5.16795 4.21885 5.11929 4.1971C5.07054 4.17526 5.03687 4.14064 5.01829 4.09322C4.99329 4.03939 4.99379 3.98601 5.01979 3.9331C5.0457 3.88026 5.08558 3.84456 5.13941 3.82597L6.36541 3.4231H9.50004C9.71545 3.4231 9.90712 3.34968 10.075 3.20285C10.243 3.0561 10.3269 2.8731 10.3269 2.65385L7.06929 1.56435C6.99495 1.53551 6.91529 1.52064 6.83029 1.51972C6.74537 1.51872 6.66254 1.52847 6.58179 1.54897L3.60291 2.41922C3.42475 2.47306 3.28291 2.57143 3.17741 2.71435C3.072 2.85735 3.01929 3.01889 3.01929 3.19897V5.19997Z" fill="var(--fill-0, #287686)"/>
</g>
</g>
</svg>
