<svg preserveAspectRatio="none" width="100%" height="100%" overflow="visible" style="display: block;" viewBox="0 0 32.1911 11.1004" fill="none" xmlns="http://www.w3.org/2000/svg">
<g id="Union">
<g id="Union_2">
<path d="M5.92332 8.48664C6.0406 8.46603 6.14923 8.48769 6.24844 8.55283C6.46271 8.67376 6.62785 8.8101 6.74398 8.96068C6.8601 9.11121 6.91853 9.27231 6.91853 9.44381C6.91846 9.87746 6.61541 10.2308 6.01018 10.5044C5.40486 10.7781 4.62489 10.9155 3.67064 10.9155C2.71661 10.9155 1.93716 10.778 1.33192 10.5044C0.726669 10.2308 0.42364 9.87747 0.423567 9.44381C0.423567 9.27226 0.481933 9.11125 0.598123 8.96068C0.714274 8.81007 0.879338 8.67378 1.09366 8.55283C1.19284 8.48774 1.30154 8.46604 1.41878 8.48664C1.53583 8.50733 1.62664 8.56711 1.69179 8.66616C1.7569 8.76534 1.77746 8.87253 1.75218 8.98798C1.73058 9.08648 1.68199 9.16696 1.60661 9.22892C1.58024 9.25059 1.54879 9.26469 1.51719 9.27757C1.47298 9.29559 1.43024 9.31647 1.389 9.3404C1.31004 9.38616 1.31085 9.48693 1.37855 9.54813C1.51521 9.67169 1.76312 9.78232 2.12197 9.87978C2.58406 10.0054 3.10029 10.0684 3.67064 10.0684C4.2412 10.0684 4.7579 10.0054 5.22013 9.87978C5.57898 9.78233 5.82688 9.6717 5.96355 9.54814C6.03126 9.48693 6.03207 9.38617 5.9531 9.3404C5.91185 9.31646 5.86909 9.29558 5.82487 9.27756C5.79329 9.26469 5.76187 9.2506 5.73553 9.22895C5.66013 9.16699 5.61152 9.08649 5.58992 8.98798C5.56464 8.87259 5.58448 8.7653 5.64949 8.66616C5.71468 8.56701 5.80613 8.50729 5.92332 8.48664Z" fill="var(--fill-0, #8B999D)"/>
<path d="M3.67064 2.88348C3.95226 2.88348 4.1934 2.98341 4.39285 3.18296C4.59225 3.38231 4.69142 3.62291 4.6915 3.90435C4.6915 4.18955 4.59227 4.43141 4.39285 4.62904C4.1934 4.82671 3.95226 4.92521 3.67064 4.92521C3.39271 4.92514 3.15291 4.82664 2.95173 4.62904C2.7505 4.43141 2.64977 4.18957 2.64977 3.90435C2.64985 3.6229 2.75053 3.38232 2.95173 3.18296C3.15291 2.98348 3.39271 2.88355 3.67064 2.88348Z" fill="var(--fill-0, #8B999D)"/>
<path fill-rule="evenodd" clip-rule="evenodd" d="M3.67064 0.184899C4.0992 0.184899 4.53172 0.26531 4.96781 0.425638C5.40407 0.586023 5.79799 0.825661 6.14917 1.14454C6.50015 1.46344 6.78679 1.85908 7.00871 2.33169C7.23063 2.80442 7.34207 3.35539 7.3421 3.98376C7.3421 4.34208 7.28575 4.7033 7.17378 5.06756C7.08234 5.36506 7.28853 5.69127 7.59976 5.69127H8.47134C8.70527 5.69127 8.8949 5.88091 8.8949 6.11484C8.8949 6.34877 8.70527 6.5384 8.47134 6.5384H6.65116C6.51284 6.5384 6.38393 6.60634 6.30131 6.71727C5.80364 7.38543 5.12415 8.06838 4.26049 8.76461C4.17369 8.8326 4.07958 8.88511 3.97756 8.92097C3.87553 8.95683 3.77276 8.97474 3.67064 8.97474C3.5686 8.97471 3.46648 8.9568 3.36454 8.92097C3.26243 8.8851 3.16766 8.83266 3.08079 8.76461C2.04632 7.93065 1.27404 7.1168 0.764406 6.32331C0.254692 5.52979 0 4.74971 0 3.98376C2.91431e-05 3.35539 0.110646 2.80442 0.332566 2.33169C0.554446 1.8591 0.84119 1.46345 1.19211 1.14454C1.54323 0.8257 1.93728 0.586028 2.37346 0.425638C2.80955 0.265281 3.24208 0.184934 3.67064 0.184899ZM3.67064 1.03203C3.01185 1.0321 2.37632 1.28078 1.76459 1.77741C1.15304 2.27407 0.847186 3.00948 0.847134 3.98376C0.847134 4.62523 1.07904 5.29046 1.54205 5.97833C1.96323 6.60396 2.59209 7.26314 3.4292 7.95523C3.57833 8.07853 3.79304 8.08115 3.94457 7.96083C4.75133 7.32024 5.3674 6.68472 5.79178 6.05527C6.26042 5.35992 6.49497 4.66923 6.49497 3.98376C6.49492 3.0095 6.18973 2.27407 5.58 1.77741C4.96997 1.28071 4.3331 1.03203 3.67064 1.03203Z" fill="var(--fill-0, #8B999D)"/>
<path d="M31.5557 5.74801C31.8381 5.91105 31.8381 6.31863 31.5557 6.48166L28.5908 8.19346C28.3084 8.35649 27.9554 8.1527 27.9554 7.82664V4.40303C27.9554 4.07697 28.3084 3.87318 28.5908 4.03621L31.5557 5.74801Z" fill="var(--fill-0, #8B999D)"/>
<path d="M17.3662 6.11484C17.3662 6.34877 17.1766 6.5384 16.9427 6.5384H13.5541C13.3202 6.5384 13.1306 6.34877 13.1306 6.11484C13.1306 5.88091 13.3202 5.69127 13.5541 5.69127H16.9427C17.1766 5.69127 17.3662 5.88091 17.3662 6.11484Z" fill="var(--fill-0, #8B999D)"/>
<path d="M25.8376 6.11484C25.8376 6.34877 25.6479 6.5384 25.414 6.5384H22.0255C21.7915 6.5384 21.6019 6.34877 21.6019 6.11484C21.6019 5.88091 21.7915 5.69127 22.0255 5.69127H25.414C25.6479 5.69127 25.8376 5.88091 25.8376 6.11484Z" fill="var(--fill-0, #8B999D)"/>
</g>
</g>
</svg>
