<svg preserveAspectRatio="none" width="100%" height="100%" overflow="visible" style="display: block;" viewBox="0 0 14 14" fill="none" xmlns="http://www.w3.org/2000/svg">
<g id="footprint">
<mask id="mask0_0_44" style="mask-type:alpha" maskUnits="userSpaceOnUse" x="0" y="0" width="14" height="14">
<rect id="Bounding box" width="14" height="14" fill="var(--fill-0, #D9D9D9)"/>
</mask>
<g mask="url(#mask0_0_44)">
<path id="footprint_2" d="M3.79167 0.875C4.50217 0.875 5.06868 1.20274 5.49121 1.85821C5.91374 2.51378 6.125 3.25549 6.125 4.08333C6.125 4.5081 6.07153 4.92562 5.96458 5.3359C5.85764 5.74608 5.74131 6.10337 5.6156 6.40777L2.26158 7.13242C2.04847 6.76443 1.86132 6.32635 1.70013 5.81817C1.53893 5.30999 1.45833 4.73171 1.45833 4.08333C1.45833 3.16419 1.67912 2.39969 2.12071 1.78981C2.56239 1.17994 3.11937 0.875 3.79167 0.875ZM4.59375 10.2083C3.99321 10.2083 3.52149 9.98735 3.17858 9.54538C2.83568 9.1034 2.65115 8.57019 2.625 7.94573L5.72002 7.27708C5.81647 7.45733 5.9081 7.65849 5.99492 7.88054C6.08164 8.10269 6.125 8.32932 6.125 8.56042C6.125 9.03233 5.98048 9.42497 5.69144 9.73831C5.4024 10.0517 5.0365 10.2083 4.59375 10.2083ZM10.2083 3.79167C10.8806 3.79167 11.4376 4.0966 11.8793 4.70648C12.3209 5.31635 12.5417 6.08086 12.5417 7C12.5417 7.65965 12.4573 8.24542 12.2886 8.75729C12.1201 9.26917 11.9254 9.71469 11.7047 10.0939L8.37317 9.30198C8.25125 8.99758 8.13774 8.64306 8.03265 8.23842C7.92755 7.83387 7.875 7.42107 7.875 7C7.875 6.17215 8.08626 5.43044 8.50879 4.77487C8.93132 4.1194 9.49783 3.79167 10.2083 3.79167ZM9.40625 13.125C8.9635 13.125 8.5976 12.9683 8.30856 12.655C8.01952 12.3416 7.875 11.949 7.875 11.4771C7.875 11.2423 7.92026 11.012 8.01077 10.7861C8.10128 10.5602 8.19476 10.3552 8.29121 10.1713L11.366 10.9184C11.3323 11.5204 11.1456 12.0387 10.8057 12.4733C10.4658 12.9078 9.99931 13.125 9.40625 13.125Z" fill="url(#paint0_linear_0_44)"/>
</g>
</g>
<defs>
<linearGradient id="paint0_linear_0_44" x1="7" y1="0.875" x2="7" y2="13.125" gradientUnits="userSpaceOnUse">
<stop offset="0.2" stop-color="#ADADAD"/>
<stop offset="1" stop-color="white"/>
</linearGradient>
</defs>
</svg>
