<svg preserveAspectRatio="none" width="100%" height="100%" overflow="visible" style="display: block;" viewBox="0 0 14 14" fill="none" xmlns="http://www.w3.org/2000/svg">
<g id="footprint">
<mask id="mask0_0_29" style="mask-type:alpha" maskUnits="userSpaceOnUse" x="0" y="0" width="14" height="14">
<rect id="Bounding box" width="14" height="14" fill="var(--fill-0, #D9D9D9)"/>
</mask>
<g mask="url(#mask0_0_29)">
<path id="footprint_2" d="M3.79167 1.75C3.36535 1.75 3.01574 1.98746 2.74283 2.4624C2.46983 2.93723 2.33333 3.47754 2.33333 4.08333C2.33333 4.66968 2.42122 5.21729 2.597 5.72615C2.77268 6.2351 2.96338 6.63804 3.1691 6.93496L4.59929 6.61967C4.73317 6.30856 4.87511 5.92472 5.02512 5.46817C5.17504 5.01161 5.25 4.55 5.25 4.08333C5.25 3.47754 5.1135 2.93723 4.8405 2.4624C4.5676 1.98746 4.21799 1.75 3.79167 1.75ZM4.59375 9.33333C4.78217 9.33333 4.93865 9.26343 5.06319 9.12362C5.18773 8.98372 5.25 8.79599 5.25 8.56042C5.25 8.39514 5.20829 8.21567 5.12488 8.022C5.04156 7.82824 4.94229 7.64089 4.82708 7.45996L3.5 7.76285C3.5 8.21153 3.58974 8.58545 3.76921 8.8846C3.94868 9.18376 4.22353 9.33333 4.59375 9.33333ZM10.2083 4.66667C9.78201 4.66667 9.4324 4.90413 9.1595 5.37906C8.8865 5.8539 8.75 6.39421 8.75 7C8.75 7.46667 8.82593 7.92585 8.97779 8.37754C9.12956 8.82924 9.27053 9.2155 9.40071 9.53633L10.8084 9.88531C11.0553 9.49866 11.26 9.07385 11.4227 8.61087C11.5853 8.148 11.6667 7.61104 11.6667 7C11.6667 6.39421 11.5302 5.8539 11.2572 5.37906C10.9843 4.90413 10.6347 4.66667 10.2083 4.66667ZM9.40625 12.25C9.76899 12.25 10.0419 12.1023 10.2251 11.807C10.4084 11.5115 10.5 11.1488 10.5 10.7187L9.1786 10.3709C9.08955 10.5295 8.99587 10.7066 8.89758 10.9022C8.79919 11.0977 8.75 11.2893 8.75 11.4771C8.75 11.6752 8.81261 11.8536 8.93783 12.0121C9.06315 12.1707 9.21929 12.25 9.40625 12.25ZM4.59375 10.2083C3.95733 10.2083 3.46617 9.96678 3.12025 9.48369C2.77443 9.00049 2.60935 8.42873 2.625 7.7684L2.31758 7.24573C2.16582 7.00938 1.98469 6.60703 1.77421 6.03867C1.56363 5.47021 1.45833 4.81843 1.45833 4.08333C1.45833 3.16419 1.67912 2.39969 2.12071 1.78981C2.56239 1.17994 3.11937 0.875 3.79167 0.875C4.50217 0.875 5.06868 1.20274 5.49121 1.85821C5.91374 2.51378 6.125 3.25549 6.125 4.08333C6.125 4.62107 6.0463 5.13465 5.8889 5.62406C5.7314 6.11358 5.58687 6.5135 5.45533 6.82383L5.64492 7.13694C5.74136 7.2992 5.84549 7.5127 5.95729 7.77744C6.0691 8.04217 6.125 8.30317 6.125 8.56042C6.125 9.03233 5.98048 9.42497 5.69144 9.73831C5.4024 10.0517 5.0365 10.2083 4.59375 10.2083ZM9.40625 13.125C8.9635 13.125 8.5976 12.9683 8.30856 12.655C8.01952 12.3416 7.875 11.949 7.875 11.4771C7.875 11.2198 7.9309 10.9588 8.04271 10.6941C8.15451 10.4294 8.25864 10.2159 8.35508 10.0536L8.54467 9.7405C8.41682 9.43386 8.27327 9.03491 8.11402 8.54365C7.95467 8.05228 7.875 7.53774 7.875 7C7.875 6.17215 8.08626 5.43044 8.50879 4.77487C8.93132 4.1194 9.49783 3.79167 10.2083 3.79167C10.8806 3.79167 11.4376 4.0966 11.8793 4.70648C12.3209 5.31635 12.5417 6.08086 12.5417 7C12.5417 7.7351 12.4373 8.38347 12.2287 8.94512C12.0201 9.50678 11.838 9.90952 11.6824 10.1534L11.375 10.6346C11.3809 11.2388 11.2256 11.805 10.9089 12.333C10.5922 12.861 10.0913 13.125 9.40625 13.125Z" fill="var(--fill-0, #A3A3A3)"/>
</g>
</g>
</svg>
