<svg preserveAspectRatio="none" width="100%" height="100%" overflow="visible" style="display: block;" viewBox="0 0 16 16" fill="none" xmlns="http://www.w3.org/2000/svg">
<g id="camping">
<mask id="mask0_0_32" style="mask-type:alpha" maskUnits="userSpaceOnUse" x="0" y="0" width="16" height="16">
<rect id="Bounding box" width="16" height="16" fill="var(--fill-0, #D9D9D9)"/>
</mask>
<g mask="url(#mask0_0_32)">
<path id="camping_2" d="M1.66667 13.8975V12.0642C1.66667 11.9325 1.68678 11.8064 1.727 11.6859C1.76711 11.5654 1.82733 11.4505 1.90767 11.341L7.37817 3.9757L6.7205 3.08986C6.67783 3.03342 6.64856 2.97314 6.63267 2.90903C6.61689 2.84492 6.6135 2.78186 6.6225 2.71986C6.6315 2.65797 6.65283 2.59775 6.6865 2.5392C6.72028 2.48064 6.76539 2.42997 6.82183 2.3872C6.93894 2.30175 7.06289 2.26803 7.19367 2.28603C7.32444 2.30392 7.43256 2.37142 7.518 2.48853L8 3.14103L8.482 2.48853C8.56744 2.37142 8.67667 2.30392 8.80967 2.28603C8.94256 2.26803 9.06756 2.30175 9.18467 2.3872C9.30167 2.47275 9.36917 2.58197 9.38717 2.71486C9.40506 2.84775 9.37128 2.97275 9.28583 3.08986L8.62817 3.9757L14.0923 11.341C14.1727 11.4505 14.2329 11.5654 14.273 11.6859C14.3132 11.8064 14.3333 11.9325 14.3333 12.0642V13.8975C14.3333 14.0693 14.2758 14.2126 14.1608 14.3275C14.0459 14.4425 13.9026 14.5 13.7307 14.5H2.26933C2.09744 14.5 1.95406 14.4425 1.83917 14.3275C1.72417 14.2126 1.66667 14.0693 1.66667 13.8975ZM8 4.8167L2.66667 11.9937V13.5H4.75L7.50767 9.64486C7.62822 9.47309 7.79233 9.3872 8 9.3872C8.20767 9.3872 8.37178 9.47309 8.49233 9.64486L11.25 13.5H13.3333V11.9937L8 4.8167ZM5.9795 13.5H10.0205L8 10.6782L5.9795 13.5ZM8.49867 9.64486L11.25 13.5L8.49233 9.64486C8.37178 9.47309 8.20767 9.3872 8 9.3872C7.79233 9.3872 7.62822 9.47309 7.50767 9.64486C7.62822 9.47309 7.79339 9.3872 8.00317 9.3872C8.21306 9.3872 8.37822 9.47309 8.49867 9.64486Z" fill="var(--fill-0, #1C1B1F)"/>
</g>
</g>
</svg>
