<svg preserveAspectRatio="none" width="100%" height="100%" overflow="visible" style="display: block;" viewBox="0 0 16 16" fill="none" xmlns="http://www.w3.org/2000/svg">
<g id="domino_mask">
<mask id="mask0_0_47" style="mask-type:alpha" maskUnits="userSpaceOnUse" x="0" y="0" width="16" height="16">
<rect id="Bounding box" width="16" height="16" fill="var(--fill-0, #D9D9D9)"/>
</mask>
<g mask="url(#mask0_0_47)">
<path id="domino_mask_2" d="M5.2 11.6667C4.68033 11.6667 4.17928 11.5741 3.69683 11.389C3.21439 11.204 2.78467 10.9342 2.40767 10.5795C1.91711 10.1137 1.55989 9.55839 1.336 8.9135C1.112 8.26861 1 7.603 1 6.91667C1 6.15256 1.18333 5.531 1.55 5.052C1.91667 4.57289 2.45211 4.33333 3.15633 4.33333C3.28633 4.33333 3.41222 4.34511 3.534 4.36867C3.65578 4.39211 3.77822 4.42733 3.90133 4.47433L8 6.009L12.0987 4.47433C12.2218 4.42733 12.3442 4.39211 12.466 4.36867C12.5878 4.34511 12.7137 4.33333 12.8437 4.33333C13.5479 4.33333 14.0833 4.57289 14.45 5.052C14.8167 5.531 15 6.15256 15 6.91667C15 7.603 14.888 8.26861 14.664 8.9135C14.4401 9.55839 14.0829 10.1137 13.5923 10.5795C13.2153 10.9342 12.7856 11.204 12.3032 11.389C11.8207 11.5741 11.3197 11.6667 10.8 11.6667C10.1266 11.6667 9.53961 11.5 9.03917 11.1667L8.2885 10.6667H7.7115L6.96083 11.1667C6.46039 11.5 5.87344 11.6667 5.2 11.6667ZM5.2 10.6667C5.61111 10.6667 5.99444 10.5694 6.35 10.375C6.70556 10.1806 7.03333 9.94444 7.33333 9.66667H8.66667C8.96667 9.94444 9.29444 10.1806 9.65 10.375C10.0056 10.5694 10.3889 10.6667 10.8 10.6667C11.2 10.6667 11.5861 10.5972 11.9583 10.4583C12.3306 10.3194 12.6611 10.1056 12.95 9.81667C13.3278 9.43889 13.5972 8.99444 13.7583 8.48333C13.9194 7.97222 14 7.45 14 6.91667C14 6.46111 13.9056 6.08056 13.7167 5.775C13.5278 5.46944 13.2278 5.32222 12.8167 5.33333C12.7833 5.33333 12.6611 5.35556 12.45 5.4L8 7.06667L3.55 5.4C3.49444 5.37778 3.43611 5.36111 3.375 5.35C3.31389 5.33889 3.25 5.33333 3.18333 5.33333C2.77222 5.33333 2.47222 5.48333 2.28333 5.78333C2.09444 6.08333 2 6.46111 2 6.91667C2 7.46111 2.08056 7.98889 2.24167 8.5C2.40278 9.01111 2.67778 9.45556 3.06667 9.83333C3.35556 10.1111 3.68333 10.3194 4.05 10.4583C4.41667 10.5972 4.8 10.6667 5.2 10.6667ZM6.01667 9.56417C6.39356 9.56417 6.68906 9.48211 6.90317 9.318C7.11728 9.15389 7.2265 8.92567 7.23083 8.63333C7.22228 8.11456 6.87139 7.61861 6.17817 7.1455C5.48506 6.67239 4.75344 6.43583 3.98333 6.43583C3.60644 6.43583 3.31094 6.51789 3.09683 6.682C2.88272 6.84611 2.7735 7.07433 2.76917 7.36667C2.77772 7.88544 3.12861 8.38139 3.82183 8.8545C4.51494 9.32761 5.24656 9.56417 6.01667 9.56417ZM5.95517 8.76917C5.4645 8.76917 4.96022 8.61856 4.44233 8.31733C3.92433 8.016 3.63161 7.70594 3.56417 7.38717C3.60261 7.33928 3.66328 7.29956 3.74617 7.268C3.82906 7.23633 3.92861 7.2205 4.04483 7.2205C4.5355 7.2205 5.03978 7.37283 5.55767 7.6775C6.07567 7.98228 6.36839 8.29406 6.43583 8.61283C6.39739 8.66072 6.33672 8.69878 6.25383 8.727C6.17094 8.75511 6.07139 8.76917 5.95517 8.76917ZM9.98333 9.58083C10.7534 9.58083 11.4851 9.3415 12.1782 8.86283C12.8714 8.38417 13.2223 7.88544 13.2308 7.36667C13.2265 7.07867 13.119 6.84878 12.9083 6.677C12.6977 6.50511 12.4004 6.41917 12.0167 6.41917C11.2509 6.42772 10.5203 6.67028 9.825 7.14683C9.12967 7.62328 8.77772 8.11878 8.76917 8.63333C8.7735 8.92133 8.88272 9.15122 9.09683 9.323C9.31094 9.49489 9.60644 9.58083 9.98333 9.58083ZM10.0448 8.77567C9.93283 8.77133 9.83606 8.75511 9.7545 8.727C9.67283 8.69878 9.61278 8.66072 9.57433 8.61283C9.64189 8.29828 9.93461 7.99039 10.4525 7.68917C10.9705 7.38783 11.4748 7.23289 11.9653 7.22433C12.0773 7.22867 12.1742 7.24489 12.2558 7.273C12.3374 7.30122 12.3974 7.33928 12.4358 7.38717C12.3684 7.70594 12.0757 8.01706 11.5577 8.3205C11.0398 8.62394 10.5355 8.77567 10.0448 8.77567Z" fill="var(--fill-0, #1C1B1F)"/>
</g>
</g>
</svg>
