<svg preserveAspectRatio="none" width="100%" height="100%" overflow="visible" style="display: block;" viewBox="0 0 16 16" fill="none" xmlns="http://www.w3.org/2000/svg">
<g id="account_balance">
<mask id="mask0_0_56" style="mask-type:alpha" maskUnits="userSpaceOnUse" x="0" y="0" width="16" height="16">
<rect id="Bounding box" width="16" height="16" fill="var(--fill-0, #D9D9D9)"/>
</mask>
<g mask="url(#mask0_0_56)">
<path id="account_balance_2" d="M3.8332 10.8334V6.83336C3.8332 6.69169 3.88114 6.57291 3.97703 6.47702C4.07292 6.38125 4.1917 6.33336 4.33336 6.33336C4.47514 6.33336 4.59392 6.38125 4.6897 6.47702C4.78536 6.57291 4.8332 6.69169 4.8332 6.83336V10.8334C4.8332 10.975 4.78525 11.0938 4.68936 11.1897C4.59347 11.2855 4.4747 11.3334 4.33303 11.3334C4.19125 11.3334 4.07253 11.2855 3.97686 11.1897C3.88108 11.0938 3.8332 10.975 3.8332 10.8334ZM7.49986 10.8334V6.83336C7.49986 6.69169 7.54781 6.57291 7.6437 6.47702C7.73958 6.38125 7.85836 6.33336 8.00003 6.33336C8.14181 6.33336 8.26053 6.38125 8.3562 6.47702C8.45197 6.57291 8.49986 6.69169 8.49986 6.83336V10.8334C8.49986 10.975 8.45192 11.0938 8.35603 11.1897C8.26014 11.2855 8.14136 11.3334 7.9997 11.3334C7.85792 11.3334 7.7392 11.2855 7.64353 11.1897C7.54775 11.0938 7.49986 10.975 7.49986 10.8334ZM2.34603 13.6667C2.20436 13.6667 2.08564 13.6187 1.98986 13.5229C1.89397 13.427 1.84603 13.3082 1.84603 13.1665C1.84603 13.0247 1.89397 12.906 1.98986 12.8104C2.08564 12.7146 2.20436 12.6667 2.34603 12.6667H13.6537C13.7954 12.6667 13.9141 12.7146 14.0099 12.8105C14.1058 12.9064 14.1537 13.0252 14.1537 13.1669C14.1537 13.3086 14.1058 13.4274 14.0099 13.523C13.9141 13.6188 13.7954 13.6667 13.6537 13.6667H2.34603ZM11.1665 10.8334V6.83336C11.1665 6.69169 11.2145 6.57291 11.3104 6.47702C11.4063 6.38125 11.525 6.33336 11.6667 6.33336C11.8085 6.33336 11.9272 6.38125 12.0229 6.47702C12.1186 6.57291 12.1665 6.69169 12.1665 6.83336V10.8334C12.1665 10.975 12.1186 11.0938 12.0227 11.1897C11.9268 11.2855 11.808 11.3334 11.6664 11.3334C11.5246 11.3334 11.4058 11.2855 11.31 11.1897C11.2144 11.0938 11.1665 10.975 11.1665 10.8334ZM13.6794 5.00002H2.27303C2.15436 5.00002 2.05353 4.95858 1.97053 4.87569C1.88753 4.79291 1.84603 4.6923 1.84603 4.57386V4.31352C1.84603 4.22675 1.86775 4.15191 1.9112 4.08902C1.95475 4.02625 2.01208 3.97519 2.0832 3.93586L7.47036 1.30002C7.63681 1.21969 7.81303 1.17952 7.99903 1.17952C8.18503 1.17952 8.36181 1.21969 8.52936 1.30002L13.8895 3.91919C13.9733 3.96197 14.0383 4.0218 14.0844 4.09869C14.1306 4.17569 14.1537 4.25836 14.1537 4.34669V4.52736C14.1537 4.6638 14.109 4.77669 14.0197 4.86603C13.9304 4.95536 13.8169 5.00002 13.6794 5.00002ZM4.21003 4.00002H11.7897L8.0897 2.20519C8.0597 2.1923 8.02975 2.18586 7.99986 2.18586C7.96997 2.18586 7.94003 2.1923 7.91003 2.20519L4.21003 4.00002Z" fill="var(--fill-0, #1C1B1F)"/>
</g>
</g>
</svg>
