<svg preserveAspectRatio="none" width="100%" height="100%" overflow="visible" style="display: block;" viewBox="0 0 13 13" fill="none" xmlns="http://www.w3.org/2000/svg">
<g id="Frame">
<path id="Vector" d="M5.41667 11.9167V8.66667H3.79167L5.44375 4.49583C5.53403 4.27917 5.67396 4.10764 5.86354 3.98125C6.05312 3.85486 6.26528 3.79167 6.5 3.79167C6.73472 3.79167 6.94687 3.85486 7.13646 3.98125C7.32604 4.10764 7.46597 4.27917 7.55625 4.49583L9.20833 8.66667H7.58333V11.9167H5.41667ZM5.7349 2.93177C5.52274 2.71962 5.41667 2.46458 5.41667 2.16667C5.41667 1.86875 5.52274 1.61372 5.7349 1.40156C5.94705 1.18941 6.20208 1.08333 6.5 1.08333C6.79792 1.08333 7.05295 1.18941 7.2651 1.40156C7.47726 1.61372 7.58333 1.86875 7.58333 2.16667C7.58333 2.46458 7.47726 2.71962 7.2651 2.93177C7.05295 3.14392 6.79792 3.25 6.5 3.25C6.20208 3.25 5.94705 3.14392 5.7349 2.93177Z" fill="var(--fill-0, #C458FE)"/>
</g>
</svg>
