<svg preserveAspectRatio="none" width="100%" height="100%" overflow="visible" style="display: block;" viewBox="0 0 10 10" fill="none" xmlns="http://www.w3.org/2000/svg">
<g id="Instagram_Glyph_Black 1" clip-path="url(#clip0_0_9)">
<path id="Vector" d="M2.92919 0.0350391C2.39719 0.0601391 2.03389 0.145039 1.71629 0.269839C1.38759 0.397939 1.10899 0.569839 0.831788 0.848039C0.554588 1.12624 0.383888 1.40504 0.256688 1.73424C0.133588 2.05254 0.0501876 2.41614 0.0266876 2.94844C0.0031876 3.48074 -0.0020124 3.65184 0.0005876 5.00964C0.0031876 6.36744 0.0091876 6.53764 0.0349876 7.07104C0.0603876 7.60294 0.144988 7.96614 0.269788 8.28384C0.398088 8.61254 0.569788 8.89104 0.848088 9.16834C1.12639 9.44564 1.40499 9.61594 1.73499 9.74334C2.05299 9.86624 2.41669 9.95004 2.94889 9.97334C3.48109 9.99664 3.65239 10.002 5.00979 9.99944C6.36719 9.99684 6.53809 9.99084 7.07139 9.96554C7.60469 9.94024 7.96599 9.85504 8.28379 9.73084C8.61249 9.60224 8.89119 9.43084 9.16829 9.15244C9.44539 8.87404 9.61599 8.59504 9.74309 8.26564C9.86629 7.94764 9.94999 7.58394 9.97309 7.05214C9.99639 6.51844 10.0019 6.34804 9.99929 4.99044C9.99669 3.63284 9.99059 3.46264 9.96529 2.92944C9.93999 2.39624 9.85529 2.03414 9.73059 1.71624C9.60209 1.38754 9.43059 1.10924 9.15239 0.831739C8.87419 0.554239 8.59499 0.383739 8.26569 0.256939C7.94749 0.133839 7.58399 0.0499391 7.05179 0.0269391C6.51959 0.00393912 6.34829 -0.00196088 4.99039 0.000639118C3.63249 0.00323912 3.46249 0.00903912 2.92919 0.0350391ZM2.98759 9.07384C2.50009 9.05264 2.23539 8.97164 2.05899 8.90384C1.82539 8.81384 1.65899 8.70504 1.48319 8.53094C1.30739 8.35684 1.19939 8.18984 1.10819 7.95674C1.03969 7.78034 0.957188 7.51594 0.934388 7.02844C0.909588 6.50154 0.904388 6.34334 0.901488 5.00844C0.898588 3.67354 0.903688 3.51554 0.926788 2.98844C0.947588 2.50134 1.02909 2.23634 1.09679 2.06004C1.18679 1.82614 1.29519 1.66004 1.46969 1.48434C1.64419 1.30864 1.81069 1.20044 2.04399 1.10924C2.22019 1.04044 2.48459 0.958639 2.97189 0.935439C3.49919 0.910439 3.65719 0.905439 4.99189 0.902539C6.32659 0.899639 6.48499 0.904639 7.01249 0.927839C7.49959 0.949039 7.76469 1.02974 7.94079 1.09784C8.17449 1.18784 8.34079 1.29594 8.51649 1.47074C8.69219 1.64554 8.80049 1.81144 8.89169 2.04524C8.96059 2.22094 9.04239 2.48524 9.06539 2.97284C9.09049 3.50014 9.09619 3.65824 9.09859 4.99284C9.10099 6.32744 9.09629 6.48594 9.07319 7.01284C9.05189 7.50034 8.97109 7.76514 8.90319 7.94174C8.81319 8.17524 8.70469 8.34174 8.53009 8.51734C8.35549 8.69294 8.18919 8.80114 7.95579 8.89234C7.77979 8.96104 7.51509 9.04304 7.02819 9.06624C6.50089 9.09104 6.34289 9.09624 5.00769 9.09914C3.67249 9.10204 3.51499 9.09664 2.98769 9.07384M7.06369 2.32774C7.06389 2.44642 7.09927 2.56237 7.16538 2.66093C7.23148 2.7595 7.32532 2.83624 7.43505 2.88147C7.54477 2.92669 7.66544 2.93836 7.7818 2.915C7.89815 2.89164 8.00496 2.83429 8.08873 2.75022C8.17249 2.66615 8.22944 2.55913 8.25238 2.44269C8.27531 2.32625 8.2632 2.20562 8.21757 2.09607C8.17195 1.98651 8.09486 1.89294 7.99605 1.8272C7.89725 1.76146 7.78116 1.7265 7.66249 1.72674C7.50339 1.72706 7.35094 1.79055 7.23865 1.90325C7.12635 2.01596 7.06342 2.16864 7.06369 2.32774ZM2.43269 5.00504C2.43549 6.42304 3.58709 7.56994 5.00479 7.56724C6.42249 7.56454 7.57019 6.41304 7.56749 4.99504C7.56479 3.57704 6.41289 2.42984 4.99499 2.43264C3.57709 2.43544 2.42999 3.58724 2.43269 5.00504ZM3.33329 5.00324C3.33264 4.6736 3.42975 4.35117 3.61234 4.07672C3.79494 3.80227 4.05482 3.58813 4.35912 3.46138C4.66342 3.33463 4.99847 3.30096 5.3219 3.36463C5.64534 3.4283 5.94263 3.58645 6.17618 3.81908C6.40974 4.05171 6.56906 4.34837 6.63401 4.67155C6.69896 4.99473 6.66662 5.32991 6.54107 5.63471C6.41553 5.93951 6.20242 6.20023 5.9287 6.38392C5.65497 6.5676 5.33293 6.66599 5.00329 6.66664C4.78441 6.6671 4.56758 6.62444 4.36519 6.54109C4.1628 6.45774 3.97881 6.33533 3.82373 6.18087C3.66865 6.0264 3.54552 5.8429 3.46137 5.64084C3.37722 5.43878 3.33369 5.22212 3.33329 5.00324Z" fill="var(--fill-0, #757575)"/>
</g>
<defs>
<clipPath id="clip0_0_9">
</clipPath>
</defs>
</svg>
