<svg preserveAspectRatio="none" width="100%" height="100%" overflow="visible" style="display: block;" viewBox="0 0 16 16" fill="none" xmlns="http://www.w3.org/2000/svg">
<g id="Frame" clip-path="url(#clip0_0_26)">
<path id="Vector" d="M13.5 7.5C13.3618 7.50032 13.2238 7.51181 13.0875 7.53438L12.7237 6.58813C12.9784 6.52969 13.2388 6.50012 13.5 6.5C13.6326 6.5 13.7598 6.44732 13.8535 6.35355C13.9473 6.25979 14 6.13261 14 6C14 5.86739 13.9473 5.74021 13.8535 5.64645C13.7598 5.55268 13.6326 5.5 13.5 5.5H12.305L11.4669 3.32063C11.4306 3.22624 11.3666 3.14508 11.2832 3.08783C11.1999 3.03059 11.1011 2.99997 11 3H8.99999C8.86739 3 8.74021 3.05268 8.64644 3.14645C8.55267 3.24021 8.49999 3.36739 8.49999 3.5C8.49999 3.63261 8.55267 3.75979 8.64644 3.85355C8.74021 3.94732 8.86739 4 8.99999 4H10.6569L11.2337 5.5H9.49999C8.34374 5.5 7.40624 5.76937 6.78937 6.27875C6.6442 6.39585 6.46918 6.47003 6.28408 6.49289C6.09897 6.51575 5.91116 6.48639 5.74187 6.40812C5.08062 6.1075 1.94562 4.83312 1.66937 4.725L1.31249 4.585C1.21305 4.54152 1.10776 4.51289 0.999993 4.5C0.883424 4.50028 0.770617 4.54128 0.681072 4.61592C0.591528 4.69055 0.530875 4.79413 0.509599 4.90874C0.488322 5.02335 0.50776 5.14179 0.564551 5.24359C0.621342 5.34539 0.711917 5.42415 0.820618 5.46625C0.849368 5.4775 3.76999 6.61 5.32874 7.31812C5.66873 7.4728 6.04511 7.52965 6.41562 7.48229C6.78612 7.43492 7.13609 7.28523 7.42624 7.05C7.72999 6.8 8.33687 6.5 9.50062 6.5H10.6769C9.94698 7.08594 9.41875 7.8856 9.16624 8.78687C9.10575 8.99384 8.97941 9.17544 8.8064 9.30414C8.63338 9.43283 8.42312 9.50159 8.20749 9.5H4.94999C4.82609 8.89298 4.4812 8.35359 3.9822 7.9864C3.4832 7.61921 2.86563 7.45039 2.24923 7.51266C1.63283 7.57493 1.06151 7.86386 0.646025 8.32342C0.230543 8.78299 0.00050354 9.38046 0.00050354 10C0.00050354 10.6195 0.230543 11.217 0.646025 11.6766C1.06151 12.1361 1.63283 12.4251 2.24923 12.4873C2.86563 12.5496 3.4832 12.3808 3.9822 12.0136C4.4812 11.6464 4.82609 11.107 4.94999 10.5H8.20749C8.64116 10.501 9.06331 10.3605 9.41 10.1C9.75669 9.83949 10.009 9.47306 10.1287 9.05625C10.2535 8.6129 10.4645 8.19852 10.7496 7.83687C11.0348 7.47523 11.3886 7.17342 11.7906 6.94875L12.1544 7.89437C11.6476 8.21874 11.2748 8.71499 11.1044 9.29205C10.934 9.86911 10.9775 10.4883 11.2268 11.0359C11.4761 11.5835 11.9145 12.0228 12.4616 12.2732C13.0087 12.5236 13.6278 12.5683 14.2052 12.3991C14.7826 12.2299 15.2796 11.8581 15.605 11.352C15.9304 10.8458 16.0623 10.2393 15.9766 9.6438C15.8909 9.04825 15.5932 8.5036 15.1383 8.1098C14.6834 7.71601 14.1017 7.4995 13.5 7.5ZM2.49999 10.5H3.91374C3.7958 10.8336 3.56371 11.1148 3.2585 11.2938C2.9533 11.4729 2.59462 11.5382 2.24588 11.4784C1.89713 11.4186 1.58076 11.2374 1.35269 10.9668C1.12462 10.6963 0.99953 10.3538 0.99953 10C0.99953 9.64616 1.12462 9.3037 1.35269 9.03317C1.58076 8.76264 1.89713 8.58144 2.24588 8.5216C2.59462 8.46177 2.9533 8.52715 3.2585 8.70618C3.56371 8.88522 3.7958 9.16639 3.91374 9.5H2.49999C2.36739 9.5 2.24021 9.55268 2.14644 9.64645C2.05267 9.74021 1.99999 9.86739 1.99999 10C1.99999 10.1326 2.05267 10.2598 2.14644 10.3536C2.24021 10.4473 2.36739 10.5 2.49999 10.5ZM13.5 11.5C13.1936 11.4996 12.8947 11.4054 12.6434 11.2301C12.3922 11.0547 12.2006 10.8066 12.0946 10.5192C11.9885 10.2317 11.973 9.9187 12.0502 9.62219C12.1274 9.32568 12.2935 9.05991 12.5262 8.86063L13.0331 10.1794C13.0807 10.3032 13.1755 10.4031 13.2967 10.457C13.4179 10.5109 13.5555 10.5144 13.6794 10.4669C13.8032 10.4193 13.903 10.3245 13.957 10.2033C14.0109 10.0821 14.0144 9.94445 13.9669 9.82063L13.4594 8.5H13.5C13.8978 8.5 14.2793 8.65804 14.5607 8.93934C14.842 9.22064 15 9.60218 15 10C15 10.3978 14.842 10.7794 14.5607 11.0607C14.2793 11.342 13.8978 11.5 13.5 11.5Z" fill="var(--fill-0, #757575)"/>
</g>
<defs>
<clipPath id="clip0_0_26">

</clipPath>
</defs>
</svg>
