<svg preserveAspectRatio="none" width="100%" height="100%" overflow="visible" style="display: block;" viewBox="0 0 16 16" fill="none" xmlns="http://www.w3.org/2000/svg">
<g id="Frame">
<path id="Vector" d="M8.50001 11.5C9.48891 11.5 10.4556 11.2068 11.2779 10.6573C12.1001 10.1079 12.741 9.32705 13.1194 8.41341C13.4978 7.49978 13.5969 6.49445 13.4039 5.52455C13.211 4.55464 12.7348 3.66373 12.0355 2.96446C11.3363 2.2652 10.4454 1.789 9.47546 1.59607C8.50555 1.40315 7.50022 1.50216 6.58659 1.8806C5.67296 2.25904 4.89207 2.8999 4.34266 3.72215C3.79325 4.54439 3.50001 5.51109 3.50001 6.5C3.5015 7.82562 4.02876 9.09653 4.96612 10.0339C5.90348 10.9712 7.17438 11.4985 8.50001 11.5ZM8.50001 2.5C9.29113 2.5 10.0645 2.73459 10.7223 3.17412C11.3801 3.61364 11.8928 4.23836 12.1955 4.96926C12.4983 5.70017 12.5775 6.50443 12.4231 7.28036C12.2688 8.05628 11.8878 8.76901 11.3284 9.32842C10.769 9.88783 10.0563 10.2688 9.28037 10.4231C8.50444 10.5775 7.70018 10.4983 6.96927 10.1955C6.23837 9.89277 5.61365 9.38007 5.17413 8.72228C4.7346 8.06448 4.50001 7.29112 4.50001 6.5C4.50116 5.43949 4.92296 4.42274 5.67286 3.67285C6.42275 2.92295 7.4395 2.50116 8.50001 2.5ZM13.3606 10.8437C13.4062 10.8911 13.442 10.947 13.4659 11.0082C13.4898 11.0694 13.5015 11.1348 13.5001 11.2005C13.4988 11.2662 13.4845 11.331 13.4581 11.3912C13.4317 11.4514 13.3937 11.5058 13.3463 11.5512C12.1696 12.6859 10.6307 13.3697 9.00001 13.4825V14.5H10.5C10.6326 14.5 10.7598 14.5527 10.8536 14.6464C10.9473 14.7402 11 14.8674 11 15C11 15.1326 10.9473 15.2598 10.8536 15.3536C10.7598 15.4473 10.6326 15.5 10.5 15.5H6.50001C6.3674 15.5 6.24022 15.4473 6.14645 15.3536C6.05268 15.2598 6.00001 15.1326 6.00001 15C6.00001 14.8674 6.05268 14.7402 6.14645 14.6464C6.24022 14.5527 6.3674 14.5 6.50001 14.5H8.00001V13.4819C6.67388 13.3869 5.40223 12.9162 4.33384 12.1249C3.26545 11.3336 2.4445 10.2544 1.96705 9.01356C1.4896 7.77273 1.3754 6.42159 1.6378 5.11822C1.90019 3.81485 2.52835 2.61316 3.44876 1.65375C3.49394 1.6052 3.54832 1.56613 3.60874 1.5388C3.66917 1.51148 3.73443 1.49645 3.80071 1.49458C3.867 1.49272 3.933 1.50406 3.99487 1.52795C4.05673 1.55183 4.11323 1.58779 4.16106 1.63372C4.2089 1.67965 4.24712 1.73463 4.2735 1.79547C4.29988 1.85632 4.3139 1.9218 4.31473 1.98811C4.31556 2.05442 4.3032 2.12023 4.27835 2.18172C4.2535 2.2432 4.21667 2.29913 4.17001 2.34625C3.08006 3.47842 2.47782 4.99303 2.49275 6.56452C2.50768 8.136 3.13858 9.6389 4.24984 10.7502C5.3611 11.8614 6.864 12.4923 8.43549 12.5073C10.007 12.5222 11.5216 11.9199 12.6538 10.83C12.7493 10.7381 12.8775 10.6879 13.01 10.6905C13.1426 10.6931 13.2687 10.7482 13.3606 10.8437Z" fill="var(--fill-0, #757575)"/>
</g>
</svg>
