<svg preserveAspectRatio="none" width="100%" height="100%" overflow="visible" style="display: block;" viewBox="0 0 16 16" fill="none" xmlns="http://www.w3.org/2000/svg">
<g id="icon-events" clip-path="url(#clip0_0_29)">
<g id="Vector">
</g>
<path id="Vector_2" d="M8.5264 2.76179C8.4424 2.54402 8.23335 2.40029 8.00002 2.40029C7.8861 2.4006 7.77492 2.43526 7.68101 2.49976C7.5871 2.56425 7.51483 2.65557 7.47365 2.76179L6.44702 5.43163C6.3582 5.66259 6.22187 5.87232 6.04684 6.04724C5.87181 6.22216 5.66199 6.35837 5.43098 6.44705L2.76176 7.47367C2.65526 7.51449 2.56364 7.58666 2.49901 7.68064C2.43438 7.77462 2.39978 7.88599 2.39978 8.00005C2.39978 8.11411 2.43438 8.22548 2.49901 8.31947C2.56364 8.41345 2.65526 8.48561 2.76176 8.52643L5.4316 9.55305C5.66256 9.64187 5.87229 9.77821 6.04722 9.95324C6.22214 10.1283 6.35835 10.3381 6.44702 10.5691L7.47365 13.2383C7.51446 13.3448 7.58663 13.4364 7.68061 13.5011C7.77459 13.5657 7.88596 13.6003 8.00002 13.6003C8.11408 13.6003 8.22546 13.5657 8.31944 13.5011C8.41342 13.4364 8.48558 13.3448 8.5264 13.2383L9.55302 10.5685C9.64184 10.3375 9.77818 10.1278 9.95321 9.95286C10.1282 9.77794 10.3381 9.64173 10.5691 9.55305L13.2383 8.52643C13.3448 8.48561 13.4364 8.41345 13.501 8.31947C13.5657 8.22548 13.6003 8.11411 13.6003 8.00005C13.6003 7.88599 13.5657 7.77462 13.501 7.68064C13.4364 7.58666 13.3448 7.51449 13.2383 7.47367L10.5684 6.44705C10.3377 6.35789 10.1281 6.22144 9.95324 6.04645C9.77837 5.87147 9.64204 5.66183 9.55302 5.43101L8.5264 2.76179Z" stroke="var(--stroke-0, #757575)" stroke-width="0.895961" stroke-linecap="round" stroke-linejoin="round"/>
</g>
<defs>
<clipPath id="clip0_0_29">
<rect width="16" height="16" fill="white"/>
</clipPath>
</defs>
</svg>
