<svg preserveAspectRatio="none" width="100%" height="100%" overflow="visible" style="display: block;" viewBox="0 0 16 16" fill="none" xmlns="http://www.w3.org/2000/svg">
<g id="Frame">
<path id="Vector" d="M14.8906 14.3125C14.8496 14.3638 14.7989 14.4066 14.7413 14.4383C14.6838 14.47 14.6206 14.49 14.5553 14.4973C14.49 14.5045 14.4239 14.4989 14.3608 14.4806C14.2977 14.4623 14.2388 14.4317 14.1875 14.3906C14.1644 14.3719 11.7613 12.5 8 12.5C4.23875 12.5 1.835 14.375 1.8125 14.3913C1.76116 14.4323 1.70224 14.4628 1.63911 14.4811C1.57597 14.4994 1.50986 14.505 1.44454 14.4977C1.31262 14.483 1.19194 14.4165 1.10906 14.3128C1.02618 14.2091 0.987886 14.0768 1.0026 13.9449C1.01731 13.8129 1.08382 13.6923 1.1875 13.6094C1.28938 13.5281 3.595 11.7181 7.33063 11.5188C7.1363 10.7445 7.06689 9.94425 7.125 9.14813C7.23375 7.79125 7.8075 5.98376 9.8125 4.61813C9.4704 4.53329 9.11866 4.49358 8.76625 4.50001C7.57875 4.53876 6.8325 5.23188 6.485 6.62001C6.4582 6.72841 6.39589 6.82472 6.30799 6.89359C6.22009 6.96246 6.11167 6.99992 6 7.00001C5.95911 7.00022 5.91836 6.99518 5.87875 6.98501C5.75013 6.95283 5.63956 6.87089 5.57134 6.7572C5.50313 6.64351 5.48286 6.50738 5.515 6.37876C6.09313 4.06938 7.58438 3.54001 8.73375 3.50376C9.19024 3.49382 9.64599 3.54532 10.0888 3.65688C9.84938 3.26126 9.49938 2.84876 9.01313 2.64126C8.38813 2.37626 7.6275 2.49188 6.74375 2.98563C6.62772 3.05028 6.49076 3.06618 6.363 3.02985C6.23524 2.99351 6.12715 2.90791 6.0625 2.79188C5.99785 2.67585 5.98195 2.53889 6.01828 2.41113C6.05462 2.28337 6.14022 2.17528 6.25625 2.11063C7.4275 1.45751 8.48875 1.32688 9.41125 1.72313C10.1919 2.05813 10.7069 2.70938 11.0281 3.28563C11.4144 2.68313 11.8956 2.27501 12.4275 2.10188C13.1688 1.86001 13.9675 2.05688 14.8025 2.68751C14.9036 2.76902 14.9691 2.88669 14.985 3.0156C15.0009 3.14451 14.966 3.27455 14.8877 3.37818C14.8094 3.48182 14.6938 3.55092 14.5655 3.57086C14.4371 3.5908 14.306 3.56001 14.2 3.48501C13.6431 3.06438 13.1519 2.91876 12.7406 3.05188C12.285 3.19876 11.9363 3.67688 11.7175 4.09001C12.1672 4.18117 12.6 4.34207 13 4.56688C13.9131 5.08876 15 6.195 15 8.50063C15 8.63324 14.9473 8.76042 14.8536 8.85418C14.7598 8.94795 14.6326 9.00063 14.5 9.00063C14.3674 9.00063 14.2402 8.94795 14.1464 8.85418C14.0527 8.76042 14 8.63324 14 8.50063C14 7.03438 13.4956 6.00063 12.5 5.43813C12.384 5.37226 12.264 5.31381 12.1406 5.26313C12.4554 5.90315 12.5659 6.6245 12.4569 7.32938C12.3783 7.85088 12.1895 8.34966 11.9031 8.7925C11.8265 8.89999 11.7104 8.97281 11.5803 8.99506C11.4502 9.01732 11.3165 8.9872 11.2085 8.91129C11.1005 8.83538 11.0269 8.71983 11.0038 8.58985C10.9806 8.45988 11.0098 8.32603 11.085 8.2175C11.1313 8.14938 12.1056 6.69376 10.8813 5.13188C9.19375 6.08251 8.26313 7.46001 8.12125 9.23126C8.06599 9.9986 8.14703 10.7697 8.36063 11.5088C12.2763 11.6219 14.7056 13.5294 14.8106 13.6125C14.9137 13.695 14.9799 13.8149 14.9949 13.946C15.0099 14.0772 14.9724 14.2089 14.8906 14.3125ZM1.5 8.75001C1.5 8.40389 1.60264 8.06554 1.79493 7.77776C1.98722 7.48997 2.26053 7.26567 2.58031 7.13322C2.90008 7.00076 3.25194 6.96611 3.59141 7.03363C3.93088 7.10115 4.2427 7.26783 4.48744 7.51257C4.73218 7.75731 4.89885 8.06913 4.96638 8.4086C5.0339 8.74806 4.99924 9.09993 4.86679 9.4197C4.73434 9.73947 4.51004 10.0128 4.22225 10.2051C3.93446 10.3974 3.59612 10.5 3.25 10.5C2.78587 10.5 2.34075 10.3156 2.01256 9.98744C1.68438 9.65925 1.5 9.21413 1.5 8.75001ZM2.5 8.75001C2.5 8.89834 2.54399 9.04335 2.6264 9.16668C2.70881 9.29002 2.82594 9.38615 2.96299 9.44291C3.10003 9.49968 3.25083 9.51453 3.39632 9.48559C3.54181 9.45666 3.67544 9.38522 3.78033 9.28033C3.88522 9.17545 3.95665 9.04181 3.98559 8.89632C4.01453 8.75084 3.99968 8.60004 3.94291 8.46299C3.88615 8.32595 3.79002 8.20881 3.66668 8.1264C3.54334 8.04399 3.39834 8.00001 3.25 8.00001C3.05109 8.00001 2.86032 8.07902 2.71967 8.21968C2.57902 8.36033 2.5 8.55109 2.5 8.75001Z" fill="var(--fill-0, #757575)"/>
</g>
</svg>
