<svg preserveAspectRatio="none" width="100%" height="100%" overflow="visible" style="display: block;" viewBox="0 0 14 14" fill="none" xmlns="http://www.w3.org/2000/svg">
<g id="your_trips">
<mask id="mask0_0_525" style="mask-type:alpha" maskUnits="userSpaceOnUse" x="0" y="0" width="14" height="14">
<rect id="Bounding box" width="14" height="14" fill="var(--fill-0, #D9D9D9)"/>
</mask>
<g mask="url(#mask0_0_525)">
<path id="your_trips_2" d="M5.25 10.3542H8.75C8.87415 10.3542 8.97808 10.3123 9.06179 10.2285C9.1456 10.1448 9.1875 10.0409 9.1875 9.91672C9.1875 9.79257 9.1456 9.68864 9.06179 9.60493C8.97808 9.52112 8.87415 9.47922 8.75 9.47922H5.25C5.12585 9.47922 5.02192 9.52112 4.93821 9.60493C4.8544 9.68864 4.8125 9.79257 4.8125 9.91672C4.8125 10.0409 4.8544 10.1448 4.93821 10.2285C5.02192 10.3123 5.12585 10.3542 5.25 10.3542ZM4.26285 12.5417C3.96817 12.5417 3.71875 12.4396 3.51458 12.2355C3.31042 12.0313 3.20833 11.7819 3.20833 11.4872V7.00005C3.20833 6.21109 3.42183 5.50866 3.84883 4.89276C4.27593 4.27686 4.82524 3.82536 5.49675 3.53826V3.20839C5.49675 2.78965 5.64258 2.43445 5.93425 2.14278C6.22592 1.85111 6.58117 1.70528 7 1.70528C7.41883 1.70528 7.77408 1.85111 8.06575 2.14278C8.35742 2.43445 8.50325 2.78965 8.50325 3.20839V3.53826C9.17476 3.82536 9.72407 4.27686 10.1512 4.89276C10.5782 5.50866 10.7917 6.21109 10.7917 7.00005V11.4872C10.7917 11.7819 10.6896 12.0313 10.4854 12.2355C10.2813 12.4396 10.0318 12.5417 9.73715 12.5417H4.26285ZM6.37175 3.27795C6.48249 3.25481 6.58719 3.23741 6.68587 3.22574C6.78465 3.21417 6.88936 3.20839 7 3.20839C7.11064 3.20839 7.21535 3.21417 7.31413 3.22574C7.41281 3.23741 7.51751 3.25481 7.62825 3.27795V3.20839C7.62825 3.03193 7.56768 2.88313 7.44654 2.76199C7.32531 2.64075 7.17646 2.58014 7 2.58014C6.82354 2.58014 6.67469 2.64075 6.55346 2.76199C6.43232 2.88313 6.37175 3.03193 6.37175 3.20839V3.27795ZM7 7.5688L7.66967 8.0747C7.72431 8.11582 7.77705 8.11733 7.8279 8.07922C7.87874 8.04111 7.89444 7.99177 7.875 7.9312L7.62037 7.09762L8.2845 6.62089C8.33904 6.57976 8.35659 6.53042 8.33715 6.47286C8.3177 6.41521 8.27473 6.38639 8.20823 6.38639H7.38923L7.12906 5.50584C7.10962 5.44527 7.0666 5.41499 7 5.41499C6.9334 5.41499 6.89038 5.44527 6.87094 5.50584L6.61077 6.38639H5.79177C5.72527 6.38639 5.6823 6.41521 5.66285 6.47286C5.64341 6.53042 5.66096 6.57976 5.7155 6.62089L6.37963 7.09762L6.125 7.9312C6.10556 7.99177 6.12126 8.04111 6.1721 8.07922C6.22295 8.11733 6.27569 8.11582 6.33033 8.0747L7 7.5688Z" fill="var(--fill-0, #1B0052)"/>
</g>
</g>
</svg>
