<svg preserveAspectRatio="none" width="100%" height="100%" overflow="visible" style="display: block;" viewBox="0 0 11.4277 10.8" fill="none" xmlns="http://www.w3.org/2000/svg">
<path id="person" d="M5.71385 4.89759C5.03567 4.89759 4.45803 4.65904 3.98092 4.18193C3.50368 3.70469 3.26506 3.12697 3.26506 2.44879C3.26506 1.77075 3.50368 1.19311 3.98092 0.715865C4.45803 0.238622 5.03567 0 5.71385 0C6.39203 0 6.96968 0.238622 7.44678 0.715865C7.92403 1.19311 8.16265 1.77075 8.16265 2.44879C8.16265 3.12697 7.92403 3.70469 7.44678 4.18193C6.96968 4.65904 6.39203 4.89759 5.71385 4.89759ZM0 9.95231V9.45622C0 9.11924 0.0980878 8.80396 0.294263 8.51038C0.490575 8.21693 0.754569 7.98906 1.08624 7.82676C1.85653 7.4574 2.62728 7.18034 3.39852 6.99559C4.16975 6.81098 4.94153 6.71868 5.71385 6.71868C6.48618 6.71868 7.25796 6.81098 8.02919 6.99559C8.80042 7.18034 9.57118 7.4574 10.3415 7.82676C10.6731 7.98906 10.9371 8.21693 11.1334 8.51038C11.3296 8.80396 11.4277 9.11924 11.4277 9.45622V9.95231C11.4277 10.1919 11.3464 10.393 11.1836 10.5557C11.0209 10.7186 10.8197 10.8 10.58 10.8H0.847691C0.607981 10.8 0.406772 10.7186 0.244063 10.5557C0.0813545 10.393 0 10.1919 0 9.95231Z" fill="var(--fill-0, white)"/>
</svg>
