<svg preserveAspectRatio="none" width="100%" height="100%" overflow="visible" style="display: block;" viewBox="0 0 14 14" fill="none" xmlns="http://www.w3.org/2000/svg">
<g id="hand_meal">
<mask id="mask0_0_20" style="mask-type:alpha" maskUnits="userSpaceOnUse" x="0" y="0" width="14" height="14">
<rect id="Bounding box" width="14" height="14" fill="var(--fill-0, #D9D9D9)"/>
</mask>
<g mask="url(#mask0_0_20)">
<path id="hand_meal_2" d="M1.44393 7.01123C1.36838 7.01123 1.30334 6.98338 1.2488 6.92767C1.19416 6.87196 1.16684 6.80259 1.16684 6.71956C1.16684 6.64402 1.1947 6.5765 1.2504 6.517C1.30611 6.4576 1.37548 6.4279 1.45851 6.4279H2.35261C2.51118 5.28291 2.99486 4.33086 3.80365 3.57175C4.61245 2.81274 5.58073 2.40105 6.70851 2.33669V2.04167C6.70851 1.96612 6.73636 1.89865 6.79207 1.83925C6.84778 1.77975 6.91715 1.75 7.00018 1.75C7.07572 1.75 7.14319 1.77975 7.20259 1.83925C7.26209 1.89865 7.29184 1.96612 7.29184 2.04167V2.33669C8.4099 2.40105 9.37332 2.81274 10.1821 3.57175C10.9909 4.33086 11.4746 5.28291 11.6332 6.4279H12.5418C12.6174 6.4279 12.6849 6.4576 12.7443 6.517C12.8038 6.5765 12.8335 6.64402 12.8335 6.71956C12.8335 6.80259 12.8038 6.87196 12.7443 6.92767C12.6849 6.98338 12.6174 7.01123 12.5418 7.01123H1.44393ZM4.53224 11.6779V7.59456H9.19438C9.30055 7.59456 9.39106 7.62222 9.46593 7.67754C9.54069 7.73286 9.59377 7.80281 9.62518 7.8874C9.65658 7.97188 9.66572 8.05749 9.65259 8.14421C9.63956 8.23093 9.59455 8.30686 9.51755 8.372L8.7019 9.07535H6.47299C6.39142 9.07535 6.32613 9.10228 6.27713 9.15615C6.22813 9.20991 6.20363 9.27646 6.20363 9.35579C6.20363 9.42978 6.22813 9.49317 6.27713 9.54596C6.32613 9.59865 6.3903 9.625 6.46963 9.625H8.54047C8.65412 9.625 8.76349 9.60687 8.86859 9.5706C8.97359 9.53434 9.06838 9.47994 9.15297 9.40742L10.1368 8.56829C10.3057 8.42771 10.4888 8.32674 10.6858 8.2654C10.8829 8.20405 11.0831 8.18013 11.2865 8.19365C11.49 8.21455 11.6831 8.26933 11.8659 8.358C12.0488 8.44657 12.2094 8.57276 12.3477 8.73658L9.43676 11.172C9.23784 11.3395 9.01943 11.4657 8.78153 11.5506C8.54372 11.6355 8.2962 11.6779 8.03895 11.6779H4.53224ZM2.22136 12.25C2.08593 12.25 1.97354 12.2053 1.8842 12.116C1.79485 12.0266 1.75018 11.9142 1.75018 11.7788V8.05452C1.75018 7.92658 1.79485 7.81608 1.8842 7.72304C1.97354 7.6299 2.08593 7.58333 2.22136 7.58333H3.9489V11.7788C3.9489 11.9142 3.90234 12.0266 3.8092 12.116C3.71615 12.2053 3.60566 12.25 3.47772 12.25H2.22136Z" fill="var(--fill-0, #287686)"/>
</g>
</g>
</svg>
