<svg preserveAspectRatio="none" width="100%" height="100%" overflow="visible" style="display: block;" viewBox="0 0 14 14" fill="none" xmlns="http://www.w3.org/2000/svg">
<g id="local_taxi">
<mask id="mask0_0_23" style="mask-type:alpha" maskUnits="userSpaceOnUse" x="0" y="0" width="14" height="14">
<rect id="Bounding box" width="14" height="14" fill="var(--fill-0, #D9D9D9)"/>
</mask>
<g mask="url(#mask0_0_23)">
<path id="local_taxi_2" d="M3.0511 10.5V11.3076C3.0511 11.4074 3.0161 11.4921 2.9461 11.5619C2.876 11.6317 2.79088 11.6666 2.69074 11.6666C2.5907 11.6666 2.50612 11.6317 2.43699 11.5619C2.36777 11.4921 2.33316 11.4074 2.33316 11.3076V7.24906C2.33316 7.19598 2.33617 7.14285 2.3422 7.08967C2.34813 7.03658 2.35994 6.98374 2.37764 6.93114L3.3731 4.13042C3.43512 3.94365 3.54756 3.79189 3.71041 3.67512C3.87326 3.55836 4.05545 3.49998 4.25699 3.49998H5.78824V3.07371C5.78824 2.94022 5.8334 2.82832 5.92372 2.738C6.01404 2.64768 6.12594 2.60252 6.25943 2.60252H7.78514C7.91862 2.60252 8.03053 2.64768 8.12085 2.738C8.21107 2.82832 8.25618 2.94022 8.25618 3.07371V3.49998H9.74266C9.9442 3.49998 10.1264 3.55836 10.2892 3.67512C10.4521 3.79189 10.5645 3.94365 10.6266 4.13042L11.622 6.93114C11.6397 6.98374 11.6515 7.03658 11.6575 7.08967C11.6635 7.14285 11.6665 7.19598 11.6665 7.24906V11.3076C11.6665 11.4074 11.6314 11.4921 11.5613 11.5619C11.4913 11.6317 11.4063 11.6666 11.3061 11.6666C11.2061 11.6666 11.1215 11.6317 11.0522 11.5619C10.9831 11.4921 10.9486 11.4074 10.9486 11.3076V10.5H3.0511ZM3.15887 6.50633H10.8408L10.0714 4.31883C10.0414 4.24407 9.99651 4.18612 9.93662 4.145C9.87683 4.10387 9.8058 4.08331 9.72355 4.08331H4.2761C4.19385 4.08331 4.12282 4.10387 4.06303 4.145C4.00314 4.18612 3.95823 4.24407 3.92828 4.31883L3.15887 6.50633ZM4.33253 9.15379C4.51405 9.15379 4.66742 9.0903 4.79264 8.96333C4.91796 8.83626 4.98062 8.68202 4.98062 8.5006C4.98062 8.31909 4.91708 8.16572 4.79001 8.0405C4.66304 7.91518 4.5088 7.85252 4.32728 7.85252C4.14587 7.85252 3.9925 7.91605 3.86718 8.04312C3.74196 8.1701 3.67935 8.32434 3.67935 8.50585C3.67935 8.68727 3.74283 8.84064 3.8698 8.96596C3.99687 9.09118 4.15112 9.15379 4.33253 9.15379ZM9.67237 9.15379C9.85378 9.15379 10.0072 9.0903 10.1325 8.96333C10.2577 8.83626 10.3203 8.68202 10.3203 8.5006C10.3203 8.31909 10.2568 8.16572 10.1298 8.0405C10.0028 7.91518 9.84853 7.85252 9.66712 7.85252C9.4856 7.85252 9.33223 7.91605 9.20701 8.04312C9.08169 8.1701 9.01903 8.32434 9.01903 8.50585C9.01903 8.68727 9.08257 8.84064 9.20964 8.96596C9.33661 9.09118 9.49085 9.15379 9.67237 9.15379Z" fill="var(--fill-0, #287686)"/>
</g>
</g>
</svg>
