<svg preserveAspectRatio="none" width="100%" height="100%" overflow="visible" style="display: block;" viewBox="0 0 16 16" fill="none" xmlns="http://www.w3.org/2000/svg">
<g id="your_trips">
<mask id="mask0_0_18" style="mask-type:alpha" maskUnits="userSpaceOnUse" x="0" y="0" width="16" height="16">
<rect id="Bounding box" width="16" height="16" fill="var(--fill-0, #D9D9D9)"/>
</mask>
<g mask="url(#mask0_0_18)">
<path id="your_trips_2" d="M6.00005 11.8332H10C10.1419 11.8332 10.2607 11.7853 10.3564 11.6895C10.4522 11.5938 10.5 11.475 10.5 11.3332C10.5 11.1913 10.4522 11.0725 10.3564 10.9768C10.2607 10.881 10.1419 10.8332 10 10.8332H6.00005C5.85816 10.8332 5.73938 10.881 5.64371 10.9768C5.54794 11.0725 5.50005 11.1913 5.50005 11.3332C5.50005 11.475 5.54794 11.5938 5.64371 11.6895C5.73938 11.7853 5.85816 11.8332 6.00005 11.8332ZM4.87188 14.3332C4.5351 14.3332 4.25005 14.2165 4.01671 13.9832C3.78338 13.7498 3.66671 13.4648 3.66671 13.128V7.99983C3.66671 7.09816 3.91071 6.29538 4.39871 5.59149C4.88682 4.88761 5.5146 4.37161 6.28205 4.04349V3.66649C6.28205 3.18794 6.44871 2.78199 6.78205 2.44866C7.11538 2.11533 7.52138 1.94866 8.00005 1.94866C8.47871 1.94866 8.88471 2.11533 9.21805 2.44866C9.55138 2.78199 9.71805 3.18794 9.71805 3.66649V4.04349C10.4855 4.37161 11.1133 4.88761 11.6014 5.59149C12.0894 6.29538 12.3334 7.09816 12.3334 7.99983V13.128C12.3334 13.4648 12.2167 13.7498 11.9834 13.9832C11.75 14.2165 11.465 14.3332 11.1282 14.3332H4.87188ZM7.28205 3.74599C7.4086 3.71955 7.52827 3.69966 7.64105 3.68633C7.75394 3.67311 7.8736 3.66649 8.00005 3.66649C8.12649 3.66649 8.24616 3.67311 8.35905 3.68633C8.47182 3.69966 8.59149 3.71955 8.71805 3.74599V3.66649C8.71805 3.46483 8.64882 3.29477 8.51038 3.15633C8.37182 3.01777 8.20171 2.94849 8.00005 2.94849C7.79838 2.94849 7.62827 3.01777 7.48971 3.15633C7.35127 3.29477 7.28205 3.46483 7.28205 3.66649V3.74599ZM8.00005 8.64983L8.76538 9.22799C8.82782 9.27499 8.8881 9.27672 8.94621 9.23316C9.00432 9.1896 9.02227 9.13322 9.00005 9.06399L8.70905 8.11133L9.46805 7.56649C9.53038 7.51949 9.55044 7.4631 9.52821 7.39733C9.50599 7.33144 9.45688 7.29849 9.38088 7.29849H8.44488L8.14755 6.29216C8.12532 6.22294 8.07616 6.18833 8.00005 6.18833C7.92394 6.18833 7.87477 6.22294 7.85255 6.29216L7.55521 7.29849H6.61921C6.54321 7.29849 6.4941 7.33144 6.47188 7.39733C6.44966 7.4631 6.46971 7.51949 6.53205 7.56649L7.29105 8.11133L7.00005 9.06399C6.97782 9.13322 6.99577 9.1896 7.05388 9.23316C7.11199 9.27672 7.17227 9.27499 7.23471 9.22799L8.00005 8.64983Z" fill="var(--fill-0, white)"/>
</g>
</g>
</svg>
