<svg preserveAspectRatio="none" width="100%" height="100%" overflow="visible" style="display: block;" viewBox="0 0 24 24" fill="none" xmlns="http://www.w3.org/2000/svg">
<g id="keyboard_arrow_down">
<mask id="mask0_0_9" style="mask-type:alpha" maskUnits="userSpaceOnUse" x="0" y="0" width="24" height="24">
<rect id="Bounding box" width="24" height="24" fill="var(--fill-0, #D9D9D9)"/>
</mask>
<g mask="url(#mask0_0_9)">
<path id="keyboard_arrow_down_2" d="M11.9995 14.9751C11.8661 14.9751 11.7411 14.9543 11.6245 14.9126C11.5078 14.871 11.3995 14.8001 11.2995 14.7001L6.69948 10.1001C6.51615 9.9168 6.42448 9.68346 6.42448 9.40013C6.42448 9.1168 6.51615 8.88346 6.69948 8.70013C6.88281 8.5168 7.11615 8.42513 7.39948 8.42513C7.68281 8.42513 7.91615 8.5168 8.09948 8.70013L11.9995 12.6001L15.8995 8.70013C16.0828 8.5168 16.3161 8.42513 16.5995 8.42513C16.8828 8.42513 17.1161 8.5168 17.2995 8.70013C17.4828 8.88346 17.5745 9.1168 17.5745 9.40013C17.5745 9.68346 17.4828 9.9168 17.2995 10.1001L12.6995 14.7001C12.5995 14.8001 12.4911 14.871 12.3745 14.9126C12.2578 14.9543 12.1328 14.9751 11.9995 14.9751Z" fill="var(--fill-0, white)"/>
</g>
</g>
</svg>
