<svg preserveAspectRatio="none" width="100%" height="100%" overflow="visible" style="display: block;" viewBox="0 0 18 18" fill="none" xmlns="http://www.w3.org/2000/svg">
<g id="map_pin_heart">
<mask id="mask0_0_26" style="mask-type:alpha" maskUnits="userSpaceOnUse" x="0" y="0" width="18" height="18">
<rect id="Bounding box" width="18" height="18" fill="var(--fill-0, #D9D9D9)"/>
</mask>
<g mask="url(#mask0_0_26)">
<path id="map_pin_heart_2" d="M8.475 15.9C8.3 15.8375 8.14375 15.7438 8.00625 15.6188C7.19375 14.8688 6.475 14.1375 5.85 13.425C5.225 12.7125 4.70312 12.0219 4.28437 11.3531C3.86562 10.6844 3.54688 10.0406 3.32812 9.42188C3.10937 8.80313 3 8.2125 3 7.65C3 5.775 3.60313 4.28125 4.80938 3.16875C6.01563 2.05625 7.4125 1.5 9 1.5C10.5875 1.5 11.9844 2.05625 13.1906 3.16875C14.3969 4.28125 15 5.775 15 7.65C15 8.2125 14.8906 8.80313 14.6719 9.42188C14.4531 10.0406 14.1344 10.6844 13.7156 11.3531C13.2969 12.0219 12.775 12.7125 12.15 13.425C11.525 14.1375 10.8062 14.8688 9.99375 15.6188C9.85625 15.7438 9.7 15.8375 9.525 15.9C9.35 15.9625 9.175 15.9938 9 15.9938C8.825 15.9938 8.65 15.9625 8.475 15.9ZM9 10.725C9.675 10.1 10.2 9.6 10.575 9.225C10.95 8.85 11.2438 8.5375 11.4563 8.2875C11.6563 8.0375 11.7969 7.80625 11.8781 7.59375C11.9594 7.38125 12 7.15 12 6.9C12 6.45 11.8375 6.0625 11.5125 5.7375C11.1875 5.4125 10.8 5.25 10.35 5.25C10.0875 5.25 9.83438 5.30313 9.59063 5.40938C9.34688 5.51563 9.15 5.6625 9 5.85C8.85 5.6625 8.65625 5.51563 8.41875 5.40938C8.18125 5.30313 7.925 5.25 7.65 5.25C7.2 5.25 6.8125 5.4125 6.4875 5.7375C6.1625 6.0625 6 6.45 6 6.9C6 7.1625 6.0375 7.39375 6.1125 7.59375C6.1875 7.79375 6.325 8.01875 6.525 8.26875C6.7375 8.51875 7.025 8.83125 7.3875 9.20625C7.75 9.58125 8.2875 10.0875 9 10.725Z" fill="var(--fill-0, white)"/>
</g>
</g>
</svg>
