<svg preserveAspectRatio="none" width="100%" height="100%" overflow="visible" style="display: block;" viewBox="0 0 19.9958 14.0039" fill="none" xmlns="http://www.w3.org/2000/svg">
<g id="Frame 1000001959">
<path id="Vector" d="M19.5545 2.19293C19.4398 1.76907 19.2161 1.38266 18.9056 1.07216C18.5951 0.761658 18.2087 0.537912 17.7848 0.423199C16.2331 0 9.98791 0 9.98791 0C9.98791 0 3.74241 0.01281 2.19068 0.436009C1.76682 0.550728 1.3804 0.774486 1.06992 1.085C0.759433 1.39551 0.535709 1.78195 0.421027 2.20582C-0.0483349 4.96294 -0.230409 9.16415 0.433915 11.811C0.548609 12.2348 0.772338 12.6213 1.08282 12.9317C1.39331 13.2422 1.77972 13.466 2.20357 13.5807C3.7553 14.0039 10.0006 14.0039 10.0006 14.0039C10.0006 14.0039 16.2459 14.0039 17.7976 13.5807C18.2214 13.466 18.6078 13.2423 18.9183 12.9318C19.2288 12.6213 19.4526 12.2348 19.5673 11.811C20.0623 9.04995 20.2149 4.85132 19.5545 2.19293Z" fill="var(--fill-0, #FF0000)"/>
<path id="Vector_2" d="M8.00391 9.96266L13.1848 6.97376L8.00391 3.98486V9.96266Z" fill="var(--fill-0, #F2F2F2)"/>
</g>
</svg>
