<svg preserveAspectRatio="none" width="100%" height="100%" overflow="visible" style="display: block;" viewBox="0 0 17.5 17.5001" fill="none" xmlns="http://www.w3.org/2000/svg">
<g id="Frame 1000001958">
<path id="Vector" d="M16.209 6.62706e-05H1.29098C0.952504 -0.00337848 0.626481 0.127593 0.384453 0.364243C0.142425 0.600892 0.00416145 0.923889 0 1.26236V16.2406C0.00491403 16.5786 0.143509 16.9009 0.385455 17.1369C0.627401 17.3729 0.952994 17.5035 1.29098 17.5001H16.209C16.5475 17.5027 16.8733 17.3713 17.1152 17.1345C17.3571 16.8977 17.4955 16.5748 17.5 16.2363V1.25806C17.494 0.920579 17.355 0.599121 17.1132 0.363558C16.8715 0.127995 16.5465 -0.00263356 16.209 6.62706e-05Z" fill="var(--fill-0, #0076B2)"/>
<path id="Vector_2" d="M1.85693 6.54912H4.5772V15.3127H1.85693V6.54912ZM3.21781 2.18762C3.52981 2.18762 3.83481 2.28028 4.09421 2.45386C4.35361 2.62745 4.55576 2.87417 4.67509 3.16281C4.79442 3.45146 4.82556 3.76905 4.76458 4.07542C4.70361 4.38179 4.55324 4.66316 4.33252 4.88395C4.1118 5.10474 3.83063 5.25503 3.52458 5.31579C3.21854 5.37655 2.90137 5.34506 2.61321 5.22531C2.32504 5.10555 2.07882 4.90292 1.9057 4.64303C1.73258 4.38314 1.64033 4.07767 1.64063 3.76528C1.64102 3.34672 1.80737 2.94544 2.1031 2.64962C2.39884 2.35379 2.79978 2.18762 3.21781 2.18762ZM6.28356 6.54912H8.89118V7.75229H8.92723C9.29073 7.06348 10.177 6.33706 11.5003 6.33706C14.2551 6.33104 14.7658 8.14633 14.7658 10.5V15.3127H12.0456V11.049C12.0456 10.0338 12.0275 8.72686 10.6321 8.72686C9.23666 8.72686 8.99933 9.83378 8.99933 10.9828V15.3127H6.28356V6.54912Z" fill="var(--fill-0, #F2F2F2)"/>
</g>
</svg>
