<svg preserveAspectRatio="none" width="100%" height="100%" overflow="visible" style="display: block;" viewBox="0 0 24 24" fill="none" xmlns="http://www.w3.org/2000/svg">
<g id="Group">
<path id="Vector" d="M22.6667 0H1.33333C0.596954 0 0 0.596954 0 1.33333V22.6667C0 23.403 0.596954 24 1.33333 24H22.6667C23.403 24 24 23.403 24 22.6667V1.33333C24 0.596954 23.403 0 22.6667 0Z" fill="var(--fill-0, #117EB8)"/>
<path id="Vector_2" fill-rule="evenodd" clip-rule="evenodd" d="M4.37975 9.28272H7.58741V19.6034H4.37975V9.28272ZM5.98408 4.15239C7.00975 4.15239 7.84308 4.98572 7.84308 6.01139C7.84308 7.03805 7.00975 7.87172 5.98408 7.87172C5.7369 7.8764 5.49127 7.83176 5.26155 7.7404C5.03182 7.64905 4.82262 7.51281 4.64616 7.33966C4.4697 7.16651 4.32953 6.95992 4.23384 6.73197C4.13815 6.50402 4.08887 6.25928 4.08887 6.01205C4.08887 5.76483 4.13815 5.52009 4.23384 5.29214C4.32953 5.06418 4.4697 4.85759 4.64616 4.68444C4.82262 4.51129 5.03182 4.37506 5.26155 4.2837C5.49127 4.19235 5.7369 4.14771 5.98408 4.15239ZM9.59941 9.28239H12.6761V10.6927H12.7187C13.1471 9.88139 14.1934 9.02605 15.7537 9.02605C19.0017 9.02605 19.6017 11.1637 19.6017 13.9427V19.6034H16.3961V14.5844C16.3961 13.3877 16.3741 11.8481 14.7294 11.8481C13.0604 11.8481 12.8041 13.1517 12.8041 14.4981V19.6034H9.59908V9.28272L9.59941 9.28239Z" fill="var(--fill-0, white)"/>
</g>
</svg>
