<svg preserveAspectRatio="none" width="100%" height="100%" overflow="visible" style="display: block;" viewBox="0 0 24 24" fill="none" xmlns="http://www.w3.org/2000/svg">
<g id="phone_in_talk">
<mask id="mask0_232_2062" style="mask-type:alpha" maskUnits="userSpaceOnUse" x="0" y="0" width="24" height="24">
<rect id="Bounding box" width="24" height="24" fill="var(--fill-0, #D9D9D9)"/>
</mask>
<g mask="url(#mask0_232_2062)">
<path id="phone_in_talk_2" d="M19.7885 11.7308C19.5858 11.7308 19.4076 11.6589 19.2538 11.5152C19.0999 11.3717 19.0096 11.1936 18.9828 10.9807C18.7661 9.36658 18.0863 7.98808 16.9433 6.84525C15.8003 5.70225 14.4218 5.02242 12.8078 4.80575C12.5949 4.77875 12.4167 4.69092 12.273 4.54225C12.1295 4.39358 12.0578 4.21283 12.0578 4C12.0578 3.78717 12.1321 3.609 12.2808 3.4655C12.4294 3.32183 12.6051 3.2635 12.8078 3.2905C14.8436 3.511 16.5792 4.33883 18.0145 5.774C19.4497 7.20933 20.2775 8.94492 20.498 10.9807C20.525 11.1832 20.4667 11.3589 20.323 11.5078C20.1795 11.6564 20.0013 11.7308 19.7885 11.7308ZM15.652 11.7308C15.4865 11.7308 15.3413 11.675 15.2163 11.5635C15.0913 11.452 14.9968 11.3033 14.9328 11.1173C14.7801 10.5763 14.5003 10.099 14.0933 9.6855C13.6862 9.272 13.2123 8.99225 12.6713 8.84625C12.4853 8.78208 12.3365 8.6875 12.225 8.5625C12.1135 8.4375 12.0578 8.28717 12.0578 8.1115C12.0578 7.8615 12.1439 7.65958 12.3163 7.50575C12.4888 7.35192 12.6846 7.30192 12.9038 7.35575C13.7794 7.55958 14.5339 7.97817 15.1673 8.6115C15.8006 9.24483 16.2224 10.0025 16.4328 10.8845C16.4866 11.1038 16.4324 11.2997 16.2703 11.472C16.1081 11.6445 15.902 11.7308 15.652 11.7308ZM19.4403 20.5C17.5558 20.5 15.6625 20.0618 13.7605 19.1855C11.8587 18.3092 10.1097 17.073 8.5135 15.477C6.92383 13.8808 5.69083 12.1333 4.8145 10.2345C3.93817 8.33583 3.5 6.44425 3.5 4.55975C3.5 4.25975 3.6 4.00808 3.8 3.80475C4 3.60158 4.25 3.5 4.55 3.5H7.8115C8.064 3.5 8.28675 3.58242 8.47975 3.74725C8.67275 3.91192 8.7955 4.11542 8.848 4.35775L9.42125 7.3C9.46092 7.573 9.45258 7.80758 9.39625 8.00375C9.33975 8.19992 9.23842 8.36467 9.09225 8.498L6.78275 10.7462C7.15442 11.4269 7.57908 12.0708 8.05675 12.678C8.53425 13.285 9.05125 13.8648 9.60775 14.4173C10.1564 14.9661 10.7398 15.4758 11.3578 15.9463C11.9758 16.4168 12.6431 16.8546 13.3598 17.2598L15.6038 14.9962C15.7603 14.8334 15.9498 14.7193 16.1723 14.6538C16.3946 14.5884 16.6257 14.5724 16.8655 14.6058L19.6423 15.1713C19.8948 15.2379 20.1008 15.3668 20.2605 15.5578C20.4202 15.7488 20.5 15.9654 20.5 16.2078V19.45C20.5 19.75 20.3984 20 20.1953 20.2C19.9919 20.4 19.7403 20.5 19.4403 20.5Z" fill="var(--fill-0, #F2F2F2)"/>
</g>
</g>
</svg>
