<svg preserveAspectRatio="none" width="100%" height="100%" overflow="visible" style="display: block;" viewBox="0 0 165.169 62.2609" fill="none" xmlns="http://www.w3.org/2000/svg">
<g id="paytm">
<path id="Vector" d="M127.038 16.6459L128.329 15.6136C132.813 11.807 138.555 12.2264 142.394 16.7427C142.781 17.1943 142.974 17.2266 143.361 16.8395C143.62 16.5491 143.91 16.3233 144.168 16.033C147.168 13.0974 151.136 12.2264 154.846 13.8716C158.749 15.6136 160.846 18.6783 160.878 22.9688C160.943 32.2273 160.911 41.4535 160.911 50.712C160.911 54.0024 158.878 56.0671 155.62 56.0671C154.33 56.0671 153.039 55.9703 151.749 56.0993C150.426 56.2284 150.039 55.809 150.039 54.4218C150.104 45.3892 150.071 36.3565 150.071 27.3238V26.1947C150.039 24.0979 149.2 23.2269 147.2 23.1301C145.394 23.0333 144.136 24.1301 143.942 25.9689C143.91 26.3883 143.942 26.8399 143.942 27.2593V50.6475C143.942 54.067 141.974 56.0671 138.555 56.0348C136.813 56.0025 134.458 56.809 133.458 55.68C132.587 54.7122 133.167 52.4217 133.167 50.712V26.6786C133.167 23.8398 131.329 22.3881 128.941 23.3559C127.458 23.9688 126.974 25.1624 126.974 26.7109C127.006 34.1951 126.974 41.647 126.974 49.1313V50.9055C126.877 54.0347 124.877 56.0025 121.78 56.0348C120.489 56.0671 119.199 55.938 117.909 56.0671C116.522 56.1961 116.102 55.809 116.134 54.325C116.199 41.6471 116.167 28.9691 116.167 16.2588C116.167 15.7104 116.199 15.1942 116.167 14.6458C116.102 13.9361 116.393 13.7103 117.102 13.7103C120.07 13.7426 123.006 13.7426 125.974 13.7103C126.716 13.7103 127.07 13.9038 127.006 14.7103C126.941 15.291 127.006 15.8072 127.038 16.6459Z" fill="var(--fill-0, #02B9EF)"/>
<path id="Vector_2" d="M58.6479 34.1305V47.3569C58.6157 53.0991 55.6155 56.067 49.8733 56.0992C47.3571 56.0992 44.8086 56.1315 42.2923 56.0992C37.1953 56.0347 33.4532 52.6474 33.1951 47.5504C33.0016 43.9051 32.9693 40.2275 33.1629 36.5822C33.421 31.3562 37.4211 27.6786 42.7117 27.614C44.0989 27.5818 45.5183 27.614 46.9054 27.614C48.2603 27.5818 48.7765 26.8076 48.7442 25.5172C48.7442 24.2268 48.1636 23.6461 46.8732 23.7106C45.4215 23.7429 43.9698 23.7429 42.5182 23.7106C38.9696 23.6461 37.0018 21.7106 37.034 18.2265C37.034 16.8071 36.3888 14.9038 37.3244 14.065C38.1309 13.3553 39.9697 13.807 41.3568 13.807C44.9699 13.7747 48.5507 13.807 52.1638 13.807C56.0026 13.807 58.6157 16.42 58.6479 20.2911C58.6802 24.872 58.6479 29.5174 58.6479 34.1305ZM48.7765 41.4534V39.8404C48.7765 36.5499 48.7765 36.5499 45.486 36.679C43.8408 36.7435 42.9375 37.5822 42.9053 39.292C42.873 40.6469 42.873 41.9695 42.9053 43.3244C42.9375 45.6471 43.9698 46.2601 47.3248 46.3568C49.8088 46.4214 48.5507 44.6793 48.7765 43.7116C48.9055 43.0018 48.7442 42.1954 48.7765 41.4534ZM87.3589 30.6142C87.3589 35.5499 87.4234 40.5179 87.3266 45.4536C87.2621 49.2602 86.3589 52.712 82.6813 54.7443C81.1973 55.5508 79.5844 56.0024 77.9069 56.0347C74.197 56.0992 70.4872 56.0347 66.7773 56.0992C65.8741 56.0992 65.6805 55.7766 65.7128 54.9701C65.7773 53.6152 65.6805 52.2926 65.745 50.9377C65.8095 48.3569 67.7774 46.3891 70.3581 46.2923C72.0356 46.2278 73.6809 46.2601 75.3584 46.2923C76.7133 46.2923 77.4552 45.7439 77.4552 44.2922C77.4552 42.8083 76.7455 42.2921 75.3906 42.2599C73.1324 42.1954 70.8743 42.5179 68.6484 41.8728C64.8095 40.7437 62.0029 37.55 61.9061 33.5821C61.7126 27.2915 61.8416 21.0008 61.8094 14.7102C61.8094 14.0005 62.0352 13.7747 62.7449 13.807C65.3902 13.8392 68.0032 13.8715 70.6485 13.807C71.8098 13.7747 71.6485 14.4199 71.6485 15.1296V29.3238C71.6485 31.3884 72.6163 32.4852 74.4228 32.5498C76.552 32.6143 77.4875 31.7433 77.4875 29.5819C77.4875 24.8075 77.5197 20.0008 77.4552 15.2264C77.4552 14.0973 77.7456 13.7747 78.8746 13.807C81.2296 13.9037 83.6168 13.936 85.9717 13.807C87.2621 13.7424 87.4557 14.2263 87.4234 15.3554C87.3266 20.4202 87.3589 25.5172 87.3589 30.6142ZM5.16161 37.9371V22.1299C5.16161 16.9684 8.32305 13.7424 13.5168 13.807C16.9041 13.8392 20.2913 13.4198 23.6463 14.065C27.9368 14.9038 30.6466 18.2265 30.6789 22.6461C30.7112 27.3237 30.6789 32.0013 30.6789 36.679C30.6789 42.5502 27.2271 46.131 21.3559 46.2923C19.5816 46.3568 17.8074 46.3246 16.0331 46.2923C15.2266 46.2601 14.8717 46.5181 14.904 47.3891C14.9685 48.6795 14.9363 49.9699 14.904 51.2603C14.8395 54.0346 12.8716 56.0347 10.1296 56.067C8.5166 56.0992 6.48425 56.7444 5.45195 55.8089C4.48416 54.9379 5.19387 52.8733 5.16161 51.3248C5.12935 46.873 5.16161 42.3889 5.16161 37.9371ZM14.904 30.0335V33.0982C14.904 36.7435 14.904 36.7435 18.5493 36.4209C20.13 36.2919 20.872 35.5176 20.9043 33.9369C20.9365 32.1304 20.8397 30.2916 20.9365 28.485C21.1301 23.259 20.1623 23.7752 15.904 23.7429C15.1298 23.7429 14.8717 23.9687 14.8717 24.7429C14.9363 26.485 14.904 28.2592 14.904 30.0335Z" fill="var(--fill-0, #06306F)"/>
<path id="Vector_3" d="M96.4886 38.0018C96.4886 33.7113 96.4564 29.3885 96.5209 25.098C96.5209 24.098 96.2951 23.6786 95.1982 23.7109C93.7466 23.7754 91.811 24.1948 91.0045 23.485C90.0044 22.5495 90.7787 20.5494 90.6496 19.001V18.6784C90.6496 17.1622 90.1657 15.3879 90.8109 14.2588C91.4561 13.1297 93.424 13.8394 94.8111 13.4846C97.5532 12.7749 99.6178 11.1942 101.295 9.00052C102.457 7.51658 103.908 6.45201 105.779 6.09716C106.779 5.9036 107.392 6.03264 107.328 7.32302C107.231 9.12956 107.328 10.9684 107.296 12.8071C107.263 13.5814 107.554 13.8394 108.328 13.8072C109.618 13.7749 110.909 13.8394 112.199 13.7749C112.973 13.7427 113.231 14.033 113.199 14.8072C113.167 17.4525 113.167 20.0655 113.199 22.7108C113.199 23.4528 113.005 23.8399 112.199 23.7431C112.038 23.7109 111.876 23.7431 111.715 23.7431C110.296 23.8722 108.328 23.0979 107.586 24.0657C106.876 24.969 107.328 26.84 107.328 28.2917C107.328 37.0663 107.296 45.8086 107.36 54.5832C107.36 55.8091 107.037 56.1962 105.812 56.0994C104.65 56.0027 103.457 56.0994 102.263 56.0672C98.779 55.9381 96.4886 53.5832 96.4886 50.0992V38.0018Z" fill="var(--fill-0, #02B9EF)"/>
</g>
</svg>
