<svg preserveAspectRatio="none" width="100%" height="100%" overflow="visible" style="display: block;" viewBox="0 0 32 30.4762" fill="none" xmlns="http://www.w3.org/2000/svg">
<g id="Group">
<path id="Vector" d="M16 30.4762C24.8366 30.4762 32 23.6539 32 15.2381C32 6.82233 24.8366 0 16 0C7.16344 0 0 6.82233 0 15.2381C0 23.6539 7.16344 30.4762 16 30.4762Z" fill="var(--fill-0, #E8FBFF)"/>
<path id="Vector_2" d="M18.1983 15.0924L12.9983 9.8924C12.7538 9.6479 12.6316 9.3368 12.6316 8.95902C12.6316 8.58124 12.7538 8.27013 12.9983 8.02569C13.2427 7.78124 13.5538 7.65902 13.9316 7.65902C14.3094 7.65902 14.6205 7.78124 14.8649 8.02569L20.9983 14.159C21.1316 14.2924 21.226 14.4368 21.2816 14.5924C21.3371 14.7479 21.3649 14.9146 21.3649 15.0924C21.3649 15.2701 21.3371 15.4368 21.2816 15.5924C21.226 15.7479 21.1316 15.8924 20.9983 16.0257L14.8649 22.159C14.6205 22.4035 14.3094 22.5257 13.9316 22.5257C13.5538 22.5257 13.2427 22.4035 12.9983 22.159C12.7538 21.9146 12.6316 21.6035 12.6316 21.2257C12.6316 20.8479 12.7538 20.5368 12.9983 20.2924L18.1983 15.0924Z" fill="var(--fill-0, #01AFD1)"/>
</g>
</svg>
