<svg preserveAspectRatio="none" width="100%" height="100%" overflow="visible" style="display: block;" viewBox="0 0 16 16" fill="none" xmlns="http://www.w3.org/2000/svg">
<g id="keyboard_arrow_down">
<mask id="mask0_234_2740" style="mask-type:alpha" maskUnits="userSpaceOnUse" x="0" y="0" width="16" height="16">
<rect id="Bounding box" width="16" height="16" fill="var(--fill-0, #D9D9D9)"/>
</mask>
<g mask="url(#mask0_234_2740)">
<path id="keyboard_arrow_down_2" d="M7.75003 9.94166C7.67225 9.91388 7.60003 9.86666 7.53337 9.79999L4.4667 6.73333C4.34448 6.6111 4.28337 6.45555 4.28337 6.26666C4.28337 6.07777 4.34448 5.92221 4.4667 5.79999C4.58892 5.67777 4.74448 5.61666 4.93337 5.61666C5.12225 5.61666 5.27781 5.67777 5.40003 5.79999L8.00003 8.39999L10.6 5.79999C10.7223 5.67777 10.8778 5.61666 11.0667 5.61666C11.2556 5.61666 11.4111 5.67777 11.5334 5.79999C11.6556 5.92221 11.7167 6.07777 11.7167 6.26666C11.7167 6.45555 11.6556 6.6111 11.5334 6.73333L8.4667 9.79999C8.40003 9.86666 8.32781 9.91388 8.25003 9.94166C8.17225 9.96944 8.08892 9.98333 8.00003 9.98333C7.91114 9.98333 7.82781 9.96944 7.75003 9.94166Z" fill="var(--fill-0, #F2F2F2)"/>
</g>
</g>
</svg>
