<svg preserveAspectRatio="none" width="100%" height="100%" overflow="visible" style="display: block;" viewBox="0 0 16 16" fill="none" xmlns="http://www.w3.org/2000/svg">
<g id="call">
<path id="Vector" d="M11.6333 15.1667C10.88 15.1667 10.0867 14.9867 9.26666 14.64C8.46666 14.3 7.66 13.8333 6.87333 13.2667C6.09333 12.6933 5.34 12.0533 4.62666 11.3533C3.92 10.64 3.28 9.88667 2.71333 9.11333C2.14 8.31333 1.68 7.51333 1.35333 6.74C1.00666 5.91333 0.83333 5.11333 0.83333 4.36C0.83333 3.84 0.926663 3.34667 1.10666 2.88667C1.29333 2.41333 1.59333 1.97333 2 1.59333C2.51333 1.08667 3.1 0.833334 3.72666 0.833334C3.98666 0.833334 4.25333 0.893334 4.48 1C4.74 1.12 4.96 1.3 5.12 1.54L6.66666 3.72C6.80666 3.91333 6.91333 4.1 6.98666 4.28667C7.07333 4.48667 7.12 4.68667 7.12 4.88C7.12 5.13333 7.04666 5.38 6.90666 5.61333C6.80666 5.79333 6.65333 5.98667 6.46 6.18L6.00666 6.65333C6.01333 6.67333 6.02 6.68667 6.02666 6.7C6.10666 6.84 6.26666 7.08 6.57333 7.44C6.9 7.81333 7.20666 8.15333 7.51333 8.46667C7.90666 8.85333 8.23333 9.16 8.54 9.41333C8.92 9.73333 9.16666 9.89333 9.31333 9.96667L9.3 10L9.78666 9.52C9.99333 9.31333 10.1933 9.16 10.3867 9.06C10.7533 8.83333 11.22 8.79333 11.6867 8.98667C11.86 9.06 12.0467 9.16 12.2467 9.3L14.46 10.8733C14.7067 11.04 14.8867 11.2533 14.9933 11.5067C15.0933 11.76 15.14 11.9933 15.14 12.2267C15.14 12.5467 15.0667 12.8667 14.9267 13.1667C14.7867 13.4667 14.6133 13.7267 14.3933 13.9667C14.0133 14.3867 13.6 14.6867 13.12 14.88C12.66 15.0667 12.16 15.1667 11.6333 15.1667ZM3.72666 1.83333C3.36 1.83333 3.02 1.99333 2.69333 2.31333C2.38666 2.6 2.17333 2.91333 2.04 3.25333C1.9 3.6 1.83333 3.96667 1.83333 4.36C1.83333 4.98 1.98 5.65333 2.27333 6.34667C2.57333 7.05333 2.99333 7.78667 3.52666 8.52C4.06 9.25333 4.66666 9.96667 5.33333 10.64C6 11.3 6.72 11.9133 7.46 12.4533C8.18 12.98 8.92 13.4067 9.65333 13.7133C10.7933 14.2 11.86 14.3133 12.74 13.9467C13.08 13.8067 13.38 13.5933 13.6533 13.2867C13.8067 13.12 13.9267 12.94 14.0267 12.7267C14.1067 12.56 14.1467 12.3867 14.1467 12.2133C14.1467 12.1067 14.1267 12 14.0733 11.88C14.0533 11.84 14.0133 11.7667 13.8867 11.68L11.6733 10.1067C11.54 10.0133 11.42 9.94667 11.3067 9.9C11.16 9.84 11.1 9.78 10.8733 9.92C10.74 9.98667 10.62 10.0867 10.4867 10.22L9.98 10.72C9.72 10.9733 9.32 11.0333 9.01333 10.92L8.83333 10.84C8.56 10.6933 8.24 10.4667 7.88666 10.1667C7.56666 9.89333 7.22 9.57333 6.8 9.16C6.47333 8.82667 6.14666 8.47333 5.80666 8.08C5.49333 7.71333 5.26666 7.4 5.12666 7.14L5.04666 6.94C5.00666 6.78667 4.99333 6.7 4.99333 6.60667C4.99333 6.36667 5.08 6.15333 5.24666 5.98667L5.74666 5.46667C5.88 5.33333 5.98 5.20667 6.04666 5.09333C6.1 5.00667 6.12 4.93333 6.12 4.86667C6.12 4.81333 6.1 4.73333 6.06666 4.65333C6.02 4.54667 5.94666 4.42667 5.85333 4.3L4.30666 2.11333C4.24 2.02 4.16 1.95333 4.06 1.90667C3.95333 1.86 3.84 1.83333 3.72666 1.83333ZM9.3 10.0067L9.19333 10.46L9.37333 9.99333C9.34 9.98667 9.31333 9.99333 9.3 10.0067Z" fill="var(--fill-0, #01AFD1)"/>
<g id="Vector_2" opacity="0">
</g>
</g>
</svg>
