<svg preserveAspectRatio="none" width="100%" height="100%" overflow="visible" style="display: block;" viewBox="0 0 30 30" fill="none" xmlns="http://www.w3.org/2000/svg">
<g id="facebook">
<rect width="30" height="30" rx="15" fill="var(--fill-0, #F2F2F2)"/>
<path id="Vector" d="M25 15.0607C25 9.53793 20.5228 5.06074 15 5.06074C9.47719 5.06074 5 9.53793 5 15.0607C5 20.052 8.65687 24.1891 13.4375 24.9393V17.9514H10.8984V15.0607H13.4375V12.8576C13.4375 10.3514 14.9305 8.96699 17.2147 8.96699C18.3088 8.96699 19.4531 9.1623 19.4531 9.1623V11.6232H18.1922C16.9499 11.6232 16.5625 12.3941 16.5625 13.185V15.0607H19.3359L18.8926 17.9514H16.5625V24.9393C21.3431 24.1891 25 20.0521 25 15.0607Z" fill="var(--fill-0, #1877F2)"/>
</g>
</svg>
