<svg preserveAspectRatio="none" width="100%" height="100%" overflow="visible" style="display: block;" viewBox="0 0 24 24" fill="none" xmlns="http://www.w3.org/2000/svg">
<g id="Layer 1">
<path id="Vector" d="M18.6131 0H5.38691C2.4118 0 0 2.4118 0 5.38691V18.6131C0 21.5882 2.4118 24 5.38691 24H18.6131C21.5882 24 24 21.5882 24 18.6131V5.38691C24 2.4118 21.5882 0 18.6131 0Z" fill="url(#paint0_linear_221_724)"/>
<g id="&#60;Group&#62;">
<path id="&#60;Compound Path&#62;" d="M8.31313 4.15656H15.7949C15.9612 4.2397 16.2106 4.23969 16.3769 4.32283C17.1064 4.44107 17.7886 4.76045 18.3466 5.24507C18.9047 5.72969 19.3165 6.36034 19.5359 7.06616C19.6586 7.47289 19.7421 7.89046 19.7852 8.31313V15.6287C19.6664 16.5558 19.3241 17.4402 18.7877 18.2057C18.3275 18.7389 17.7506 19.1587 17.1018 19.4327C16.453 19.7066 15.7498 19.8273 15.0468 19.7852H8.81192C7.69924 19.8392 6.60524 19.4844 5.73606 18.7877C5.20751 18.331 4.79041 17.7595 4.51664 17.1169C4.24288 16.4743 4.11972 15.7775 4.15656 15.08V9.26082C4.14283 8.84344 4.17068 8.42572 4.23969 8.01386C4.32364 7.16158 4.67407 6.35745 5.24117 5.71572C5.80827 5.074 6.56321 4.62734 7.39868 4.43921L8.31313 4.15656ZM5.73606 12.054V15.2962C5.70061 15.709 5.75585 16.1246 5.89789 16.5139C6.03993 16.9032 6.26535 17.2567 6.55836 17.5497C6.85137 17.8427 7.20489 18.0681 7.59416 18.2102C7.98344 18.3522 8.39905 18.4075 8.81192 18.372C10.9733 18.4551 13.1347 18.4551 15.2962 18.372C17.2082 18.372 18.2889 17.2082 18.372 15.2962C18.4551 13.1347 18.4551 10.9733 18.372 8.81192C18.3936 8.40231 18.3287 7.99276 18.1818 7.60982C18.0348 7.22689 17.809 6.87912 17.519 6.58909C17.2289 6.29906 16.8812 6.07324 16.4982 5.92628C16.1153 5.77933 15.7058 5.71452 15.2962 5.73606C13.1347 5.65293 10.9733 5.65293 8.81192 5.73606C8.39905 5.70061 7.98344 5.75585 7.59416 5.89789C7.20489 6.03993 6.85137 6.26535 6.55836 6.55836C6.26535 6.85137 6.03993 7.20489 5.89789 7.59416C5.75585 7.98344 5.70061 8.39905 5.73606 8.81192V12.054Z" fill="var(--fill-0, white)"/>
<path id="&#60;Compound Path&#62;_2" d="M8.01385 12.0873C8.01605 11.0076 8.44592 9.9728 9.20936 9.20936C9.9728 8.44592 11.0076 8.01605 12.0873 8.01385C13.161 8.03512 14.1848 8.47111 14.9441 9.23047C15.7035 9.98982 16.1395 11.0136 16.1607 12.0873C16.1585 13.167 15.7287 14.2018 14.9652 14.9652C14.2018 15.7287 13.167 16.1585 12.0873 16.1607C11.0136 16.1395 9.98982 15.7035 9.23047 14.9441C8.47111 14.1848 8.03512 13.161 8.01385 12.0873ZM12.0873 9.51022C11.5824 9.50201 11.0865 9.64475 10.6632 9.92017C10.24 10.1956 9.90856 10.5911 9.71152 11.0561C9.51449 11.521 9.46078 12.0342 9.55728 12.5299C9.65378 13.0256 9.8961 13.4812 10.2532 13.8383C10.6103 14.1953 11.0658 14.4377 11.5615 14.5342C12.0572 14.6307 12.5704 14.577 13.0354 14.3799C13.5003 14.1829 13.8959 13.8515 14.1713 13.4282C14.4467 13.0049 14.5894 12.5091 14.5812 12.0042C14.5812 11.3427 14.3185 10.7084 13.8508 10.2407C13.3831 9.77297 12.7487 9.51022 12.0873 9.51022Z" fill="var(--fill-0, white)"/>
<path id="&#60;Path&#62;" d="M15.2463 7.84759C15.2416 7.71534 15.2643 7.58354 15.3127 7.46041C15.3612 7.33728 15.4345 7.22544 15.5281 7.13187C15.6217 7.03829 15.7335 6.96498 15.8567 6.91649C15.9798 6.868 16.1116 6.84537 16.2439 6.85002C16.5027 6.86752 16.7464 6.97825 16.9298 7.16167C17.1132 7.34509 17.2239 7.58878 17.2414 7.84759C17.2414 8.11217 17.1363 8.3659 16.9492 8.55298C16.7622 8.74007 16.5084 8.84517 16.2439 8.84517C15.9793 8.84517 15.7255 8.74007 15.5385 8.55298C15.3514 8.3659 15.2463 8.11217 15.2463 7.84759Z" fill="var(--fill-0, white)"/>
</g>
</g>
<defs>
<linearGradient id="paint0_linear_221_724" x1="-1.52962" y1="25.3301" x2="26.735" y2="-2.51888" gradientUnits="userSpaceOnUse">
<stop stop-color="#FED576"/>
<stop offset="0.26" stop-color="#F47133"/>
<stop offset="0.61" stop-color="#BC3081"/>
<stop offset="1" stop-color="#4C63D2"/>
</linearGradient>
</defs>
</svg>
