<svg preserveAspectRatio="none" width="100%" height="100%" overflow="visible" style="display: block;" viewBox="0 0 258.279 57.8272" fill="none" xmlns="http://www.w3.org/2000/svg">
<g id="Group">
<path id="Vector" d="M0.457147 10.8378C-1.62259 17.337 3.51176 25.3309 13.4555 32.61C6.04643 26.1758 2.4069 19.4817 4.29166 13.8924C8.12617 2.1939 34.1878 -0.860712 62.5242 7.84817C70.3232 10.2529 77.4723 12.3326 83.7115 15.6472C76.6924 11.4877 68.1785 8.04315 58.7547 5.11852C30.3533 -3.59036 4.29166 -0.860712 0.457147 10.8378Z" fill="var(--fill-0, #06357A)"/>
<path id="Vector_2" d="M31.9779 38.1987C21.5792 32.2845 15.5999 24.6804 17.2247 18.4412C18.3946 14.0868 23.139 10.9672 29.9631 9.79734C21.3192 10.5122 14.6251 13.8268 13.2602 18.8962C11.5705 25.4603 18.0696 33.3243 29.2482 39.4335L31.9779 38.1987Z" fill="var(--fill-0, #00929F)"/>
<path id="Vector_3" d="M30.9382 22.6009C32.7579 17.0766 43.1566 15.1269 58.6246 20.0012C65.5787 22.211 71.558 25.2656 75.3275 28.5801C71.558 25.7855 66.3586 23.2508 60.3794 21.4311C46.9261 17.3366 34.5127 18.4414 32.6929 24.0307C31.848 26.6954 33.5378 29.88 37.0474 32.9346C32.433 29.425 29.9633 25.6555 30.9382 22.6009Z" fill="var(--fill-0, #F15D22)"/>
<path id="Vector_4" d="M64.7334 33.5848C63.3686 36.9643 56.1545 36.1844 49.9803 34.0397C46.7957 32.9349 44.131 31.3751 42.4412 29.8153C44.131 31.1801 46.9907 32.2849 49.2654 32.9998C55.4396 35.0146 61.6138 34.3647 62.5237 32.4799C64.2784 28.8404 58.5592 26.6307 55.4396 25.7208C57.9743 26.2407 59.1441 26.8256 60.8989 27.6055C64.6034 29.7503 65.4483 31.96 64.7334 33.5848Z" fill="var(--fill-0, #FFD200)"/>
<path id="Vector_5" fill-rule="evenodd" clip-rule="evenodd" d="M20.5393 44.3731C21.0593 44.8281 21.7742 45.088 22.879 45.088C24.3089 45.088 25.4787 44.5031 25.4787 43.7232C25.4787 42.2934 21.6442 40.2137 15.21 40.2137C6.24117 40.2137 1.10682 44.1132 1.10682 48.9225C1.10682 53.537 5.52626 57.8264 15.405 57.8264C21.7742 57.8264 25.1537 55.7467 25.1537 54.7718C25.1537 54.3169 24.5038 53.9919 23.7239 53.9919C23.204 53.9919 23.009 54.0569 22.0991 54.4468C21.3842 54.7068 19.5645 55.4217 16.8348 55.4217C11.7005 55.4217 7.41102 52.822 7.41102 48.1426C7.41102 44.3081 10.7256 42.1634 14.7551 42.1634C17.9397 42.1634 19.3045 43.3333 20.5393 44.3731ZM54.9849 48.5976C54.66 44.1132 49.8506 40.2137 41.1417 40.2137C32.2378 40.2137 27.1035 44.1132 27.1035 49.0525C27.1035 54.8368 33.6027 57.8264 41.0767 57.8264C49.4606 57.8914 55.3749 53.9269 54.9849 48.5976ZM48.8107 48.6626C48.8757 50.2874 48.4858 52.1721 47.1209 53.5369C45.4961 55.0968 43.0914 55.6167 41.1417 55.6167C39.4519 55.6167 34.9025 55.1617 33.6677 51.2622C33.4727 50.6123 33.3427 49.8324 33.3427 48.8576C33.3427 47.5577 33.5377 44.1781 37.8271 42.8133C38.802 42.4884 39.9718 42.3584 41.1417 42.3584C41.9866 42.3584 44.8462 42.4234 46.9909 44.2431C48.5507 45.608 48.8107 47.3627 48.8107 48.6626ZM64.4737 41.0585C64.0188 40.6686 63.8238 40.6036 63.0439 40.6036H59.7293C59.1444 40.6036 58.7544 40.6686 58.7544 41.1235V57.0465C58.7544 57.5014 59.0144 57.5014 59.7293 57.5014H62.459C63.1739 57.5014 63.3039 57.3715 63.3039 56.9815V45.413L78.4469 56.9815C78.9019 57.3715 79.0318 57.4365 79.6168 57.5014H82.0865C82.7364 57.5014 82.9963 57.4365 82.9963 57.0465V41.0585C82.9963 40.6686 82.8014 40.5386 82.1514 40.6036H79.4218C78.7069 40.6036 78.5769 40.7336 78.5769 41.0585V51.7172L64.4737 41.0585ZM106.458 44.3731C106.978 44.8281 107.693 45.088 108.798 45.088C110.228 45.088 111.398 44.5031 111.398 43.7232C111.398 42.2934 107.563 40.2137 101.129 40.2137C92.0952 40.2137 87.0258 44.1132 87.0258 48.9225C87.0258 53.537 91.4453 57.8264 101.259 57.8264C107.628 57.8264 111.008 55.7467 111.008 54.7718C111.008 54.3169 110.358 53.9919 109.578 53.9919C109.058 53.9919 108.863 54.0569 107.953 54.4468C107.238 54.7068 105.418 55.4217 102.689 55.4217C97.5545 55.4217 93.265 52.822 93.265 48.1426C93.265 44.3081 96.5796 42.1634 100.609 42.1634C103.859 42.1634 105.223 43.3333 106.458 44.3731ZM130.895 49.7674C131.61 49.7674 131.87 49.7024 131.87 49.3125V48.1426C131.87 47.7527 131.61 47.6877 130.96 47.6877H122.186V42.7483H132.585C133.3 42.7483 133.625 42.6833 133.56 42.2284V41.0585C133.625 40.6036 133.17 40.6036 132.585 40.6036H117.377C116.597 40.6036 116.337 40.7336 116.337 41.2535V56.9165C116.337 57.4365 116.662 57.4365 117.377 57.4365H132.585C133.3 57.4365 133.495 57.3715 133.56 57.1115V55.7467C133.56 55.2917 133.235 55.2917 132.585 55.2917H122.186V49.7674H130.895ZM144.218 41.0585C143.764 40.6686 143.569 40.6036 142.789 40.6036H139.539C138.954 40.6036 138.564 40.6686 138.564 41.1235V57.0465C138.564 57.5014 138.824 57.5014 139.539 57.5014H142.269C142.984 57.5014 143.114 57.3715 143.114 56.9815V45.413L158.192 56.9815C158.647 57.3715 158.777 57.4365 159.362 57.5014H161.831C162.481 57.5014 162.741 57.4365 162.741 57.0465V41.0585C162.741 40.6686 162.546 40.5386 161.896 40.6036H159.167C158.452 40.6036 158.322 40.7336 158.322 41.0585V51.7172L144.218 41.0585ZM186.723 42.7483C187.503 42.7483 187.698 42.6184 187.698 42.2284V41.0585C187.698 40.6686 187.373 40.6036 186.723 40.6036H167.486C166.836 40.6036 166.511 40.6686 166.511 41.1235V42.2284C166.511 42.6184 166.706 42.7483 167.486 42.7483H174.115V56.9165C174.115 57.3715 174.375 57.4365 175.155 57.5014H179.119C179.834 57.5014 180.029 57.3065 180.029 56.9165V42.7483H186.723ZM191.402 56.9815C191.402 57.4365 191.727 57.5014 192.377 57.5014H196.212C197.057 57.5014 197.187 57.3715 197.187 56.9165V50.8723C197.187 50.6773 197.187 50.2224 198.097 50.2224C198.941 50.2224 199.461 50.6123 199.656 50.8723L206.221 56.9815C206.676 57.3715 206.74 57.4365 207.65 57.4365H212.07C212.395 57.4365 212.915 57.4365 212.915 57.1115C212.915 56.9815 212.72 56.7865 212.59 56.6566L204.401 49.6374C207.455 49.1175 211.225 47.7527 211.225 45.088C211.225 43.7232 210.315 42.4234 208.365 41.5785C205.766 40.4086 201.866 40.3436 199.331 40.3436C196.472 40.3436 193.092 40.5386 192.117 40.7336C191.532 40.8636 191.402 40.9936 191.402 41.5135V56.9815ZM197.187 42.3584C197.642 42.3584 198.227 42.2934 199.136 42.2934C200.826 42.2934 205.376 42.2934 205.376 45.543C205.376 47.7527 202.646 48.5976 200.046 48.7926C199.331 48.8576 198.812 48.8576 197.187 48.7926V42.3584ZM222.663 41.1235C222.663 40.6686 222.403 40.6036 221.754 40.6036H217.594C216.814 40.6036 216.684 40.7986 216.684 41.1235V56.9815C216.684 57.4365 217.009 57.5014 217.659 57.5014H221.754C222.338 57.5014 222.728 57.4365 222.728 56.9815V41.1235M243.461 56.9815C243.916 57.4365 244.046 57.4365 244.891 57.4365H249.115C249.44 57.4365 249.96 57.4365 249.96 57.1115C249.96 56.9815 249.83 56.8515 249.7 56.7215L240.991 48.2076L248.335 41.3185C248.465 41.1885 248.595 41.0585 248.595 40.9286C248.595 40.6036 248.075 40.6036 247.815 40.6036H244.826C244.046 40.6036 243.981 40.6036 243.461 41.0585L238.521 45.7379L233.712 41.0585C233.257 40.6686 233.127 40.6036 232.217 40.6036H228.253C227.993 40.6036 228.123 40.6036 228.123 40.9286C228.123 40.9936 228.188 41.1235 228.318 41.2535L235.142 48.8576L227.343 56.7865C227.018 57.0465 226.953 57.1765 226.953 57.2415C226.953 57.5014 227.538 57.5014 227.863 57.5014H230.202C230.917 57.5014 231.047 57.4365 231.502 57.0465L237.612 51.3922L243.461 56.9815Z" fill="var(--fill-0, #06357A)"/>
<path id="Vector_6" d="M99.8295 35.7296C94.4351 27.2806 83.1266 18.3118 66.8137 12.8525C52.5805 8.0431 36.2676 5.57341 25.7389 6.28832C35.8126 6.61328 46.9912 8.23807 60.7045 12.5275C77.9922 17.9218 89.8857 27.2156 95.345 35.9245C95.345 35.9245 96.3849 35.8595 97.3598 35.7945C98.8546 35.5996 99.8295 35.7296 99.8295 35.7296Z" fill="var(--fill-0, #C1D82F)"/>
<path id="Vector_7" d="M251.39 36.5742H250.025V36.0543H253.405V36.5742H251.975V40.6037H251.39V36.5742ZM257.694 38.5889C257.629 37.939 257.629 37.2241 257.629 36.6392C257.499 37.1591 257.304 37.7441 257.044 38.394L256.264 40.6037H255.809L255.094 38.459C254.899 37.809 254.704 37.2241 254.574 36.7042C254.574 37.2891 254.509 38.004 254.509 38.7189L254.379 40.6687H253.794L254.119 36.1193H254.834L255.614 38.329C255.809 38.9139 255.939 39.3688 256.069 39.8888C256.199 39.4338 256.329 38.9139 256.524 38.329L257.304 36.1193H258.019L258.279 40.6687H257.694V38.5889Z" fill="var(--fill-0, #06357A)"/>
</g>
</svg>
