<svg preserveAspectRatio="none" width="100%" height="100%" overflow="visible" style="display: block;" viewBox="0 0 17.5 17.5" fill="none" xmlns="http://www.w3.org/2000/svg">
<g id="Group">
<path id="Vector" d="M13.3984 0H4.10156C1.83633 0 0 1.83633 0 4.10156V13.3984C0 15.6637 1.83633 17.5 4.10156 17.5H13.3984C15.6637 17.5 17.5 15.6637 17.5 13.3984V4.10156C17.5 1.83633 15.6637 0 13.3984 0Z" fill="url(#paint0_radial_221_756)"/>
<path id="Vector_2" d="M13.3984 0H4.10156C1.83633 0 0 1.83633 0 4.10156V13.3984C0 15.6637 1.83633 17.5 4.10156 17.5H13.3984C15.6637 17.5 17.5 15.6637 17.5 13.3984V4.10156C17.5 1.83633 15.6637 0 13.3984 0Z" fill="url(#paint1_radial_221_756)"/>
<path id="Vector_3" d="M8.75062 1.91418C6.89411 1.91418 6.66107 1.92232 5.93195 1.95547C5.2042 1.98883 4.70743 2.10402 4.2728 2.27307C3.82313 2.44766 3.44176 2.68125 3.06182 3.06132C2.68153 3.44133 2.44795 3.82271 2.27281 4.27217C2.10328 4.70694 1.98796 5.20391 1.95521 5.93132C1.92261 6.66051 1.91406 6.89362 1.91406 8.75019C1.91406 10.6068 1.92227 10.839 1.95535 11.5682C1.98885 12.2959 2.10403 12.7927 2.27295 13.2273C2.44768 13.677 2.68126 14.0584 3.06134 14.4383C3.44121 14.8186 3.82259 15.0527 4.27191 15.2273C4.70688 15.3964 5.20372 15.5115 5.93134 15.5449C6.66053 15.5781 6.89336 15.5862 8.7498 15.5862C10.6065 15.5862 10.8388 15.5781 11.5679 15.5449C12.2957 15.5115 12.793 15.3964 13.2279 15.2273C13.6774 15.0527 14.0582 14.8186 14.438 14.4383C14.8183 14.0584 15.0518 13.677 15.2271 13.2275C15.3951 12.7927 15.5105 12.2958 15.5446 11.5683C15.5774 10.8392 15.5859 10.6068 15.5859 8.75019C15.5859 6.89362 15.5774 6.66065 15.5446 5.93146C15.5105 5.20371 15.3951 4.70701 15.2271 4.27238C15.0518 3.82271 14.8183 3.44133 14.438 3.06132C14.0578 2.68111 13.6775 2.44752 13.2275 2.27314C12.7917 2.10402 12.2947 1.98876 11.567 1.95547C10.8378 1.92232 10.6056 1.91418 8.7485 1.91418H8.75062ZM8.13736 3.14609C8.3194 3.14582 8.5225 3.14609 8.75062 3.14609C10.5759 3.14609 10.7922 3.15265 11.5129 3.1854C12.1795 3.21588 12.5412 3.32724 12.7822 3.42083C13.1012 3.54469 13.3286 3.69283 13.5678 3.93215C13.807 4.17141 13.9551 4.39925 14.0793 4.71829C14.1729 4.95891 14.2844 5.32067 14.3147 5.98717C14.3475 6.70782 14.3546 6.92424 14.3546 8.74862C14.3546 10.573 14.3475 10.7895 14.3147 11.5101C14.2842 12.1766 14.1729 12.5383 14.0793 12.779C13.9554 13.0981 13.807 13.3252 13.5678 13.5643C13.3285 13.8036 13.1013 13.9517 12.7822 14.0756C12.5415 14.1696 12.1795 14.2807 11.5129 14.3112C10.7923 14.3439 10.5759 14.351 8.75062 14.351C6.92528 14.351 6.70893 14.3439 5.98835 14.3112C5.32185 14.2804 4.96009 14.169 4.71892 14.0755C4.39995 13.9515 4.17204 13.8035 3.93278 13.5642C3.69353 13.3249 3.54546 13.0976 3.42125 12.7785C3.32767 12.5378 3.21617 12.176 3.18582 11.5095C3.15308 10.7889 3.14651 10.5724 3.14651 8.74691C3.14651 6.92137 3.15308 6.70611 3.18582 5.98546C3.21631 5.31896 3.32767 4.9572 3.42125 4.71624C3.54519 4.3972 3.69353 4.16936 3.93285 3.9301C4.17218 3.69084 4.39995 3.54271 4.71898 3.41857C4.95995 3.32458 5.32185 3.21349 5.98835 3.18287C6.61896 3.15436 6.86335 3.14582 8.13736 3.14438V3.14609ZM12.3996 4.28113C11.9468 4.28113 11.5793 4.64822 11.5793 5.10117C11.5793 5.55405 11.9468 5.92148 12.3996 5.92148C12.8525 5.92148 13.22 5.55405 13.22 5.10117C13.22 4.64829 12.8525 4.28085 12.3996 4.28085V4.28113ZM8.75062 5.23959C6.81194 5.23959 5.24009 6.81145 5.24009 8.75019C5.24009 10.6889 6.81194 12.26 8.75062 12.26C10.6894 12.26 12.2607 10.6889 12.2607 8.75019C12.2607 6.81152 10.6892 5.23959 8.75048 5.23959H8.75062ZM8.75062 6.4715C10.009 6.4715 11.0293 7.49163 11.0293 8.75019C11.0293 10.0086 10.009 11.0289 8.75062 11.0289C7.49219 11.0289 6.47199 10.0086 6.47199 8.75019C6.47199 7.49163 7.49212 6.4715 8.75062 6.4715Z" fill="var(--fill-0, #F2F2F2)"/>
</g>
<defs>
<radialGradient id="paint0_radial_221_756" cx="0" cy="0" r="1" gradientUnits="userSpaceOnUse" gradientTransform="translate(4.64844 18.8478) rotate(-90) scale(17.3438 16.1311)">
<stop stop-color="#FFDD55"/>
<stop offset="0.1" stop-color="#FFDD55"/>
<stop offset="0.5" stop-color="#FF543E"/>
<stop offset="1" stop-color="#C837AB"/>
</radialGradient>
<radialGradient id="paint1_radial_221_756" cx="0" cy="0" r="1" gradientUnits="userSpaceOnUse" gradientTransform="translate(-2.93132 1.26062) rotate(78.681) scale(7.75277 31.9572)">
<stop stop-color="#3771C8"/>
<stop offset="0.128" stop-color="#3771C8"/>
<stop offset="1" stop-color="#6600FF" stop-opacity="0"/>
</radialGradient>
</defs>
</svg>
