<svg preserveAspectRatio="none" width="100%" height="100%" overflow="visible" style="display: block;" viewBox="0 0 36 36" fill="none" xmlns="http://www.w3.org/2000/svg">
<g id="Frame 1171280516">
<rect x="0.45" y="0.45" width="35.1" height="35.1" rx="17.55" stroke="var(--stroke-0, #EFE7DC)" stroke-width="0.9"/>
<path id="person" d="M18.0001 17.4976C17.3219 17.4976 16.7443 17.259 16.2672 16.7819C15.7899 16.3047 15.5513 15.727 15.5513 15.0488C15.5513 14.3708 15.7899 13.7931 16.2672 13.3159C16.7443 12.8386 17.3219 12.6 18.0001 12.6C18.6783 12.6 19.2559 12.8386 19.733 13.3159C20.2103 13.7931 20.4489 14.3708 20.4489 15.0488C20.4489 15.727 20.2103 16.3047 19.733 16.7819C19.2559 17.259 18.6783 17.4976 18.0001 17.4976ZM12.2862 22.5523V22.0562C12.2862 21.7192 12.3843 21.404 12.5805 21.1104C12.7768 20.8169 13.0408 20.5891 13.3725 20.4268C14.1428 20.0574 14.9135 19.7803 15.6847 19.5956C16.456 19.411 17.2278 19.3187 18.0001 19.3187C18.7724 19.3187 19.5442 19.411 20.3154 19.5956C21.0867 19.7803 21.8574 20.0574 22.6277 20.4268C22.9594 20.5891 23.2234 20.8169 23.4197 21.1104C23.6159 21.404 23.7139 21.7192 23.7139 22.0562V22.5523C23.7139 22.7919 23.6326 22.993 23.4699 23.1557C23.3072 23.3186 23.106 23.4 22.8662 23.4H13.1339C12.8942 23.4 12.693 23.3186 12.5303 23.1557C12.3676 22.993 12.2862 22.7919 12.2862 22.5523Z" fill="var(--fill-0, #666666)"/>
</g>
</svg>
