<svg preserveAspectRatio="none" width="100%" height="100%" overflow="visible" style="display: block;" viewBox="0 0 40 40" fill="none" xmlns="http://www.w3.org/2000/svg">
<g id="search" filter="url(#filter0_i_0_4)">
<g id="Union">
<path d="M20.1131 15.9169C20.313 15.6692 20.679 15.6281 20.8947 15.8623C21.1105 16.0965 21.2981 16.3566 21.4514 16.6375C21.6968 17.0876 21.8518 17.5817 21.9063 18.0914C21.9609 18.6012 21.9137 19.1171 21.7691 19.6089C21.6788 19.9157 21.5516 20.21 21.3904 20.4845C21.2291 20.7589 20.8616 20.7961 20.6138 20.5964C20.366 20.3965 20.334 20.0352 20.4779 19.7512C20.5536 19.6018 20.6159 19.445 20.6634 19.2835C20.7653 18.9371 20.7971 18.5737 20.7587 18.2147C20.7203 17.8555 20.6115 17.5062 20.4385 17.1891C20.3579 17.0416 20.2643 16.902 20.1589 16.7722C19.958 16.5251 19.9132 16.1648 20.1131 15.9169Z" fill="var(--fill-0, white)"/>
<path fill-rule="evenodd" clip-rule="evenodd" d="M18.0237 12C21.6175 12 24.5307 14.9133 24.5307 18.507C24.5307 19.7999 24.1514 21.0032 23.5013 22.016L28.0054 25.6901C28.5621 26.1446 28.6441 26.9647 28.1897 27.5215C27.7353 28.0781 26.9164 28.1612 26.3596 27.707L21.6814 23.8893C20.639 24.599 19.3799 25.014 18.0237 25.014C14.43 25.014 11.5167 22.1007 11.5167 18.507C11.5167 14.9133 14.43 12 18.0237 12ZM18.0237 13.3014C15.0111 13.3014 12.8181 15.4944 12.8181 18.507C12.8181 21.5196 15.0111 23.7126 18.0237 23.7126C21.0364 23.7126 23.2293 21.5196 23.2293 18.507C23.2293 15.4944 21.0364 13.3014 18.0237 13.3014Z" fill="var(--fill-0, white)"/>
</g>
</g>
<defs>
<filter id="filter0_i_0_4" x="0" y="0" width="41" height="41" filterUnits="userSpaceOnUse" color-interpolation-filters="sRGB">
<feFlood flood-opacity="0" result="BackgroundImageFix"/>
<feBlend mode="normal" in="SourceGraphic" in2="BackgroundImageFix" result="shape"/>
<feColorMatrix in="SourceAlpha" type="matrix" values="0 0 0 0 0 0 0 0 0 0 0 0 0 0 0 0 0 0 127 0" result="hardAlpha"/>
<feOffset dx="1" dy="1"/>
<feGaussianBlur stdDeviation="2"/>
<feComposite in2="hardAlpha" operator="arithmetic" k2="-1" k3="1"/>
<feColorMatrix type="matrix" values="0 0 0 0 0 0 0 0 0 0 0 0 0 0 0 0 0 0 0.06 0"/>
<feBlend mode="normal" in2="shape" result="effect1_innerShadow_0_4"/>
</filter>
</defs>
</svg>
