<svg preserveAspectRatio="none" width="100%" height="100%" overflow="visible" style="display: block;" viewBox="0 0 20 20" fill="none" xmlns="http://www.w3.org/2000/svg">
<g id="ic:round-plus">
<path id="Vector" d="M15 10.8317H10.8333V14.9983C10.8333 15.2193 10.7455 15.4313 10.5893 15.5876C10.433 15.7439 10.221 15.8317 10 15.8317C9.77899 15.8317 9.56703 15.7439 9.41074 15.5876C9.25446 15.4313 9.16667 15.2193 9.16667 14.9983V10.8317H5C4.77899 10.8317 4.56703 10.7439 4.41074 10.5876C4.25446 10.4313 4.16667 10.2193 4.16667 9.99833C4.16667 9.77732 4.25446 9.56536 4.41074 9.40908C4.56703 9.2528 4.77899 9.165 5 9.165H9.16667V4.99833C9.16667 4.77732 9.25446 4.56536 9.41074 4.40908C9.56703 4.2528 9.77899 4.165 10 4.165C10.221 4.165 10.433 4.2528 10.5893 4.40908C10.7455 4.56536 10.8333 4.77732 10.8333 4.99833V9.165H15C15.221 9.165 15.433 9.2528 15.5893 9.40908C15.7455 9.56536 15.8333 9.77732 15.8333 9.99833C15.8333 10.2193 15.7455 10.4313 15.5893 10.5876C15.433 10.7439 15.221 10.8317 15 10.8317Z" fill="var(--fill-0, #757575)"/>
</g>
</svg>
