<svg preserveAspectRatio="none" width="100%" height="100%" overflow="visible" style="display: block;" viewBox="0 0 20 20" fill="none" xmlns="http://www.w3.org/2000/svg">
<g id="lsicon:view-filled">
<path id="Vector" fill-rule="evenodd" clip-rule="evenodd" d="M18.125 10L18.6437 9.74V9.7375L18.64 9.73375L18.6325 9.71875L18.6063 9.66875L18.5063 9.48875C18.3842 9.27826 18.2546 9.07229 18.1175 8.87125C17.6602 8.19994 17.1344 7.57786 16.5488 7.015C15.1413 5.665 12.975 4.2875 10 4.2875C7.0275 4.2875 4.86 5.66375 3.4525 7.015C2.86683 7.57786 2.3411 8.19994 1.88375 8.87125C1.69817 9.14506 1.52629 9.42791 1.36875 9.71875L1.36125 9.73375L1.35875 9.7375V9.73875C1.35875 9.73875 1.3575 9.74 1.87625 10L1.3575 9.73875C1.31739 9.81978 1.29653 9.90897 1.29653 9.99937C1.29653 10.0898 1.31739 10.179 1.3575 10.26L1.35625 10.2625L1.36 10.2662L1.3675 10.2812C1.40648 10.3593 1.44817 10.4361 1.4925 10.5113C2.03075 11.4205 2.68918 12.253 3.45 12.9862C4.85875 14.3362 7.025 15.7112 10 15.7112C12.9737 15.7112 15.1412 14.3362 16.55 12.985C17.1346 12.4215 17.6598 11.7995 18.1175 11.1287C18.2928 10.8707 18.4559 10.6046 18.6063 10.3312L18.6325 10.2812L18.64 10.2662L18.6425 10.2625V10.2612C18.6425 10.2612 18.6437 10.26 18.125 10ZM18.125 10L18.6437 10.2612C18.6839 10.1802 18.7047 10.091 18.7047 10.0006C18.7047 9.91021 18.6839 9.82103 18.6437 9.74L18.125 10ZM9.925 8.08C9.41578 8.08 8.92742 8.28229 8.56736 8.64236C8.20729 9.00242 8.005 9.49078 8.005 10C8.005 10.5092 8.20729 10.9976 8.56736 11.3576C8.92742 11.7177 9.41578 11.92 9.925 11.92C10.4342 11.92 10.9226 11.7177 11.2826 11.3576C11.6427 10.9976 11.845 10.5092 11.845 10C11.845 9.49078 11.6427 9.00242 11.2826 8.64236C10.9226 8.28229 10.4342 8.08 9.925 8.08ZM6.8475 10C6.8475 9.18313 7.172 8.39972 7.74961 7.82211C8.32722 7.2445 9.11063 6.92 9.9275 6.92C10.7444 6.92 11.5278 7.2445 12.1054 7.82211C12.683 8.39972 13.0075 9.18313 13.0075 10C13.0075 10.8169 12.683 11.6003 12.1054 12.1779C11.5278 12.7555 10.7444 13.08 9.9275 13.08C9.11063 13.08 8.32722 12.7555 7.74961 12.1779C7.172 11.6003 6.8475 10.8169 6.8475 10Z" fill="var(--fill-0, #3D3D3D)"/>
</g>
</svg>
