<svg preserveAspectRatio="none" width="100%" height="100%" overflow="visible" style="display: block;" viewBox="0 0 20 20" fill="none" xmlns="http://www.w3.org/2000/svg">
<g id="fluent:people-add-20-regular">
<path id="Vector" d="M4.5 5.75C4.5 5.15326 4.73705 4.58097 5.15901 4.15901C5.58097 3.73705 6.15326 3.5 6.75 3.5C7.34674 3.5 7.91903 3.73705 8.34099 4.15901C8.76295 4.58097 9 5.15326 9 5.75C9 6.34674 8.76295 6.91903 8.34099 7.34099C7.91903 7.76295 7.34674 8 6.75 8C6.15326 8 5.58097 7.76295 5.15901 7.34099C4.73705 6.91903 4.5 6.34674 4.5 5.75ZM6.75 2.5C5.88805 2.5 5.0614 2.84241 4.4519 3.4519C3.84241 4.0614 3.5 4.88805 3.5 5.75C3.5 6.61195 3.84241 7.4386 4.4519 8.0481C5.0614 8.65759 5.88805 9 6.75 9C7.61195 9 8.4386 8.65759 9.0481 8.0481C9.65759 7.4386 10 6.61195 10 5.75C10 4.88805 9.65759 4.0614 9.0481 3.4519C8.4386 2.84241 7.61195 2.5 6.75 2.5ZM1.5 12C1.5 11.4696 1.71071 10.9609 2.08579 10.5858C2.46086 10.2107 2.96957 10 3.5 10H10C10.3483 9.99972 10.6905 10.0904 10.993 10.263C10.7157 10.4937 10.463 10.7487 10.235 11.028C10.1581 11.0094 10.0792 11 10 11H3.5C3.23478 11 2.98043 11.1054 2.79289 11.2929C2.60536 11.4804 2.5 11.7348 2.5 12V12.078L2.507 12.161C2.56126 12.6404 2.73226 13.0991 3.005 13.497C3.492 14.201 4.513 15 6.75 15C7.704 15 8.437 14.855 9.002 14.633C9.01067 14.983 9.05067 15.323 9.122 15.653C8.476 15.87 7.695 16 6.75 16C4.237 16 2.883 15.08 2.182 14.066C1.8129 13.5282 1.58271 12.9074 1.512 12.259C1.5063 12.2008 1.50229 12.1424 1.5 12.084V12ZM13 6.5C13 6.10218 13.158 5.72064 13.4393 5.43934C13.7206 5.15804 14.1022 5 14.5 5C14.8978 5 15.2794 5.15804 15.5607 5.43934C15.842 5.72064 16 6.10218 16 6.5C16 6.89782 15.842 7.27936 15.5607 7.56066C15.2794 7.84196 14.8978 8 14.5 8C14.1022 8 13.7206 7.84196 13.4393 7.56066C13.158 7.27936 13 6.89782 13 6.5ZM14.5 4C13.837 4 13.2011 4.26339 12.7322 4.73223C12.2634 5.20107 12 5.83696 12 6.5C12 7.16304 12.2634 7.79893 12.7322 8.26777C13.2011 8.73661 13.837 9 14.5 9C15.163 9 15.7989 8.73661 16.2678 8.26777C16.7366 7.79893 17 7.16304 17 6.5C17 5.83696 16.7366 5.20107 16.2678 4.73223C15.7989 4.26339 15.163 4 14.5 4ZM19 14.5C19 15.6935 18.5259 16.8381 17.682 17.682C16.8381 18.5259 15.6935 19 14.5 19C13.3065 19 12.1619 18.5259 11.318 17.682C10.4741 16.8381 10 15.6935 10 14.5C10 13.3065 10.4741 12.1619 11.318 11.318C12.1619 10.4741 13.3065 10 14.5 10C15.6935 10 16.8381 10.4741 17.682 11.318C18.5259 12.1619 19 13.3065 19 14.5ZM15 12.5C15 12.3674 14.9473 12.2402 14.8536 12.1464C14.7598 12.0527 14.6326 12 14.5 12C14.3674 12 14.2402 12.0527 14.1464 12.1464C14.0527 12.2402 14 12.3674 14 12.5V14H12.5C12.3674 14 12.2402 14.0527 12.1464 14.1464C12.0527 14.2402 12 14.3674 12 14.5C12 14.6326 12.0527 14.7598 12.1464 14.8536C12.2402 14.9473 12.3674 15 12.5 15H14V16.5C14 16.6326 14.0527 16.7598 14.1464 16.8536C14.2402 16.9473 14.3674 17 14.5 17C14.6326 17 14.7598 16.9473 14.8536 16.8536C14.9473 16.7598 15 16.6326 15 16.5V15H16.5C16.6326 15 16.7598 14.9473 16.8536 14.8536C16.9473 14.7598 17 14.6326 17 14.5C17 14.3674 16.9473 14.2402 16.8536 14.1464C16.7598 14.0527 16.6326 14 16.5 14H15V12.5Z" fill="var(--fill-0, #015F74)"/>
</g>
</svg>
