<svg preserveAspectRatio="none" width="100%" height="100%" overflow="visible" style="display: block;" viewBox="0 0 16 16" fill="none" xmlns="http://www.w3.org/2000/svg">
<g id="Component 116">
<mask id="mask0_0_92" style="mask-type:alpha" maskUnits="userSpaceOnUse" x="0" y="0" width="16" height="16">
<rect id="Bounding box" width="16" height="16" fill="var(--fill-0, #D9D9D9)"/>
</mask>
<g mask="url(#mask0_0_92)">
<path id="verified" d="M7.3 8.95383L6.1025 7.76033C6.04017 7.69789 5.96433 7.66456 5.875 7.66033C5.78567 7.656 5.70428 7.69061 5.63083 7.76417C5.55983 7.83506 5.52433 7.91367 5.52433 8C5.52433 8.08633 5.55983 8.16495 5.63083 8.23583L6.923 9.52817C7.03078 9.63583 7.15644 9.68967 7.3 9.68967C7.44356 9.68967 7.56922 9.63583 7.677 9.52817L10.3692 6.83583C10.4342 6.77095 10.4682 6.69445 10.4712 6.60633C10.4742 6.51833 10.4402 6.43761 10.3692 6.36417C10.2957 6.29061 10.2164 6.25322 10.1313 6.252C10.0463 6.25067 9.96711 6.28678 9.89367 6.36033L7.3 8.95383ZM5.7795 13.7437L4.9025 12.277L3.24867 11.9282C3.11622 11.9034 3.01067 11.8322 2.932 11.7147C2.85344 11.5972 2.821 11.4722 2.83467 11.3397L2.99233 9.63583L1.8705 8.35633C1.7765 8.25978 1.7295 8.141 1.7295 8C1.7295 7.859 1.7765 7.74022 1.8705 7.64367L2.99233 6.36417L2.83467 4.66033C2.821 4.52778 2.85344 4.40278 2.932 4.28533C3.01067 4.16778 3.11622 4.09661 3.24867 4.07183L4.9025 3.723L5.7795 2.25633C5.85128 2.13756 5.94783 2.05533 6.06917 2.00967C6.19061 1.96389 6.31628 1.97006 6.44617 2.02817L8 2.68467L9.55383 2.02817C9.68372 1.97006 9.80939 1.96389 9.93083 2.00967C10.0522 2.05533 10.1487 2.13756 10.2205 2.25633L11.0975 3.723L12.7513 4.07183C12.8838 4.09661 12.9893 4.16778 13.068 4.28533C13.1466 4.40278 13.179 4.52778 13.1653 4.66033L13.0077 6.36417L14.1295 7.64367C14.2235 7.74022 14.2705 7.859 14.2705 8C14.2705 8.141 14.2235 8.25978 14.1295 8.35633L13.0077 9.63583L13.1653 11.3397C13.179 11.4722 13.1466 11.5972 13.068 11.7147C12.9893 11.8322 12.8838 11.9034 12.7513 11.9282L11.0975 12.277L10.2205 13.7437C10.1487 13.8624 10.0522 13.9447 9.93083 13.9903C9.80939 14.0361 9.68372 14.0299 9.55383 13.9718L8 13.3153L6.44617 13.9718C6.31628 14.0299 6.19061 14.0361 6.06917 13.9903C5.94783 13.9447 5.85128 13.8624 5.7795 13.7437Z" fill="var(--fill-0, #008000)"/>
</g>
</g>
</svg>
