<svg width="16" height="16" viewBox="0 0 16 16" fill="none" xmlns="http://www.w3.org/2000/svg">
<g id="mobile-lightmode" clip-path="url(#clip0_3014_8006)">
<g id="Component 105/Frame 1000002171">
<path d="M-26 -364.5C-26 -373.337 -18.8366 -380.5 -10 -380.5H348C356.837 -380.5 364 -373.337 364 -364.5V311.5H-26V-364.5Z" fill="white"/>
<g id="Frame 1000002022">
<g id="Frame 1000002215">
<g id="Frame 1000002196" filter="url(#filter0_d_3014_8006)">
<g id="Frame 1000002029">
<mask id="path-3-inside-1_3014_8006" fill="white">
<path d="M0 -14.5H338V30.5H0V-14.5Z"/>
</mask>
<path d="M338 30.5V29.5H0V30.5V31.5H338V30.5Z" fill="#F2F2F2" mask="url(#path-3-inside-1_3014_8006)"/>
<g id="Frame 1000002195">
<g id="Component 116">
<mask id="mask0_3014_8006" style="mask-type:alpha" maskUnits="userSpaceOnUse" x="0" y="0" width="16" height="16">
<rect id="Bounding box" width="16" height="16" fill="#D9D9D9"/>
</mask>
<g mask="url(#mask0_3014_8006)">
<path id="chat_info" d="M8 4.41033C8.11622 4.41033 8.21367 4.371 8.29233 4.29233C8.371 4.21367 8.41033 4.11622 8.41033 4C8.41033 3.88378 8.371 3.78633 8.29233 3.70767C8.21367 3.629 8.11622 3.58967 8 3.58967C7.88378 3.58967 7.78633 3.629 7.70767 3.70767C7.629 3.78633 7.58967 3.88378 7.58967 4C7.58967 4.11622 7.629 4.21367 7.70767 4.29233C7.78633 4.371 7.88378 4.41033 8 4.41033ZM8.0005 9.61533C8.09506 9.61533 8.17417 9.58339 8.23783 9.5195C8.3015 9.45561 8.33333 9.37644 8.33333 9.282V5.8975C8.33333 5.80306 8.30133 5.72389 8.23733 5.66C8.17333 5.59611 8.09406 5.56417 7.9995 5.56417C7.90494 5.56417 7.82583 5.59611 7.76217 5.66C7.6985 5.72389 7.66667 5.80306 7.66667 5.8975V9.282C7.66667 9.37644 7.69867 9.45561 7.76267 9.5195C7.82667 9.58339 7.90594 9.61533 8.0005 9.61533ZM4.05133 11.3333L2.91533 12.4692C2.747 12.6376 2.55233 12.6757 2.33133 12.5833C2.11044 12.4909 2 12.3259 2 12.0885V3.077C2 2.77011 2.10278 2.51389 2.30833 2.30833C2.51389 2.10278 2.77011 2 3.077 2H12.923C13.2299 2 13.4861 2.10278 13.6917 2.30833C13.8972 2.51389 14 2.77011 14 3.077V10.2563C14 10.5632 13.8972 10.8194 13.6917 11.025C13.4861 11.2306 13.2299 11.3333 12.923 11.3333H4.05133Z" fill="#757575"/>
</g>
</g>
</g>
</g>
</g>
</g>
</g>
</g>
</g>
<defs>
<filter id="filter0_d_3014_8006" x="-32" y="-126.5" width="402" height="314" filterUnits="userSpaceOnUse" color-interpolation-filters="sRGB">
<feFlood flood-opacity="0" result="BackgroundImageFix"/>
<feColorMatrix in="SourceAlpha" type="matrix" values="0 0 0 0 0 0 0 0 0 0 0 0 0 0 0 0 0 0 127 0" result="hardAlpha"/>
<feMorphology radius="2" operator="dilate" in="SourceAlpha" result="effect1_dropShadow_3014_8006"/>
<feOffset/>
<feGaussianBlur stdDeviation="10"/>
<feComposite in2="hardAlpha" operator="out"/>
<feColorMatrix type="matrix" values="0 0 0 0 0 0 0 0 0 0 0 0 0 0 0 0 0 0 0.04 0"/>
<feBlend mode="normal" in2="BackgroundImageFix" result="effect1_dropShadow_3014_8006"/>
<feBlend mode="normal" in="SourceGraphic" in2="effect1_dropShadow_3014_8006" result="shape"/>
</filter>
<clipPath id="clip0_3014_8006">
<rect width="390" height="844" fill="white" transform="translate(-26 -456.5)"/>
</clipPath>
</defs>
</svg>
