<svg width="14" height="16" viewBox="0 0 14 16" fill="none" xmlns="http://www.w3.org/2000/svg">
<g id="mobile-lightmode" clip-path="url(#clip0_3014_8006)">
<g id="Component 105/Frame 1000002171">
<path d="M-158.334 -566C-158.334 -574.837 -151.171 -582 -142.334 -582H215.666C224.503 -582 231.666 -574.837 231.666 -566V110H-158.334V-566Z" fill="white"/>
<g id="Frame 1000002022">
<g id="Frame 1000002215">
<g id="Frame 1000002194" filter="url(#filter0_d_3014_8006)">
<g id="Frame 1000002027">
<g id="Frame 1000002198">
<g id="Component 116">
<path id="Vector" d="M5.44483 10.5345L5.44083 10.5252C5.36034 10.5062 5.28031 10.4853 5.20082 10.4625L5.19482 10.4605C4.43419 10.2422 3.7318 9.85707 3.13876 9.33314C2.48633 8.7576 1.9846 8.03119 1.67732 7.21726C1.37004 6.40333 1.26653 5.52659 1.37583 4.66347C1.48512 3.80036 1.8039 2.97709 2.30436 2.26544C2.80482 1.55379 3.47178 0.975375 4.24707 0.580623C5.02236 0.185871 5.88245 -0.0132292 6.75234 0.000681985C7.62224 0.0145932 8.47552 0.241094 9.23779 0.660434C10.0001 1.07977 10.6482 1.67922 11.1256 2.40651C11.6031 3.1338 11.8954 3.96684 11.977 4.83301C12.003 5.10835 11.777 5.33302 11.5003 5.33302C11.2243 5.33302 11.0037 5.10835 10.9717 4.83367C10.8835 4.07584 10.5969 3.35472 10.1407 2.74318C9.68451 2.13165 9.07497 1.65139 8.37368 1.35096C7.67239 1.05052 6.90421 0.940556 6.14679 1.03218C5.38938 1.1238 4.66958 1.41376 4.06015 1.87275C3.45073 2.33174 2.97328 2.94349 2.67607 3.64616C2.37887 4.34883 2.27244 5.1175 2.36755 5.87449C2.46266 6.63147 2.75593 7.34993 3.21772 7.95724C3.67951 8.56455 4.29345 9.03917 4.99748 9.33314L5.02415 9.34447C5.15749 9.39914 5.29482 9.44714 5.43483 9.48914C5.55283 9.20401 5.76608 8.96863 6.03822 8.82314C6.31035 8.67765 6.62453 8.63105 6.92718 8.6913C7.22983 8.75155 7.50222 8.9149 7.69789 9.15352C7.89357 9.39214 8.00042 9.69124 8.00023 9.99982C8.00053 10.3063 7.89527 10.6034 7.70216 10.8414C7.50905 11.0793 7.23988 11.2435 6.93994 11.3062C6.64 11.369 6.32759 11.3265 6.05529 11.186C5.78299 11.0454 5.56741 10.8154 5.44483 10.5345ZM4.78747 11.3825C3.60337 11.0137 2.55338 10.3058 1.76739 9.34647C1.28051 9.4035 0.831538 9.63734 0.505722 10.0036C0.179906 10.3698 -6.0331e-05 10.843 1.51715e-08 11.3332V11.8099C1.51715e-08 14.2886 2.80675 16 6.66686 16C10.527 16 13.3337 14.1946 13.3337 11.8099V11.3332C13.3337 10.8027 13.123 10.294 12.7479 9.91894C12.3728 9.54386 11.8641 9.33314 11.3337 9.33314H8.90359C9.06086 9.85984 9.02713 10.4252 8.80835 10.9294C8.58958 11.4337 8.1998 11.8445 7.70774 12.0895C7.21567 12.3345 6.65292 12.3979 6.11867 12.2686C5.58442 12.1393 5.11299 11.8255 4.78747 11.3825ZM10.0003 5.33302C10.0003 4.32499 9.55361 3.42163 8.84626 2.81028C8.49135 2.50411 8.07586 2.27624 7.62691 2.14153C7.17796 2.00682 6.70565 1.9683 6.24081 2.02849C5.77597 2.08869 5.32904 2.24623 4.92922 2.49085C4.52939 2.73547 4.18564 3.06166 3.92042 3.44813C3.6552 3.8346 3.47446 4.27266 3.39001 4.73371C3.30555 5.19476 3.31928 5.66844 3.43029 6.12383C3.54131 6.57921 3.74711 7.00607 4.03427 7.37653C4.32143 7.74699 4.68349 8.05272 5.09682 8.27377C5.52588 7.88224 6.086 7.66556 6.66686 7.66642C7.2479 7.66565 7.80821 7.8823 8.23758 8.27377C8.77021 7.98923 9.21554 7.56535 9.526 7.0474C9.83646 6.52945 10.0004 5.93689 10.0003 5.33302Z" fill="#757575"/>
</g>
</g>
</g>
</g>
</g>
</g>
</g>
</g>
<defs>
<filter id="filter0_d_3014_8006" x="-164.334" y="-38" width="402" height="92" filterUnits="userSpaceOnUse" color-interpolation-filters="sRGB">
<feFlood flood-opacity="0" result="BackgroundImageFix"/>
<feColorMatrix in="SourceAlpha" type="matrix" values="0 0 0 0 0 0 0 0 0 0 0 0 0 0 0 0 0 0 127 0" result="hardAlpha"/>
<feMorphology radius="2" operator="dilate" in="SourceAlpha" result="effect1_dropShadow_3014_8006"/>
<feOffset/>
<feGaussianBlur stdDeviation="10"/>
<feComposite in2="hardAlpha" operator="out"/>
<feColorMatrix type="matrix" values="0 0 0 0 0 0 0 0 0 0 0 0 0 0 0 0 0 0 0.04 0"/>
<feBlend mode="normal" in2="BackgroundImageFix" result="effect1_dropShadow_3014_8006"/>
<feBlend mode="normal" in="SourceGraphic" in2="effect1_dropShadow_3014_8006" result="shape"/>
</filter>
<clipPath id="clip0_3014_8006">
<rect width="390" height="844" fill="white" transform="translate(-158.334 -658)"/>
</clipPath>
</defs>
</svg>
