<svg preserveAspectRatio="none" width="100%" height="100%" overflow="visible" style="display: block;" viewBox="0 0 20 20" fill="none" xmlns="http://www.w3.org/2000/svg">
<g id="Frame">
<path id="Vector" d="M8.64516 7.65524V13.0746C8.64516 13.1944 8.59758 13.3092 8.51289 13.3939C8.42819 13.4786 8.31332 13.5262 8.19355 13.5262C8.07377 13.5262 7.9589 13.4786 7.87421 13.3939C7.78952 13.3092 7.74194 13.1944 7.74194 13.0746V7.65524C7.74194 7.53547 7.78952 7.4206 7.87421 7.3359C7.9589 7.25121 8.07377 7.20363 8.19355 7.20363C8.31332 7.20363 8.42819 7.25121 8.51289 7.3359C8.59758 7.4206 8.64516 7.53547 8.64516 7.65524ZM10 7.20363C9.88022 7.20363 9.76536 7.25121 9.68066 7.3359C9.59597 7.4206 9.54839 7.53547 9.54839 7.65524V13.0746C9.54839 13.1944 9.59597 13.3092 9.68066 13.3939C9.76536 13.4786 9.88022 13.5262 10 13.5262C10.1198 13.5262 10.2346 13.4786 10.3193 13.3939C10.404 13.3092 10.4516 13.1944 10.4516 13.0746V7.65524C10.4516 7.53547 10.404 7.4206 10.3193 7.3359C10.2346 7.25121 10.1198 7.20363 10 7.20363ZM11.8065 7.20363C11.6867 7.20363 11.5718 7.25121 11.4871 7.3359C11.4024 7.4206 11.3548 7.53547 11.3548 7.65524V13.0746C11.3548 13.1944 11.4024 13.3092 11.4871 13.3939C11.5718 13.4786 11.6867 13.5262 11.8065 13.5262C11.9262 13.5262 12.0411 13.4786 12.1258 13.3939C12.2105 13.3092 12.2581 13.1944 12.2581 13.0746V7.65524C12.2581 7.53547 12.2105 7.4206 12.1258 7.3359C12.0411 7.25121 11.9262 7.20363 11.8065 7.20363ZM14.5161 6.3004V14.4294C14.5161 14.669 14.421 14.8987 14.2516 15.0681C14.0822 15.2375 13.8525 15.3327 13.6129 15.3327H12.7097V16.2359C12.7097 16.3557 12.6621 16.4705 12.5774 16.5552C12.4927 16.6399 12.3778 16.6875 12.2581 16.6875C12.1383 16.6875 12.0234 16.6399 11.9387 16.5552C11.854 16.4705 11.8065 16.3557 11.8065 16.2359V15.3327H8.19355V16.2359C8.19355 16.3557 8.14597 16.4705 8.06127 16.5552C7.97658 16.6399 7.86171 16.6875 7.74194 16.6875C7.62216 16.6875 7.50729 16.6399 7.4226 16.5552C7.3379 16.4705 7.29032 16.3557 7.29032 16.2359V15.3327H6.3871C6.14755 15.3327 5.91781 15.2375 5.74842 15.0681C5.57903 14.8987 5.48387 14.669 5.48387 14.4294V6.3004C5.48387 6.06085 5.57903 5.83111 5.74842 5.66173C5.91781 5.49234 6.14755 5.39718 6.3871 5.39718H7.74194V4.04234C7.74194 3.68301 7.88468 3.3384 8.13876 3.08432C8.39284 2.83024 8.73745 2.6875 9.09677 2.6875H10.9032C11.2626 2.6875 11.6072 2.83024 11.8612 3.08432C12.1153 3.3384 12.2581 3.68301 12.2581 4.04234V5.39718H13.6129C13.8525 5.39718 14.0822 5.49234 14.2516 5.66173C14.421 5.83111 14.5161 6.06085 14.5161 6.3004ZM8.64516 5.39718H11.3548V4.04234C11.3548 3.92256 11.3073 3.80769 11.2226 3.723C11.1379 3.63831 11.023 3.59073 10.9032 3.59073H9.09677C8.977 3.59073 8.86213 3.63831 8.77744 3.723C8.69274 3.80769 8.64516 3.92256 8.64516 4.04234V5.39718ZM13.6129 14.4294V6.3004H6.3871V14.4294H13.6129Z" fill="var(--fill-0, #757575)"/>
</g>
</svg>
