<svg width="16" height="16" viewBox="0 0 16 16" fill="none" xmlns="http://www.w3.org/2000/svg">
<g id="mobile-lightmode" clip-path="url(#clip0_3014_8006)">
<g id="Component 105/Frame 1000002171">
<path d="M-26 -409.5C-26 -418.337 -18.8366 -425.5 -10 -425.5H348C356.837 -425.5 364 -418.337 364 -409.5V266.5H-26V-409.5Z" fill="white"/>
<g id="Frame 1000002022">
<g id="Frame 1000002215">
<g id="Frame 1000002196" filter="url(#filter0_d_3014_8006)">
<g id="Frame 1000002031">
<mask id="path-3-inside-1_3014_8006" fill="white">
<path d="M0 -14.5H338V30.5H0V-14.5Z"/>
</mask>
<path d="M338 30.5V29.5H0V30.5V31.5H338V30.5Z" fill="#F2F2F2" mask="url(#path-3-inside-1_3014_8006)"/>
<g id="Frame 1000002196_2">
<g id="Component 116">
<g id="person">
<mask id="mask0_3014_8006" style="mask-type:alpha" maskUnits="userSpaceOnUse" x="1" y="4" width="12" height="12">
<rect id="Bounding box" x="1.2793" y="4.47998" width="11.52" height="11.52" fill="#D9D9D9"/>
</mask>
<g mask="url(#mask0_3014_8006)">
<path id="person_2" d="M7.03968 9.94299C6.64088 9.94299 6.30121 9.80271 6.02065 9.52215C5.74001 9.24151 5.59969 8.90179 5.59969 8.50299C5.59969 8.10427 5.74001 7.76459 6.02065 7.48395C6.30121 7.20331 6.64088 7.06299 7.03968 7.06299C7.43848 7.06299 7.77816 7.20331 8.05872 7.48395C8.33936 7.76459 8.47968 8.10427 8.47968 8.50299C8.47968 8.90179 8.33936 9.24151 8.05872 9.52215C7.77816 9.80271 7.43848 9.94299 7.03968 9.94299ZM3.67969 12.9154V12.6237C3.67969 12.4255 3.73737 12.2401 3.85273 12.0675C3.96817 11.8949 4.12341 11.7609 4.31845 11.6655C4.77141 11.4483 5.22465 11.2853 5.67817 11.1767C6.13169 11.0681 6.58552 11.0139 7.03968 11.0139C7.49384 11.0139 7.94768 11.0681 8.4012 11.1767C8.85472 11.2853 9.30796 11.4483 9.76092 11.6655C9.95596 11.7609 10.1112 11.8949 10.2266 12.0675C10.342 12.2401 10.3997 12.4255 10.3997 12.6237V12.9154C10.3997 13.0563 10.3518 13.1745 10.2562 13.2702C10.1605 13.366 10.0422 13.4139 9.9012 13.4139H4.17817C4.03721 13.4139 3.91889 13.366 3.82321 13.2702C3.72753 13.1745 3.67969 13.0563 3.67969 12.9154Z" fill="#757575"/>
</g>
</g>
<g id="person_3">
<mask id="mask1_3014_8006" style="mask-type:alpha" maskUnits="userSpaceOnUse" x="7" y="3" width="9" height="10">
<rect id="Bounding box_2" x="7.03906" y="3.19995" width="8.95999" height="8.95999" fill="#D9D9D9"/>
</mask>
<g mask="url(#mask1_3014_8006)">
<path id="person_4" d="M11.5196 7.4502C11.2094 7.4502 10.9452 7.3411 10.727 7.12288C10.5087 6.90461 10.3996 6.64038 10.3996 6.3302C10.3996 6.02009 10.5087 5.75589 10.727 5.53762C10.9452 5.31934 11.2094 5.21021 11.5196 5.21021C11.8298 5.21021 12.094 5.31934 12.3122 5.53762C12.5304 5.75589 12.6396 6.02009 12.6396 6.3302C12.6396 6.64038 12.5304 6.90461 12.3122 7.12288C12.094 7.3411 11.8298 7.4502 11.5196 7.4502ZM8.90625 9.76207V9.53517C8.90625 9.38105 8.95111 9.23685 9.04084 9.10258C9.13062 8.96836 9.25137 8.86414 9.40306 8.78991C9.75536 8.62098 10.1079 8.49426 10.4606 8.40976C10.8134 8.32533 11.1663 8.28311 11.5196 8.28311C11.8728 8.28311 12.2258 8.32533 12.5785 8.40976C12.9313 8.49426 13.2838 8.62098 13.6361 8.78991C13.7878 8.86414 13.9085 8.96836 13.9983 9.10258C14.088 9.23685 14.1329 9.38105 14.1329 9.53517V9.76207C14.1329 9.87164 14.0957 9.96364 14.0213 10.0381C13.9469 10.1125 13.8548 10.1498 13.7452 10.1498H9.29396C9.18432 10.1498 9.09229 10.1125 9.01788 10.0381C8.94346 9.96364 8.90625 9.87164 8.90625 9.76207Z" fill="#757575"/>
</g>
</g>
<g id="switch_access_shortcut">
<mask id="mask2_3014_8006" style="mask-type:alpha" maskUnits="userSpaceOnUse" x="0" y="0" width="13" height="13">
<rect id="Bounding box_3" x="6.67578" width="8.95999" height="8.95999" transform="rotate(48.1715 6.67578 0)" fill="#D9D9D9"/>
</mask>
<g mask="url(#mask2_3014_8006)">
<path id="switch_access_shortcut_2" d="M8.76942 4.90869C8.23054 4.76086 7.6923 4.75105 7.1547 4.87923C6.61714 5.00737 6.14007 5.25787 5.72348 5.63071C5.27662 6.03065 4.96238 6.51439 4.78076 7.08193C4.59914 7.64948 4.57343 8.22632 4.70364 8.81246C4.71591 8.86704 4.70967 8.91871 4.68494 8.96748C4.66015 9.0163 4.62223 9.04624 4.57116 9.05729C4.51648 9.07157 4.46684 9.06332 4.42223 9.03251C4.37767 9.00175 4.34876 8.95956 4.33552 8.90595C4.18978 8.25012 4.21703 7.60684 4.41727 6.97613C4.61746 6.34537 4.96809 5.80576 5.46915 5.35732C5.91249 4.96053 6.42079 4.68965 6.99404 4.54466C7.56726 4.39964 8.14403 4.39438 8.72437 4.5289L7.79357 3.4889C7.75813 3.44931 7.74181 3.40434 7.74459 3.35399C7.74738 3.30365 7.76858 3.26076 7.80817 3.22532C7.84777 3.18988 7.89274 3.17356 7.94308 3.17635C7.99343 3.17914 8.03632 3.20033 8.07175 3.23992L9.25919 4.56667C9.31695 4.63121 9.34361 4.70387 9.33918 4.78466C9.33471 4.86541 9.30018 4.93468 9.23559 4.99248L7.90885 6.17992C7.86925 6.21535 7.82428 6.23168 7.77394 6.22889C7.72359 6.2261 7.6807 6.20491 7.64527 6.16531C7.60983 6.12572 7.5935 6.08075 7.59629 6.0304C7.59908 5.98006 7.62028 5.93717 7.65987 5.90173L8.76942 4.90869Z" fill="#757575"/>
</g>
</g>
</g>
</g>
</g>
</g>
</g>
</g>
</g>
</g>
<defs>
<filter id="filter0_d_3014_8006" x="-32" y="-171.5" width="402" height="314" filterUnits="userSpaceOnUse" color-interpolation-filters="sRGB">
<feFlood flood-opacity="0" result="BackgroundImageFix"/>
<feColorMatrix in="SourceAlpha" type="matrix" values="0 0 0 0 0 0 0 0 0 0 0 0 0 0 0 0 0 0 127 0" result="hardAlpha"/>
<feMorphology radius="2" operator="dilate" in="SourceAlpha" result="effect1_dropShadow_3014_8006"/>
<feOffset/>
<feGaussianBlur stdDeviation="10"/>
<feComposite in2="hardAlpha" operator="out"/>
<feColorMatrix type="matrix" values="0 0 0 0 0 0 0 0 0 0 0 0 0 0 0 0 0 0 0.04 0"/>
<feBlend mode="normal" in2="BackgroundImageFix" result="effect1_dropShadow_3014_8006"/>
<feBlend mode="normal" in="SourceGraphic" in2="effect1_dropShadow_3014_8006" result="shape"/>
</filter>
<clipPath id="clip0_3014_8006">
<rect width="390" height="844" fill="white" transform="translate(-26 -501.5)"/>
</clipPath>
</defs>
</svg>
