<svg preserveAspectRatio="none" width="100%" height="100%" overflow="visible" style="display: block;" viewBox="0 0 24 24" fill="none" xmlns="http://www.w3.org/2000/svg">
<g id="Component 116">
<mask id="mask0_0_111" style="mask-type:alpha" maskUnits="userSpaceOnUse" x="0" y="0" width="24" height="24">
<rect id="Bounding box" width="24" height="24" fill="var(--fill-0, #D9D9D9)"/>
</mask>
<g mask="url(#mask0_0_111)">
<path id="group_add" d="M12.6922 11.3345C13.0602 10.9423 13.3189 10.4879 13.4682 9.97125C13.6176 9.45458 13.6922 8.92567 13.6922 8.3845C13.6922 7.8435 13.6176 7.31467 13.4682 6.798C13.3189 6.28133 13.0602 5.82683 12.6922 5.4345C13.4487 5.50383 14.0737 5.8205 14.5672 6.3845C15.0609 6.94867 15.3078 7.61533 15.3078 8.3845C15.3078 9.15383 15.0609 9.8205 14.5672 10.3845C14.0737 10.9487 13.4487 11.2653 12.6922 11.3345ZM17.4693 18.6155C17.5373 18.4565 17.5914 18.2888 17.6318 18.1125C17.6721 17.9362 17.6922 17.7577 17.6922 17.577V16.923C17.6922 16.4327 17.6038 15.9662 17.427 15.5235C17.25 15.0808 16.9705 14.7153 16.5885 14.427C17.2718 14.6372 17.8958 14.9381 18.4605 15.3298C19.0253 15.7214 19.3077 16.2525 19.3077 16.923V17.577C19.3077 17.8705 19.2081 18.1169 19.0087 18.3163C18.8092 18.5158 18.5628 18.6155 18.2693 18.6155H17.4693ZM19.3077 10.5H17.8077C17.6661 10.5 17.5473 10.452 17.4515 10.356C17.3557 10.26 17.3078 10.1411 17.3078 9.99925C17.3078 9.85742 17.3557 9.73875 17.4515 9.64325C17.5473 9.54775 17.6661 9.5 17.8077 9.5H19.3077V8C19.3077 7.85833 19.3558 7.73958 19.4518 7.64375C19.5476 7.54792 19.6664 7.5 19.8083 7.5C19.9503 7.5 20.069 7.54792 20.1645 7.64375C20.26 7.73958 20.3077 7.85833 20.3077 8V9.5H21.8077C21.9494 9.5 22.0682 9.548 22.164 9.644C22.2598 9.74 22.3077 9.85892 22.3077 10.0008C22.3077 10.1426 22.2598 10.2613 22.164 10.3568C22.0682 10.4523 21.9494 10.5 21.8077 10.5H20.3077V12C20.3077 12.1417 20.2598 12.2604 20.1638 12.3562C20.0678 12.4521 19.9488 12.5 19.807 12.5C19.6652 12.5 19.5465 12.4521 19.451 12.3562C19.3555 12.2604 19.3077 12.1417 19.3077 12V10.5ZM8.69225 11.3845C7.86725 11.3845 7.161 11.0908 6.5735 10.5033C5.986 9.91575 5.69225 9.2095 5.69225 8.3845C5.69225 7.5595 5.986 6.85325 6.5735 6.26575C7.161 5.67825 7.86725 5.3845 8.69225 5.3845C9.51725 5.3845 10.2235 5.67825 10.811 6.26575C11.3985 6.85325 11.6922 7.5595 11.6922 8.3845C11.6922 9.2095 11.3985 9.91575 10.811 10.5033C10.2235 11.0908 9.51725 11.3845 8.69225 11.3845ZM1.69225 17.577V16.9693C1.69225 16.5564 1.81242 16.1702 2.05275 15.8105C2.29325 15.451 2.61667 15.1718 3.023 14.973C3.96667 14.5205 4.91092 14.1811 5.85575 13.9548C6.80058 13.7286 7.74608 13.6155 8.69225 13.6155C9.63842 13.6155 10.5839 13.7286 11.5288 13.9548C12.4738 14.1811 13.418 14.5205 14.3615 14.973C14.768 15.1718 15.0914 15.451 15.3318 15.8105C15.5721 16.1702 15.6922 16.5564 15.6922 16.9693V17.577C15.6922 17.8705 15.5926 18.1169 15.3932 18.3163C15.1939 18.5158 14.9474 18.6155 14.6538 18.6155H2.73075C2.43725 18.6155 2.19075 18.5158 1.99125 18.3163C1.79192 18.1169 1.69225 17.8705 1.69225 17.577Z" fill="var(--fill-0, #1C1B1F)"/>
</g>
</g>
</svg>
