<svg preserveAspectRatio="none" width="100%" height="100%" overflow="visible" style="display: block;" viewBox="0 0 24 24" fill="none" xmlns="http://www.w3.org/2000/svg">
<g id="Component 116">
<mask id="mask0_0_117" style="mask-type:alpha" maskUnits="userSpaceOnUse" x="0" y="0" width="24" height="24">
<rect id="Bounding box" width="24" height="24" fill="var(--fill-0, #D9D9D9)"/>
</mask>
<g mask="url(#mask0_0_117)">
<path id="group" d="M2.59625 16.9693C2.59625 16.5051 2.71642 16.106 2.95675 15.772C3.19708 15.4382 3.52008 15.1713 3.92575 14.9715C4.79325 14.5585 5.6545 14.2292 6.5095 13.9837C7.36467 13.7382 8.39358 13.6155 9.59625 13.6155C10.7987 13.6155 11.8276 13.7382 12.6827 13.9837C13.5379 14.2292 14.3992 14.5585 15.2665 14.9715C15.6722 15.1713 15.9952 15.4382 16.2355 15.772C16.476 16.106 16.5962 16.5051 16.5962 16.9693V17.577C16.5962 17.832 16.4965 18.0688 16.297 18.2875C16.0977 18.5062 15.8513 18.6155 15.5578 18.6155H3.6345C3.341 18.6155 3.09458 18.5158 2.89525 18.3163C2.69592 18.1169 2.59625 17.8705 2.59625 17.577V16.9693ZM18.373 18.6155C18.441 18.4565 18.4952 18.2888 18.5355 18.1125C18.576 17.9362 18.5962 17.7577 18.5962 17.577V16.923C18.5962 16.3435 18.4789 15.7965 18.2443 15.282C18.0098 14.7675 17.6771 14.3261 17.2463 13.9577C17.7373 14.0577 18.2103 14.1965 18.6655 14.374C19.1205 14.5517 19.5705 14.7513 20.0155 14.973C20.4488 15.191 20.7886 15.4699 21.0348 15.8098C21.2808 16.1498 21.4038 16.5208 21.4038 16.923V17.577C21.4038 17.8705 21.3041 18.1169 21.1048 18.3163C20.9054 18.5158 20.659 18.6155 20.3655 18.6155H18.373ZM9.59625 11.3845C8.77125 11.3845 8.065 11.0908 7.4775 10.5033C6.89 9.91575 6.59625 9.2095 6.59625 8.3845C6.59625 7.5595 6.89 6.85325 7.4775 6.26575C8.065 5.67825 8.77125 5.3845 9.59625 5.3845C10.4212 5.3845 11.1275 5.67825 11.715 6.26575C12.3025 6.85325 12.5962 7.5595 12.5962 8.3845C12.5962 9.2095 12.3025 9.91575 11.715 10.5033C11.1275 11.0908 10.4212 11.3845 9.59625 11.3845ZM16.8655 8.3845C16.8655 9.2095 16.5718 9.91575 15.9843 10.5033C15.3968 11.0908 14.6905 11.3845 13.8655 11.3845C13.8232 11.3845 13.7693 11.3797 13.7038 11.3702C13.6384 11.3606 13.5846 11.35 13.5422 11.3385C13.8811 10.9235 14.1414 10.4632 14.3233 9.9575C14.5053 9.45183 14.5962 8.92675 14.5962 8.38225C14.5962 7.83775 14.501 7.31742 14.3105 6.82125C14.1202 6.32508 13.8641 5.86158 13.5422 5.43075C13.5961 5.41158 13.6499 5.39908 13.7038 5.39325C13.7576 5.38742 13.8115 5.3845 13.8655 5.3845C14.6905 5.3845 15.3968 5.67825 15.9843 6.26575C16.5718 6.85325 16.8655 7.5595 16.8655 8.3845Z" fill="var(--fill-0, #1C1B1F)"/>
</g>
</g>
</svg>
