<svg preserveAspectRatio="none" width="100%" height="100%" overflow="visible" style="display: block;" viewBox="0 0 17.6 17.6" fill="none" xmlns="http://www.w3.org/2000/svg">
<g id="icon-close">
<mask id="mask0_0_496" style="mask-type:alpha" maskUnits="userSpaceOnUse" x="0" y="0" width="18" height="18">
<rect id="Bounding box" width="17.6" height="17.6" fill="var(--fill-0, #D9D9D9)"/>
</mask>
<g mask="url(#mask0_0_496)">
<path id="close" d="M8.8 9.82667L5.20667 13.42C5.07222 13.5544 4.90111 13.6217 4.69333 13.6217C4.48556 13.6217 4.31444 13.5544 4.18 13.42C4.04556 13.2856 3.97833 13.1144 3.97833 12.9067C3.97833 12.6989 4.04556 12.5278 4.18 12.3933L7.77333 8.8L4.18 5.20667C4.04556 5.07222 3.97833 4.90111 3.97833 4.69333C3.97833 4.48556 4.04556 4.31444 4.18 4.18C4.31444 4.04556 4.48556 3.97833 4.69333 3.97833C4.90111 3.97833 5.07222 4.04556 5.20667 4.18L8.8 7.77333L12.3933 4.18C12.5278 4.04556 12.6989 3.97833 12.9067 3.97833C13.1144 3.97833 13.2856 4.04556 13.42 4.18C13.5544 4.31444 13.6217 4.48556 13.6217 4.69333C13.6217 4.90111 13.5544 5.07222 13.42 5.20667L9.82667 8.8L13.42 12.3933C13.5544 12.5278 13.6217 12.6989 13.6217 12.9067C13.6217 13.1144 13.5544 13.2856 13.42 13.42C13.2856 13.5544 13.1144 13.6217 12.9067 13.6217C12.6989 13.6217 12.5278 13.5544 12.3933 13.42L8.8 9.82667Z" fill="var(--fill-0, #202020)"/>
</g>
</g>
</svg>
