<svg preserveAspectRatio="none" width="100%" height="100%" overflow="visible" style="display: block;" viewBox="0 0 20 20" fill="none" xmlns="http://www.w3.org/2000/svg">
<g id="Component 116" clip-path="url(#clip0_0_472)">
<path id="Vector" d="M18.125 0.46875H1.875C1.5063 0.464998 1.15117 0.607663 0.887529 0.865442C0.623892 1.12322 0.473283 1.47506 0.46875 1.84375V18.1594C0.474103 18.5275 0.625072 18.8786 0.88862 19.1357C1.15217 19.3928 1.50683 19.535 1.875 19.5313H18.125C18.4937 19.5342 18.8486 19.391 19.1121 19.1331C19.3756 18.8751 19.5263 18.5234 19.5312 18.1547V1.83906C19.5247 1.47145 19.3733 1.12129 19.1099 0.864696C18.8466 0.608101 18.4927 0.465809 18.125 0.46875Z" fill="var(--fill-0, #0076B2)"/>
<path id="Vector_2" d="M3.29063 7.61406H6.12031V16.7188H3.29063V7.61406ZM4.70625 3.08281C5.0308 3.08281 5.34806 3.17907 5.61789 3.35942C5.88773 3.53976 6.09801 3.79608 6.22214 4.09596C6.34627 4.39583 6.37867 4.72579 6.31524 5.04408C6.25181 5.36237 6.0954 5.6547 5.86579 5.88409C5.63619 6.11347 5.34371 6.2696 5.02536 6.33273C4.70701 6.39586 4.37708 6.36314 4.07733 6.23873C3.77757 6.11431 3.52145 5.90379 3.34136 5.63378C3.16127 5.36378 3.06532 5.04643 3.06563 4.72187C3.06604 4.28702 3.23907 3.87013 3.54671 3.56279C3.85434 3.25545 4.2714 3.08281 4.70625 3.08281ZM7.89531 7.61406H10.6078V8.86406H10.6453C11.0234 8.14844 11.9453 7.39375 13.3219 7.39375C16.1875 7.3875 16.7188 9.27344 16.7188 11.7187V16.7188H13.8891V12.2891C13.8891 11.2344 13.8703 9.87656 12.4188 9.87656C10.9672 9.87656 10.7203 11.0266 10.7203 12.2203V16.7188H7.89531V7.61406Z" fill="var(--fill-0, white)"/>
</g>
<defs>
<clipPath id="clip0_0_472">
</clipPath>
</defs>
</svg>
