<svg preserveAspectRatio="none" width="100%" height="100%" overflow="visible" style="display: block;" viewBox="0 0 20 20" fill="none" xmlns="http://www.w3.org/2000/svg">
<g id="Frame">
<path id="Vector" d="M9.69599 10.1957V4.1087C9.69599 3.94726 9.76012 3.79244 9.87428 3.67828C9.98843 3.56413 10.1433 3.5 10.3047 3.5C10.4661 3.5 10.6209 3.56413 10.7351 3.67828C10.8493 3.79244 10.9134 3.94726 10.9134 4.1087V10.1957C10.9134 10.3571 10.8493 10.5119 10.7351 10.6261C10.6209 10.7402 10.4661 10.8043 10.3047 10.8043C10.1433 10.8043 9.98843 10.7402 9.87428 10.6261C9.76012 10.5119 9.69599 10.3571 9.69599 10.1957ZM14.2894 4.20761C14.1542 4.12216 13.9908 4.09336 13.8345 4.12742C13.6783 4.16147 13.5417 4.25566 13.4543 4.38961C13.367 4.52357 13.3358 4.68652 13.3676 4.84325C13.3994 4.99999 13.4917 5.1379 13.6244 5.22717C15.3827 6.3738 16.3916 8.18467 16.3916 10.1957C16.3916 11.81 15.7503 13.3583 14.6088 14.4998C13.4673 15.6413 11.919 16.2826 10.3047 16.2826C8.69033 16.2826 7.14209 15.6413 6.00056 14.4998C4.85903 13.3583 4.21773 11.81 4.21773 10.1957C4.21773 8.18467 5.22664 6.3738 6.98501 5.22717C7.1177 5.1379 7.20993 4.99999 7.24175 4.84325C7.27357 4.68652 7.24242 4.52357 7.15505 4.38961C7.06769 4.25566 6.93111 4.16147 6.77485 4.12742C6.61859 4.09336 6.4552 4.12216 6.32001 4.20761C4.21012 5.58326 3.00034 7.76543 3.00034 10.1957C3.00034 12.1329 3.7699 13.9908 5.13973 15.3606C6.50956 16.7304 8.36745 17.5 10.3047 17.5C12.2419 17.5 14.0998 16.7304 15.4696 15.3606C16.8395 13.9908 17.609 12.1329 17.609 10.1957C17.609 7.76543 16.3993 5.58326 14.2894 4.20761Z" fill="var(--fill-0, #757575)"/>
</g>
</svg>
