<svg preserveAspectRatio="none" width="100%" height="100%" overflow="visible" style="display: block;" viewBox="0 0 20 20" fill="none" xmlns="http://www.w3.org/2000/svg">
<g id="Frame">
<path id="Vector" d="M17.7494 3.5H12.4993C12.0466 3.5 11.6 3.60542 11.195 3.80792C10.79 4.01042 10.4377 4.30443 10.166 4.66667C9.89434 4.30443 9.54205 4.01042 9.13706 3.80792C8.73206 3.60542 8.28548 3.5 7.83268 3.5H2.58268C2.42797 3.5 2.2796 3.56146 2.1702 3.67085C2.06081 3.78025 1.99935 3.92862 1.99935 4.08333V14.5833C1.99935 14.738 2.06081 14.8864 2.1702 14.9958C2.2796 15.1052 2.42797 15.1667 2.58268 15.1667H7.83268C8.29681 15.1667 8.74193 15.351 9.07012 15.6792C9.39831 16.0074 9.58268 16.4525 9.58268 16.9167C9.58268 17.0714 9.64414 17.2197 9.75354 17.3291C9.86293 17.4385 10.0113 17.5 10.166 17.5C10.3207 17.5 10.4691 17.4385 10.5785 17.3291C10.6879 17.2197 10.7493 17.0714 10.7493 16.9167C10.7493 16.4525 10.9337 16.0074 11.2619 15.6792C11.5901 15.351 12.0352 15.1667 12.4993 15.1667H17.7494C17.9041 15.1667 18.0524 15.1052 18.1618 14.9958C18.2712 14.8864 18.3327 14.738 18.3327 14.5833V4.08333C18.3327 3.92862 18.2712 3.78025 18.1618 3.67085C18.0524 3.56146 17.9041 3.5 17.7494 3.5ZM7.83268 14H3.16602V4.66667H7.83268C8.29681 4.66667 8.74193 4.85104 9.07012 5.17923C9.39831 5.50742 9.58268 5.95254 9.58268 6.41667V14.5833C9.07829 14.2038 8.46393 13.999 7.83268 14ZM17.166 14H12.4993C11.8681 13.999 11.2537 14.2038 10.7493 14.5833V6.41667C10.7493 5.95254 10.9337 5.50742 11.2619 5.17923C11.5901 4.85104 12.0352 4.66667 12.4993 4.66667H17.166V14ZM12.4993 6.41667H15.416C15.5707 6.41667 15.7191 6.47812 15.8285 6.58752C15.9379 6.69692 15.9993 6.84529 15.9993 7C15.9993 7.15471 15.9379 7.30308 15.8285 7.41248C15.7191 7.52187 15.5707 7.58333 15.416 7.58333H12.4993C12.3446 7.58333 12.1963 7.52187 12.0869 7.41248C11.9775 7.30308 11.916 7.15471 11.916 7C11.916 6.84529 11.9775 6.69692 12.0869 6.58752C12.1963 6.47812 12.3446 6.41667 12.4993 6.41667ZM15.9993 9.33333C15.9993 9.48804 15.9379 9.63642 15.8285 9.74581C15.7191 9.85521 15.5707 9.91667 15.416 9.91667H12.4993C12.3446 9.91667 12.1963 9.85521 12.0869 9.74581C11.9775 9.63642 11.916 9.48804 11.916 9.33333C11.916 9.17862 11.9775 9.03025 12.0869 8.92085C12.1963 8.81146 12.3446 8.75 12.4993 8.75H15.416C15.5707 8.75 15.7191 8.81146 15.8285 8.92085C15.9379 9.03025 15.9993 9.17862 15.9993 9.33333ZM15.9993 11.6667C15.9993 11.8214 15.9379 11.9697 15.8285 12.0791C15.7191 12.1885 15.5707 12.25 15.416 12.25H12.4993C12.3446 12.25 12.1963 12.1885 12.0869 12.0791C11.9775 11.9697 11.916 11.8214 11.916 11.6667C11.916 11.512 11.9775 11.3636 12.0869 11.2542C12.1963 11.1448 12.3446 11.0833 12.4993 11.0833H15.416C15.5707 11.0833 15.7191 11.1448 15.8285 11.2542C15.9379 11.3636 15.9993 11.512 15.9993 11.6667Z" fill="var(--fill-0, #757575)"/>
</g>
</svg>
