<svg preserveAspectRatio="none" width="100%" height="100%" overflow="visible" style="display: block;" viewBox="0 0 36 36" fill="none" xmlns="http://www.w3.org/2000/svg">
<g id="Frame">
<rect width="36" height="36" rx="18" fill="var(--fill-0, #EBEBEB)"/>
<path id="Vector" d="M23.8628 20.9965C23.5159 20.399 23.0003 18.7084 23.0003 16.5003C23.0003 15.1742 22.4735 13.9024 21.5358 12.9647C20.5982 12.0271 19.3264 11.5003 18.0003 11.5003C16.6742 11.5003 15.4025 12.0271 14.4648 12.9647C13.5271 13.9024 13.0003 15.1742 13.0003 16.5003C13.0003 18.709 12.4841 20.399 12.1372 20.9965C12.0486 21.1484 12.0016 21.321 12.001 21.4968C12.0004 21.6727 12.0462 21.8456 12.1337 21.9981C12.2213 22.1506 12.3475 22.2773 12.4996 22.3655C12.6518 22.4537 12.8245 22.5002 13.0003 22.5003H15.5509C15.6663 23.0648 15.9731 23.5721 16.4194 23.9364C16.8657 24.3007 17.4242 24.4997 18.0003 24.4997C18.5765 24.4997 19.1349 24.3007 19.5812 23.9364C20.0275 23.5721 20.3343 23.0648 20.4497 22.5003H23.0003C23.1761 22.5 23.3487 22.4535 23.5008 22.3653C23.6528 22.277 23.7789 22.1503 23.8664 21.9978C23.9539 21.8453 23.9996 21.6725 23.999 21.4967C23.9983 21.3209 23.9514 21.1484 23.8628 20.9965ZM18.0003 23.5003C17.6902 23.5002 17.3877 23.404 17.1346 23.2249C16.8814 23.0458 16.6899 22.7927 16.5866 22.5003H19.4141C19.3107 22.7927 19.1192 23.0458 18.8661 23.2249C18.6129 23.404 18.3104 23.5002 18.0003 23.5003ZM13.0003 21.5003C13.4816 20.6728 14.0003 18.7553 14.0003 16.5003C14.0003 15.4394 14.4217 14.422 15.1719 13.6719C15.922 12.9217 16.9394 12.5003 18.0003 12.5003C19.0612 12.5003 20.0786 12.9217 20.8287 13.6719C21.5789 14.422 22.0003 15.4394 22.0003 16.5003C22.0003 18.7534 22.5178 20.6709 23.0003 21.5003H13.0003Z" fill="var(--fill-0, #202020)"/>
</g>
</svg>
