<svg preserveAspectRatio="none" width="100%" height="100%" overflow="visible" style="display: block;" viewBox="0 0 20 20" fill="none" xmlns="http://www.w3.org/2000/svg">
<g id="Frame">
<path id="Vector" d="M17.42 6.5509C17.2623 6.37221 17.0684 6.22911 16.8512 6.13111C16.634 6.03311 16.3984 5.98245 16.16 5.9825H12.24V4.8625C12.24 4.11989 11.945 3.4077 11.4199 2.8826C10.8948 2.3575 10.1826 2.0625 9.44003 2.0625C9.336 2.06243 9.234 2.09133 9.14547 2.14598C9.05694 2.20063 8.98539 2.27886 8.93883 2.3719L6.29423 7.6625H3.28003C2.98299 7.6625 2.69811 7.7805 2.48807 7.99054C2.27803 8.20058 2.16003 8.48546 2.16003 8.7825V14.9425C2.16003 15.2395 2.27803 15.5244 2.48807 15.7345C2.69811 15.9445 2.98299 16.0625 3.28003 16.0625H15.32C15.7293 16.0626 16.1246 15.9134 16.4316 15.6427C16.7386 15.372 16.9363 14.9986 16.9874 14.5925L17.8274 7.8725C17.8572 7.63592 17.8363 7.3957 17.766 7.16784C17.6958 6.93997 17.5778 6.72966 17.42 6.5509ZM3.28003 8.7825H6.08003V14.9425H3.28003V8.7825ZM16.7158 7.7325L15.8758 14.4525C15.8588 14.5879 15.7929 14.7123 15.6906 14.8026C15.5882 14.8928 15.4565 14.9425 15.32 14.9425H7.20003V8.3548L9.76973 3.2147C10.1506 3.29093 10.4933 3.49677 10.7395 3.7972C10.9857 4.09763 11.1201 4.47408 11.12 4.8625V6.5425C11.12 6.69102 11.179 6.83346 11.2841 6.93848C11.3891 7.0435 11.5315 7.1025 11.68 7.1025H16.16C16.2395 7.10247 16.3181 7.11936 16.3905 7.15204C16.4629 7.18471 16.5276 7.23243 16.5802 7.29202C16.6327 7.35161 16.672 7.42171 16.6954 7.49766C16.7188 7.5736 16.7258 7.65366 16.7158 7.7325Z" fill="var(--fill-0, #757575)"/>
</g>
</svg>
