<svg width="20" height="20" viewBox="0 0 20 20" fill="none" xmlns="http://www.w3.org/2000/svg">
  <path d="M10 4H4.59678C4.23852 4 3.89494 4.14232 3.64161 4.39564C3.38829 4.64897 3.24597 4.99255 3.24597 5.35081V16.3504C3.24598 16.4453 3.27411 16.538 3.32681 16.6168C3.3795 16.6957 3.45439 16.7571 3.54201 16.7934C3.62962 16.8297 3.72603 16.8392 3.81905 16.8207C3.91206 16.8022 3.9975 16.7566 4.06456 16.6895L5.5518 15.2023C5.80507 14.9489 6.1486 14.8065 6.50682 14.8065H15.4033C15.7615 14.8065 16.1051 14.6642 16.3584 14.4108C16.6117 14.1575 16.7541 13.8139 16.7541 13.4557V10.754" stroke="#757575" stroke-width="1.21573" stroke-linecap="round" stroke-linejoin="round"/>
  <path d="M12.7017 4H16.7541V8.05243" stroke="#757575" stroke-width="1.21573" stroke-linecap="round" stroke-linejoin="round"/>
  <path d="M12.7017 8.05243L16.7541 4" stroke="#757575" stroke-width="1.21573" stroke-linecap="round" stroke-linejoin="round"/>
</svg>
