<svg width="20" height="20" viewBox="0 0 20 20" fill="none" xmlns="http://www.w3.org/2000/svg">
  <path d="M10.658 3.45236C10.553 3.18015 10.2917 3.00049 10.0001 3.00049C9.85766 3.00087 9.71868 3.0442 9.60129 3.12482C9.48391 3.20543 9.39357 3.31959 9.34209 3.45236L8.05881 6.78966C7.94779 7.07836 7.77736 7.34053 7.55858 7.55918C7.33979 7.77783 7.07752 7.94809 6.78875 8.05894L3.45223 9.34221C3.3191 9.39324 3.20458 9.48344 3.12379 9.60092C3.04301 9.71839 2.99976 9.85761 2.99976 10.0002C2.99976 10.1428 3.04301 10.282 3.12379 10.3995C3.20458 10.5169 3.3191 10.6071 3.45223 10.6582L6.78953 11.9414C7.07823 12.0525 7.3404 12.2229 7.55905 12.4417C7.7777 12.6605 7.94796 12.9227 8.05881 13.2115L9.34209 16.548C9.39311 16.6811 9.48331 16.7957 9.60079 16.8765C9.71827 16.9572 9.85749 17.0005 10.0001 17.0005C10.1426 17.0005 10.2819 16.9572 10.3993 16.8765C10.5168 16.7957 10.607 16.6811 10.658 16.548L11.9413 13.2107C12.0523 12.922 12.2228 12.6598 12.4415 12.4412C12.6603 12.2225 12.9226 12.0523 13.2114 11.9414L16.5479 10.6582C16.681 10.6071 16.7955 10.5169 16.8763 10.3995C16.9571 10.282 17.0004 10.1428 17.0004 10.0002C17.0004 9.85761 16.9571 9.71839 16.8763 9.60092C16.7955 9.48344 16.681 9.39324 16.5479 9.34221L13.2106 8.05894C12.9221 7.94749 12.6602 7.77692 12.4416 7.55819C12.223 7.33946 12.0526 7.07741 11.9413 6.78888L10.658 3.45236Z" stroke="#757575" stroke-width="1.11995" stroke-linecap="round" stroke-linejoin="round"/>
</svg>
