<svg width="20" height="20" viewBox="0 0 20 20" fill="none" xmlns="http://www.w3.org/2000/svg">
  <path d="M17.1968 15.842C16.1319 14.0008 14.4907 12.6806 12.5754 12.0547C13.5228 11.4908 14.2588 10.6314 14.6705 9.60856C15.0822 8.58576 15.1468 7.45608 14.8543 6.39302C14.5619 5.32997 13.9285 4.39231 13.0516 3.72404C12.1746 3.05577 11.1025 2.69385 9.99998 2.69385C8.89742 2.69385 7.82535 3.05577 6.94839 3.72404C6.07144 4.39231 5.4381 5.32997 5.14562 6.39302C4.85315 7.45608 4.91772 8.58576 5.32942 9.60856C5.74112 10.6314 6.47719 11.4908 7.42458 12.0547C5.50928 12.6799 3.8681 14.0001 2.80312 15.842C2.76407 15.9057 2.73816 15.9765 2.72693 16.0504C2.71571 16.1242 2.71939 16.1996 2.73776 16.272C2.75612 16.3444 2.78881 16.4124 2.83388 16.472C2.87896 16.5315 2.9355 16.5815 3.00019 16.6188C3.06488 16.6562 3.13639 16.6802 3.21052 16.6895C3.28464 16.6988 3.35988 16.6931 3.43178 16.6729C3.50368 16.6526 3.57079 16.6181 3.62916 16.5715C3.68752 16.5249 3.73596 16.467 3.77161 16.4014C5.08902 14.1246 7.41758 12.7652 9.99998 12.7652C12.5824 12.7652 14.9109 14.1246 16.2284 16.4014C16.264 16.467 16.3124 16.5249 16.3708 16.5715C16.4292 16.6181 16.4963 16.6526 16.5682 16.6729C16.6401 16.6931 16.7153 16.6988 16.7894 16.6895C16.8636 16.6802 16.9351 16.6562 16.9998 16.6188C17.0645 16.5815 17.121 16.5315 17.1661 16.472C17.2111 16.4124 17.2438 16.3444 17.2622 16.272C17.2806 16.1996 17.2842 16.1242 17.273 16.0504C17.2618 15.9765 17.2359 15.9057 17.1968 15.842ZM6.08408 7.73047C6.08408 6.95598 6.31374 6.19888 6.74403 5.55492C7.17431 4.91095 7.78589 4.40904 8.50143 4.11266C9.21697 3.81627 10.0043 3.73872 10.7639 3.88982C11.5235 4.04092 12.2213 4.41387 12.7689 4.96152C13.3166 5.50916 13.6895 6.20691 13.8406 6.96652C13.9917 7.72613 13.9142 8.51349 13.6178 9.22902C13.3214 9.94456 12.8195 10.5561 12.1755 10.9864C11.5316 11.4167 10.7745 11.6464 9.99998 11.6464C8.96176 11.6453 7.96638 11.2323 7.23225 10.4982C6.49812 9.76407 6.08519 8.76869 6.08408 7.73047Z" fill="#757575"/>
</svg>
