<svg preserveAspectRatio="none" width="100%" height="100%" overflow="visible" style="display: block;" viewBox="0 0 16 16" fill="none" xmlns="http://www.w3.org/2000/svg">
<g id="fluent:filter-24-filled">
<path id="Vector" d="M6.66667 10.6667H9.33333C9.50325 10.6669 9.66669 10.7319 9.79025 10.8486C9.9138 10.9652 9.98816 11.1246 9.99812 11.2943C10.0081 11.4639 9.95288 11.6309 9.84382 11.7612C9.73476 11.8915 9.58006 11.9753 9.41133 11.9953L9.33333 12H6.66667C6.49675 11.9998 6.33331 11.9347 6.20975 11.8181C6.0862 11.7015 6.01184 11.542 6.00189 11.3724C5.99193 11.2028 6.04712 11.0357 6.15618 10.9054C6.26524 10.7751 6.41994 10.6914 6.58867 10.6713L6.66667 10.6667ZM5.33333 7.33333H10.6667C10.8366 7.33352 11 7.39859 11.1236 7.51523C11.2471 7.63188 11.3215 7.7913 11.3314 7.96093C11.3414 8.13056 11.2862 8.29759 11.1772 8.42789C11.0681 8.55819 10.9134 8.64193 10.7447 8.662L10.6667 8.66667H5.33333C5.16341 8.66648 4.99998 8.60141 4.87642 8.48477C4.75286 8.36812 4.67851 8.2087 4.66855 8.03907C4.65859 7.86944 4.71378 7.70241 4.82284 7.57211C4.9319 7.44181 5.0866 7.35807 5.25533 7.338L5.33333 7.33333ZM3.33333 4H12.6667C12.8366 4.00019 13 4.06525 13.1236 4.1819C13.2471 4.29854 13.3215 4.45797 13.3314 4.6276C13.3414 4.79722 13.2862 4.96425 13.1772 5.09455C13.0681 5.22486 12.9134 5.3086 12.7447 5.32867L12.6667 5.33333H3.33333C3.16341 5.33314 2.99998 5.26808 2.87642 5.15143C2.75286 5.03479 2.67851 4.87536 2.66855 4.70574C2.65859 4.53611 2.71378 4.36908 2.82284 4.23878C2.9319 4.10848 3.0866 4.02474 3.25533 4.00467L3.33333 4Z" fill="var(--fill-0, #3D3D3D)"/>
</g>
</svg>
