<svg width="62" height="62" viewBox="0 0 62 62" fill="none" xmlns="http://www.w3.org/2000/svg">
<rect width="62" height="62" fill="#DCD9D9"/>
<g id="on-scroll-topnav" filter="url(#filter0_d_3014_8006)">
<rect width="390" height="70" transform="translate(-324 -4)" fill="white"/>
<g id="list_alt_add" filter="url(#filter1_d_3014_8006)">
<rect x="12" y="12" width="38" height="38" rx="19" fill="white"/>
<path id="list_alt_add_2" d="M24.5882 37.4794C24.1444 37.4794 23.7687 37.3257 23.4612 37.0182C23.1537 36.7107 23 36.335 23 35.8912V24.1321C23 23.6882 23.1537 23.3126 23.4612 23.0051C23.7687 22.6976 24.1444 22.5438 24.5882 22.5438H36.3474C36.7912 22.5438 37.1669 22.6976 37.4744 23.0051C37.7819 23.3126 37.9356 23.6882 37.9356 24.1321V30.8278C37.9356 31.0152 37.8724 31.1697 37.7461 31.291C37.6197 31.4124 37.4632 31.4731 37.2765 31.4731C37.0896 31.4731 36.9332 31.4099 36.8071 31.2836C36.6809 31.1574 36.6178 31.0009 36.6178 30.8142V24.1321C36.6178 24.0644 36.5896 24.0025 36.5332 23.9462C36.477 23.8899 36.415 23.8617 36.3474 23.8617H24.5882C24.5206 23.8617 24.4586 23.8899 24.4024 23.9462C24.346 24.0025 24.3178 24.0644 24.3178 24.1321V35.8912C24.3178 35.9589 24.346 36.0208 24.4024 36.077C24.4586 36.1334 24.5206 36.1616 24.5882 36.1616H29.9442C30.1307 36.1616 30.2872 36.2248 30.4136 36.3511C30.5398 36.4775 30.6029 36.634 30.6029 36.8207C30.6029 37.0076 30.5398 37.164 30.4136 37.2901C30.2872 37.4163 30.1307 37.4794 29.9442 37.4794H24.5882ZM27.5584 33.9781C27.7071 33.8291 27.7814 33.6444 27.7814 33.424C27.7814 33.2036 27.7068 33.019 27.5578 32.8703C27.4087 32.7216 27.224 32.6473 27.0036 32.6473C26.7833 32.6473 26.5988 32.7219 26.4501 32.8709C26.3014 33.02 26.227 33.2047 26.227 33.4251C26.227 33.6455 26.3015 33.83 26.4506 33.9786C26.5998 34.1273 26.7845 34.2017 27.0047 34.2017C27.2251 34.2017 27.4097 34.1272 27.5584 33.9781ZM27.5584 30.5651C27.7071 30.4161 27.7814 30.2313 27.7814 30.011C27.7814 29.7906 27.7068 29.6061 27.5578 29.4575C27.4087 29.3089 27.224 29.2345 27.0036 29.2345C26.7833 29.2345 26.5988 29.3091 26.4501 29.4581C26.3014 29.6072 26.227 29.7919 26.227 30.0123C26.227 30.2327 26.3015 30.4172 26.4506 30.5658C26.5998 30.7144 26.7845 30.7887 27.0047 30.7887C27.2251 30.7887 27.4097 30.7142 27.5584 30.5651ZM27.5584 27.1523C27.7071 27.0033 27.7814 26.8186 27.7814 26.5982C27.7814 26.3778 27.7068 26.1933 27.5578 26.0447C27.4087 25.8959 27.224 25.8215 27.0036 25.8215C26.7833 25.8215 26.5988 25.8961 26.4501 26.0451C26.3014 26.1942 26.227 26.3789 26.227 26.5993C26.227 26.8197 26.3015 27.0042 26.4506 27.153C26.5998 27.3016 26.7845 27.3759 27.0047 27.3759C27.2251 27.3759 27.4097 27.3014 27.5584 27.1523ZM34.0159 30.6706C34.2026 30.6706 34.359 30.6074 34.4853 30.481C34.6116 30.3546 34.6748 30.1981 34.6748 30.0114C34.6748 29.8246 34.6116 29.6681 34.4853 29.542C34.359 29.4158 34.2026 29.3527 34.0159 29.3527H30.3327C30.146 29.3527 29.9895 29.4159 29.8631 29.5423C29.7369 29.6686 29.6738 29.8252 29.6738 30.0119C29.6738 30.1987 29.7369 30.3552 29.8631 30.4812C29.9895 30.6074 30.146 30.6706 30.3327 30.6706H34.0159ZM34.0159 27.2575C34.2026 27.2575 34.359 27.1944 34.4853 27.0682C34.6116 26.9418 34.6748 26.7852 34.6748 26.5984C34.6748 26.4117 34.6116 26.2553 34.4853 26.129C34.359 26.003 34.2026 25.9399 34.0159 25.9399H30.3327C30.146 25.9399 29.9895 26.0031 29.8631 26.1295C29.7369 26.2557 29.6738 26.4122 29.6738 26.5991C29.6738 26.7858 29.7369 26.9422 29.8631 27.0684C29.9895 27.1945 30.146 27.2575 30.3327 27.2575H34.0159ZM29.8631 33.8942C29.9895 34.0203 30.146 34.0833 30.3327 34.0833H30.8834C31.0701 34.0833 31.2266 34.0202 31.353 33.8938C31.4792 33.7676 31.5423 33.611 31.5423 33.4242C31.5423 33.2375 31.4792 33.081 31.353 32.9548C31.2266 32.8288 31.0701 32.7657 30.8834 32.7657H30.3327C30.146 32.7657 29.9895 32.8288 29.8631 32.955C29.7369 33.0814 29.6738 33.238 29.6738 33.4249C29.6738 33.6116 29.7369 33.768 29.8631 33.8942ZM35.0465 36.8205H33.0697C32.883 36.8205 32.7265 36.7573 32.6003 36.631C32.4739 36.5046 32.4108 36.3481 32.4108 36.1614C32.4108 35.9745 32.4739 35.8181 32.6003 35.692C32.7265 35.5658 32.883 35.5027 33.0697 35.5027H35.0465V33.5259C35.0465 33.3392 35.1096 33.1827 35.236 33.0565C35.3624 32.9302 35.5189 32.867 35.7056 32.867C35.8924 32.867 36.049 32.9302 36.1752 33.0565C36.3013 33.1827 36.3643 33.3392 36.3643 33.5259V35.5027H38.3411C38.5278 35.5027 38.6843 35.5659 38.8107 35.6922C38.9369 35.8186 39 35.9751 39 36.1618C39 36.3487 38.9369 36.5051 38.8107 36.6312C38.6843 36.7574 38.5278 36.8205 38.3411 36.8205H36.3643V38.7973C36.3643 38.984 36.3011 39.1404 36.1748 39.2667C36.0484 39.393 35.8919 39.4562 35.7052 39.4562C35.5183 39.4562 35.3619 39.393 35.2358 39.2667C35.1096 39.1404 35.0465 38.984 35.0465 38.7973V36.8205Z" fill="#4D4D4D"/>
</g>
</g>
<defs>
<filter id="filter0_d_3014_8006" x="-344" y="-20" width="430" height="110" filterUnits="userSpaceOnUse" color-interpolation-filters="sRGB">
<feFlood flood-opacity="0" result="BackgroundImageFix"/>
<feColorMatrix in="SourceAlpha" type="matrix" values="0 0 0 0 0 0 0 0 0 0 0 0 0 0 0 0 0 0 127 0" result="hardAlpha"/>
<feOffset dy="4"/>
<feGaussianBlur stdDeviation="10"/>
<feComposite in2="hardAlpha" operator="out"/>
<feColorMatrix type="matrix" values="0 0 0 0 0 0 0 0 0 0 0 0 0 0 0 0 0 0 0.06 0"/>
<feBlend mode="normal" in2="BackgroundImageFix" result="effect1_dropShadow_3014_8006"/>
<feBlend mode="normal" in="SourceGraphic" in2="effect1_dropShadow_3014_8006" result="shape"/>
</filter>
<filter id="filter1_d_3014_8006" x="0" y="0" width="62" height="62" filterUnits="userSpaceOnUse" color-interpolation-filters="sRGB">
<feFlood flood-opacity="0" result="BackgroundImageFix"/>
<feColorMatrix in="SourceAlpha" type="matrix" values="0 0 0 0 0 0 0 0 0 0 0 0 0 0 0 0 0 0 127 0" result="hardAlpha"/>
<feOffset/>
<feGaussianBlur stdDeviation="6"/>
<feComposite in2="hardAlpha" operator="out"/>
<feColorMatrix type="matrix" values="0 0 0 0 0 0 0 0 0 0 0 0 0 0 0 0 0 0 0.12 0"/>
<feBlend mode="normal" in2="BackgroundImageFix" result="effect1_dropShadow_3014_8006"/>
<feBlend mode="normal" in="SourceGraphic" in2="effect1_dropShadow_3014_8006" result="shape"/>
</filter>
</defs>
</svg>
