<svg preserveAspectRatio="none" width="100%" height="100%" overflow="visible" style="display: block;" viewBox="0 0 40 40" fill="none" xmlns="http://www.w3.org/2000/svg">
<g id="Black">
<path id="Vector" d="M32.7782 6.94081C29.6912 5.39735 26.8507 5.55792 24.5405 6.44835C22.5956 7.19792 21.0347 8.45981 19.9987 9.63638C18.9627 8.45981 17.4019 7.19792 15.457 6.44835C13.1467 5.55792 10.3062 5.39735 7.21922 6.94081C3.21487 8.94297 1.70438 12.4806 1.95323 16.2132C2.19942 19.9062 4.15744 23.7925 7.05678 26.6917C9.76979 29.4047 14.9939 34.3161 18.2596 36.9521C19.2769 37.7732 20.7122 37.8135 21.7631 37.0145C25.3322 34.3002 30.1864 29.4461 32.9232 26.7091L32.9406 26.6917C35.84 23.7925 37.798 19.9062 38.0442 16.2132C38.2931 12.4806 36.7826 8.94297 32.7782 6.94081Z" fill="var(--fill-0, #E5D7CA)"/>
<path id="Vector_2" d="M20.499 10.9999C21.3785 9.82712 22.9557 8.39886 24.9902 7.61476C27.0035 6.83882 29.4754 6.6869 32.2194 8.0589C35.7151 9.80671 37.0171 12.8316 36.7972 16.1301C36.5746 19.4685 34.7826 23.0822 32.057 25.8079C29.3014 28.5636 24.5009 33.3622 21.0066 36.0195C20.4239 36.4627 19.6246 36.4474 19.0449 35.9795C15.8289 33.3836 10.6404 28.5075 7.94087 25.8079C5.21519 23.0822 3.42322 19.4685 3.20067 16.1301C2.98076 12.8316 4.28278 9.80671 7.77843 8.0589C10.5224 6.6869 12.9944 6.83882 15.0076 7.61476C17.0421 8.39886 18.6194 9.82712 19.499 10.9999L19.999 11.6665L20.499 10.9999Z" fill="var(--fill-0, #FAF5F0)"/>
<path id="Vector_3" d="M29.9934 7.24735C28.1341 6.82006 26.4434 7.05509 24.9913 7.61476C22.9568 8.39886 21.3795 9.82713 20.5 10.9999L20 11.6665V14.4363C21.4113 11.4529 24.6864 7.57963 29.9934 7.24735Z" fill="var(--fill-0, #E5D7CA)"/>
<path id="Vector_4" d="M13.4159 7.1641C11.7424 6.85801 9.83697 7.02964 7.77843 8.0589C4.28278 9.80671 2.98076 12.8316 3.20067 16.1301C3.42322 19.4685 5.21519 23.0823 7.94087 25.808C10.6404 28.5075 15.8289 33.3836 19.0449 35.9795C19.6246 36.4474 20.4239 36.4627 21.0066 36.0195C21.2815 35.8105 21.5644 35.5882 21.8537 35.3547C18.3321 32.6716 13.663 28.7306 11.0729 26.4155C4.87686 20.8774 2.81154 11.6472 11.0729 7.95516C11.8729 7.5976 12.6552 7.33868 13.4159 7.1641Z" fill="var(--fill-0, #E5D7CA)"/>
<path id="Vector_5" d="M26.3586 20.9179C28.0539 21.8966 30.7661 20.3728 32.4165 17.5142C34.0668 14.6557 34.0305 11.5449 32.3352 10.5662C30.6399 9.58739 27.9277 11.1113 26.2773 13.9698C24.627 16.8283 24.6634 19.9391 26.3586 20.9179Z" fill="var(--fill-0, #E5D7CA)"/>
</g>
</svg>
