<svg preserveAspectRatio="none" width="100%" height="100%" overflow="visible" style="display: block;" viewBox="0 0 308 98" fill="none" xmlns="http://www.w3.org/2000/svg">
<g id="Subtract">
<path d="M13.7656 0.5H294.234C297.492 0.5 299.888 0.501211 301.724 0.735352C303.547 0.967985 304.742 1.42325 305.641 2.27637C306.535 3.12594 307.01 4.24923 307.253 5.96777C307.499 7.70374 307.5 9.97182 307.5 13.0664V38.5811C307.5 39.5131 307.104 40.3651 306.462 41.1396C305.818 41.9168 304.945 42.5909 304.051 43.1494C301.991 44.436 300.617 46.6598 300.617 49.2002C300.617 51.7407 301.991 53.9645 304.051 55.251C304.945 55.8094 305.818 56.4836 306.462 57.2607C307.104 58.0353 307.5 58.8872 307.5 59.8193V84.9336C307.5 88.0282 307.499 90.2963 307.253 92.0322C307.01 93.7508 306.535 94.8741 305.641 95.7236C304.742 96.5767 303.547 97.032 301.724 97.2646C299.888 97.4988 297.492 97.5 294.234 97.5H13.7656C10.5077 97.5 8.11167 97.4988 6.27637 97.2646C4.45288 97.032 3.25811 96.5767 2.35938 95.7236C1.46461 94.8741 0.990393 93.7508 0.74707 92.0322C0.501284 90.2963 0.5 88.0282 0.5 84.9336V60.042C0.5 59.0723 0.926646 58.1872 1.61621 57.3877C2.30763 56.586 3.24031 55.8986 4.18359 55.3379C6.32816 54.0631 7.80566 51.7877 7.80566 49.2002C7.80556 46.9946 6.73057 45.0138 5.08594 43.6895C3.986 42.8038 2.83117 41.8499 1.94922 40.7803C1.06973 39.7136 0.500105 38.5779 0.5 37.3311V13.0664C0.5 9.97182 0.501284 7.70374 0.74707 5.96777C0.990392 4.24922 1.46462 3.12594 2.35938 2.27637C3.25811 1.42325 4.45288 0.967985 6.27637 0.735352C8.11167 0.501212 10.5077 0.5 13.7656 0.5Z" fill="var(--fill-0, white)"/>
<path d="M13.7656 0.5H294.234C297.492 0.5 299.888 0.501211 301.724 0.735352C303.547 0.967985 304.742 1.42325 305.641 2.27637C306.535 3.12594 307.01 4.24923 307.253 5.96777C307.499 7.70374 307.5 9.97182 307.5 13.0664V38.5811C307.5 39.5131 307.104 40.3651 306.462 41.1396C305.818 41.9168 304.945 42.5909 304.051 43.1494C301.991 44.436 300.617 46.6598 300.617 49.2002C300.617 51.7407 301.991 53.9645 304.051 55.251C304.945 55.8094 305.818 56.4836 306.462 57.2607C307.104 58.0353 307.5 58.8872 307.5 59.8193V84.9336C307.5 88.0282 307.499 90.2963 307.253 92.0322C307.01 93.7508 306.535 94.8741 305.641 95.7236C304.742 96.5767 303.547 97.032 301.724 97.2646C299.888 97.4988 297.492 97.5 294.234 97.5H13.7656C10.5077 97.5 8.11167 97.4988 6.27637 97.2646C4.45288 97.032 3.25811 96.5767 2.35938 95.7236C1.46461 94.8741 0.990393 93.7508 0.74707 92.0322C0.501284 90.2963 0.5 88.0282 0.5 84.9336V60.042C0.5 59.0723 0.926646 58.1872 1.61621 57.3877C2.30763 56.586 3.24031 55.8986 4.18359 55.3379C6.32816 54.0631 7.80566 51.7877 7.80566 49.2002C7.80556 46.9946 6.73057 45.0138 5.08594 43.6895C3.986 42.8038 2.83117 41.8499 1.94922 40.7803C1.06973 39.7136 0.500105 38.5779 0.5 37.3311V13.0664C0.5 9.97182 0.501284 7.70374 0.74707 5.96777C0.990392 4.24922 1.46462 3.12594 2.35938 2.27637C3.25811 1.42325 4.45288 0.967985 6.27637 0.735352C8.11167 0.501212 10.5077 0.5 13.7656 0.5Z" fill="url(#paint0_linear_0_10)" fill-opacity="0.2"/>
<path d="M13.7656 0.5H294.234C297.492 0.5 299.888 0.501211 301.724 0.735352C303.547 0.967985 304.742 1.42325 305.641 2.27637C306.535 3.12594 307.01 4.24923 307.253 5.96777C307.499 7.70374 307.5 9.97182 307.5 13.0664V38.5811C307.5 39.5131 307.104 40.3651 306.462 41.1396C305.818 41.9168 304.945 42.5909 304.051 43.1494C301.991 44.436 300.617 46.6598 300.617 49.2002C300.617 51.7407 301.991 53.9645 304.051 55.251C304.945 55.8094 305.818 56.4836 306.462 57.2607C307.104 58.0353 307.5 58.8872 307.5 59.8193V84.9336C307.5 88.0282 307.499 90.2963 307.253 92.0322C307.01 93.7508 306.535 94.8741 305.641 95.7236C304.742 96.5767 303.547 97.032 301.724 97.2646C299.888 97.4988 297.492 97.5 294.234 97.5H13.7656C10.5077 97.5 8.11167 97.4988 6.27637 97.2646C4.45288 97.032 3.25811 96.5767 2.35938 95.7236C1.46461 94.8741 0.990393 93.7508 0.74707 92.0322C0.501284 90.2963 0.5 88.0282 0.5 84.9336V60.042C0.5 59.0723 0.926646 58.1872 1.61621 57.3877C2.30763 56.586 3.24031 55.8986 4.18359 55.3379C6.32816 54.0631 7.80566 51.7877 7.80566 49.2002C7.80556 46.9946 6.73057 45.0138 5.08594 43.6895C3.986 42.8038 2.83117 41.8499 1.94922 40.7803C1.06973 39.7136 0.500105 38.5779 0.5 37.3311V13.0664C0.5 9.97182 0.501284 7.70374 0.74707 5.96777C0.990392 4.24922 1.46462 3.12594 2.35938 2.27637C3.25811 1.42325 4.45288 0.967985 6.27637 0.735352C8.11167 0.501212 10.5077 0.5 13.7656 0.5Z" stroke="url(#paint1_linear_0_10)"/>
</g>
<defs>
<linearGradient id="paint0_linear_0_10" x1="154" y1="0" x2="154" y2="98" gradientUnits="userSpaceOnUse">
<stop stop-color="#EBFCFF"/>
<stop offset="1" stop-color="#FFFDEB"/>
</linearGradient>
<linearGradient id="paint1_linear_0_10" x1="154" y1="0" x2="154" y2="98" gradientUnits="userSpaceOnUse">
<stop stop-color="#E2F1F3"/>
<stop offset="1" stop-color="#EEEDD6"/>
</linearGradient>
</defs>
</svg>
