<svg preserveAspectRatio="none" width="100%" height="100%" overflow="visible" style="display: block;" viewBox="0 0 352 254" fill="none" xmlns="http://www.w3.org/2000/svg">
<g id="Subtract" filter="url(#filter0_d_0_33)">
<path d="M344 246H343.74L339.121 238L334.501 246H333.521L328.901 238L324.282 246H323.302L318.683 238L314.063 246H313.083L308.464 238L303.844 246H302.863L298.244 238L293.625 246H292.645L288.025 238L283.406 246H282.426L277.806 238L273.187 246H272.206L267.587 238L262.968 246H261.987L257.368 238L252.749 246H251.769L247.148 238L242.529 246H241.549L236.93 238L232.311 246H231.33L226.711 238L222.092 246H221.111L216.491 238L211.872 246H210.892L206.272 238L201.653 246H200.673L196.054 238L191.434 246H190.453L185.834 238L181.215 246H180.234L175.615 238L170.996 246H170.016L165.396 238L160.776 246H159.796L155.177 238L150.558 246H149.577L144.958 238L140.339 246H139.358L134.738 238L130.119 246H129.139L124.52 238L119.9 246H118.92L114.301 238L109.682 246H108.701L104.081 238L99.4619 246H98.4814L93.8623 238L89.2432 246H88.2627L83.6436 238L79.0234 246H78.043L73.4238 238L68.8047 246H67.8242L63.2051 238L58.5859 246H57.6055L52.9863 238L48.3662 246H47.3857L42.7666 238L38.1475 246H37.167L32.5479 238L27.9287 246H26.9482L22.3291 238L17.709 246H16.7285L12.1094 238L8 245.117V8H344V246Z" fill="var(--fill-0, white)"/>
<path d="M344 246H343.74L339.121 238L334.501 246H333.521L328.901 238L324.282 246H323.302L318.683 238L314.063 246H313.083L308.464 238L303.844 246H302.863L298.244 238L293.625 246H292.645L288.025 238L283.406 246H282.426L277.806 238L273.187 246H272.206L267.587 238L262.968 246H261.987L257.368 238L252.749 246H251.769L247.148 238L242.529 246H241.549L236.93 238L232.311 246H231.33L226.711 238L222.092 246H221.111L216.491 238L211.872 246H210.892L206.272 238L201.653 246H200.673L196.054 238L191.434 246H190.453L185.834 238L181.215 246H180.234L175.615 238L170.996 246H170.016L165.396 238L160.776 246H159.796L155.177 238L150.558 246H149.577L144.958 238L140.339 246H139.358L134.738 238L130.119 246H129.139L124.52 238L119.9 246H118.92L114.301 238L109.682 246H108.701L104.081 238L99.4619 246H98.4814L93.8623 238L89.2432 246H88.2627L83.6436 238L79.0234 246H78.043L73.4238 238L68.8047 246H67.8242L63.2051 238L58.5859 246H57.6055L52.9863 238L48.3662 246H47.3857L42.7666 238L38.1475 246H37.167L32.5479 238L27.9287 246H26.9482L22.3291 238L17.709 246H16.7285L12.1094 238L8 245.117V8H344V246Z" fill="url(#paint0_linear_0_33)"/>
</g>
<defs>
<filter id="filter0_d_0_33" x="0" y="0" width="352" height="254" filterUnits="userSpaceOnUse" color-interpolation-filters="sRGB">
<feFlood flood-opacity="0" result="BackgroundImageFix"/>
<feColorMatrix in="SourceAlpha" type="matrix" values="0 0 0 0 0 0 0 0 0 0 0 0 0 0 0 0 0 0 127 0" result="hardAlpha"/>
<feOffset/>
<feGaussianBlur stdDeviation="4"/>
<feComposite in2="hardAlpha" operator="out"/>
<feColorMatrix type="matrix" values="0 0 0 0 0 0 0 0 0 0 0 0 0 0 0 0 0 0 0.06 0"/>
<feBlend mode="normal" in2="BackgroundImageFix" result="effect1_dropShadow_0_33"/>
<feBlend mode="normal" in="SourceGraphic" in2="effect1_dropShadow_0_33" result="shape"/>
</filter>
<linearGradient id="paint0_linear_0_33" x1="176" y1="8" x2="176" y2="246" gradientUnits="userSpaceOnUse">
<stop stop-color="#4D4D4D"/>
<stop offset="0.06" stop-color="white" stop-opacity="0"/>
</linearGradient>
</defs>
</svg>
