<svg preserveAspectRatio="none" width="100%" height="100%" overflow="visible" style="display: block;" viewBox="0 0 16 16" fill="none" xmlns="http://www.w3.org/2000/svg">
<g id="material-symbols:location-on">
<path id="Vector" d="M8 8C8.36667 8 8.68067 7.86933 8.942 7.608C9.20333 7.34667 9.33378 7.03289 9.33333 6.66667C9.33333 6.3 9.20267 5.986 8.94133 5.72467C8.68 5.46333 8.36622 5.33289 8 5.33333C7.63333 5.33333 7.31933 5.464 7.058 5.72533C6.79667 5.98667 6.66622 6.30044 6.66667 6.66667C6.66667 7.03333 6.79733 7.34733 7.05867 7.60867C7.32 7.87 7.63378 8.00044 8 8ZM8 14.6667C6.21111 13.1444 4.87511 11.7307 3.992 10.4253C3.10889 9.12 2.66711 7.91156 2.66667 6.8C2.66667 5.13333 3.20289 3.80556 4.27533 2.81667C5.34778 1.82778 6.58933 1.33333 8 1.33333C9.41111 1.33333 10.6529 1.82778 11.7253 2.81667C12.7978 3.80556 13.3338 5.13333 13.3333 6.8C13.3333 7.91111 12.8916 9.11955 12.008 10.4253C11.1244 11.7311 9.78844 13.1449 8 14.6667Z" fill="var(--fill-0, white)"/>
</g>
</svg>
