<svg preserveAspectRatio="none" width="100%" height="100%" overflow="visible" style="display: block;" viewBox="0 0 12 12" fill="none" xmlns="http://www.w3.org/2000/svg">
<g id="bin">
<path id="Vector" d="M9.69988 2.7002C9.83249 2.7002 9.95967 2.75287 10.0534 2.84664C10.1472 2.94041 10.1999 3.06759 10.1999 3.2002C10.1999 3.3328 10.1472 3.45998 10.0534 3.55375C9.95967 3.64752 9.83249 3.7002 9.69988 3.7002H9.19988L9.19838 3.7357L8.73188 10.2712C8.71392 10.5235 8.60103 10.7596 8.41594 10.932C8.23085 11.1044 7.98731 11.2002 7.73438 11.2002H3.66488C3.41195 11.2002 3.16841 11.1044 2.98332 10.932C2.79823 10.7596 2.68534 10.5235 2.66738 10.2712L2.20088 3.7362C2.20012 3.72421 2.19979 3.7122 2.19988 3.7002H1.69988C1.56727 3.7002 1.4401 3.64752 1.34633 3.55375C1.25256 3.45998 1.19988 3.3328 1.19988 3.2002C1.19988 3.06759 1.25256 2.94041 1.34633 2.84664C1.4401 2.75287 1.56727 2.7002 1.69988 2.7002H9.69988ZM6.69988 1.2002C6.83249 1.2002 6.95967 1.25287 7.05343 1.34664C7.1472 1.44041 7.19988 1.56759 7.19988 1.7002C7.19988 1.8328 7.1472 1.95998 7.05343 2.05375C6.95967 2.14752 6.83249 2.2002 6.69988 2.2002H4.69988C4.56727 2.2002 4.4401 2.14752 4.34633 2.05375C4.25256 1.95998 4.19988 1.8328 4.19988 1.7002C4.19988 1.56759 4.25256 1.44041 4.34633 1.34664C4.4401 1.25287 4.56727 1.2002 4.69988 1.2002H6.69988Z" fill="var(--fill-0, #757575)"/>
</g>
</svg>
