<svg preserveAspectRatio="none" width="100%" height="100%" overflow="visible" style="display: block;" viewBox="0 0 12 12" fill="none" xmlns="http://www.w3.org/2000/svg">
<g id="flight_takeoff">
<mask id="mask0_0_14" style="mask-type:alpha" maskUnits="userSpaceOnUse" x="0" y="0" width="12" height="12">
<rect id="Bounding box" width="12" height="12" fill="var(--fill-0, #D9D9D9)"/>
</mask>
<g mask="url(#mask0_0_14)">
<path id="flight_takeoff_2" d="M9.80179 5.65293L3.24416 7.38655C3.06591 7.43205 2.89716 7.42118 2.73791 7.35393C2.57858 7.28659 2.4502 7.17634 2.35279 7.02318L1.32104 5.3058C1.26787 5.2218 1.2597 5.13109 1.29654 5.03367C1.33337 4.93626 1.40308 4.87634 1.50566 4.85392L1.68741 4.8078C1.73866 4.79113 1.78787 4.78905 1.83504 4.80155C1.88212 4.81405 1.92616 4.83663 1.96716 4.8693L3.17679 5.89818L5.24416 5.35868L3.12966 2.52792C3.04766 2.41701 3.02879 2.29472 3.07304 2.16105C3.1172 2.02747 3.20916 1.94109 3.34891 1.90193L3.51529 1.85867C3.57487 1.84009 3.63754 1.83755 3.70329 1.85105C3.76895 1.86447 3.8265 1.89488 3.87591 1.9423L7.26716 4.82218L9.40179 4.2568C9.59154 4.20747 9.77312 4.23388 9.94654 4.33605C10.12 4.4383 10.2313 4.5843 10.2807 4.77405C10.33 4.9638 10.31 5.14538 10.2205 5.3188C10.1311 5.49222 9.99154 5.60359 9.80179 5.65293ZM2.24991 10C2.17875 10 2.11929 9.97617 2.07154 9.92842C2.02379 9.88067 1.99991 9.82122 1.99991 9.75005C1.99991 9.67888 2.02379 9.61943 2.07154 9.57168C2.11929 9.52393 2.17875 9.50005 2.24991 9.50005H9.74991C9.82108 9.50005 9.88054 9.52393 9.92829 9.57168C9.97604 9.61943 9.99991 9.67888 9.99991 9.75005C9.99991 9.82122 9.97604 9.88067 9.92829 9.92842C9.88054 9.97617 9.82108 10 9.74991 10H2.24991Z" fill="var(--fill-0, #9C9C9C)"/>
</g>
</g>
</svg>
