<svg preserveAspectRatio="none" width="100%" height="100%" overflow="visible" style="display: block;" viewBox="0 0 12 12" fill="none" xmlns="http://www.w3.org/2000/svg">
<g id="passport">
<mask id="mask0_0_28" style="mask-type:alpha" maskUnits="userSpaceOnUse" x="0" y="0" width="12" height="12">
<rect id="Bounding box" width="12" height="12" fill="var(--fill-0, #D9D9D9)"/>
</mask>
<g mask="url(#mask0_0_28)">
<path id="passport_2" d="M4.47099 9.09613H7.52874C7.59215 9.09613 7.64486 9.07513 7.68686 9.03313C7.72886 8.99121 7.74986 8.9385 7.74986 8.875C7.74986 8.8115 7.72886 8.75879 7.68686 8.71687C7.64486 8.67487 7.59215 8.65387 7.52874 8.65387H4.47099C4.40757 8.65387 4.35486 8.67487 4.31286 8.71687C4.27086 8.75879 4.24986 8.8115 4.24986 8.875C4.24986 8.9385 4.27086 8.99121 4.31286 9.03313C4.35486 9.07513 4.40757 9.09613 4.47099 9.09613ZM7.60511 6.8505C8.04778 6.41108 8.26911 5.87758 8.26911 5.25C8.26911 4.62242 8.04778 4.08733 7.60511 3.64475C7.16253 3.20208 6.62744 2.98075 5.99986 2.98075C5.37228 2.98075 4.83878 3.20208 4.39936 3.64475C3.95994 4.08733 3.74024 4.62242 3.74024 5.25C3.74024 5.87758 3.95994 6.41108 4.39936 6.8505C4.83878 7.28992 5.37228 7.50962 5.99986 7.50962C6.62744 7.50962 7.16253 7.28992 7.60511 6.8505ZM5.99986 7.01825C5.86269 6.81758 5.75178 6.587 5.66711 6.3265C5.58253 6.06592 5.52774 5.78079 5.50274 5.47113H6.49699C6.47199 5.78079 6.41719 6.06592 6.33261 6.3265C6.24794 6.587 6.13703 6.81758 5.99986 7.01825ZM5.43636 6.98075C5.10819 6.875 4.83161 6.68783 4.60661 6.41925C4.38161 6.15067 4.2409 5.83463 4.18449 5.47113H5.06049C5.07074 5.71154 5.10694 5.95754 5.16911 6.20913C5.23128 6.46071 5.32036 6.71792 5.43636 6.98075ZM6.50561 6.98075C6.62803 6.73717 6.72674 6.48796 6.80174 6.23313C6.87674 5.97838 6.92257 5.72438 6.93924 5.47113H7.81524C7.7524 5.83463 7.60369 6.15067 7.36911 6.41925C7.13444 6.68783 6.84661 6.875 6.50561 6.98075ZM4.18449 5.02888C4.24732 4.64613 4.40086 4.31567 4.64511 4.0375C4.88928 3.75933 5.17869 3.57696 5.51336 3.49037C5.37811 3.69554 5.27299 3.92871 5.19799 4.18988C5.12299 4.45113 5.07715 4.73079 5.06049 5.02888H4.18449ZM5.50274 5.02888C5.52774 4.70004 5.58253 4.40371 5.66711 4.13988C5.75178 3.87613 5.86269 3.64712 5.99986 3.45287C6.13703 3.64712 6.24794 3.87613 6.33261 4.13988C6.41719 4.40371 6.47199 4.70004 6.49699 5.02888H5.50274ZM6.93924 5.02888C6.92899 4.74363 6.88799 4.472 6.81624 4.214C6.7444 3.95592 6.63765 3.71471 6.49599 3.49037C6.84982 3.57696 7.14728 3.75933 7.38836 4.0375C7.62936 4.31567 7.77165 4.64613 7.81524 5.02888H6.93924ZM2.90374 10.5C2.78765 10.5 2.69132 10.4617 2.61474 10.3851C2.53815 10.3085 2.49986 10.2122 2.49986 10.0961V1.90387C2.49986 1.78779 2.53815 1.69146 2.61474 1.61488C2.69132 1.53829 2.78765 1.5 2.90374 1.5H8.69211C8.91586 1.5 9.10644 1.57867 9.26386 1.736C9.42119 1.89342 9.49986 2.084 9.49986 2.30775V9.69225C9.49986 9.916 9.42119 10.1066 9.26386 10.264C9.10644 10.4213 8.91586 10.5 8.69211 10.5H2.90374Z" fill="var(--fill-0, #9C9C9C)"/>
</g>
</g>
</svg>
