<svg preserveAspectRatio="none" width="100%" height="100%" overflow="visible" style="display: block;" viewBox="0 0 14 14" fill="none" xmlns="http://www.w3.org/2000/svg">
<g id="iconamoon:discount-fill">
<path id="Vector" fill-rule="evenodd" clip-rule="evenodd" d="M5.69625 1.74885C5.86039 1.56553 6.06134 1.41889 6.28599 1.3185C6.51064 1.2181 6.75394 1.16621 7 1.16621C7.24606 1.16621 7.48936 1.2181 7.71401 1.3185C7.93866 1.41889 8.13961 1.56553 8.30375 1.74885L8.71208 2.20501C8.77044 2.27029 8.84274 2.3216 8.92362 2.35512C9.00451 2.38865 9.09191 2.40354 9.17933 2.39868L9.79183 2.36485C10.0374 2.35136 10.2831 2.3898 10.5129 2.47766C10.7426 2.56553 10.9513 2.70084 11.1252 2.87478C11.2992 3.04871 11.4345 3.25736 11.5223 3.48712C11.6102 3.71687 11.6487 3.96257 11.6352 4.20818L11.6013 4.82068C11.5966 4.90801 11.6115 4.99529 11.645 5.07607C11.6785 5.15685 11.7298 5.22906 11.795 5.28735L12.2517 5.69568C12.4352 5.85982 12.5819 6.06081 12.6823 6.28552C12.7828 6.51022 12.8347 6.75359 12.8347 6.99972C12.8347 7.24586 12.7828 7.48923 12.6823 7.71393C12.5819 7.93864 12.4352 8.13962 12.2517 8.30376L11.795 8.7121C11.7297 8.77045 11.6784 8.84275 11.6449 8.92364C11.6114 9.00453 11.5965 9.09192 11.6013 9.17935L11.6352 9.79185C11.6487 10.0375 11.6102 10.2832 11.5223 10.5129C11.4345 10.7427 11.2992 10.9513 11.1252 11.1253C10.9513 11.2992 10.7426 11.4345 10.5129 11.5224C10.2831 11.6102 10.0374 11.6487 9.79183 11.6352L9.17933 11.6013C9.092 11.5966 9.00472 11.6115 8.92394 11.645C8.84316 11.6786 8.77096 11.7298 8.71266 11.795L8.30433 12.2518C8.14019 12.4352 7.9392 12.5819 7.7145 12.6824C7.48979 12.7828 7.24643 12.8347 7.00029 12.8347C6.75415 12.8347 6.51079 12.7828 6.28608 12.6824C6.06138 12.5819 5.86039 12.4352 5.69625 12.2518L5.28792 11.795C5.22956 11.7297 5.15726 11.6784 5.07637 11.6449C4.99549 11.6114 4.90809 11.5965 4.82067 11.6013L4.20817 11.6352C3.96255 11.6487 3.71686 11.6102 3.4871 11.5224C3.25735 11.4345 3.0487 11.2992 2.87476 11.1253C2.70083 10.9513 2.56551 10.7427 2.47765 10.5129C2.38978 10.2832 2.35134 10.0375 2.36483 9.79185L2.39867 9.17935C2.40343 9.09202 2.3885 9.00474 2.35498 8.92396C2.32146 8.84318 2.2702 8.77097 2.205 8.71268L1.74883 8.30435C1.56542 8.14021 1.4187 7.93922 1.31824 7.71451C1.21779 7.48981 1.16587 7.24644 1.16587 7.00031C1.16587 6.75417 1.21779 6.5108 1.31824 6.2861C1.4187 6.06139 1.56542 5.86041 1.74883 5.69626L2.205 5.28793C2.27028 5.22958 2.32158 5.15728 2.35511 5.07639C2.38863 4.9955 2.40352 4.90811 2.39867 4.82068L2.36483 4.20818C2.35134 3.96257 2.38978 3.71687 2.47765 3.48712C2.56551 3.25736 2.70083 3.04871 2.87476 2.87478C3.0487 2.70084 3.25735 2.56553 3.4871 2.47766C3.71686 2.3898 3.96255 2.35136 4.20817 2.36485L4.82067 2.39868C4.90799 2.40345 4.99528 2.38852 5.07605 2.35499C5.15683 2.32147 5.22904 2.27021 5.28733 2.20501L5.69625 1.74885ZM9.16241 4.8376C9.27177 4.94699 9.33321 5.09534 9.33321 5.25001C9.33321 5.40469 9.27177 5.55304 9.16241 5.66243L5.66242 9.16243C5.5524 9.26869 5.40505 9.32749 5.2521 9.32616C5.09915 9.32483 4.95284 9.26348 4.84469 9.15533C4.73653 9.04717 4.67518 8.90086 4.67386 8.74792C4.67253 8.59497 4.73132 8.44762 4.83758 8.3376L8.33758 4.8376C8.44697 4.72824 8.59532 4.66681 8.75 4.66681C8.90468 4.66681 9.05302 4.72824 9.16241 4.8376ZM5.54167 4.66668C5.3096 4.66668 5.08704 4.75887 4.92295 4.92296C4.75885 5.08706 4.66667 5.30962 4.66667 5.54168V5.54751C4.66667 5.77958 4.75885 6.00214 4.92295 6.16623C5.08704 6.33033 5.3096 6.42251 5.54167 6.42251H5.5475C5.77956 6.42251 6.00212 6.33033 6.16622 6.16623C6.33031 6.00214 6.4225 5.77958 6.4225 5.54751V5.54168C6.4225 5.30962 6.33031 5.08706 6.16622 4.92296C6.00212 4.75887 5.77956 4.66668 5.5475 4.66668H5.54167ZM8.45833 7.58335C8.22627 7.58335 8.00371 7.67554 7.83961 7.83963C7.67552 8.00372 7.58333 8.22628 7.58333 8.45835V8.46418C7.58333 8.69625 7.67552 8.91881 7.83961 9.0829C8.00371 9.24699 8.22627 9.33918 8.45833 9.33918H8.46417C8.69623 9.33918 8.91879 9.24699 9.08288 9.0829C9.24698 8.91881 9.33917 8.69625 9.33917 8.46418V8.45835C9.33917 8.22628 9.24698 8.00372 9.08288 7.83963C8.91879 7.67554 8.69623 7.58335 8.46417 7.58335H8.45833Z" fill="var(--fill-0, #757575)"/>
</g>
</svg>
