<svg preserveAspectRatio="none" width="100%" height="100%" overflow="visible" style="display: block;" viewBox="0 0 14 14" fill="none" xmlns="http://www.w3.org/2000/svg">
<g id="library_add_check">
<mask id="mask0_0_20" style="mask-type:alpha" maskUnits="userSpaceOnUse" x="0" y="0" width="14" height="14">
<rect id="Bounding box" width="14" height="14" fill="var(--fill-0, #D9D9D9)"/>
</mask>
<g mask="url(#mask0_0_20)">
<path id="library_add_check_2" d="M7.40833 6.53333L6.5625 5.70208C6.45556 5.59514 6.32188 5.54167 6.16146 5.54167C6.00104 5.54167 5.8625 5.6 5.74583 5.71667C5.63889 5.82361 5.58542 5.95972 5.58542 6.125C5.58542 6.29028 5.63889 6.42639 5.74583 6.53333L7 7.7875C7.11667 7.90417 7.25278 7.9625 7.40833 7.9625C7.56389 7.9625 7.7 7.90417 7.81667 7.7875L10.2958 5.30833C10.4125 5.19167 10.4684 5.05556 10.4635 4.9C10.4587 4.74444 10.4028 4.60833 10.2958 4.49167C10.1792 4.375 10.0406 4.31424 9.88021 4.30938C9.71979 4.30451 9.58125 4.36042 9.46458 4.47708L7.40833 6.53333ZM4.66667 10.5C4.34583 10.5 4.07118 10.3858 3.84271 10.1573C3.61424 9.92882 3.5 9.65417 3.5 9.33333V2.33333C3.5 2.0125 3.61424 1.73785 3.84271 1.50938C4.07118 1.2809 4.34583 1.16667 4.66667 1.16667H11.6667C11.9875 1.16667 12.2622 1.2809 12.4906 1.50938C12.7191 1.73785 12.8333 2.0125 12.8333 2.33333V9.33333C12.8333 9.65417 12.7191 9.92882 12.4906 10.1573C12.2622 10.3858 11.9875 10.5 11.6667 10.5H4.66667ZM4.66667 9.33333H11.6667V2.33333H4.66667V9.33333ZM2.33333 12.8333C2.0125 12.8333 1.73785 12.7191 1.50938 12.4906C1.2809 12.2622 1.16667 11.9875 1.16667 11.6667V4.08333C1.16667 3.91806 1.22257 3.77951 1.33437 3.66771C1.44618 3.5559 1.58472 3.5 1.75 3.5C1.91528 3.5 2.05382 3.5559 2.16563 3.66771C2.27743 3.77951 2.33333 3.91806 2.33333 4.08333V11.6667H9.91667C10.0819 11.6667 10.2205 11.7226 10.3323 11.8344C10.4441 11.9462 10.5 12.0847 10.5 12.25C10.5 12.4153 10.4441 12.5538 10.3323 12.6656C10.2205 12.7774 10.0819 12.8333 9.91667 12.8333H2.33333Z" fill="var(--fill-0, #757575)"/>
</g>
</g>
</svg>
