<svg preserveAspectRatio="none" width="100%" height="100%" overflow="visible" style="display: block;" viewBox="0 0 14 14" fill="none" xmlns="http://www.w3.org/2000/svg">
<g id="hiking">
<mask id="mask0_0_31" style="mask-type:alpha" maskUnits="userSpaceOnUse" x="0" y="0" width="14" height="14">
<rect id="Bounding box" width="14" height="14" fill="var(--fill-0, #D9D9D9)"/>
</mask>
<g mask="url(#mask0_0_31)">
<path id="hiking_2" d="M6.35839 8.75L5.41047 12.95C5.38131 13.0861 5.31082 13.1979 5.19902 13.2854C5.08721 13.3729 4.95839 13.4167 4.81256 13.4167C4.61811 13.4167 4.46256 13.3438 4.34589 13.1979C4.22922 13.0521 4.19033 12.8868 4.22922 12.7021L5.87714 4.34583C5.93547 4.06389 6.06672 3.85243 6.27089 3.71146C6.47506 3.57049 6.68895 3.5 6.91256 3.5C7.13617 3.5 7.34277 3.54861 7.53235 3.64583C7.72193 3.74306 7.87506 3.88889 7.99172 4.08333L8.57506 5.01667C8.75006 5.29861 8.9761 5.55382 9.25318 5.78229C9.53027 6.01076 9.84867 6.17847 10.2084 6.28542V5.6875C10.2084 5.56111 10.2497 5.4566 10.3323 5.37396C10.415 5.29132 10.5195 5.25 10.6459 5.25C10.7723 5.25 10.8768 5.29132 10.9594 5.37396C11.0421 5.4566 11.0834 5.56111 11.0834 5.6875V12.9792C11.0834 13.1056 11.0421 13.2101 10.9594 13.2927C10.8768 13.3753 10.7723 13.4167 10.6459 13.4167C10.5195 13.4167 10.415 13.3753 10.3323 13.2927C10.2497 13.2101 10.2084 13.1056 10.2084 12.9792V7.49583C9.74172 7.38889 9.30909 7.21875 8.91047 6.98542C8.51186 6.75208 8.16672 6.46528 7.87506 6.125L7.52506 7.875L8.57506 8.86667C8.63339 8.925 8.67714 8.99063 8.70631 9.06354C8.73547 9.13646 8.75006 9.21181 8.75006 9.28958V12.8333C8.75006 12.9986 8.69415 13.1372 8.58235 13.249C8.47054 13.3608 8.332 13.4167 8.16672 13.4167C8.00145 13.4167 7.8629 13.3608 7.7511 13.249C7.63929 13.1372 7.58339 12.9986 7.58339 12.8333V9.91667L6.35839 8.75ZM3.76256 7.55417L3.09172 7.42292C2.93617 7.39375 2.81464 7.31354 2.72714 7.18229C2.63964 7.05104 2.61047 6.90278 2.63964 6.7375L3.07714 4.44792C3.13547 4.11736 3.31047 3.86701 3.60214 3.69688C3.89381 3.52674 4.20978 3.47569 4.55006 3.54375C4.71533 3.57292 4.83929 3.65313 4.92193 3.78438C5.00457 3.91563 5.03131 4.06389 5.00214 4.22917L4.44797 7.0875C4.41881 7.25278 4.3386 7.37917 4.20735 7.46667C4.0761 7.55417 3.92783 7.58333 3.76256 7.55417ZM7.0511 2.86563C6.82263 2.63715 6.70839 2.3625 6.70839 2.04167C6.70839 1.72083 6.82263 1.44618 7.0511 1.21771C7.27957 0.989236 7.55422 0.875 7.87506 0.875C8.19589 0.875 8.47054 0.989236 8.69902 1.21771C8.92749 1.44618 9.04172 1.72083 9.04172 2.04167C9.04172 2.3625 8.92749 2.63715 8.69902 2.86563C8.47054 3.0941 8.19589 3.20833 7.87506 3.20833C7.55422 3.20833 7.27957 3.0941 7.0511 2.86563Z" fill="var(--fill-0, #757575)"/>
</g>
</g>
</svg>
