<svg preserveAspectRatio="none" width="100%" height="100%" overflow="visible" style="display: block;" viewBox="0 0 14 14" fill="none" xmlns="http://www.w3.org/2000/svg">
<g id="block">
<mask id="mask0_0_37" style="mask-type:alpha" maskUnits="userSpaceOnUse" x="0" y="0" width="14" height="14">
<rect id="Bounding box" width="14" height="14" fill="var(--fill-0, #D9D9D9)"/>
</mask>
<g mask="url(#mask0_0_37)">
<path id="block_2" d="M4.725 12.374C4.01528 12.0677 3.39792 11.6521 2.87292 11.1271C2.34792 10.6021 1.93229 9.98472 1.62604 9.275C1.31979 8.56528 1.16667 7.80694 1.16667 7C1.16667 6.19306 1.31979 5.43472 1.62604 4.725C1.93229 4.01528 2.34792 3.39792 2.87292 2.87292C3.39792 2.34792 4.01528 1.93229 4.725 1.62604C5.43472 1.31979 6.19306 1.16667 7 1.16667C7.80694 1.16667 8.56528 1.31979 9.275 1.62604C9.98472 1.93229 10.6021 2.34792 11.1271 2.87292C11.6521 3.39792 12.0677 4.01528 12.374 4.725C12.6802 5.43472 12.8333 6.19306 12.8333 7C12.8333 7.80694 12.6802 8.56528 12.374 9.275C12.0677 9.98472 11.6521 10.6021 11.1271 11.1271C10.6021 11.6521 9.98472 12.0677 9.275 12.374C8.56528 12.6802 7.80694 12.8333 7 12.8333C6.19306 12.8333 5.43472 12.6802 4.725 12.374ZM7 11.6667C7.525 11.6667 8.03056 11.5816 8.51667 11.4115C9.00278 11.2413 9.45 10.9958 9.85833 10.675L3.325 4.14167C3.00417 4.55 2.75868 4.99722 2.58854 5.48333C2.4184 5.96944 2.33333 6.475 2.33333 7C2.33333 8.30278 2.78542 9.40625 3.68958 10.3104C4.59375 11.2146 5.69722 11.6667 7 11.6667ZM10.675 9.85833C10.9958 9.45 11.2413 9.00278 11.4115 8.51667C11.5816 8.03056 11.6667 7.525 11.6667 7C11.6667 5.69722 11.2146 4.59375 10.3104 3.68958C9.40625 2.78542 8.30278 2.33333 7 2.33333C6.475 2.33333 5.96944 2.4184 5.48333 2.58854C4.99722 2.75868 4.55 3.00417 4.14167 3.325L10.675 9.85833Z" fill="var(--fill-0, #757575)"/>
</g>
</g>
</svg>
