<svg preserveAspectRatio="none" width="100%" height="100%" overflow="visible" style="display: block;" viewBox="0 0 12 12" fill="none" xmlns="http://www.w3.org/2000/svg">
<g id="local_taxi">
<mask id="mask0_0_23" style="mask-type:alpha" maskUnits="userSpaceOnUse" x="0" y="0" width="12" height="12">
<rect id="Bounding box" width="12" height="12" fill="var(--fill-0, #D9D9D9)"/>
</mask>
<g mask="url(#mask0_0_23)">
<path id="local_taxi_2" d="M2.61537 8.99996V9.69221C2.61537 9.77771 2.58538 9.85038 2.52538 9.91021C2.46529 9.97005 2.39233 9.99996 2.3065 9.99996C2.22075 9.99996 2.14825 9.97005 2.089 9.91021C2.02967 9.85038 2 9.77771 2 9.69221V6.21346C2 6.16796 2.00258 6.12242 2.00775 6.07684C2.01283 6.03134 2.02296 5.98605 2.03813 5.94096L2.89138 3.54034C2.94454 3.38025 3.04092 3.25017 3.1805 3.15009C3.32008 3.05 3.47625 2.99996 3.649 2.99996H4.9615V2.63459C4.9615 2.52017 5.00021 2.42425 5.07763 2.34684C5.15504 2.26942 5.25096 2.23071 5.36538 2.23071H6.67312C6.78754 2.23071 6.88346 2.26942 6.96088 2.34684C7.03821 2.42425 7.07688 2.52017 7.07688 2.63459V2.99996H8.351C8.52375 2.99996 8.67992 3.05 8.8195 3.15009C8.95908 3.25017 9.05546 3.38025 9.10862 3.54034L9.96188 5.94096C9.97704 5.98605 9.98717 6.03134 9.99225 6.07684C9.99742 6.12242 10 6.16796 10 6.21346V9.69221C10 9.77771 9.96996 9.85038 9.90987 9.91021C9.84987 9.97005 9.77696 9.99996 9.69112 9.99996C9.60537 9.99996 9.53283 9.97005 9.4735 9.91021C9.41425 9.85038 9.38463 9.77771 9.38463 9.69221V8.99996H2.61537ZM2.70775 5.57684H9.29225L8.63275 3.70184C8.60708 3.63775 8.56858 3.58809 8.51725 3.55284C8.466 3.51759 8.40513 3.49996 8.33463 3.49996H3.66538C3.59488 3.49996 3.534 3.51759 3.48275 3.55284C3.43142 3.58809 3.39292 3.63775 3.36725 3.70184L2.70775 5.57684ZM3.71375 7.84609C3.86933 7.84609 4.00079 7.79167 4.10812 7.68284C4.21554 7.57392 4.26925 7.44171 4.26925 7.28621C4.26925 7.13063 4.21479 6.99917 4.10588 6.89184C3.99704 6.78442 3.86483 6.73071 3.70925 6.73071C3.55375 6.73071 3.42229 6.78517 3.31488 6.89409C3.20754 7.00292 3.15387 7.13513 3.15387 7.29071C3.15387 7.44621 3.20829 7.57767 3.31712 7.68509C3.42604 7.79242 3.55825 7.84609 3.71375 7.84609ZM8.29075 7.84609C8.44625 7.84609 8.57771 7.79167 8.68512 7.68284C8.79246 7.57392 8.84613 7.44171 8.84613 7.28621C8.84613 7.13063 8.79171 6.99917 8.68288 6.89184C8.57396 6.78442 8.44175 6.73071 8.28625 6.73071C8.13067 6.73071 7.99921 6.78517 7.89187 6.89409C7.78446 7.00292 7.73075 7.13513 7.73075 7.29071C7.73075 7.44621 7.78521 7.57767 7.89413 7.68509C8.00296 7.79242 8.13517 7.84609 8.29075 7.84609Z" fill="var(--fill-0, #139B79)"/>
</g>
</g>
</svg>
