<svg preserveAspectRatio="none" width="100%" height="100%" overflow="visible" style="display: block;" viewBox="0 0 16 16" fill="none" xmlns="http://www.w3.org/2000/svg">
<g id="wand_shine">
<mask id="mask0_0_34" style="mask-type:alpha" maskUnits="userSpaceOnUse" x="0" y="0" width="16" height="16">
<rect id="Bounding box" width="16" height="16" fill="var(--fill-0, #D9D9D9)"/>
</mask>
<g mask="url(#mask0_0_34)">
<path id="wand_shine_2" d="M4.60015 2.76149C4.73437 2.76149 4.85315 2.81321 4.95648 2.91666L6.00648 3.97699C6.1057 4.0761 6.15637 4.1921 6.15848 4.32499C6.16059 4.45788 6.10993 4.57605 6.00648 4.67949C5.90315 4.78294 5.78437 4.83466 5.65015 4.83466C5.51593 4.83466 5.39715 4.78294 5.29382 4.67949L4.23348 3.62949C4.13437 3.53038 4.08543 3.41266 4.08665 3.27632C4.08798 3.13999 4.14037 3.0201 4.24382 2.91666C4.34715 2.81321 4.46593 2.76149 4.60015 2.76149ZM9.02315 1.17182C9.11893 1.26749 9.16682 1.38627 9.16682 1.52816V3.02816C9.16682 3.17005 9.11893 3.28888 9.02315 3.38466C8.92748 3.48032 8.8087 3.52816 8.66682 3.52816C8.52493 3.52816 8.40615 3.48032 8.31048 3.38466C8.2147 3.28888 8.16682 3.17005 8.16682 3.02816V1.52816C8.16682 1.38627 8.2147 1.26749 8.31048 1.17182C8.40615 1.07605 8.52493 1.02816 8.66682 1.02816C8.8087 1.02816 8.92748 1.07605 9.02315 1.17182ZM11.677 9.83849C11.8112 9.83849 11.93 9.89021 12.0335 9.99366L13.0835 11.0538C13.1826 11.1529 13.2332 11.2689 13.2353 11.4018C13.2375 11.5348 13.1869 11.653 13.0835 11.7563C12.98 11.8598 12.8612 11.9115 12.727 11.9115C12.5929 11.9115 12.4741 11.8598 12.3706 11.7563L11.3105 10.7063C11.2113 10.6072 11.1623 10.4895 11.1636 10.3532C11.1649 10.2168 11.2172 10.097 11.3206 9.99366C11.4241 9.89021 11.5429 9.83849 11.677 9.83849ZM13.3668 3.14482C13.3668 3.27905 13.3151 3.39788 13.2116 3.50132L12.1515 4.56149C12.0523 4.6606 11.9362 4.70955 11.8033 4.70832C11.6704 4.70699 11.5523 4.65466 11.4488 4.55132C11.3455 4.44788 11.2938 4.32905 11.2938 4.19482C11.2938 4.06071 11.3455 3.94194 11.4488 3.83849L12.4988 2.78849C12.598 2.68938 12.7158 2.63871 12.8521 2.63649C12.9884 2.63438 13.1082 2.68505 13.2116 2.78849C13.3151 2.89194 13.3668 3.01071 13.3668 3.14482ZM14.8283 7.68966C14.7326 7.78544 14.6139 7.83332 14.472 7.83332H12.972C12.8301 7.83332 12.7113 7.78544 12.6155 7.68966C12.5198 7.59399 12.472 7.47521 12.472 7.33332C12.472 7.19144 12.5198 7.07266 12.6155 6.97699C12.7113 6.88121 12.8301 6.83332 12.972 6.83332H14.472C14.6139 6.83332 14.7326 6.88121 14.8283 6.97699C14.9241 7.07266 14.972 7.19144 14.972 7.33332C14.972 7.47521 14.9241 7.59399 14.8283 7.68966ZM3.42965 14.0692L1.92448 12.5642C1.80404 12.4436 1.74382 12.303 1.74382 12.1423C1.74382 11.9817 1.80404 11.841 1.92448 11.7205L7.78865 5.84616C8.11343 5.52138 8.50659 5.35899 8.96815 5.35899C9.42959 5.35899 9.8227 5.52138 10.1475 5.84616C10.4724 6.17094 10.6348 6.5641 10.6348 7.02566C10.6348 7.48721 10.4724 7.88038 10.1475 8.20516L4.27315 14.0692C4.1527 14.1897 4.01215 14.25 3.85148 14.25C3.69082 14.25 3.5502 14.1897 3.42965 14.0692ZM8.03481 8.90899L9.43482 7.49232C9.56815 7.35899 9.63482 7.20343 9.63482 7.02566C9.63482 6.84788 9.56815 6.69232 9.43482 6.55899C9.3057 6.42988 9.15015 6.36532 8.96815 6.36532C8.78604 6.36532 8.63048 6.42988 8.50148 6.55899L7.08482 7.97566L8.03481 8.90899Z" fill="var(--fill-0, #1C1B1F)"/>
</g>
</g>
</svg>
