<svg preserveAspectRatio="none" overflow="visible" style="display: block;" width="20" height="20" viewBox="0 0 20 20" fill="none" xmlns="http://www.w3.org/2000/svg">
<g id="calendar_month">
<path id="calendar_month_2" d="M3.60517 16.3718C3.26839 16.3718 2.98333 16.2551 2.75 16.0218C2.51667 15.7884 2.4 15.5034 2.4 15.1666V6.24358C2.4 5.90681 2.51667 5.62175 2.75 5.38842C2.98333 5.15508 3.26839 5.03842 3.60517 5.03842H4.52817V4.14092C4.52817 3.99481 4.57711 3.87281 4.675 3.77492C4.77289 3.67714 4.89489 3.62825 5.041 3.62825C5.18722 3.62825 5.30922 3.67714 5.407 3.77492C5.50489 3.87281 5.55383 3.99481 5.55383 4.14092V5.03842H10.6052V4.12825C10.6052 3.98636 10.653 3.86753 10.7487 3.77175C10.8444 3.67608 10.9633 3.62825 11.1052 3.62825C11.2471 3.62825 11.3658 3.67608 11.4615 3.77175C11.5573 3.86753 11.6052 3.98636 11.6052 4.12825V5.03842H12.5282C12.8649 5.03842 13.15 5.15508 13.3833 5.38842C13.6167 5.62175 13.7333 5.90681 13.7333 6.24358V15.1666C13.7333 15.5034 13.6167 15.7884 13.3833 16.0218C13.15 16.2551 12.8649 16.3718 12.5282 16.3718H3.60517ZM3.60517 15.3718H12.5282C12.5795 15.3718 12.6265 15.3504 12.6692 15.3076C12.7119 15.2649 12.7333 15.2179 12.7333 15.1666V8.91025H3.4V15.1666C3.4 15.2179 3.42139 15.2649 3.46417 15.3076C3.50683 15.3504 3.55383 15.3718 3.60517 15.3718ZM8.06667 11.4231C7.90344 11.4231 7.76433 11.3656 7.64933 11.2506C7.53444 11.1357 7.477 10.9966 7.477 10.8333C7.477 10.67 7.53444 10.5309 7.64933 10.4159C7.76433 10.301 7.90344 10.2436 8.06667 10.2436C8.22989 10.2436 8.369 10.301 8.484 10.4159C8.59889 10.5309 8.65633 10.67 8.65633 10.8333C8.65633 10.9966 8.59889 11.1357 8.484 11.2506C8.369 11.3656 8.22989 11.4231 8.06667 11.4231ZM5.4 11.4231C5.23678 11.4231 5.09767 11.3656 4.98267 11.2506C4.86778 11.1357 4.81033 10.9966 4.81033 10.8333C4.81033 10.67 4.86778 10.5309 4.98267 10.4159C5.09767 10.301 5.23678 10.2436 5.4 10.2436C5.56322 10.2436 5.70233 10.301 5.81733 10.4159C5.93222 10.5309 5.98967 10.67 5.98967 10.8333C5.98967 10.9966 5.93222 11.1357 5.81733 11.2506C5.70233 11.3656 5.56322 11.4231 5.4 11.4231ZM10.7333 11.4231C10.5701 11.4231 10.431 11.3656 10.316 11.2506C10.2011 11.1357 10.1437 10.9966 10.1437 10.8333C10.1437 10.67 10.2011 10.5309 10.316 10.4159C10.431 10.301 10.5701 10.2436 10.7333 10.2436C10.8966 10.2436 11.0357 10.301 11.1507 10.4159C11.2656 10.5309 11.323 10.67 11.323 10.8333C11.323 10.9966 11.2656 11.1357 11.1507 11.2506C11.0357 11.3656 10.8966 11.4231 10.7333 11.4231ZM8.06667 14.0384C7.90344 14.0384 7.76433 13.9809 7.64933 13.8659C7.53444 13.751 7.477 13.612 7.477 13.4488C7.477 13.2854 7.53444 13.1463 7.64933 13.0314C7.76433 12.9164 7.90344 12.8589 8.06667 12.8589C8.22989 12.8589 8.369 12.9164 8.484 13.0314C8.59889 13.1463 8.65633 13.2854 8.65633 13.4488C8.65633 13.612 8.59889 13.751 8.484 13.8659C8.369 13.9809 8.22989 14.0384 8.06667 14.0384ZM5.4 14.0384C5.23678 14.0384 5.09767 13.9809 4.98267 13.8659C4.86778 13.751 4.81033 13.612 4.81033 13.4488C4.81033 13.2854 4.86778 13.1463 4.98267 13.0314C5.09767 12.9164 5.23678 12.8589 5.4 12.8589C5.56322 12.8589 5.70233 12.9164 5.81733 13.0314C5.93222 13.1463 5.98967 13.2854 5.98967 13.4488C5.98967 13.612 5.93222 13.751 5.81733 13.8659C5.70233 13.9809 5.56322 14.0384 5.4 14.0384ZM10.7333 14.0384C10.5701 14.0384 10.431 13.9809 10.316 13.8659C10.2011 13.751 10.1437 13.612 10.1437 13.4488C10.1437 13.2854 10.2011 13.1463 10.316 13.0314C10.431 12.9164 10.5701 12.8589 10.7333 12.8589C10.8966 12.8589 11.0357 12.9164 11.1507 13.0314C11.2656 13.1463 11.323 13.2854 11.323 13.4488C11.323 13.612 11.2656 13.751 11.1507 13.8659C11.0357 13.9809 10.8966 14.0384 10.7333 14.0384Z" fill="#ADADAD"/>
</g>
</svg>
