<svg preserveAspectRatio="none" overflow="visible" style="display: block;" width="18.935" height="18.935" viewBox="0 0 18.935 18.935" fill="none" xmlns="http://www.w3.org/2000/svg">
<g id="location_on_24dp_E3E3E3_FILL0_wght400_GRAD0_opsz24 (1) 1">
<path id="Vector" d="M9.46873 15.2662C11.0729 13.7934 12.263 12.4555 13.0388 11.2523C13.8146 10.0492 14.2025 8.98079 14.2025 8.04719C14.2025 6.61392 13.7455 5.44034 12.8317 4.52646C11.9178 3.61259 10.7968 3.15565 9.46873 3.15565C8.14065 3.15565 7.01968 3.61259 6.1058 4.52646C5.19192 5.44034 4.73498 6.61392 4.73498 8.04719C4.73498 8.98079 5.12289 10.0492 5.8987 11.2523C6.67451 12.4555 7.86452 13.7934 9.46873 15.2662ZM8.91646 16.7257C8.73237 16.66 8.568 16.5614 8.42336 16.4299C7.56866 15.6409 6.81257 14.8717 6.15511 14.1222C5.49764 13.3727 4.94866 12.6462 4.50816 11.9427C4.06766 11.2392 3.73235 10.562 3.50224 9.9111C3.27213 9.26021 3.15707 8.63891 3.15707 8.04719C3.15707 6.07479 3.79152 4.50345 5.06043 3.33317C6.32934 2.16288 7.79877 1.57774 9.46873 1.57774C11.1387 1.57774 12.6081 2.16288 13.877 3.33317C15.1459 4.50345 15.7804 6.07479 15.7804 8.04719C15.7804 8.63891 15.6653 9.26021 15.4352 9.9111C15.2051 10.562 14.8698 11.2392 14.4293 11.9427C13.9888 12.6462 13.4398 13.3727 12.7824 14.1222C12.1249 14.8717 11.3688 15.6409 10.5141 16.4299C10.3695 16.5614 10.2051 16.66 10.021 16.7257C9.83691 16.7915 9.65282 16.8243 9.46873 16.8243C9.28464 16.8243 9.10055 16.7915 8.91646 16.7257ZM10.5831 9.0038C10.8921 8.69479 11.0466 8.32332 11.0466 7.8894C11.0466 7.45547 10.8921 7.084 10.5831 6.77499C10.2741 6.46599 9.90266 6.31148 9.46873 6.31148C9.0348 6.31148 8.66334 6.46599 8.35433 6.77499C8.04532 7.084 7.89082 7.45547 7.89082 7.8894C7.89082 8.32332 8.04532 8.69479 8.35433 9.0038C8.66334 9.31281 9.0348 9.46731 9.46873 9.46731C9.90266 9.46731 10.2741 9.31281 10.5831 9.0038Z" fill="#757575"/>
</g>
</svg>
