<svg preserveAspectRatio="none" overflow="visible" style="display: block;" width="18.935" height="18.935" viewBox="0 0 18.935 18.935" fill="none" xmlns="http://www.w3.org/2000/svg">
<g id="flag_24dp_E3E3E3_FILL0_wght400_GRAD0_opsz24 1">
<path id="Vector" d="M5.52786 11.0452V15.779C5.52786 16.0025 5.45225 16.1899 5.30103 16.3411C5.14982 16.4923 4.96244 16.5679 4.7389 16.5679C4.51536 16.5679 4.32799 16.4923 4.17677 16.3411C4.02555 16.1899 3.94994 16.0025 3.94994 15.779V3.94461C3.94994 3.72107 4.02555 3.53369 4.17677 3.38248C4.32799 3.23126 4.51536 3.15565 4.7389 3.15565H10.3997C10.5838 3.15565 10.7481 3.21482 10.8928 3.33317C11.0374 3.45151 11.1295 3.60273 11.1689 3.78682L11.3661 4.73357H14.9954C15.2189 4.73357 15.4063 4.80917 15.5575 4.96039C15.7087 5.11161 15.7843 5.29899 15.7843 5.52252V11.8342C15.7843 12.0577 15.7087 12.2451 15.5575 12.3963C15.4063 12.5475 15.2189 12.6231 14.9954 12.6231H10.9125C10.7284 12.6231 10.564 12.564 10.4194 12.4456C10.2748 12.3273 10.1827 12.1761 10.1433 11.992L9.94602 11.0452H5.52786ZM11.5634 11.0452H14.2064V6.31148H10.7153C10.5312 6.31148 10.3668 6.25231 10.2222 6.13397C10.0775 6.01562 9.98547 5.86441 9.94602 5.68032L9.74878 4.73357H5.52786V9.46731H10.5969C10.781 9.46731 10.9454 9.52648 11.09 9.64483C11.2347 9.76317 11.3267 9.91439 11.3661 10.0985L11.5634 11.0452Z" fill="#757575"/>
</g>
</svg>
