<svg preserveAspectRatio="none" overflow="visible" style="display: block;" width="18.935" height="18.935" viewBox="0 0 18.935 18.935" fill="none" xmlns="http://www.w3.org/2000/svg">
<g id="Frame">
<path id="Vector" d="M3.94318 17.3569C3.50926 17.3569 3.13779 17.2024 2.82878 16.8934C2.51977 16.5844 2.36527 16.2129 2.36527 15.779V4.73357C2.36527 4.29964 2.51977 3.92817 2.82878 3.61916C3.13779 3.31015 3.50926 3.15565 3.94318 3.15565H4.73214V2.36669C4.73214 2.14315 4.80775 1.95578 4.95897 1.80456C5.11018 1.65334 5.29756 1.57774 5.5211 1.57774C5.74464 1.57774 5.93201 1.65334 6.08323 1.80456C6.23445 1.95578 6.31006 2.14315 6.31006 2.36669V3.15565H12.6217V2.36669C12.6217 2.14315 12.6973 1.95578 12.8485 1.80456C12.9998 1.65334 13.1871 1.57774 13.4107 1.57774C13.6342 1.57774 13.8216 1.65334 13.9728 1.80456C14.124 1.95578 14.1996 2.14315 14.1996 2.36669V3.15565H14.9886C15.4225 3.15565 15.794 3.31015 16.103 3.61916C16.412 3.92817 16.5665 4.29964 16.5665 4.73357V15.779C16.5665 16.2129 16.412 16.5844 16.103 16.8934C15.794 17.2024 15.4225 17.3569 14.9886 17.3569H3.94318ZM3.94318 15.779H14.9886V7.8894H3.94318V15.779ZM3.94318 6.31148H14.9886V4.73357H3.94318V6.31148Z" fill="#757575"/>
</g>
</svg>
