<svg preserveAspectRatio="none" width="100%" height="100%" overflow="visible" style="display: block;" viewBox="0 0 20 20" fill="none" xmlns="http://www.w3.org/2000/svg">
<g id="basil:upload-solid">
<path id="Vector" fill-rule="evenodd" clip-rule="evenodd" d="M4.57804 13.3059C4.73204 13.3059 4.87973 13.367 4.98862 13.4759C5.09751 13.5848 5.15869 13.7325 5.15869 13.8865V15.4349C5.15869 15.5417 5.2454 15.6285 5.35223 15.6285H14.6426C14.6939 15.6285 14.7431 15.6081 14.7794 15.5718C14.8157 15.5355 14.8361 15.4862 14.8361 15.4349V13.8865C14.8361 13.7325 14.8973 13.5848 15.0062 13.4759C15.1151 13.367 15.2628 13.3059 15.4168 13.3059C15.5707 13.3059 15.7184 13.367 15.8273 13.4759C15.9362 13.5848 15.9974 13.7325 15.9974 13.8865V15.4349C15.9974 15.7942 15.8547 16.1388 15.6006 16.3929C15.3465 16.647 15.0019 16.7897 14.6426 16.7897H5.35223C4.99291 16.7897 4.6483 16.647 4.39422 16.3929C4.14014 16.1388 3.9974 15.7942 3.9974 15.4349V13.8865C3.9974 13.7325 4.05857 13.5848 4.16746 13.4759C4.27636 13.367 4.42404 13.3059 4.57804 13.3059ZM9.02036 13.2106C8.82823 13.2108 8.64301 13.1389 8.50126 13.0092C8.35952 12.8795 8.27154 12.7014 8.25469 12.51C8.13606 11.1533 8.11537 9.78972 8.19275 8.43C8.00142 8.4193 7.81019 8.40691 7.61907 8.39284L6.46553 8.30845C6.36393 8.30101 6.26601 8.26731 6.18135 8.21067C6.09668 8.15403 6.02817 8.07638 5.98253 7.98531C5.93688 7.89425 5.91565 7.79289 5.92093 7.69116C5.9262 7.58944 5.9578 7.49082 6.01262 7.40497C6.83473 6.11816 7.89407 4.99944 9.13417 4.10845L9.59636 3.77632C9.71324 3.69238 9.8535 3.64723 9.9974 3.64723C10.1413 3.64723 10.2816 3.69238 10.3984 3.77632L10.8606 4.10922C12.1006 5 13.16 6.11845 13.9822 7.40497C14.037 7.49082 14.0686 7.58944 14.0739 7.69116C14.0791 7.79289 14.0579 7.89425 14.0123 7.98531C13.9666 8.07638 13.8981 8.15403 13.8134 8.21067C13.7288 8.26731 13.6309 8.30101 13.5293 8.30845L12.3757 8.39284C12.1853 8.40677 11.994 8.41916 11.8028 8.42922C11.8802 9.78948 11.8586 11.1528 11.7393 12.5092C11.7227 12.7006 11.6349 12.8788 11.4933 13.0087C11.3517 13.1385 11.1666 13.2106 10.9744 13.2106H9.02036Z" fill="var(--fill-0, #ABABAB)"/>
</g>
</svg>
