<svg preserveAspectRatio="none" width="100%" height="100%" overflow="visible" style="display: block;" viewBox="0 0 8.205 12" fill="none" xmlns="http://www.w3.org/2000/svg">
<path id="luggage" d="M1.07683 11.3333C0.780722 11.3333 0.527222 11.2279 0.316333 11.017C0.105444 10.8061 0 10.5526 0 10.2563V3.33333C0 3.03722 0.105444 2.78372 0.316333 2.57283C0.527222 2.36183 0.780722 2.25633 1.07683 2.25633H2.51283V1.077C2.51283 0.780778 2.61828 0.527222 2.82917 0.316333C3.04006 0.105444 3.29356 0 3.58967 0H4.61533C4.91144 0 5.16494 0.105444 5.37583 0.316333C5.58672 0.527222 5.69217 0.780778 5.69217 1.077V2.25633H7.12817C7.42428 2.25633 7.67778 2.36183 7.88867 2.57283C8.09956 2.78372 8.205 3.03722 8.205 3.33333V10.2563C8.205 10.5526 8.09956 10.8061 7.88867 11.017C7.67778 11.2279 7.42428 11.3333 7.12817 11.3333V11.4872C7.12817 11.6248 7.07711 11.7447 6.975 11.8468C6.87278 11.9489 6.75289 12 6.61533 12C6.47767 12 6.35778 11.9489 6.25567 11.8468C6.15356 11.7447 6.1025 11.6248 6.1025 11.4872V11.3333H2.1025V11.4872C2.1025 11.6248 2.05144 11.7447 1.94933 11.8468C1.84722 11.9489 1.72733 12 1.58967 12C1.45211 12 1.33222 11.9489 1.23 11.8468C1.12789 11.7447 1.07683 11.6248 1.07683 11.4872V11.3333ZM2.84567 4.1025C2.75111 4.1025 2.672 4.13444 2.60833 4.19833C2.54467 4.26222 2.51283 4.34139 2.51283 4.43583V9.15383C2.51283 9.24828 2.54478 9.32744 2.60867 9.39133C2.67267 9.45522 2.75194 9.48717 2.8465 9.48717C2.94106 9.48717 3.02017 9.45522 3.08383 9.39133C3.14761 9.32744 3.1795 9.24828 3.1795 9.15383V4.43583C3.1795 4.34139 3.1475 4.26222 3.0835 4.19833C3.0195 4.13444 2.94022 4.1025 2.84567 4.1025ZM5.3585 4.1025C5.26394 4.1025 5.18483 4.13444 5.12117 4.19833C5.05739 4.26222 5.0255 4.34139 5.0255 4.43583V9.15383C5.0255 9.24828 5.0575 9.32744 5.1215 9.39133C5.1855 9.45522 5.26478 9.48717 5.35933 9.48717C5.45389 9.48717 5.533 9.45522 5.59667 9.39133C5.66033 9.32744 5.69217 9.24828 5.69217 9.15383V4.43583C5.69217 4.34139 5.66022 4.26222 5.59633 4.19833C5.53233 4.13444 5.45306 4.1025 5.3585 4.1025ZM3.1795 2.25633H5.0255V1.077C5.0255 0.957333 4.98706 0.859 4.91017 0.782C4.83328 0.705111 4.735 0.666667 4.61533 0.666667H3.58967C3.47 0.666667 3.37172 0.705111 3.29483 0.782C3.21794 0.859 3.1795 0.957333 3.1795 1.077V2.25633Z" fill="var(--fill-0, #01AFD1)"/>
</svg>
