<svg preserveAspectRatio="none" width="100%" height="100%" overflow="visible" style="display: block;" viewBox="0 0 20 20" fill="none" xmlns="http://www.w3.org/2000/svg">
<g id="arrow_right_alt">
<mask id="mask0_0_20" style="mask-type:alpha" maskUnits="userSpaceOnUse" x="0" y="0" width="20" height="20">
<rect id="Bounding box" width="20" height="20" fill="var(--fill-0, #D9D9D9)"/>
</mask>
<g mask="url(#mask0_0_20)">
<path id="arrow_right_alt_2" d="M13.0322 10.5028H5.38975C5.23722 10.5028 5.1104 10.4522 5.00928 10.3511C4.90816 10.25 4.8576 10.1232 4.8576 9.97065C4.8576 9.81801 4.90816 9.69114 5.00928 9.59002C5.1104 9.4889 5.23722 9.43834 5.38975 9.43834H13.0322L10.8501 7.25643C10.7437 7.14999 10.6931 7.02577 10.6985 6.88378C10.7038 6.74189 10.7579 6.61773 10.8608 6.51129C10.9673 6.40485 11.0923 6.35073 11.236 6.34892C11.3797 6.34721 11.5048 6.39958 11.6112 6.50602L14.7034 9.598C14.7601 9.65484 14.8 9.71338 14.8231 9.77363C14.8461 9.83398 14.8576 9.89965 14.8576 9.97065C14.8576 10.0415 14.8461 10.1072 14.8231 10.1675C14.8 10.2279 14.7601 10.2864 14.7034 10.3431L11.6219 13.4246C11.5155 13.531 11.3904 13.5833 11.2467 13.5815C11.103 13.5798 10.978 13.5258 10.8715 13.4193C10.7686 13.3129 10.7162 13.1869 10.7144 13.0414C10.7127 12.8959 10.7651 12.7699 10.8715 12.6635L13.0322 10.5028Z" fill="var(--fill-0, #121212)"/>
</g>
</g>
</svg>
