<svg preserveAspectRatio="none" width="100%" height="100%" overflow="visible" style="display: block;" viewBox="0 0 30 28" fill="none" xmlns="http://www.w3.org/2000/svg">
<g id="add-to-wishlist">
<path id="favorite" d="M14.5013 19.9151C14.3321 19.8586 14.1833 19.768 14.055 19.6436L12.8475 18.5743C11.6108 17.4767 10.4938 16.3876 9.49625 15.3069C8.49875 14.2263 8 13.0354 8 11.7341C8 10.6704 8.3675 9.78218 9.1025 9.06931C9.8375 8.35644 10.7533 8 11.85 8C12.4683 8 13.0517 8.1273 13.6 8.3819C14.1483 8.63649 14.615 8.98444 15 9.42574C15.385 8.98444 15.8517 8.63649 16.4 8.3819C16.9483 8.1273 17.5317 8 18.15 8C19.2467 8 20.1625 8.35644 20.8975 9.06931C21.6325 9.78218 22 10.6704 22 11.7341C22 13.0354 21.5042 14.2291 20.5125 15.3154C19.5208 16.4017 18.395 17.4936 17.135 18.5912L15.945 19.6436C15.8167 19.768 15.6679 19.8586 15.4988 19.9151C15.3296 19.9717 15.1633 20 15 20C14.8367 20 14.6704 19.9717 14.5013 19.9151ZM14.335 10.7836C13.9967 10.3197 13.635 9.96605 13.25 9.72277C12.865 9.47949 12.3983 9.35785 11.85 9.35785C11.15 9.35785 10.5667 9.58416 10.1 10.0368C9.63333 10.4894 9.4 11.0552 9.4 11.7341C9.4 12.3225 9.61583 12.9477 10.0475 13.6096C10.4792 14.2716 10.9954 14.9137 11.5963 15.5361C12.1971 16.1584 12.8154 16.7412 13.4512 17.2843C14.0871 17.8274 14.6033 18.2744 15 18.6252C15.3967 18.2744 15.9129 17.8274 16.5488 17.2843C17.1846 16.7412 17.8029 16.1584 18.4037 15.5361C19.0046 14.9137 19.5208 14.2716 19.9525 13.6096C20.3842 12.9477 20.6 12.3225 20.6 11.7341C20.6 11.0552 20.3667 10.4894 19.9 10.0368C19.4333 9.58416 18.85 9.35785 18.15 9.35785C17.6017 9.35785 17.135 9.47949 16.75 9.72277C16.365 9.96605 16.0033 10.3197 15.665 10.7836C15.5833 10.8967 15.4842 10.9816 15.3675 11.0382C15.2508 11.0948 15.1283 11.1231 15 11.1231C14.8717 11.1231 14.7492 11.0948 14.6325 11.0382C14.5158 10.9816 14.4167 10.8967 14.335 10.7836Z" fill="var(--fill-0, white)"/>
</g>
</svg>
