<svg preserveAspectRatio="none" width="100%" height="100%" overflow="visible" style="display: block;" viewBox="0 0 10.1667 15.1667" fill="none" xmlns="http://www.w3.org/2000/svg">
<path id="distance" d="M5.08333 15.1667C3.6475 15.1667 2.48993 14.9786 1.61063 14.6025C0.731319 14.2265 0.291667 13.7324 0.291667 13.1202C0.291667 12.8948 0.377431 12.6744 0.548958 12.4592C0.720347 12.2439 0.964166 12.047 1.28042 11.8685C1.41292 11.8002 1.55528 11.7951 1.7075 11.8533C1.85972 11.9115 1.97007 12.0069 2.03854 12.1394C2.10688 12.2719 2.11194 12.4094 2.05375 12.5521C1.99556 12.6947 1.90021 12.8002 1.76771 12.8685C1.66299 12.9145 1.57271 12.9581 1.49688 12.9992C1.4209 13.0403 1.37493 13.0849 1.35896 13.1329C1.42729 13.3542 1.85118 13.5678 2.63062 13.774C3.40993 13.9802 4.2275 14.0833 5.08333 14.0833C5.93917 14.0833 6.75674 13.9802 7.53604 13.774C8.31549 13.5678 8.73938 13.3542 8.80771 13.1329C8.79174 13.0849 8.74576 13.0403 8.66979 12.9992C8.59396 12.9581 8.50368 12.9145 8.39896 12.8685C8.26646 12.8002 8.17111 12.6947 8.11292 12.5521C8.05472 12.4094 8.05979 12.2719 8.12813 12.1394C8.1966 12.0069 8.30694 11.9115 8.45917 11.8533C8.61139 11.7951 8.75375 11.8002 8.88625 11.8685C9.2025 12.047 9.44632 12.2439 9.61771 12.4592C9.78924 12.6744 9.875 12.8948 9.875 13.1202C9.875 13.7324 9.43535 14.2265 8.55604 14.6025C7.67674 14.9786 6.51917 15.1667 5.08333 15.1667ZM5.10417 11.3125C6.42889 10.3082 7.42326 9.29299 8.08729 8.26688C8.75132 7.24063 9.08333 6.2425 9.08333 5.2725C9.08333 3.89 8.6541 2.84618 7.79563 2.14104C6.93715 1.4359 6.03306 1.08333 5.08333 1.08333C4.13889 1.08333 3.23611 1.4359 2.375 2.14104C1.51389 2.84618 1.08333 3.89 1.08333 5.2725C1.08333 6.19125 1.41799 7.15813 2.08729 8.17313C2.7566 9.18813 3.76222 10.2346 5.10417 11.3125ZM4.67313 12.2756C4.53632 12.2297 4.41076 12.1565 4.29646 12.056C2.85313 10.8809 1.77625 9.72174 1.06583 8.57854C0.355278 7.43535 0 6.33333 0 5.2725C0 4.41458 0.153333 3.65764 0.46 3.00167C0.766666 2.34569 1.16514 1.79625 1.65542 1.35333C2.14583 0.910556 2.69208 0.574305 3.29417 0.344583C3.89611 0.114861 4.4925 0 5.08333 0C5.67417 0 6.27056 0.114861 6.8725 0.344583C7.47458 0.574305 8.02083 0.910556 8.51125 1.35333C9.00153 1.79625 9.4 2.34569 9.70667 3.00167C10.0133 3.65764 10.1667 4.41458 10.1667 5.2725C10.1667 6.33333 9.81139 7.43535 9.10083 8.57854C8.39042 9.72174 7.31354 10.8809 5.87021 12.056C5.7559 12.1565 5.63035 12.2297 5.49354 12.2756C5.35688 12.3216 5.22014 12.3446 5.08333 12.3446C4.94653 12.3446 4.80979 12.3216 4.67313 12.2756ZM5.08333 6.49521C5.45722 6.49521 5.77396 6.36674 6.03354 6.10979C6.29326 5.85285 6.42313 5.53472 6.42313 5.15542C6.42313 4.78153 6.29326 4.46479 6.03354 4.20521C5.77396 3.94549 5.45722 3.81563 5.08333 3.81563C4.71472 3.81563 4.39931 3.94896 4.13708 4.21562C3.87472 4.48215 3.74354 4.79542 3.74354 5.15542C3.74354 5.52083 3.87472 5.83549 4.13708 6.09938C4.39931 6.36326 4.71472 6.49521 5.08333 6.49521Z" fill="var(--fill-0, #575757)"/>
</svg>
