<svg preserveAspectRatio="none" width="100%" height="100%" overflow="visible" style="display: block;" viewBox="0 0 24 24" fill="none" xmlns="http://www.w3.org/2000/svg">
<g id="verified">
<rect width="24" height="24" rx="4" fill="var(--fill-0, #C7E5E5)"/>
<path id="verified_2" d="M11.1959 12.5361L10.0855 11.4448C9.94508 11.3044 9.76958 11.2342 9.55899 11.2342C9.34839 11.2342 9.16651 11.3108 9.01335 11.4639C8.87295 11.6043 8.80275 11.783 8.80275 12C8.80275 12.217 8.87295 12.3957 9.01335 12.5361L10.6598 14.1826C10.813 14.3357 10.9917 14.4123 11.1959 14.4123C11.4001 14.4123 11.5788 14.3357 11.732 14.1826L14.9867 10.9279C15.1398 10.7747 15.2132 10.596 15.2068 10.3918C15.2004 10.1876 15.127 10.0089 14.9867 9.85574C14.8335 9.70258 14.6516 9.6228 14.441 9.61642C14.2304 9.61004 14.0485 9.68343 13.8954 9.83659L11.1959 12.5361ZM9.05164 19.4666L7.94122 17.5904L5.83525 17.1309C5.64379 17.0926 5.49063 16.9937 5.37576 16.8342C5.26089 16.6746 5.21622 16.4991 5.24174 16.3077L5.45234 14.1443L4.01645 12.4978C3.88882 12.3574 3.825 12.1915 3.825 12C3.825 11.8085 3.88882 11.6426 4.01645 11.5022L5.45234 9.85574L5.24174 7.69233C5.21622 7.50088 5.26089 7.32538 5.37576 7.16584C5.49063 7.00629 5.64379 6.90738 5.83525 6.86909L7.94122 6.4096L9.05164 4.53337C9.15375 4.36745 9.29415 4.25577 9.47283 4.19833C9.65152 4.1409 9.83021 4.15047 10.0089 4.22705L12 5.06944L13.9911 4.22705C14.1698 4.15047 14.3485 4.1409 14.5272 4.19833C14.7059 4.25577 14.8463 4.36745 14.9484 4.53337L16.0588 6.4096L18.1648 6.86909C18.3562 6.90738 18.5094 7.00629 18.6242 7.16584C18.7391 7.32538 18.7838 7.50088 18.7583 7.69233L18.5477 9.85574L19.9835 11.5022C20.1112 11.6426 20.175 11.8085 20.175 12C20.175 12.1915 20.1112 12.3574 19.9835 12.4978L18.5477 14.1443L18.7583 16.3077C18.7838 16.4991 18.7391 16.6746 18.6242 16.8342C18.5094 16.9937 18.3562 17.0926 18.1648 17.1309L16.0588 17.5904L14.9484 19.4666C14.8463 19.6326 14.7059 19.7442 14.5272 19.8017C14.3485 19.8591 14.1698 19.8495 13.9911 19.773L12 18.9306L10.0089 19.773C9.83021 19.8495 9.65152 19.8591 9.47283 19.8017C9.29415 19.7442 9.15375 19.6326 9.05164 19.4666ZM10.0472 18.0882L12 17.2458L13.9911 18.0882L15.0632 16.2502L17.1692 15.7525L16.9778 13.6082L18.3945 12L16.9778 10.3535L17.1692 8.20925L15.0632 7.74977L13.9528 5.91183L12 6.75421L10.0089 5.91183L8.93677 7.74977L6.8308 8.20925L7.02225 10.3535L5.6055 12L7.02225 13.6082L6.8308 15.7907L8.93677 16.2502L10.0472 18.0882Z" fill="var(--fill-0, #316868)"/>
</g>
</svg>
