<svg width="9" height="6" viewBox="0 0 9 6" fill="none" xmlns="http://www.w3.org/2000/svg">
<g id="Frame 1171279424">
<path d="M-58 -337.07C-58 -352.155 -58 -359.697 -53.3137 -364.384C-48.6274 -369.07 -41.0849 -369.07 -26 -369.07H300C315.085 -369.07 322.627 -369.07 327.314 -364.384C332 -359.697 332 -352.155 332 -337.07V258.93H-58V-337.07Z" fill="white"/>
<g id="Frame 1000002323">
<g id="Frame 1171279424_2">
<g id="Frame 1171281094">
<g id="Frame 1171279425">
<g id="Frame 1171281093">
<g id="Frame 1171276024">
<mask id="path-2-inside-1_3014_8006" fill="white">
<path d="M-42 -19.0701H18.1836V24.9299H-42V-19.0701Z"/>
</mask>
<path d="M-42 -19.0701H18.1836V24.9299H-42V-19.0701Z" fill="white"/>
<path d="M18.1836 24.9299V22.9299H-42V24.9299V26.9299H18.1836V24.9299Z" fill="#757575" mask="url(#path-2-inside-1_3014_8006)"/>
<path id="Vector" d="M3.9003 5.77L0.185301 1.312C0.0879811 1.19516 0.0259765 1.053 0.0065534 0.902185C-0.0128697 0.751368 0.0110928 0.598139 0.0756333 0.460453C0.140174 0.322767 0.242619 0.206326 0.370964 0.124776C0.49931 0.0432255 0.648238 -5.69899e-05 0.800301 5.63173e-08H7.3843C7.53628 0.000132974 7.68507 0.0435533 7.81327 0.125178C7.94147 0.206803 8.04376 0.323256 8.10818 0.460905C8.1726 0.598555 8.19648 0.751706 8.17702 0.902433C8.15756 1.05316 8.09557 1.19522 7.9983 1.312L4.2843 5.77C4.26084 5.79814 4.23148 5.82077 4.1983 5.8363C4.16512 5.85184 4.12893 5.85989 4.0923 5.85989C4.05567 5.85989 4.01948 5.85184 3.9863 5.8363C3.95312 5.82077 3.92376 5.79814 3.9003 5.77Z" fill="#ABABAB"/>
</g>
</g>
</g>
</g>
</g>
</g>
</g>
</svg>
