<svg preserveAspectRatio="none" width="100%" height="100%" overflow="visible" style="display: block;" viewBox="0 0 19.1387 19.5559" fill="none" xmlns="http://www.w3.org/2000/svg">
<g id="Google">
<path id="Fill-1" fill-rule="evenodd" clip-rule="evenodd" d="M4.00568 9.77784C4.00568 9.14273 4.11116 8.53385 4.29943 7.96273L1.00409 5.44629C0.361847 6.75029 0 8.21962 0 9.77784C0 11.3347 0.361402 12.8032 1.00276 14.1063L4.29632 11.585C4.10983 11.0165 4.00568 10.4098 4.00568 9.77784Z" fill="var(--fill-0, #FBBC05)"/>
<path id="Fill-2" fill-rule="evenodd" clip-rule="evenodd" d="M9.79164 4C11.1714 4 12.4176 4.48889 13.3968 5.28889L16.2452 2.44444C14.5094 0.933333 12.2841 0 9.79164 0C5.92216 0 2.59655 2.21289 1.00407 5.44622L4.29941 7.96267C5.05871 5.65778 7.22311 4 9.79164 4Z" fill="var(--fill-0, #EB4335)"/>
<path id="Fill-3" fill-rule="evenodd" clip-rule="evenodd" d="M9.79164 15.5558C7.22311 15.5558 5.05871 13.898 4.29941 11.5931L1.00407 14.1091C2.59655 17.3429 5.92216 19.5558 9.79164 19.5558C12.1799 19.5558 14.46 18.7078 16.1714 17.1189L13.0434 14.7007C12.1608 15.2567 11.0494 15.5558 9.79164 15.5558Z" fill="var(--fill-0, #34A853)"/>
<path id="Fill-4" fill-rule="evenodd" clip-rule="evenodd" d="M19.1387 9.77778C19.1387 9.2 19.0497 8.57778 18.9162 8H9.79216V11.7778H15.044C14.7815 13.0658 14.0667 14.056 13.0439 14.7004L16.1719 17.1187C17.9695 15.4502 19.1387 12.9649 19.1387 9.77778Z" fill="var(--fill-0, #4285F4)"/>
</g>
</svg>
