<svg preserveAspectRatio="none" width="100%" height="100%" overflow="visible" style="display: block;" viewBox="0 0 28.7084 29.3334" fill="none" xmlns="http://www.w3.org/2000/svg">
<g id="Google">
<path id="Fill-1" fill-rule="evenodd" clip-rule="evenodd" d="M6.00857 14.6667C6.00857 13.714 6.1668 12.8007 6.4492 11.944L1.50619 8.16932C0.54282 10.1253 5.04172e-05 12.3293 5.04172e-05 14.6667C5.04172e-05 17.002 0.542153 19.2047 1.50418 21.1593L6.44452 17.3773C6.16479 16.5247 6.00857 15.6147 6.00857 14.6667Z" fill="var(--fill-0, #FBBC05)"/>
<path id="Fill-2" fill-rule="evenodd" clip-rule="evenodd" d="M14.6875 6C16.7571 6 18.6264 6.73333 20.0952 7.93333L24.3679 3.66667C21.7642 1.4 18.4261 0 14.6875 0C8.88327 0 3.89486 3.31933 1.50614 8.16933L6.44915 11.944C7.5881 8.48667 10.8347 6 14.6875 6Z" fill="var(--fill-0, #EB4335)"/>
<path id="Fill-3" fill-rule="evenodd" clip-rule="evenodd" d="M14.6875 23.3334C10.8347 23.3334 7.5881 20.8468 6.44915 17.3894L1.50614 21.1634C3.89486 26.0141 8.88327 29.3334 14.6875 29.3334C18.2699 29.3334 21.6901 28.0614 24.2571 25.6781L19.5651 22.0508C18.2412 22.8848 16.5742 23.3334 14.6875 23.3334Z" fill="var(--fill-0, #34A853)"/>
<path id="Fill-4" fill-rule="evenodd" clip-rule="evenodd" d="M28.7082 14.6665C28.7082 13.7998 28.5747 12.8665 28.3744 11.9998H14.6883V17.6665H22.5661C22.1722 19.5985 21.1001 21.0838 19.5659 22.0505L24.2579 25.6778C26.9544 23.1752 28.7082 19.4472 28.7082 14.6665Z" fill="var(--fill-0, #4285F4)"/>
</g>
</svg>
