<svg preserveAspectRatio="none" width="100%" height="100%" overflow="visible" style="display: block;" viewBox="0 0 24 24" fill="none" xmlns="http://www.w3.org/2000/svg">
<g id="carry_on_bag_checked">
<mask id="mask0_0_18" style="mask-type:alpha" maskUnits="userSpaceOnUse" x="0" y="0" width="24" height="24">
<rect id="Bounding box" width="24" height="24" fill="var(--fill-0, #D9D9D9)"/>
</mask>
<g mask="url(#mask0_0_18)">
<path id="carry_on_bag_checked_2" d="M16.6077 18.5963L15.4865 17.475C15.4122 17.4007 15.3224 17.3603 15.2172 17.3538C15.1121 17.3474 15.0159 17.3878 14.9288 17.475C14.8416 17.5622 14.798 17.6551 14.798 17.7538C14.798 17.8526 14.8416 17.9456 14.9288 18.0328L16.0423 19.1463C16.2038 19.3078 16.3922 19.3885 16.6077 19.3885C16.8231 19.3885 17.0115 19.3078 17.173 19.1463L19.6865 16.6328C19.7608 16.5584 19.8012 16.4687 19.8077 16.3635C19.8141 16.2583 19.7737 16.1622 19.6865 16.075C19.5993 15.9878 19.5064 15.9443 19.4078 15.9443C19.3089 15.9443 19.2159 15.9878 19.1288 16.075L16.6077 18.5963ZM9.5 19V9H8.6155C8.436 9 8.2885 9.05767 8.173 9.173C8.05767 9.2885 8 9.436 8 9.6155V18.3845C8 18.564 8.05767 18.7115 8.173 18.827C8.2885 18.9423 8.436 19 8.6155 19H9.5ZM8.6155 20C8.15517 20 7.77083 19.8458 7.4625 19.5375C7.15417 19.2292 7 18.8448 7 18.3845V9.6155C7 9.15517 7.15417 8.77083 7.4625 8.4625C7.77083 8.15417 8.15517 8 8.6155 8H14V4H12.8845C12.7423 4 12.6235 3.95225 12.528 3.85675C12.4323 3.76125 12.3845 3.64233 12.3845 3.5C12.3845 3.35767 12.4323 3.23875 12.528 3.14325C12.6235 3.04775 12.7423 3 12.8845 3H14.1923C14.4244 3 14.6171 3.07658 14.7702 3.22975C14.9234 3.38292 15 3.57558 15 3.80775V11.8673C15 12.0339 14.9471 12.1589 14.8413 12.2423C14.7356 12.3256 14.6218 12.3673 14.5 12.3673C14.3782 12.3673 14.2644 12.3256 14.1587 12.2423C14.0529 12.1589 14 12.0339 14 11.8673V9H10.5V19H11.275C11.4173 19 11.5362 19.0478 11.6317 19.1433C11.7272 19.2388 11.775 19.3577 11.775 19.5C11.775 19.6423 11.7272 19.7613 11.6317 19.8568C11.5362 19.9523 11.4173 20 11.275 20H8.6155ZM20.1432 14.8568C20.9196 15.6331 21.3077 16.5783 21.3077 17.6923C21.3077 18.8064 20.9196 19.7517 20.1432 20.528C19.3669 21.3042 18.4217 21.6923 17.3077 21.6923C16.1936 21.6923 15.2483 21.3042 14.472 20.528C13.6958 19.7517 13.3078 18.8064 13.3078 17.6923C13.3078 16.5783 13.6958 15.6331 14.472 14.8568C15.2483 14.0804 16.1936 13.6923 17.3077 13.6923C18.4217 13.6923 19.3669 14.0804 20.1432 14.8568Z" fill="var(--fill-0, #1C1B1F)"/>
</g>
</g>
</svg>
