<svg preserveAspectRatio="none" width="100%" height="100%" overflow="visible" style="display: block;" viewBox="0 0 24 24" fill="none" xmlns="http://www.w3.org/2000/svg">
<g id="contacts_product">
<mask id="mask0_0_12" style="mask-type:alpha" maskUnits="userSpaceOnUse" x="0" y="0" width="24" height="24">
<rect id="Bounding box" width="24" height="24" fill="var(--fill-0, #D9D9D9)"/>
</mask>
<g mask="url(#mask0_0_12)">
<path id="contacts_product_2" d="M5.7595 20.4615C5.523 20.4615 5.31775 20.3702 5.14375 20.1875C4.96975 20.0048 4.88275 19.7975 4.88275 19.5655V17.342C4.88275 16.0715 5.27758 14.9492 6.06725 13.975C6.85708 13.001 7.8725 12.3798 9.1135 12.1115C8.5445 12.5115 8.1035 13.015 7.7905 13.622C7.47767 14.2292 7.32125 14.8764 7.32125 15.5638V19.5615C7.32125 19.7158 7.34625 19.8701 7.39625 20.0243C7.44625 20.1786 7.51675 20.3243 7.60775 20.4615H5.7595ZM8.86825 20.4615C8.62875 20.4615 8.421 20.3726 8.245 20.1948C8.06883 20.0169 7.98075 19.8072 7.98075 19.5655V15.5655C7.98075 14.5655 8.32592 13.7213 9.01625 13.0328C9.70675 12.3443 10.552 12 11.552 12H15.5613C16.5513 12 17.3904 12.3443 18.0788 13.0328C18.7673 13.7213 19.1115 14.5655 19.1115 15.5655V16.8963C19.1115 17.8963 18.7673 18.7404 18.0788 19.4288C17.3904 20.1173 16.5462 20.4615 15.5462 20.4615H8.86825ZM12 10.2078C11.0713 10.2078 10.2834 9.88533 9.63625 9.2405C8.98908 8.5955 8.6655 7.80633 8.6655 6.873C8.6655 5.93967 8.98908 5.15058 9.63625 4.50575C10.2834 3.86092 11.0713 3.5385 12 3.5385C12.9287 3.5385 13.7166 3.86092 14.3637 4.50575C15.0109 5.15058 15.3345 5.93967 15.3345 6.873C15.3345 7.80633 15.0109 8.5955 14.3637 9.2405C13.7166 9.88533 12.9287 10.2078 12 10.2078Z" fill="var(--fill-0, #1C1B1F)"/>
</g>
</g>
</svg>
