<svg preserveAspectRatio="none" width="100%" height="100%" overflow="visible" style="display: block;" viewBox="0 0 24 24" fill="none" xmlns="http://www.w3.org/2000/svg">
<g id="security">
<mask id="mask0_0_4" style="mask-type:alpha" maskUnits="userSpaceOnUse" x="0" y="0" width="24" height="24">
<rect id="Bounding box" width="24" height="24" fill="var(--fill-0, #D9D9D9)"/>
</mask>
<g mask="url(#mask0_0_4)">
<path id="security_2" d="M12 19.9C13.6167 19.4 14.9667 18.4125 16.05 16.9375C17.1333 15.4625 17.7667 13.8167 17.95 12H12V4.14425L6.40375 6.22125C6.27558 6.27242 6.17625 6.34933 6.10575 6.452C6.03525 6.5545 6 6.66983 6 6.798V11.5308C6 11.6603 6.01667 11.8167 6.05 12H12V19.9ZM11.7135 20.8173C11.6135 20.8006 11.5199 20.7756 11.4328 20.7423C9.46475 19.9923 7.90067 18.7202 6.7405 16.926C5.58017 15.1317 5 13.1897 5 11.1V6.81725C5 6.47758 5.09842 6.16992 5.29525 5.89425C5.49208 5.61858 5.74367 5.41858 6.05 5.29425L11.4345 3.29425C11.6295 3.22375 11.818 3.1885 12 3.1885C12.182 3.1885 12.3705 3.22375 12.5655 3.29425L17.95 5.29425C18.2563 5.41858 18.5079 5.61858 18.7048 5.89425C18.9016 6.16992 19 6.47758 19 6.81725V11.1C19 13.1897 18.4198 15.1317 17.2595 16.926C16.0993 18.7202 14.5353 19.9923 12.5673 20.7423C12.4801 20.7756 12.3865 20.8006 12.2865 20.8173C12.1865 20.8339 12.091 20.8423 12 20.8423C11.909 20.8423 11.8135 20.8339 11.7135 20.8173Z" fill="var(--fill-0, #1C1B1F)"/>
</g>
</g>
</svg>
