<svg preserveAspectRatio="none" width="100%" height="100%" overflow="visible" style="display: block;" viewBox="0 0 24 24" fill="none" xmlns="http://www.w3.org/2000/svg">
<g id="airline_seat_recline_extra">
<mask id="mask0_0_7" style="mask-type:alpha" maskUnits="userSpaceOnUse" x="0" y="0" width="24" height="24">
<rect id="Bounding box" width="24" height="24" fill="var(--fill-0, #D9D9D9)"/>
</mask>
<g mask="url(#mask0_0_7)">
<path id="airline_seat_recline_extra_2" d="M7.8845 6.577C7.42433 6.577 7.02725 6.41 6.69325 6.076C6.35925 5.742 6.19225 5.34483 6.19225 4.8845C6.19225 4.42433 6.35925 4.02725 6.69325 3.69325C7.02725 3.35925 7.42433 3.19225 7.8845 3.19225C8.34483 3.19225 8.742 3.35925 9.076 3.69325C9.41 4.02725 9.577 4.42433 9.577 4.8845C9.577 5.34483 9.41 5.742 9.076 6.076C8.742 6.41 8.34483 6.577 7.8845 6.577ZM13.5 19H8.05C7.58967 19 7.17525 18.8523 6.80675 18.5568C6.43808 18.2613 6.20825 17.8833 6.11725 17.423L4.148 7.5845C4.107 7.4345 4.13842 7.29958 4.24225 7.17975C4.34608 7.05992 4.48133 7 4.648 7C4.766 7 4.86858 7.0365 4.95575 7.1095C5.04292 7.18267 5.09867 7.27825 5.123 7.39625L7.1345 17.3845C7.173 17.5385 7.266 17.6796 7.4135 17.8078C7.56083 17.9359 7.7115 18 7.8655 18H13.5C13.6423 18 13.7613 18.0477 13.8568 18.1432C13.9523 18.2387 14 18.3577 14 18.5C14 18.6423 13.9523 18.7613 13.8568 18.8568C13.7613 18.9523 13.6423 19 13.5 19ZM18.827 20.952L16.523 17H9.30375C8.93592 17 8.62408 16.8894 8.36825 16.6683C8.11242 16.4471 7.94092 16.1653 7.85375 15.823L6.677 10.2038C6.532 9.51925 6.68742 8.93592 7.14325 8.45375C7.59908 7.97175 8.13083 7.73075 8.7385 7.73075C9.2065 7.73075 9.63633 7.8705 10.028 8.15C10.4197 8.4295 10.6693 8.81158 10.777 9.29625L11.9923 15H15.7038C15.9641 15 16.2058 15.066 16.4288 15.198C16.6519 15.3302 16.8359 15.5206 16.9807 15.7692L19.6923 20.452C19.7616 20.5698 19.7779 20.6958 19.7413 20.8298C19.7048 20.9638 19.6275 21.0653 19.5095 21.1345C19.3917 21.2038 19.2658 21.2202 19.1318 21.1837C18.9978 21.1471 18.8962 21.0698 18.827 20.952Z" fill="var(--fill-0, #1C1B1F)"/>
</g>
</g>
</svg>
