<svg preserveAspectRatio="none" width="100%" height="100%" overflow="visible" style="display: block;" viewBox="0 0 24 24" fill="none" xmlns="http://www.w3.org/2000/svg">
<g id="key">
<mask id="mask0_0_15" style="mask-type:alpha" maskUnits="userSpaceOnUse" x="0" y="0" width="24" height="24">
<rect id="Bounding box" width="24" height="24" fill="var(--fill-0, #D9D9D9)"/>
</mask>
<g mask="url(#mask0_0_15)">
<path id="key_2" d="M6.126 12.874C5.88817 12.6362 5.76925 12.3448 5.76925 12C5.76925 11.6552 5.88817 11.3638 6.126 11.126C6.36383 10.8882 6.65517 10.7693 7 10.7693C7.34483 10.7693 7.63617 10.8882 7.874 11.126C8.11183 11.3638 8.23075 11.6552 8.23075 12C8.23075 12.3448 8.11183 12.6362 7.874 12.874C7.63617 13.1118 7.34483 13.2308 7 13.2308C6.65517 13.2308 6.36383 13.1118 6.126 12.874ZM7 17C5.61533 17 4.43583 16.5128 3.4615 15.5385C2.48717 14.5642 2 13.3847 2 12C2 10.6153 2.48717 9.43583 3.4615 8.4615C4.43583 7.48717 5.61533 7 7 7C8.027 7 8.953 7.27817 9.778 7.8345C10.603 8.391 11.2052 9.11283 11.5845 10H20.4595C20.5673 10 20.6677 10.0186 20.7605 10.0557C20.8535 10.0929 20.9436 10.1551 21.0308 10.2423L22.223 11.4345C22.3102 11.5218 22.3714 11.611 22.4068 11.702C22.4419 11.793 22.4595 11.8923 22.4595 12C22.4595 12.1077 22.4419 12.207 22.4068 12.298C22.3714 12.389 22.3102 12.4782 22.223 12.5655L20.1058 14.6635C20.0353 14.734 19.9545 14.791 19.8635 14.8345C19.7725 14.8782 19.6815 14.9019 19.5905 14.9058C19.4993 14.9096 19.4083 14.8981 19.3173 14.8713C19.2263 14.8443 19.1372 14.8019 19.05 14.7442L17.8845 13.8655L16.5173 14.8635C16.4468 14.9173 16.3743 14.9545 16.3 14.975C16.2257 14.9955 16.1449 15.0058 16.0578 15.0058C15.9706 15.0058 15.8888 14.9923 15.8125 14.9655C15.7362 14.9385 15.6628 14.9045 15.5923 14.8635L14.298 14H11.5845C11.2052 14.8743 10.603 15.5929 9.778 16.1558C8.953 16.7186 8.027 17 7 17ZM7 16C7.98467 16 8.82475 15.7038 9.52025 15.1115C10.2158 14.5192 10.6609 13.8153 10.8558 13H14.6155L16.0463 13.9673C16.0334 13.9673 16.0302 13.9683 16.0365 13.9703C16.043 13.9721 16.0463 13.9711 16.0463 13.9673L17.9038 12.6345L19.525 13.8558L21.3808 12L20.3808 11H10.8558C10.6609 10.1847 10.2158 9.48083 9.52025 8.8885C8.82475 8.29617 7.98467 8 7 8C5.9 8 4.95833 8.39167 4.175 9.175C3.39167 9.95833 3 10.9 3 12C3 13.1 3.39167 14.0417 4.175 14.825C4.95833 15.6083 5.9 16 7 16Z" fill="var(--fill-0, #1C1B1F)"/>
</g>
</g>
</svg>
