<svg preserveAspectRatio="none" width="100%" height="100%" overflow="visible" style="display: block;" viewBox="0 0 17.5 17.5" fill="none" xmlns="http://www.w3.org/2000/svg">
<g id="thumb_up">
<mask id="mask0_0_255" style="mask-type:alpha" maskUnits="userSpaceOnUse" x="0" y="0" width="18" height="18">
<rect id="Bounding box" width="17.5" height="17.5" fill="var(--fill-0, #D9D9D9)"/>
</mask>
<g mask="url(#mask0_0_255)">
<path id="thumb_up_2" d="M15.3125 6.10715C15.6406 6.10715 15.9414 6.24387 16.2148 6.51731C16.4883 6.79074 16.625 7.09153 16.625 7.41965V8.45871C16.625 8.55594 16.6159 8.64708 16.5977 8.73215C16.5794 8.81722 16.5521 8.89621 16.5156 8.96913L14.3464 14.0551C14.237 14.3103 14.0334 14.5108 13.7357 14.6566C13.4379 14.8025 13.1493 14.8754 12.8698 14.8754L4.8125 14.8572V6.10715L9.07812 1.84153C9.30903 1.61062 9.57335 1.46175 9.87109 1.39491C10.1688 1.32807 10.4362 1.36149 10.6732 1.49517C10.9102 1.62885 11.0621 1.84456 11.1289 2.14231C11.1957 2.44005 11.1927 2.76514 11.1198 3.11757L10.5 6.10715H15.3125ZM6.125 6.65403V13.5447H13.125L15.3125 8.45871V7.41965H8.89583L9.78906 3.00819L6.125 6.65403ZM2.1875 14.8572C1.81076 14.8572 1.49783 14.7286 1.2487 14.4716C0.999566 14.2146 0.875 13.9056 0.875 13.5447V7.41965C0.875 7.05871 0.999566 6.74973 1.2487 6.4927C1.49783 6.23567 1.81076 6.10715 2.1875 6.10715H4.8125V7.41965H2.1875V13.5447H4.8125V14.8572H2.1875Z" fill="var(--fill-0, #757575)"/>
</g>
</g>
</svg>
