<svg preserveAspectRatio="none" width="100%" height="100%" overflow="visible" style="display: block;" viewBox="0 0 8 8" fill="none" xmlns="http://www.w3.org/2000/svg">
<g id="material-symbols:star-rounded">
<path id="Vector" d="M4.00011 6.09169L2.61678 6.92502C2.55567 6.96391 2.49178 6.98058 2.42511 6.97502C2.35844 6.96947 2.30011 6.94725 2.25011 6.90836C2.20011 6.86947 2.16122 6.8208 2.13344 6.76236C2.10567 6.70391 2.10011 6.63869 2.11678 6.56669L2.48344 4.99169L1.25844 3.93336C1.20289 3.88336 1.16822 3.82636 1.15444 3.76236C1.14067 3.69836 1.14478 3.63591 1.16678 3.57502C1.189 3.51391 1.22233 3.46391 1.26678 3.42502C1.31122 3.38614 1.37233 3.36114 1.45011 3.35002L3.06678 3.20836L3.69178 1.72502C3.71955 1.65836 3.76267 1.60836 3.82111 1.57502C3.87955 1.54169 3.93922 1.52502 4.00011 1.52502C4.06122 1.52502 4.12089 1.54169 4.17911 1.57502C4.23733 1.60836 4.28044 1.65836 4.30844 1.72502L4.93344 3.20836L6.55011 3.35002C6.62789 3.36114 6.689 3.38614 6.73344 3.42502C6.77789 3.46391 6.81122 3.51391 6.83344 3.57502C6.85567 3.63614 6.85989 3.69869 6.84611 3.76269C6.83233 3.82669 6.79755 3.88358 6.74178 3.93336L5.51678 4.99169L5.88344 6.56669C5.90011 6.63891 5.89455 6.70425 5.86678 6.76269C5.839 6.82114 5.80011 6.86969 5.75011 6.90836C5.70011 6.94725 5.64178 6.96947 5.57511 6.97502C5.50844 6.98058 5.44455 6.96391 5.38344 6.92502L4.00011 6.09169Z" fill="var(--fill-0, #F9C200)"/>
</g>
</svg>
