<svg preserveAspectRatio="none" width="100%" height="100%" overflow="visible" style="display: block;" viewBox="0 0 16 16" fill="none" xmlns="http://www.w3.org/2000/svg">
<g id="material-symbols:star-rounded">
<path id="Vector" d="M8 12.1833L5.23333 13.85C5.11111 13.9278 4.98333 13.9611 4.85 13.95C4.71667 13.9389 4.6 13.8944 4.5 13.8167C4.4 13.7389 4.32222 13.6416 4.26667 13.5247C4.21111 13.4078 4.2 13.2773 4.23333 13.1333L4.96667 9.98333L2.51667 7.86667C2.40556 7.76667 2.33622 7.65267 2.30867 7.52467C2.28111 7.39667 2.28933 7.27178 2.33333 7.15C2.37778 7.02778 2.44444 6.92778 2.53333 6.85C2.62222 6.77222 2.74444 6.72222 2.9 6.7L6.13333 6.41667L7.38333 3.45C7.43889 3.31667 7.52511 3.21667 7.642 3.15C7.75889 3.08333 7.87822 3.05 8 3.05C8.12222 3.05 8.24156 3.08333 8.358 3.15C8.47444 3.21667 8.56067 3.31667 8.61667 3.45L9.86667 6.41667L13.1 6.7C13.2556 6.72222 13.3778 6.77222 13.4667 6.85C13.5556 6.92778 13.6222 7.02778 13.6667 7.15C13.7111 7.27222 13.7196 7.39733 13.692 7.52533C13.6644 7.65333 13.5949 7.76711 13.4833 7.86667L11.0333 9.98333L11.7667 13.1333C11.8 13.2778 11.7889 13.4084 11.7333 13.5253C11.6778 13.6422 11.6 13.7393 11.5 13.8167C11.4 13.8944 11.2833 13.9389 11.15 13.95C11.0167 13.9611 10.8889 13.9278 10.7667 13.85L8 12.1833Z" fill="var(--fill-0, #F9C200)"/>
</g>
</svg>
