<svg preserveAspectRatio="none" width="100%" height="100%" overflow="visible" style="display: block;" viewBox="0 0 68 12" fill="none" xmlns="http://www.w3.org/2000/svg">
<g id="Frame 1000002296">
<path id="Vector" d="M5.9997 10.0531L3.09127 11.8876C2.96278 11.9732 2.82845 12.0099 2.68829 11.9977C2.54812 11.9855 2.42548 11.9366 2.32035 11.8509C2.21523 11.7653 2.13347 11.6582 2.07506 11.5295C2.01666 11.4009 2.00498 11.2573 2.04002 11.0988L2.81093 7.63157L0.235391 5.30174C0.118587 5.19167 0.0457004 5.06619 0.0167328 4.9253C-0.0122347 4.78441 -0.00359122 4.64694 0.0426634 4.5129C0.0893853 4.37837 0.159468 4.2683 0.252912 4.18269C0.346356 4.09708 0.474841 4.04204 0.638367 4.01758L4.03738 3.70571L5.35144 0.440283C5.40984 0.293522 5.50048 0.183451 5.62336 0.110071C5.74624 0.0366903 5.87168 0 5.9997 0C6.12819 0 6.25363 0.0366903 6.37605 0.110071C6.49846 0.183451 6.5891 0.293522 6.64797 0.440283L7.96202 3.70571L11.361 4.01758C11.5246 4.04204 11.653 4.09708 11.7465 4.18269C11.8399 4.2683 11.91 4.37837 11.9567 4.5129C12.0035 4.64743 12.0123 4.78514 11.9834 4.92603C11.9544 5.06692 11.8813 5.19216 11.764 5.30174L9.18847 7.63157L9.95938 11.0988C9.99442 11.2578 9.98274 11.4016 9.92434 11.5303C9.86594 11.6589 9.78417 11.7658 9.67905 11.8509C9.57392 11.9366 9.45128 11.9855 9.31111 11.9977C9.17095 12.0099 9.03662 11.9732 8.90814 11.8876L5.9997 10.0531Z" fill="var(--fill-0, #FFD02C)"/>
<path id="Vector_2" d="M19.9997 10.0531L17.0913 11.8876C16.9628 11.9732 16.8285 12.0099 16.6883 11.9977C16.5481 11.9855 16.4255 11.9366 16.3204 11.8509C16.2152 11.7653 16.1335 11.6582 16.0751 11.5295C16.0167 11.4009 16.005 11.2573 16.04 11.0988L16.8109 7.63157L14.2354 5.30174C14.1186 5.19167 14.0457 5.06619 14.0167 4.9253C13.9878 4.78441 13.9964 4.64694 14.0427 4.5129C14.0894 4.37837 14.1595 4.2683 14.2529 4.18269C14.3464 4.09708 14.4748 4.04204 14.6384 4.01758L18.0374 3.70571L19.3514 0.440283C19.4098 0.293522 19.5005 0.183451 19.6234 0.110071C19.7462 0.0366903 19.8717 0 19.9997 0C20.1282 0 20.2536 0.0366903 20.376 0.110071C20.4985 0.183451 20.5891 0.293522 20.648 0.440283L21.962 3.70571L25.361 4.01758C25.5246 4.04204 25.653 4.09708 25.7465 4.18269C25.8399 4.2683 25.91 4.37837 25.9567 4.5129C26.0035 4.64743 26.0123 4.78514 25.9834 4.92603C25.9544 5.06692 25.8813 5.19216 25.764 5.30174L23.1885 7.63157L23.9594 11.0988C23.9944 11.2578 23.9827 11.4016 23.9243 11.5303C23.8659 11.6589 23.7842 11.7658 23.679 11.8509C23.5739 11.9366 23.4513 11.9855 23.3111 11.9977C23.1709 12.0099 23.0366 11.9732 22.9081 11.8876L19.9997 10.0531Z" fill="var(--fill-0, #FFD02C)"/>
<path id="Vector_3" d="M33.9997 10.0531L31.0913 11.8876C30.9628 11.9732 30.8285 12.0099 30.6883 11.9977C30.5481 11.9855 30.4255 11.9366 30.3204 11.8509C30.2152 11.7653 30.1335 11.6582 30.0751 11.5295C30.0167 11.4009 30.005 11.2573 30.04 11.0988L30.8109 7.63157L28.2354 5.30174C28.1186 5.19167 28.0457 5.06619 28.0167 4.9253C27.9878 4.78441 27.9964 4.64694 28.0427 4.5129C28.0894 4.37837 28.1595 4.2683 28.2529 4.18269C28.3464 4.09708 28.4748 4.04204 28.6384 4.01758L32.0374 3.70571L33.3514 0.440283C33.4098 0.293522 33.5005 0.183451 33.6234 0.110071C33.7462 0.0366903 33.8717 0 33.9997 0C34.1282 0 34.2536 0.0366903 34.376 0.110071C34.4985 0.183451 34.5891 0.293522 34.648 0.440283L35.962 3.70571L39.361 4.01758C39.5246 4.04204 39.653 4.09708 39.7465 4.18269C39.8399 4.2683 39.91 4.37837 39.9567 4.5129C40.0035 4.64743 40.0123 4.78514 39.9834 4.92603C39.9544 5.06692 39.8813 5.19216 39.764 5.30174L37.1885 7.63157L37.9594 11.0988C37.9944 11.2578 37.9827 11.4016 37.9243 11.5303C37.8659 11.6589 37.7842 11.7658 37.679 11.8509C37.5739 11.9366 37.4513 11.9855 37.3111 11.9977C37.1709 12.0099 37.0366 11.9732 36.9081 11.8876L33.9997 10.0531Z" fill="var(--fill-0, #FFD02C)"/>
<path id="Vector_4" d="M47.9997 10.0531L45.0913 11.8876C44.9628 11.9732 44.8285 12.0099 44.6883 11.9977C44.5481 11.9855 44.4255 11.9366 44.3204 11.8509C44.2152 11.7653 44.1335 11.6582 44.0751 11.5295C44.0167 11.4009 44.005 11.2573 44.04 11.0988L44.8109 7.63157L42.2354 5.30174C42.1186 5.19167 42.0457 5.06619 42.0167 4.9253C41.9878 4.78441 41.9964 4.64694 42.0427 4.5129C42.0894 4.37837 42.1595 4.2683 42.2529 4.18269C42.3464 4.09708 42.4748 4.04204 42.6384 4.01758L46.0374 3.70571L47.3514 0.440283C47.4098 0.293522 47.5005 0.183451 47.6234 0.110071C47.7462 0.0366903 47.8717 0 47.9997 0C48.1282 0 48.2536 0.0366903 48.376 0.110071C48.4985 0.183451 48.5891 0.293522 48.648 0.440283L49.962 3.70571L53.361 4.01758C53.5246 4.04204 53.653 4.09708 53.7465 4.18269C53.8399 4.2683 53.91 4.37837 53.9567 4.5129C54.0035 4.64743 54.0123 4.78514 53.9834 4.92603C53.9544 5.06692 53.8813 5.19216 53.764 5.30174L51.1885 7.63157L51.9594 11.0988C51.9944 11.2578 51.9827 11.4016 51.9243 11.5303C51.8659 11.6589 51.7842 11.7658 51.679 11.8509C51.5739 11.9366 51.4513 11.9855 51.3111 11.9977C51.1709 12.0099 51.0366 11.9732 50.9081 11.8876L47.9997 10.0531Z" fill="var(--fill-0, #FFD02C)"/>
<path id="Vector_5" d="M61.9997 10.0531L59.0913 11.8876C58.9628 11.9732 58.8285 12.0099 58.6883 11.9977C58.5481 11.9855 58.4255 11.9366 58.3204 11.8509C58.2152 11.7653 58.1335 11.6582 58.0751 11.5295C58.0167 11.4009 58.005 11.2573 58.04 11.0988L58.8109 7.63157L56.2354 5.30174C56.1186 5.19167 56.0457 5.06619 56.0167 4.9253C55.9878 4.78441 55.9964 4.64694 56.0427 4.5129C56.0894 4.37837 56.1595 4.2683 56.2529 4.18269C56.3464 4.09708 56.4748 4.04204 56.6384 4.01758L60.0374 3.70571L61.3514 0.440283C61.4098 0.293522 61.5005 0.183451 61.6234 0.110071C61.7462 0.0366903 61.8717 0 61.9997 0C62.1282 0 62.2536 0.0366903 62.376 0.110071C62.4985 0.183451 62.5891 0.293522 62.648 0.440283L63.962 3.70571L67.361 4.01758C67.5246 4.04204 67.653 4.09708 67.7465 4.18269C67.8399 4.2683 67.91 4.37837 67.9567 4.5129C68.0035 4.64743 68.0123 4.78514 67.9834 4.92603C67.9544 5.06692 67.8813 5.19216 67.764 5.30174L65.1885 7.63157L65.9594 11.0988C65.9944 11.2578 65.9827 11.4016 65.9243 11.5303C65.8659 11.6589 65.7842 11.7658 65.679 11.8509C65.5739 11.9366 65.4513 11.9855 65.3111 11.9977C65.1709 12.0099 65.0366 11.9732 64.9081 11.8876L61.9997 10.0531Z" fill="var(--fill-0, #FFD02C)"/>
</g>
</svg>
