<svg preserveAspectRatio="none" width="100%" height="100%" overflow="visible" style="display: block;" viewBox="0 0 10 10" fill="none" xmlns="http://www.w3.org/2000/svg">
<g id="material-symbols:star-rounded">
<path id="Vector" d="M5.00014 7.61461L3.27097 8.65628C3.19458 8.70489 3.11472 8.72572 3.03139 8.71878C2.94805 8.71184 2.87514 8.68406 2.81264 8.63545C2.75014 8.58684 2.70153 8.526 2.6668 8.45295C2.63208 8.37989 2.62514 8.29836 2.64597 8.20836L3.1043 6.23961L1.57305 4.9167C1.50361 4.8542 1.46028 4.78295 1.44305 4.70295C1.42583 4.62295 1.43097 4.54489 1.45847 4.46878C1.48625 4.39239 1.52791 4.32989 1.58347 4.28128C1.63903 4.23267 1.71541 4.20142 1.81264 4.18753L3.83347 4.01045L4.61472 2.15628C4.64944 2.07295 4.70333 2.01045 4.77639 1.96878C4.84944 1.92711 4.92403 1.90628 5.00014 1.90628C5.07653 1.90628 5.15111 1.92711 5.22389 1.96878C5.29666 2.01045 5.35055 2.07295 5.38555 2.15628L6.1668 4.01045L8.18764 4.18753C8.28486 4.20142 8.36125 4.23267 8.4168 4.28128C8.47236 4.32989 8.51403 4.39239 8.5418 4.46878C8.56958 4.54517 8.57486 4.62336 8.55764 4.70336C8.54041 4.78336 8.49694 4.85448 8.42722 4.9167L6.89597 6.23961L7.3543 8.20836C7.37514 8.29864 7.36819 8.38031 7.33347 8.45336C7.29875 8.52642 7.25014 8.58711 7.18764 8.63545C7.12514 8.68406 7.05222 8.71184 6.96889 8.71878C6.88555 8.72572 6.80569 8.70489 6.7293 8.65628L5.00014 7.61461Z" fill="var(--fill-0, #F9C200)"/>
</g>
</svg>
