<svg preserveAspectRatio="none" width="100%" height="100%" overflow="visible" style="display: block;" viewBox="0 0 46 47.2778" fill="none" xmlns="http://www.w3.org/2000/svg">
<g id="play_circle_24dp_E3E3E3_FILL0_wght400_GRAD0_opsz24 1">
<path id="Vector" d="M20.4132 31.026L29.7569 24.8701C30.2041 24.5746 30.4277 24.1642 30.4277 23.6389C30.4277 23.1136 30.2041 22.7032 29.7569 22.4077L20.4132 16.2517C19.934 15.9234 19.4468 15.8988 18.9517 16.1779C18.4566 16.4569 18.209 16.892 18.209 17.4829V29.7949C18.209 30.3858 18.4566 30.8208 18.9517 31.0999C19.4468 31.379 19.934 31.3544 20.4132 31.026ZM23.0007 43.338C20.3493 43.338 17.8576 42.8209 15.5257 41.7867C13.1937 40.7525 11.1652 39.3489 9.44023 37.576C7.71523 35.8031 6.34961 33.7183 5.34336 31.3215C4.33711 28.9248 3.83398 26.3639 3.83398 23.6389C3.83398 20.9139 4.33711 18.353 5.34336 15.9563C6.34961 13.5595 7.71523 11.4747 9.44023 9.7018C11.1652 7.92888 13.1937 6.52532 15.5257 5.49112C17.8576 4.45692 20.3493 3.93982 23.0007 3.93982C25.652 3.93982 28.1437 4.45692 30.4757 5.49112C32.8076 6.52532 34.8361 7.92888 36.5611 9.7018C38.2861 11.4747 39.6517 13.5595 40.6579 15.9563C41.6642 18.353 42.1673 20.9139 42.1673 23.6389C42.1673 26.3639 41.6642 28.9248 40.6579 31.3215C39.6517 33.7183 38.2861 35.8031 36.5611 37.576C34.8361 39.3489 32.8076 40.7525 30.4757 41.7867C28.1437 42.8209 25.652 43.338 23.0007 43.338ZM23.0007 39.3982C27.2812 39.3982 30.9069 37.8715 33.8777 34.8181C36.8486 31.7648 38.334 28.0384 38.334 23.6389C38.334 19.2394 36.8486 15.513 33.8777 12.4597C30.9069 9.40631 27.2812 7.87963 23.0007 7.87963C18.7201 7.87963 15.0944 9.40631 12.1236 12.4597C9.15273 15.513 7.66732 19.2394 7.66732 23.6389C7.66732 28.0384 9.15273 31.7648 12.1236 34.8181C15.0944 37.8715 18.7201 39.3982 23.0007 39.3982Z" fill="white"/>
</g>
</svg>
