<svg preserveAspectRatio="none" width="100%" height="100%" overflow="visible" style="display: block;" viewBox="0 0 13.3333 13.3333" fill="none" xmlns="http://www.w3.org/2000/svg">
<path id="info" d="M6.66667 10C6.85556 10 7.01389 9.93611 7.14167 9.80833C7.26944 9.68056 7.33333 9.52222 7.33333 9.33333V6.66667C7.33333 6.47778 7.26944 6.31944 7.14167 6.19167C7.01389 6.06389 6.85556 6 6.66667 6C6.47778 6 6.31944 6.06389 6.19167 6.19167C6.06389 6.31944 6 6.47778 6 6.66667V9.33333C6 9.52222 6.06389 9.68056 6.19167 9.80833C6.31944 9.93611 6.47778 10 6.66667 10ZM6.66667 4.66667C6.85556 4.66667 7.01389 4.60278 7.14167 4.475C7.26944 4.34722 7.33333 4.18889 7.33333 4C7.33333 3.81111 7.26944 3.65278 7.14167 3.525C7.01389 3.39722 6.85556 3.33333 6.66667 3.33333C6.47778 3.33333 6.31944 3.39722 6.19167 3.525C6.06389 3.65278 6 3.81111 6 4C6 4.18889 6.06389 4.34722 6.19167 4.475C6.31944 4.60278 6.47778 4.66667 6.66667 4.66667ZM6.66667 13.3333C5.74444 13.3333 4.87778 13.1583 4.06667 12.8083C3.25556 12.4583 2.55 11.9833 1.95 11.3833C1.35 10.7833 0.875 10.0778 0.525 9.26667C0.175 8.45556 0 7.58889 0 6.66667C0 5.74444 0.175 4.87778 0.525 4.06667C0.875 3.25556 1.35 2.55 1.95 1.95C2.55 1.35 3.25556 0.875 4.06667 0.525C4.87778 0.175 5.74444 0 6.66667 0C7.58889 0 8.45556 0.175 9.26667 0.525C10.0778 0.875 10.7833 1.35 11.3833 1.95C11.9833 2.55 12.4583 3.25556 12.8083 4.06667C13.1583 4.87778 13.3333 5.74444 13.3333 6.66667C13.3333 7.58889 13.1583 8.45556 12.8083 9.26667C12.4583 10.0778 11.9833 10.7833 11.3833 11.3833C10.7833 11.9833 10.0778 12.4583 9.26667 12.8083C8.45556 13.1583 7.58889 13.3333 6.66667 13.3333Z" fill="var(--fill-0, #ADADAD)"/>
</svg>
