<svg preserveAspectRatio="none" width="100%" height="100%" overflow="visible" style="display: block;" viewBox="0 0 20 22.5" fill="none" xmlns="http://www.w3.org/2000/svg">
<g id="Frame">
<path id="Vector" d="M17.625 6H2.625C2.45924 6 2.30027 6.06585 2.18306 6.18306C2.06585 6.30027 2 6.45924 2 6.625V17.25C2 17.5815 2.1317 17.8995 2.36612 18.1339C2.60054 18.3683 2.91848 18.5 3.25 18.5H17C17.3315 18.5 17.6495 18.3683 17.8839 18.1339C18.1183 17.8995 18.25 17.5815 18.25 17.25V6.625C18.25 6.45924 18.1842 6.30027 18.0669 6.18306C17.9497 6.06585 17.7908 6 17.625 6ZM16.018 7.25L10.125 12.6523L4.23203 7.25H16.018ZM17 17.25H3.25V8.04609L9.70234 13.9609C9.81765 14.0668 9.96848 14.1255 10.125 14.1255C10.2815 14.1255 10.4323 14.0668 10.5477 13.9609L17 8.04609V17.25Z" fill="var(--fill-0, #757575)"/>
</g>
</svg>
