<svg preserveAspectRatio="none" width="100%" height="100%" overflow="visible" style="display: block;" viewBox="0 0 24 24" fill="none" xmlns="http://www.w3.org/2000/svg">
<g id="edit">
<rect width="24" height="24" rx="12" fill="var(--fill-0, #E2E2E2)"/>
<path id="edit_2" d="M7.6 16.4H8.45L14.7 10.15L13.85 9.3L7.6 15.55V16.4ZM7.003 17.6C6.83433 17.6 6.69167 17.5428 6.575 17.4283C6.45833 17.314 6.4 17.1722 6.4 17.003V15.5555C6.4 15.3963 6.42778 15.2444 6.48333 15.1C6.53889 14.9556 6.62778 14.8222 6.75 14.7L14.7 6.75C14.8222 6.62778 14.9547 6.53889 15.0973 6.48333C15.2399 6.42778 15.3899 6.4 15.5473 6.4C15.7047 6.4 15.8556 6.42778 16 6.48333C16.1444 6.53889 16.2778 6.62778 16.4 6.75L17.25 7.6C17.3722 7.72222 17.4611 7.85556 17.5167 8C17.5722 8.14444 17.6 8.29189 17.6 8.44233C17.6 8.60289 17.5721 8.75589 17.5163 8.90133C17.4606 9.04678 17.3718 9.17967 17.25 9.3L9.3 17.25C9.17778 17.3722 9.04472 17.4611 8.90083 17.5167C8.75694 17.5722 8.60561 17.6 8.44683 17.6H7.003ZM14.2675 9.7325L13.85 9.3L14.7 10.15L14.2675 9.7325Z" fill="var(--fill-0, #757575)"/>
</g>
</svg>
