<svg preserveAspectRatio="none" width="100%" height="100%" overflow="visible" style="display: block;" viewBox="0 0 18 19.8625" fill="none" xmlns="http://www.w3.org/2000/svg">
<g id="icon-close">
<path id="close" d="M8.93125 11.9812L5.25625 15.6562C5.11875 15.7938 4.94375 15.8625 4.73125 15.8625C4.51875 15.8625 4.34375 15.7938 4.20625 15.6562C4.06875 15.5187 4 15.3438 4 15.1313C4 14.9188 4.06875 14.7438 4.20625 14.6063L7.88125 10.9313L4.20625 7.25625C4.06875 7.11875 4 6.94375 4 6.73125C4 6.51875 4.06875 6.34375 4.20625 6.20625C4.34375 6.06875 4.51875 6 4.73125 6C4.94375 6 5.11875 6.06875 5.25625 6.20625L8.93125 9.88125L12.6063 6.20625C12.7438 6.06875 12.9188 6 13.1313 6C13.3438 6 13.5187 6.06875 13.6562 6.20625C13.7938 6.34375 13.8625 6.51875 13.8625 6.73125C13.8625 6.94375 13.7938 7.11875 13.6562 7.25625L9.98125 10.9313L13.6562 14.6063C13.7938 14.7438 13.8625 14.9188 13.8625 15.1313C13.8625 15.3438 13.7938 15.5187 13.6562 15.6562C13.5187 15.7938 13.3438 15.8625 13.1313 15.8625C12.9188 15.8625 12.7438 15.7938 12.6063 15.6562L8.93125 11.9812Z" fill="var(--fill-0, #757575)"/>
</g>
</svg>
