<svg preserveAspectRatio="none" width="100%" height="100%" overflow="visible" style="display: block;" viewBox="0 0 20 20" fill="none" xmlns="http://www.w3.org/2000/svg">
<g id="Frame">
<path id="Vector" d="M17.1969 15.8419C16.1319 14.0007 14.4907 12.6805 12.5754 12.0546C13.5228 11.4906 14.2589 10.6313 14.6706 9.60845C15.0823 8.58564 15.1469 7.45597 14.8544 6.39291C14.5619 5.32985 13.9286 4.39219 13.0516 3.72393C12.1747 3.05566 11.1026 2.69373 10 2.69373C8.89747 2.69373 7.8254 3.05566 6.94844 3.72393C6.07149 4.39219 5.43815 5.32985 5.14567 6.39291C4.8532 7.45597 4.91777 8.58564 5.32947 9.60845C5.74117 10.6313 6.47724 11.4906 7.42463 12.0546C5.50933 12.6798 3.86815 14 2.80317 15.8419C2.76412 15.9055 2.73821 15.9764 2.72699 16.0503C2.71576 16.1241 2.71944 16.1995 2.73781 16.2719C2.75617 16.3443 2.78886 16.4123 2.83393 16.4719C2.87901 16.5314 2.93555 16.5814 3.00024 16.6187C3.06493 16.6561 3.13644 16.6801 3.21057 16.6894C3.28469 16.6987 3.35993 16.693 3.43183 16.6728C3.50373 16.6525 3.57084 16.618 3.62921 16.5714C3.68757 16.5248 3.73601 16.4669 3.77166 16.4013C5.08908 14.1245 7.41764 12.7651 10 12.7651C12.5824 12.7651 14.911 14.1245 16.2284 16.4013C16.264 16.4669 16.3125 16.5248 16.3709 16.5714C16.4292 16.618 16.4963 16.6525 16.5682 16.6728C16.6401 16.693 16.7154 16.6987 16.7895 16.6894C16.8636 16.6801 16.9351 16.6561 16.9998 16.6187C17.0645 16.5814 17.1211 16.5314 17.1661 16.4719C17.2112 16.4123 17.2439 16.3443 17.2622 16.2719C17.2806 16.1995 17.2843 16.1241 17.2731 16.0503C17.2618 15.9764 17.2359 15.9055 17.1969 15.8419ZM6.08413 7.73036C6.08413 6.95587 6.3138 6.19877 6.74408 5.55481C7.17436 4.91084 7.78594 4.40893 8.50148 4.11254C9.21702 3.81616 10.0044 3.73861 10.764 3.88971C11.5236 4.0408 12.2213 4.41376 12.769 4.9614C13.3166 5.50905 13.6896 6.2068 13.8407 6.96641C13.9918 7.72602 13.9142 8.51337 13.6178 9.22891C13.3215 9.94445 12.8195 10.556 12.1756 10.9863C11.5316 11.4166 10.7745 11.6463 10 11.6463C8.96181 11.6451 7.96643 11.2322 7.2323 10.4981C6.49817 9.76396 6.08524 8.76858 6.08413 7.73036Z" fill="var(--fill-0, #757575)"/>
</g>
</svg>
