<svg width="18" height="18" viewBox="0 0 18 18" fill="none" xmlns="http://www.w3.org/2000/svg">
<g id="Component 198">
<rect x="-347.5" y="-262.5" width="1759" height="883" rx="4.5" stroke="#8A38F5" stroke-dasharray="10 5"/>
<g id="Property 1=search-sheet-v2-1">
<g id="Frame 1171280067">
<g id="Frame 1171280065">
<g id="Frame 1171280197">
<g id="Frame 1171279841" filter="url(#filter1_d_3014_8006)">
<g id="Frame 1171280153">
<g id="search pane">
<rect x="-295.5" y="-14.5" width="325" height="47" rx="23.5" stroke="#01AFD1"/>
<g id="search">
<mask id="mask0_3014_8006" style="mask-type:alpha" maskUnits="userSpaceOnUse" x="0" y="0" width="18" height="18">
<rect id="Bounding box" width="18" height="18" fill="#D9D9D9"/>
</mask>
<g mask="url(#mask0_3014_8006)">
<path id="search_2" d="M14.7 15.75L9.975 11.025C9.6 11.325 9.16875 11.5625 8.68125 11.7375C8.19375 11.9125 7.675 12 7.125 12C5.7625 12 4.6095 11.5282 3.666 10.5848C2.722 9.64075 2.25 8.4875 2.25 7.125C2.25 5.7625 2.722 4.60925 3.666 3.66525C4.6095 2.72175 5.7625 2.25 7.125 2.25C8.4875 2.25 9.64075 2.72175 10.5848 3.66525C11.5282 4.60925 12 5.7625 12 7.125C12 7.675 11.9125 8.19375 11.7375 8.68125C11.5625 9.16875 11.325 9.6 11.025 9.975L15.75 14.7L14.7 15.75ZM7.125 10.5C8.0625 10.5 8.8595 10.172 9.516 9.516C10.172 8.8595 10.5 8.0625 10.5 7.125C10.5 6.1875 10.172 5.3905 9.516 4.734C8.8595 4.078 8.0625 3.75 7.125 3.75C6.1875 3.75 5.3905 4.078 4.734 4.734C4.078 5.3905 3.75 6.1875 3.75 7.125C3.75 8.0625 4.078 8.8595 4.734 9.516C5.3905 10.172 6.1875 10.5 7.125 10.5Z" fill="#015F74"/>
</g>
</g>
</g>
</g>
</g>
</g>
</g>
</g>
</g>
</g>
<defs>
<filter id="filter1_d_3014_8006" x="-316" y="-71" width="366" height="524" filterUnits="userSpaceOnUse" color-interpolation-filters="sRGB">
<feFlood flood-opacity="0" result="BackgroundImageFix"/>
<feColorMatrix in="SourceAlpha" type="matrix" values="0 0 0 0 0 0 0 0 0 0 0 0 0 0 0 0 0 0 127 0" result="hardAlpha"/>
<feOffset/>
<feGaussianBlur stdDeviation="2"/>
<feComposite in2="hardAlpha" operator="out"/>
<feColorMatrix type="matrix" values="0 0 0 0 0 0 0 0 0 0 0 0 0 0 0 0 0 0 0.12 0"/>
<feBlend mode="normal" in2="BackgroundImageFix" result="effect1_dropShadow_3014_8006"/>
<feBlend mode="normal" in="SourceGraphic" in2="effect1_dropShadow_3014_8006" result="shape"/>
</filter>
<linearGradient id="paint0_linear_3014_8006" x1="195" y1="0" x2="195" y2="844" gradientUnits="userSpaceOnUse">
<stop stop-color="white"/>
<stop offset="1"/>
</linearGradient>
</defs>
</svg>
